<svg width="50" height="50" viewBox="0 0 50 50" fill="none" xmlns="http://www.w3.org/2000/svg">
<path d="M29.9531 8.8562H35.7563C36.6287 8.86407 37.4632 9.22555 38.0801 9.86268C38.6971 10.4998 39.047 11.3617 39.0547 12.2628V23.5972L34.6769 19.0759M43.4928 19.0759L39.115 23.5972" stroke="black" stroke-linecap="round" stroke-linejoin="round"/>
<path d="M26.3098 10.4104C26.1286 10.2229 23.8028 7.19181 23.4102 6.69184C22.9873 6.19187 22.8061 6.28561 22.5342 6.31686C22.2624 6.34811 19.3325 6.87933 19.0003 6.91058C18.668 6.97308 18.4566 7.09807 18.668 7.41055C18.8493 7.69179 20.7824 10.5041 21.2052 11.1603L13.503 13.0665L7.40169 2.47332C7.16006 2.09834 7.09965 1.97335 6.55596 2.0046C6.01228 2.03585 1.75342 2.41083 1.45137 2.41083C1.14933 2.44207 0.817075 2.56707 1.11912 3.31703C1.42117 4.06698 6.25392 14.8164 6.37474 15.1289C6.49555 15.4414 6.85801 15.9413 7.67354 15.7538C8.51927 15.5351 11.4189 14.7539 13.0198 14.3164C13.8655 15.8788 15.557 19.0662 15.8892 19.5349C16.3121 20.1599 16.6141 20.0349 17.2484 19.8474C17.7619 19.6911 25.162 16.9413 25.4943 16.785C25.8265 16.6288 26.038 16.5351 25.7963 16.1913C25.6151 15.9413 23.682 13.2227 22.6551 11.8166C23.3498 11.6291 25.8568 10.9416 26.1286 10.8479C26.4306 10.7541 26.4911 10.5979 26.3098 10.4104ZM12.3251 13.379C12.2344 13.4102 7.91517 14.4727 7.70374 14.5352C7.4621 14.5977 7.4621 14.5664 7.4621 14.4727C7.40169 14.3789 2.32731 3.50452 2.23669 3.37952C2.17629 3.25453 2.17629 3.12954 2.23669 3.12954C2.2971 3.12954 6.31433 2.75456 6.43514 2.75456C6.58617 2.75456 6.55596 2.7858 6.61637 2.87955C6.61637 2.87955 12.2646 12.9727 12.3553 13.129C12.4761 13.2852 12.4157 13.3477 12.3251 13.379ZM24.4673 15.7226C24.5277 15.8476 24.6184 15.9101 24.3767 15.9726C24.1653 16.0663 17.0974 18.5349 16.9464 18.5974C16.7953 18.6599 16.7047 18.6912 16.5235 18.41C16.3423 18.1287 14.0467 14.0352 14.0467 14.0352L21.5677 12.0041C21.7489 11.9416 21.8093 11.9103 21.9301 12.0978C22.051 12.3165 24.4069 15.6289 24.4673 15.7226ZM24.9506 10.2229C24.7694 10.2541 22.0208 10.9729 22.0208 10.9729L19.7554 7.78553C19.695 7.69179 19.6346 7.59804 19.7856 7.56679C19.9366 7.53555 22.504 7.06682 22.6249 7.03557C22.7457 7.00432 22.8363 6.97308 22.9873 7.19181C23.1383 7.3793 25.0714 9.94166 25.162 10.0354C25.2527 10.1292 25.1318 10.1917 24.9506 10.2229Z" fill="#FB503B"/>
<mask id="mask0_1700_3043" style="mask-type:luminance" maskUnits="userSpaceOnUse" x="28" y="26" width="22" height="22">
<path d="M50 26H28V48H50V26Z" fill="white"/>
</mask>
<g mask="url(#mask0_1700_3043)">
<path d="M38.8675 26.0002C37.9702 26.0043 37.1134 26.0809 36.3594 26.2143C34.1384 26.6067 33.7352 27.4279 33.7352 28.9426V30.9429H38.9837V31.6096H33.7352H31.7654C30.2401 31.6096 28.9044 32.5264 28.4867 34.2706C28.0048 36.2698 27.9834 37.5173 28.4867 39.6048C28.8598 41.1586 29.7507 42.2657 31.2761 42.2657H33.0806V39.8677C33.0806 38.1354 34.5795 36.6073 36.3594 36.6073H41.6018C43.0611 36.6073 44.2261 35.4058 44.2261 33.9402V28.9426C44.2261 27.5202 43.0261 26.4517 41.6018 26.2143C40.7002 26.0642 39.7647 25.996 38.8675 26.0002ZM36.0291 27.609C36.5712 27.609 37.0139 28.059 37.0139 28.6122C37.0139 29.1635 36.5712 29.6093 36.0291 29.6093C35.485 29.6093 35.0442 29.1635 35.0442 28.6122C35.0442 28.0589 35.485 27.609 36.0291 27.609Z" fill="url(#paint0_linear_1700_3043)"/>
<path d="M44.8798 31.6097V33.9403C44.8798 35.7473 43.3479 37.268 41.601 37.268H36.3586C34.9227 37.268 33.7344 38.497 33.7344 39.9351V44.9328C33.7344 46.3552 34.9712 47.1918 36.3586 47.5999C38.02 48.0884 39.6132 48.1767 41.601 47.5999C42.9224 47.2173 44.2253 46.4474 44.2253 44.9328V42.9325H38.9829V42.2657H44.2253H46.8496C48.3749 42.2657 48.9433 41.2017 49.4738 39.6048C50.0218 37.9607 49.9985 36.3797 49.4738 34.2706C49.0969 32.7521 48.3769 31.6096 46.8496 31.6096L44.8798 31.6097ZM41.9314 44.2661C42.4755 44.2661 42.9162 44.7119 42.9162 45.2632C42.9162 45.8164 42.4755 46.2664 41.9314 46.2664C41.3893 46.2664 40.9466 45.8164 40.9466 45.2632C40.9465 44.7119 41.3892 44.2661 41.9314 44.2661Z" fill="url(#paint1_linear_1700_3043)"/>
</g>
<defs>
<linearGradient id="paint0_linear_1700_3043" x1="27.6028" y1="26.6257" x2="39.708" y2="36.9489" gradientUnits="userSpaceOnUse">
<stop stop-color="#5A9FD4"/>
<stop offset="1" stop-color="#306998"/>
</linearGradient>
<linearGradient id="paint1_linear_1700_3043" x1="44.2618" y1="43.366" x2="39.9208" y2="37.2782" gradientUnits="userSpaceOnUse">
<stop stop-color="#FFD43B"/>
<stop offset="1" stop-color="#FFE873"/>
</linearGradient>
</defs>
</svg>
