<svg width="50" height="50" viewBox="0 0 50 50" fill="none" xmlns="http://www.w3.org/2000/svg">
<g clip-path="url(#clip0_1700_3068)">
<mask id="mask0_1700_3068" style="mask-type:luminance" maskUnits="userSpaceOnUse" x="0" y="0" width="50" height="50">
<path d="M50 0H0V50H50V0Z" fill="white"/>
</mask>
<g mask="url(#mask0_1700_3068)">
<path d="M29.9531 8.8562H35.7563C36.6287 8.86407 37.4632 9.22555 38.0801 9.86268C38.6971 10.4998 39.047 11.3617 39.0547 12.2628V22.5972L34.6769 18.0759M43.4928 18.0759L39.115 22.5972" stroke="black" stroke-linecap="round" stroke-linejoin="round"/>
<path d="M6.36661 4.91797H1.8075L-0.203125 15.5737H2.14249L2.61176 12.803H4.82381C5.42901 12.8186 6.03071 12.7014 6.59111 12.4587C7.15152 12.216 7.65847 11.8531 8.08023 11.3928C8.50192 10.9324 8.82925 10.3846 9.04165 9.78376C9.25405 9.18295 9.34689 8.54206 9.31433 7.90136C9.38219 6.05501 8.37652 4.98913 6.36661 4.91797ZM4.62383 10.8159H3.15105L3.7546 6.83701H5.36238C6.23522 6.83701 6.83516 7.26321 6.83516 8.04521C6.76802 10.317 5.76306 10.672 4.62383 10.8159Z" fill="#35437C"/>
<path d="M9.32031 13.1148L11.3538 1.6394H13.7261L13.2515 4.62321H15.4887C17.5221 4.77648 18.2683 5.92435 17.9967 7.30048L17.114 13.1148H14.6081L15.4908 7.83609C15.6267 7.14721 15.6267 6.68822 14.7446 6.68822H12.8462L11.6919 13.0382L9.32031 13.1148Z" fill="#35437C"/>
<path d="M24.6791 4.91797H20.0563L18.0469 15.5737H20.3911L20.8601 12.803H23.0708C23.6757 12.8186 24.277 12.7014 24.837 12.4587C25.3971 12.216 25.9038 11.8531 26.3252 11.3928C26.7468 10.9324 27.0739 10.3846 27.2862 9.78376C27.4984 9.18295 27.5911 8.54206 27.5587 7.90136C27.6936 6.05501 26.6885 4.98913 24.6791 4.91797ZM22.9373 10.8159H21.4654L22.0686 6.83701H23.6747C24.5471 6.83701 25.1466 7.26321 25.1466 8.04521C25.0803 10.317 24.0766 10.672 22.9373 10.8159Z" fill="#35437C"/>
<mask id="mask1_1700_3068" style="mask-type:luminance" maskUnits="userSpaceOnUse" x="28" y="25" width="22" height="24">
<path d="M50 25H28V49H50V25Z" fill="white"/>
</mask>
<g mask="url(#mask1_1700_3068)">
<path d="M38.0127 25.3047C38.6109 24.9656 39.39 24.9641 39.9877 25.3047C42.9944 26.9876 46.0021 28.6679 49.0083 30.3518C49.5737 30.6673 49.9519 31.2906 49.9462 31.936V42.0609C49.9504 42.733 49.5348 43.3712 48.9382 43.6795C45.9414 45.3532 42.9461 47.0288 39.9498 48.7024C39.3392 49.0482 38.5445 49.0216 37.953 48.6475C37.0546 48.1315 36.1546 47.6182 35.256 47.1028C35.0724 46.9944 34.8655 46.9081 34.7358 46.7317C34.8504 46.5787 35.0553 46.5596 35.2218 46.4928C35.5969 46.3747 35.9413 46.1851 36.2859 46.0011C36.373 45.942 36.4793 45.9647 36.5629 46.0175C37.3311 46.4538 38.0926 46.9029 38.8635 47.335C39.028 47.4291 39.1945 47.3042 39.335 47.2266C42.2759 45.5802 45.2203 43.9401 48.1606 42.2932C48.2695 42.2413 48.3298 42.1267 48.3209 42.0085C48.323 38.6685 48.3214 35.3279 48.322 31.9879C48.3344 31.8538 48.2561 31.7304 48.1336 31.6755C45.1472 30.0096 42.1623 28.3411 39.1763 26.6747C39.1246 26.6395 39.0633 26.6206 39.0005 26.6205C38.9378 26.6204 38.8764 26.6391 38.8246 26.6742C35.8387 28.3411 32.8543 30.0111 29.8683 31.677C29.7463 31.732 29.6644 31.8533 29.679 31.9879C29.6795 35.3279 29.679 38.6685 29.679 42.009C29.6738 42.0667 29.6866 42.1245 29.7156 42.1748C29.7446 42.2251 29.7885 42.2653 29.8414 42.2901C30.6382 42.7377 31.436 43.1821 32.2333 43.6281C32.6825 43.8676 33.234 44.0099 33.7289 43.8264C34.1656 43.6713 34.4718 43.2298 34.4634 42.7705C34.4676 39.45 34.4614 36.129 34.4665 32.809C34.4556 32.6616 34.5968 32.5398 34.7415 32.5537C35.1243 32.5511 35.5077 32.5486 35.8905 32.5547C36.0504 32.5511 36.1603 32.7098 36.1406 32.8584C36.139 36.1999 36.1447 39.5415 36.138 42.883C36.139 43.7736 35.7697 44.7426 34.9381 45.1784C33.9136 45.7041 32.6473 45.5926 31.6352 45.0885C30.759 44.6553 29.9228 44.1441 29.0622 43.68C28.4641 43.3733 28.0506 42.7326 28.0548 42.061V31.936C28.0485 31.2773 28.4417 30.6426 29.0248 30.3317C32.0211 28.6567 35.0169 26.9805 38.0127 25.3047Z" fill="#8CC84B"/>
<path d="M40.6292 32.3184C41.936 32.2351 43.335 32.269 44.511 32.9067C45.4215 33.3954 45.9263 34.421 45.9423 35.423C45.9169 35.5581 45.7743 35.6327 45.644 35.6234C45.2649 35.6229 44.8856 35.6285 44.5065 35.6209C44.3456 35.627 44.2521 35.4801 44.232 35.3393C44.123 34.8598 43.8591 34.385 43.4035 34.1538C42.7042 33.807 41.8934 33.8244 41.1309 33.8317C40.5742 33.861 39.9756 33.9087 39.504 34.233C39.142 34.4786 39.032 34.9744 39.1612 35.3737C39.283 35.6604 39.6172 35.753 39.8906 35.8382C41.4655 36.2462 43.1343 36.2056 44.6792 36.7426C45.3187 36.9615 45.9444 37.387 46.1633 38.0503C46.4497 38.9393 46.3242 40.002 45.6856 40.7157C45.1678 41.303 44.4136 41.6227 43.6614 41.7963C42.6607 42.0173 41.6222 42.0229 40.6059 41.9248C39.6503 41.8169 38.6559 41.5682 37.9182 40.9233C37.2874 40.3807 36.9793 39.5353 37.0099 38.7194C37.0172 38.5816 37.1557 38.4856 37.2889 38.4969C37.6708 38.4938 38.0526 38.4928 38.4344 38.4974C38.5869 38.4866 38.7 38.6171 38.7078 38.7595C38.7783 39.2163 38.9516 39.6957 39.3537 39.9665C40.1297 40.4624 41.1034 40.4284 41.992 40.4423C42.7281 40.41 43.5545 40.4002 44.1552 39.9182C44.4722 39.6433 44.5661 39.1834 44.4804 38.7878C44.3876 38.4537 44.0349 38.2981 43.7319 38.1963C42.1772 37.7091 40.4897 37.8859 38.95 37.335C38.325 37.1162 37.7205 36.7025 37.4804 36.0664C37.1453 35.1661 37.2988 34.0526 38.0043 33.363C38.6922 32.677 39.6851 32.413 40.6292 32.3184Z" fill="#8CC84B"/>
</g>
</g>
</g>
<defs>
<clipPath id="clip0_1700_3068">
<rect width="50" height="50" fill="white"/>
</clipPath>
</defs>
</svg>
