<svg width="50" height="50" viewBox="0 0 50 50" fill="none" xmlns="http://www.w3.org/2000/svg">
<path d="M27.7812 7.21704H35.9655C36.8379 7.22491 37.6723 7.58639 38.2892 8.22352C38.9062 8.86065 39.2562 9.72253 39.2639 10.6236V23.958L34.8861 19.4367M43.702 19.4367L39.3242 23.958" stroke="black" stroke-linecap="round" stroke-linejoin="round"/>
<path d="M12 0C5.92545 0 1 4.92545 1 11C1 17.0746 5.92545 22 12 22C18.0746 22 23 17.0746 23 11C23 4.92545 18.0746 0 12 0ZM12 20.1339C6.9567 20.1339 2.86607 16.0433 2.86607 11C2.86607 5.9567 6.9567 1.86607 12 1.86607C17.0433 1.86607 21.1339 5.9567 21.1339 11C21.1339 16.0433 17.0433 20.1339 12 20.1339ZM17.3527 6.08683H16.1152C16.0071 6.08683 15.9187 6.17522 15.9187 6.28326V15.7167C15.9187 15.8248 16.0071 15.9132 16.1152 15.9132H17.3527C17.4607 15.9132 17.5491 15.8248 17.5491 15.7167V6.28326C17.5491 6.17522 17.4607 6.08683 17.3527 6.08683ZM10.4433 7.30469C11.6587 7.30469 12.4837 8.07813 12.5795 9.21004C12.5893 9.31317 12.6728 9.39174 12.7759 9.39174H14.0674C14.1263 9.39174 14.1754 9.34263 14.1754 9.28371C14.1754 7.28996 12.604 5.89286 10.4359 5.89286C7.90937 5.89286 6.45089 7.59933 6.45089 10.4205V11.6237C6.45089 14.4228 7.90937 16.1071 10.4359 16.1071C12.5967 16.1071 14.1754 14.7542 14.1754 12.8538C14.1754 12.7949 14.1263 12.7458 14.0674 12.7458H12.7734C12.6703 12.7458 12.5868 12.8243 12.577 12.925C12.4739 13.9808 11.6513 14.7027 10.4408 14.7027C8.94062 14.7027 8.09353 13.6002 8.09353 11.6286V10.4181C8.09598 8.41942 8.94308 7.30469 10.4433 7.30469Z" fill="black"/>
<path d="M49.3098 36.4104C49.1286 36.2229 46.8028 33.1918 46.4102 32.6918C45.9873 32.1919 45.8061 32.2856 45.5342 32.3169C45.2624 32.3481 42.3325 32.8793 42.0003 32.9106C41.668 32.9731 41.4566 33.0981 41.668 33.4106C41.8493 33.6918 43.7824 36.5041 44.2052 37.1603L36.503 39.0665L30.4017 28.4733C30.1601 28.0983 30.0996 27.9733 29.556 28.0046C29.0123 28.0358 24.7534 28.4108 24.4514 28.4108C24.1493 28.4421 23.8171 28.5671 24.1191 29.317C24.4212 30.067 29.2539 40.8164 29.3747 41.1289C29.4956 41.4414 29.858 41.9413 30.6735 41.7538C31.5193 41.5351 34.4189 40.7539 36.0198 40.3164C36.8655 41.8788 38.557 45.0662 38.8892 45.5349C39.3121 46.1599 39.6141 46.0349 40.2484 45.8474C40.7619 45.6911 48.162 42.9413 48.4943 42.785C48.8265 42.6288 49.038 42.5351 48.7963 42.1913C48.6151 41.9413 46.682 39.2227 45.6551 37.8166C46.3498 37.6291 48.8568 36.9416 49.1286 36.8479C49.4306 36.7541 49.4911 36.5979 49.3098 36.4104ZM35.3251 39.379C35.2344 39.4102 30.9152 40.4727 30.7037 40.5352C30.4621 40.5977 30.4621 40.5664 30.4621 40.4727C30.4017 40.3789 25.3273 29.5045 25.2367 29.3795C25.1763 29.2545 25.1763 29.1295 25.2367 29.1295C25.2971 29.1295 29.3143 28.7546 29.4351 28.7546C29.5862 28.7546 29.556 28.7858 29.6164 28.8795C29.6164 28.8795 35.2646 38.9727 35.3553 39.129C35.4761 39.2852 35.4157 39.3477 35.3251 39.379ZM47.4673 41.7226C47.5277 41.8476 47.6184 41.9101 47.3767 41.9726C47.1653 42.0663 40.0974 44.5349 39.9464 44.5974C39.7953 44.6599 39.7047 44.6912 39.5235 44.41C39.3423 44.1287 37.0467 40.0352 37.0467 40.0352L44.5677 38.0041C44.7489 37.9416 44.8093 37.9103 44.9301 38.0978C45.051 38.3165 47.4069 41.6289 47.4673 41.7226ZM47.9506 36.2229C47.7694 36.2541 45.0208 36.9729 45.0208 36.9729L42.7554 33.7855C42.695 33.6918 42.6346 33.598 42.7856 33.5668C42.9366 33.5355 45.504 33.0668 45.6249 33.0356C45.7457 33.0043 45.8363 32.9731 45.9873 33.1918C46.1383 33.3793 48.0714 35.9417 48.162 36.0354C48.2527 36.1292 48.1318 36.1917 47.9506 36.2229Z" fill="#FB503B"/>
</svg>
