<svg width="50" height="50" viewBox="0 0 50 50" fill="none" xmlns="http://www.w3.org/2000/svg">
<path d="M27.7812 7.21704H35.9655C36.8379 7.22491 37.6723 7.58639 38.2892 8.22352C38.9062 8.86065 39.2562 9.72253 39.2639 10.6236V21.958L34.8861 17.4367M43.702 17.4367L39.3242 21.958" stroke="black" stroke-linecap="round" stroke-linejoin="round"/>
<mask id="mask0_1700_3028" style="mask-type:luminance" maskUnits="userSpaceOnUse" x="28" y="25" width="22" height="24">
<path d="M50 25H28V49H50V25Z" fill="white"/>
</mask>
<g mask="url(#mask0_1700_3028)">
<path d="M38.0127 25.3047C38.6109 24.9656 39.39 24.9641 39.9877 25.3047C42.9944 26.9876 46.0021 28.6679 49.0083 30.3518C49.5737 30.6673 49.9519 31.2906 49.9462 31.936V42.0609C49.9504 42.733 49.5348 43.3712 48.9382 43.6795C45.9414 45.3532 42.9461 47.0288 39.9498 48.7024C39.3392 49.0482 38.5445 49.0216 37.953 48.6475C37.0546 48.1315 36.1546 47.6182 35.256 47.1028C35.0724 46.9944 34.8655 46.9081 34.7358 46.7317C34.8504 46.5787 35.0553 46.5596 35.2218 46.4928C35.5969 46.3747 35.9413 46.1851 36.2859 46.0011C36.373 45.942 36.4793 45.9647 36.5629 46.0175C37.3311 46.4538 38.0926 46.9029 38.8635 47.335C39.028 47.4291 39.1945 47.3042 39.335 47.2266C42.2759 45.5802 45.2203 43.9401 48.1606 42.2932C48.2695 42.2413 48.3298 42.1267 48.3209 42.0085C48.323 38.6685 48.3214 35.3279 48.322 31.9879C48.3344 31.8538 48.2561 31.7304 48.1336 31.6755C45.1472 30.0096 42.1623 28.3411 39.1763 26.6747C39.1246 26.6395 39.0633 26.6206 39.0005 26.6205C38.9378 26.6204 38.8764 26.6391 38.8246 26.6742C35.8387 28.3411 32.8543 30.0111 29.8683 31.677C29.7463 31.732 29.6644 31.8533 29.679 31.9879C29.6795 35.3279 29.679 38.6685 29.679 42.009C29.6738 42.0667 29.6866 42.1245 29.7156 42.1748C29.7446 42.2251 29.7885 42.2653 29.8414 42.2901C30.6382 42.7377 31.436 43.1821 32.2333 43.6281C32.6825 43.8676 33.234 44.0099 33.7289 43.8264C34.1656 43.6713 34.4718 43.2298 34.4634 42.7705C34.4676 39.45 34.4614 36.129 34.4665 32.809C34.4556 32.6616 34.5968 32.5398 34.7415 32.5537C35.1243 32.5511 35.5077 32.5486 35.8905 32.5547C36.0504 32.5511 36.1603 32.7098 36.1406 32.8584C36.139 36.1999 36.1447 39.5415 36.138 42.883C36.139 43.7736 35.7697 44.7426 34.9381 45.1784C33.9136 45.7041 32.6473 45.5926 31.6352 45.0885C30.759 44.6553 29.9228 44.1441 29.0622 43.68C28.4641 43.3733 28.0506 42.7326 28.0548 42.061V31.936C28.0485 31.2773 28.4417 30.6426 29.0248 30.3317C32.0211 28.6567 35.0169 26.9805 38.0127 25.3047Z" fill="#8CC84B"/>
<path d="M40.6292 32.3184C41.936 32.2351 43.335 32.269 44.511 32.9067C45.4215 33.3954 45.9263 34.421 45.9423 35.423C45.9169 35.5581 45.7743 35.6327 45.644 35.6234C45.2649 35.6229 44.8856 35.6285 44.5065 35.6209C44.3456 35.627 44.2521 35.4801 44.232 35.3393C44.123 34.8598 43.8591 34.385 43.4035 34.1538C42.7042 33.807 41.8934 33.8244 41.1309 33.8317C40.5742 33.861 39.9756 33.9087 39.504 34.233C39.142 34.4786 39.032 34.9744 39.1612 35.3737C39.283 35.6604 39.6172 35.753 39.8906 35.8382C41.4655 36.2462 43.1343 36.2056 44.6792 36.7426C45.3187 36.9615 45.9444 37.387 46.1633 38.0503C46.4497 38.9393 46.3242 40.002 45.6856 40.7157C45.1678 41.303 44.4136 41.6227 43.6614 41.7963C42.6607 42.0173 41.6222 42.0229 40.6059 41.9248C39.6503 41.8169 38.6559 41.5682 37.9182 40.9233C37.2874 40.3807 36.9793 39.5353 37.0099 38.7194C37.0172 38.5816 37.1557 38.4856 37.2889 38.4969C37.6708 38.4938 38.0526 38.4928 38.4344 38.4974C38.5869 38.4866 38.7 38.6171 38.7078 38.7595C38.7783 39.2163 38.9516 39.6957 39.3537 39.9665C40.1297 40.4624 41.1034 40.4284 41.992 40.4423C42.7281 40.41 43.5545 40.4002 44.1552 39.9182C44.4722 39.6433 44.5661 39.1834 44.4804 38.7878C44.3876 38.4537 44.0349 38.2981 43.7319 38.1963C42.1772 37.7091 40.4897 37.8859 38.95 37.335C38.325 37.1162 37.7205 36.7025 37.4804 36.0664C37.1453 35.1661 37.2988 34.0526 38.0043 33.363C38.6922 32.677 39.6851 32.413 40.6292 32.3184Z" fill="#8CC84B"/>
</g>
<path d="M26.3098 9.41039C26.1286 9.2229 23.8028 6.19181 23.4102 5.69184C22.9873 5.19187 22.8061 5.28561 22.5342 5.31686C22.2624 5.34811 19.3325 5.87933 19.0003 5.91058C18.668 5.97308 18.4566 6.09807 18.668 6.41055C18.8493 6.69179 20.7824 9.50413 21.2052 10.1603L13.503 12.0665L7.40169 1.47332C7.16006 1.09834 7.09965 0.973347 6.55596 1.0046C6.01228 1.03585 1.75342 1.41083 1.45137 1.41083C1.14933 1.44207 0.817075 1.56707 1.11912 2.31703C1.42117 3.06698 6.25392 13.8164 6.37474 14.1289C6.49555 14.4414 6.85801 14.9413 7.67354 14.7538C8.51927 14.5351 11.4189 13.7539 13.0198 13.3164C13.8655 14.8788 15.557 18.0662 15.8892 18.5349C16.3121 19.1599 16.6141 19.0349 17.2484 18.8474C17.7619 18.6911 25.162 15.9413 25.4943 15.785C25.8265 15.6288 26.038 15.5351 25.7963 15.1913C25.6151 14.9413 23.682 12.2227 22.6551 10.8166C23.3498 10.6291 25.8568 9.94161 26.1286 9.84786C26.4306 9.75412 26.4911 9.59788 26.3098 9.41039ZM12.3251 12.379C12.2344 12.4102 7.91517 13.4727 7.70374 13.5352C7.4621 13.5977 7.4621 13.5664 7.4621 13.4727C7.40169 13.3789 2.32731 2.50452 2.23669 2.37952C2.17629 2.25453 2.17629 2.12954 2.23669 2.12954C2.2971 2.12954 6.31433 1.75456 6.43514 1.75456C6.58617 1.75456 6.55596 1.7858 6.61637 1.87955C6.61637 1.87955 12.2646 11.9727 12.3553 12.129C12.4761 12.2852 12.4157 12.3477 12.3251 12.379ZM24.4673 14.7226C24.5277 14.8476 24.6184 14.9101 24.3767 14.9726C24.1653 15.0663 17.0974 17.5349 16.9464 17.5974C16.7953 17.6599 16.7047 17.6912 16.5235 17.41C16.3423 17.1287 14.0467 13.0352 14.0467 13.0352L21.5677 11.0041C21.7489 10.9416 21.8093 10.9103 21.9301 11.0978C22.051 11.3165 24.4069 14.6289 24.4673 14.7226ZM24.9506 9.2229C24.7694 9.25415 22.0208 9.97286 22.0208 9.97286L19.7554 6.78553C19.695 6.69179 19.6346 6.59804 19.7856 6.56679C19.9366 6.53555 22.504 6.06682 22.6249 6.03557C22.7457 6.00432 22.8363 5.97308 22.9873 6.19181C23.1383 6.3793 25.0714 8.94166 25.162 9.03541C25.2527 9.12915 25.1318 9.19165 24.9506 9.2229Z" fill="#FB503B"/>
</svg>
