<svg width="50" height="50" viewBox="0 0 50 50" fill="none" xmlns="http://www.w3.org/2000/svg">
<g clip-path="url(#clip0_1700_2963)">
<path d="M30.9531 8.8562H36.7563C37.6287 8.86407 38.4632 9.22555 39.0801 9.86268C39.6971 10.4998 40.047 11.3617 40.0547 12.2628V23.5972L35.6769 19.0759M44.4928 19.0759L40.115 23.5972" stroke="black" stroke-linecap="round" stroke-linejoin="round"/>
<path d="M7.36661 4.91797H2.8075L0.796875 15.5737H3.14249L3.61176 12.803H5.82381C6.42901 12.8186 7.03071 12.7014 7.59111 12.4587C8.15152 12.216 8.65847 11.8531 9.08023 11.3928C9.50192 10.9324 9.82925 10.3846 10.0417 9.78376C10.254 9.18295 10.3469 8.54206 10.3143 7.90136C10.3822 6.05501 9.37652 4.98913 7.36661 4.91797ZM5.62383 10.8159H4.15105L4.7546 6.83701H6.36238C7.23522 6.83701 7.83516 7.26321 7.83516 8.04521C7.76802 10.317 6.76306 10.672 5.62383 10.8159Z" fill="#35437C"/>
<path d="M10.3203 13.1148L12.3538 1.6394H14.7261L14.2515 4.62321H16.4887C18.5221 4.77648 19.2683 5.92435 18.9967 7.30048L18.114 13.1148H15.6081L16.4908 7.83609C16.6267 7.14721 16.6267 6.68822 15.7446 6.68822H13.8462L12.6919 13.0382L10.3203 13.1148Z" fill="#35437C"/>
<path d="M25.6791 4.91797H21.0563L19.0469 15.5737H21.3911L21.8601 12.803H24.0708C24.6757 12.8186 25.277 12.7014 25.837 12.4587C26.3971 12.216 26.9038 11.8531 27.3252 11.3928C27.7468 10.9324 28.0739 10.3846 28.2862 9.78376C28.4984 9.18295 28.5911 8.54206 28.5587 7.90136C28.6936 6.05501 27.6885 4.98913 25.6791 4.91797ZM23.9373 10.8159H22.4654L23.0686 6.83701H24.6747C25.5471 6.83701 26.1466 7.26321 26.1466 8.04521C26.0803 10.317 25.0766 10.672 23.9373 10.8159Z" fill="#35437C"/>
<path d="M49.8797 36.8121C49.6657 36.5934 46.92 33.0571 46.4565 32.4738C45.9572 31.8905 45.7433 31.9999 45.4224 32.0363C45.1014 32.0728 41.6426 32.6926 41.2503 32.729C40.8581 32.8019 40.6085 32.9477 40.8581 33.3123C41.0721 33.6404 43.3542 36.9215 43.8534 37.6871L34.7605 39.9109L27.5576 27.5522C27.2723 27.1147 27.201 26.9689 26.5591 27.0054C25.9173 27.0418 20.8895 27.4793 20.5329 27.4793C20.1763 27.5158 19.784 27.6616 20.1406 28.5365C20.4972 29.4115 26.2025 41.9525 26.3452 42.317C26.4878 42.6816 26.9157 43.2649 27.8785 43.0462C28.8769 42.791 32.3001 41.8796 34.19 41.3692C35.1884 43.192 37.1853 46.9105 37.5775 47.4574C38.0768 48.1865 38.4333 48.0407 39.1822 47.8219C39.7884 47.6397 48.5246 44.4315 48.9169 44.2492C49.3091 44.0669 49.5587 43.9576 49.2735 43.5565C49.0595 43.2649 46.7774 40.0932 45.565 38.4527C46.3851 38.2339 49.3448 37.4319 49.6657 37.3225C50.0223 37.2131 50.0936 37.0309 49.8797 36.8121ZM33.3699 40.2755C33.2629 40.3119 28.1637 41.5514 27.9141 41.6244C27.6289 41.6973 27.6289 41.6608 27.6289 41.5514C27.5576 41.4421 21.567 28.7553 21.46 28.6094C21.3887 28.4636 21.3887 28.3178 21.46 28.3178C21.5313 28.3178 26.2739 27.8803 26.4165 27.8803C26.5948 27.8803 26.5591 27.9168 26.6304 28.0261C26.6304 28.0261 33.2985 39.8015 33.4055 39.9838C33.5482 40.1661 33.4768 40.239 33.3699 40.2755ZM47.7045 43.0097C47.7758 43.1555 47.8828 43.2284 47.5975 43.3013C47.3479 43.4107 39.0039 46.2908 38.8256 46.3637C38.6473 46.4366 38.5403 46.473 38.3264 46.1449C38.1124 45.8168 35.4024 41.0411 35.4024 41.0411L44.2813 38.6714C44.4952 38.5985 44.5666 38.562 44.7092 38.7808C44.8518 39.036 47.6332 42.9003 47.7045 43.0097ZM48.275 36.5934C48.0611 36.6298 44.8162 37.4683 44.8162 37.4683L42.1418 33.7498C42.0705 33.6404 41.9992 33.531 42.1775 33.4946C42.3558 33.4581 45.3867 32.9113 45.5293 32.8748C45.672 32.8384 45.7789 32.8019 45.9572 33.0571C46.1355 33.2759 48.4177 36.2653 48.5246 36.3746C48.6316 36.484 48.489 36.5569 48.275 36.5934Z" fill="#FB503B"/>
</g>
<defs>
<clipPath id="clip0_1700_2963">
<rect width="50" height="50" fill="white"/>
</clipPath>
</defs>
</svg>
