<svg width="155" height="67" viewBox="0 0 155 67" fill="none" xmlns="http://www.w3.org/2000/svg">
<path d="M32.8045 34.0795V31.2295H36.7094C37.5812 31.2295 38.2992 31.0537 38.8487 30.6947C39.3982 30.3211 39.7938 29.8375 40.0356 29.2441C40.292 28.6507 40.4239 27.9913 40.4239 27.266C40.4239 26.3136 40.1601 25.6396 39.6253 25.2366C39.1051 24.8337 38.4164 24.6359 37.5593 24.6359H32.8045V21.7127H37.5886C39.596 21.7127 41.1492 22.1889 42.2481 23.1413C43.3471 24.0717 43.8965 25.4271 43.8965 27.2001C43.8965 28.1012 43.75 28.973 43.4569 29.8082C43.1639 30.6288 42.7316 31.3614 42.1455 32.0061C41.5594 32.6508 40.8268 33.1564 39.933 33.53C39.0465 33.9036 37.9915 34.0868 36.7754 34.0868H32.7972L32.8045 34.0795ZM30.9143 39.1053V21.7127H34.365V39.1053H30.9143Z" fill="#240253"/>
<path d="M52.1099 39.3989C50.0878 39.3989 48.5566 39.0692 47.5236 38.4099C46.5053 37.7505 45.9924 36.6809 45.9924 35.1936C45.9924 34.2412 46.2269 33.4646 46.6958 32.8492C47.1793 32.2338 47.8533 31.7869 48.7105 31.4938C49.5823 31.1861 50.586 31.0323 51.7216 31.0323C52.4176 31.0323 53.0257 31.0909 53.5385 31.2008C54.0587 31.296 54.5276 31.3986 54.9452 31.5158V33.6917C54.6228 33.5818 54.2052 33.4793 53.707 33.3987C53.2088 33.3034 52.718 33.2522 52.2491 33.2522C51.1941 33.2522 50.4102 33.3987 49.8974 33.6844C49.3992 33.9775 49.1427 34.4683 49.1427 35.157C49.1427 35.8457 49.3918 36.2926 49.8974 36.5856C50.4029 36.8787 51.1208 37.0179 52.0586 37.0179C52.6227 37.0179 53.1649 36.9666 53.6851 36.8714C54.2199 36.7615 54.6888 36.593 55.0917 36.3658L54.6082 37.3109C54.5422 37.1204 54.4836 36.9226 54.4397 36.7322C54.3884 36.5417 54.3518 36.3365 54.3151 36.1314C54.3005 35.9189 54.2858 35.6918 54.2638 35.4281V31.1275C54.2638 30.307 54.132 29.6842 53.8755 29.2666C53.6191 28.849 53.2382 28.5706 52.7326 28.4461C52.2344 28.2996 51.6044 28.2263 50.8644 28.2263C50.1831 28.2263 49.531 28.2996 48.901 28.4461C48.2709 28.578 47.7581 28.7245 47.3698 28.9077H47.128V26.2262C47.7141 26.0138 48.3662 25.8672 49.0915 25.7647C49.8168 25.6548 50.5494 25.5962 51.2747 25.5962C52.1832 25.5962 53.011 25.6768 53.773 25.8379C54.5496 25.9991 55.2236 26.2775 55.7877 26.6805C56.3518 27.0834 56.7914 27.6549 57.0991 28.3948C57.4215 29.1201 57.5827 30.0652 57.5827 31.2228V35.5453C57.5973 36.0435 57.6266 36.5343 57.6559 37.0179C57.6852 37.5014 57.7365 37.8897 57.8024 38.1754L57.7292 38.3659C57.1797 38.5784 56.5789 38.7615 55.9342 38.9227C55.3042 39.0692 54.6595 39.1791 53.9928 39.2597C53.3261 39.3403 52.696 39.3769 52.1026 39.3769L52.1099 39.3989Z" fill="#240253"/>
<path d="M62.6596 44.7097V44.4167L65.8612 36.7607L69.8174 25.9104H73.2681V26.2035L66.0371 44.7097H62.6596ZM65.0627 40.0941L59.7438 26.2035V25.9104H63.363L66.9089 36.4456L65.0627 40.0941Z" fill="#240253"/>
<path d="M75.979 39.1059V30.8711C75.979 30.5487 75.9716 30.1385 75.957 29.6403C75.9423 29.1274 75.913 28.6293 75.8837 28.1457C75.8691 27.6475 75.8178 27.2519 75.7372 26.9589L75.8104 26.7684C76.294 26.5559 76.8728 26.3727 77.5321 26.2116C78.1988 26.0357 78.8875 25.8892 79.5981 25.7793C80.3234 25.6694 81.0195 25.6108 81.6861 25.6108C82.4481 25.6108 83.1807 25.6987 83.8987 25.8746C84.624 26.0357 85.276 26.3361 85.8402 26.7684C86.4263 27.2006 86.8805 27.8087 87.2248 28.578C87.5618 29.3326 87.7377 30.307 87.7377 31.5012V39.1132H84.3383V31.6477C84.3383 30.7612 84.2064 30.0872 83.95 29.6183C83.7082 29.1348 83.3565 28.8051 82.9096 28.6293C82.4701 28.4388 81.9645 28.3362 81.3784 28.3362C80.8949 28.3362 80.3967 28.3948 79.8985 28.5047C79.415 28.6146 78.9827 28.7465 78.6091 28.893L79.1219 28.0505C79.2025 28.2922 79.2685 28.6073 79.3197 28.9956C79.371 29.3839 79.393 29.8234 79.393 30.3216V39.1132H75.9936L75.979 39.1059ZM92.4631 39.1059V31.6404C92.4631 30.7539 92.3386 30.0799 92.0968 29.611C91.8697 29.1274 91.5254 28.7978 91.0565 28.6219C90.6023 28.4314 90.0528 28.3289 89.4081 28.3289C89.0051 28.3289 88.5875 28.3802 88.1699 28.4754C87.767 28.556 87.3714 28.6659 86.9831 28.8124L85.1368 26.6365C85.8621 26.3288 86.6314 26.0797 87.4446 25.8892C88.2725 25.6987 89.0857 25.5962 89.8989 25.5962C90.7122 25.5962 91.4228 25.6768 92.1335 25.8379C92.8441 25.9991 93.4888 26.2995 94.053 26.7317C94.6171 27.1493 95.064 27.7428 95.3863 28.5194C95.7087 29.274 95.8699 30.2703 95.8699 31.4938V39.1059H92.4705H92.4631Z" fill="#240253"/>
<path d="M107.123 39.3471C105.907 39.3471 104.822 39.2079 103.87 38.9368C102.918 38.6657 102.104 38.2555 101.445 37.706C100.778 37.1419 100.273 36.4239 99.9137 35.5594C99.5767 34.6876 99.4009 33.6619 99.4009 32.4677C99.4009 31.0537 99.6646 29.8375 100.199 28.8192C100.734 27.7862 101.489 27.0023 102.456 26.4528C103.445 25.8887 104.595 25.6103 105.907 25.6103C107.379 25.6103 108.573 25.918 109.497 26.526C110.42 27.1195 111.079 27.962 111.489 29.039C111.892 30.1013 112.061 31.3248 112.002 32.7095L111.98 33.508H101.591V31.2881H108.683V31.1416C108.683 30.1599 108.449 29.4126 107.98 28.8924C107.526 28.3796 106.83 28.1159 105.892 28.1159C105.306 28.1159 104.786 28.2477 104.317 28.5041C103.863 28.7459 103.496 29.1635 103.225 29.7569C102.969 30.3504 102.837 31.1636 102.837 32.1966V32.7021C102.837 33.7205 103.035 34.5117 103.423 35.0905C103.811 35.6546 104.346 36.0576 105.027 36.2993C105.709 36.5411 106.493 36.6583 107.379 36.6583C108.17 36.6583 108.866 36.5851 109.467 36.4385C110.068 36.292 110.537 36.1235 110.874 35.933H111.116V38.6657C110.661 38.8562 110.105 39.0174 109.438 39.1493C108.793 39.2811 108.024 39.3398 107.13 39.3398L107.123 39.3471Z" fill="#240253"/>
<path d="M115.687 39.1053V30.8705C115.687 30.5482 115.68 30.1379 115.665 29.6397C115.65 29.1269 115.621 28.6287 115.592 28.1452C115.577 27.647 115.526 27.2513 115.445 26.9583L115.518 26.7678C116.002 26.5554 116.581 26.3722 117.24 26.211C117.921 26.0352 118.617 25.8887 119.328 25.7788C120.053 25.6689 120.742 25.6103 121.394 25.6103C122.222 25.6103 123.006 25.6982 123.746 25.874C124.508 26.0352 125.189 26.3356 125.782 26.7678C126.383 27.2001 126.852 27.8081 127.189 28.5774C127.526 29.332 127.702 30.3064 127.702 31.5006V39.1126H124.303V31.6471C124.303 30.7607 124.171 30.0866 123.914 29.6177C123.658 29.1342 123.284 28.8045 122.801 28.6287C122.317 28.4382 121.738 28.3356 121.079 28.3356C120.595 28.3356 120.097 28.3943 119.599 28.5041C119.116 28.614 118.683 28.7459 118.31 28.8924L118.822 28.0499C118.903 28.2917 118.969 28.6067 119.013 28.995C119.064 29.3833 119.086 29.8229 119.086 30.3211V39.1126H115.687V39.1053Z" fill="#240253"/>
<path d="M137.659 39.2951C136.509 39.2951 135.535 39.1266 134.721 38.7896C133.93 38.4525 133.322 37.9324 132.897 37.2437C132.494 36.5331 132.289 35.6246 132.289 34.511V22.5032H135.688V34.2472C135.688 35.0678 135.879 35.6539 136.275 36.0129C136.663 36.3645 137.264 36.5477 138.07 36.5477C138.377 36.5477 138.678 36.5184 138.971 36.4525C139.278 36.3865 139.542 36.3059 139.769 36.2107H139.989V38.9141C139.696 39.024 139.359 39.1119 138.971 39.1778C138.582 39.2584 138.143 39.2951 137.659 39.2951ZM130.179 28.6206V25.9172H139.308V28.6206H130.179Z" fill="#240253"/>
<path d="M142.289 35.771H142.487C143.073 36.0128 143.747 36.2252 144.524 36.4011C145.315 36.5769 146.106 36.6648 146.905 36.6648C147.176 36.6648 147.476 36.6575 147.806 36.6428C148.128 36.6135 148.429 36.5549 148.707 36.4743C149 36.3937 149.235 36.2472 149.41 36.0421C149.608 35.8296 149.703 35.5512 149.703 35.1996C149.703 34.7453 149.52 34.4376 149.147 34.2545C148.773 34.0786 148.202 33.9248 147.425 33.7929L146.282 33.6024C144.985 33.3753 143.989 32.987 143.293 32.4449C142.597 31.8807 142.253 31.0529 142.253 29.9539C142.253 29.1627 142.465 28.4447 142.883 27.8073C143.322 27.1626 143.989 26.6571 144.897 26.2834C145.82 25.8951 147.022 25.7047 148.517 25.7047C149.213 25.7047 149.85 25.7559 150.436 25.8512C151.037 25.9318 151.601 26.049 152.136 26.2102V28.9868H151.938C151.323 28.7451 150.729 28.5766 150.165 28.4813C149.601 28.3861 149.015 28.3348 148.414 28.3348C147.506 28.3348 146.795 28.4447 146.275 28.6718C145.769 28.8843 145.52 29.2579 145.52 29.8074C145.52 30.225 145.703 30.5254 146.077 30.7012C146.465 30.877 147.022 31.0309 147.755 31.1628L148.868 31.3532C149.63 31.4631 150.319 31.6683 150.934 31.954C151.564 32.2471 152.07 32.65 152.436 33.1628C152.81 33.661 152.993 34.3057 152.993 35.097C152.993 36.4963 152.465 37.5513 151.418 38.262C150.385 38.958 148.81 39.3023 146.707 39.3023C145.93 39.3023 145.154 39.2364 144.377 39.1118C143.601 38.9799 142.905 38.8188 142.289 38.6283V35.7783V35.771Z" fill="#240253"/>
<path d="M44.2264 10.1756C44.2264 8.35864 44.5708 6.77616 45.2668 5.44277C45.9774 4.0874 47.0251 3.03974 48.3951 2.29978C49.7871 1.55983 51.4941 1.18618 53.5162 1.18618C54.3441 1.18618 55.0767 1.25212 55.7287 1.37667C56.3954 1.50854 56.9449 1.67705 57.3772 1.88218V4.9226H57.1354C56.7178 4.68083 56.205 4.49768 55.6042 4.3658C55.0034 4.21928 54.3661 4.14601 53.6847 4.14601C52.388 4.14601 51.3037 4.38045 50.4318 4.84934C49.56 5.31822 48.8933 5.99957 48.4391 6.9007C47.9848 7.78719 47.7577 8.87148 47.7577 10.1609C47.7577 11.4503 47.9848 12.542 48.4391 13.4431C48.8933 14.3296 49.5527 15.0036 50.4318 15.4725C51.3037 15.9414 52.388 16.1758 53.6847 16.1758C54.3661 16.1758 55.0034 16.1099 55.6042 15.9853C56.205 15.8388 56.7105 15.6483 57.1354 15.4065H57.3772V18.447C56.9376 18.6594 56.3881 18.8279 55.7287 18.9525C55.084 19.0844 54.3441 19.143 53.5162 19.143C51.4941 19.143 49.7871 18.784 48.3951 18.0587C47.0178 17.3334 45.9774 16.3004 45.2668 14.967C44.5708 13.6116 44.2264 12.0145 44.2264 10.1609V10.1756Z" fill="#240253"/>
<path d="M66.5352 19.1627C64.5131 19.1627 62.9819 18.833 61.9489 18.1737C60.9306 17.5143 60.4177 16.4447 60.4177 14.9574C60.4177 14.005 60.6522 13.2284 61.121 12.613C61.6046 11.9976 62.2786 11.5507 63.1358 11.2576C64.0076 10.9499 65.0113 10.7961 66.1469 10.7961C66.8429 10.7961 67.451 10.8547 67.9712 10.9646C68.4913 11.0598 68.9602 11.1697 69.3778 11.2796V13.4555C69.0554 13.3456 68.6378 13.2431 68.1397 13.1625C67.6341 13.0672 67.1506 13.016 66.6817 13.016C65.6267 13.016 64.8428 13.1625 64.33 13.4482C63.8245 13.7413 63.5754 14.2321 63.5754 14.9208C63.5754 15.6095 63.8245 16.0564 64.33 16.3494C64.8282 16.6425 65.5535 16.7817 66.4912 16.7817C67.0554 16.7817 67.5975 16.7304 68.1177 16.6352C68.6525 16.5253 69.1214 16.3568 69.5243 16.1296L69.0408 17.0747C68.9749 16.8842 68.9162 16.6864 68.8723 16.496C68.821 16.3055 68.7844 16.1003 68.7477 15.8952C68.7331 15.6827 68.7184 15.4556 68.6965 15.1919V10.8913C68.6965 10.0708 68.5646 9.44804 68.3082 9.03044C68.0517 8.61284 67.6708 8.33444 67.1653 8.2099C66.6597 8.06337 66.037 7.99011 65.297 7.99011C64.6157 7.99011 63.9637 8.06337 63.3336 8.2099C62.7035 8.34177 62.1907 8.4883 61.8024 8.67145H61.5606V5.99002C62.1467 5.77756 62.7988 5.63104 63.5241 5.52847C64.2494 5.41857 64.982 5.35996 65.7073 5.35996C66.6158 5.35996 67.4437 5.44055 68.2056 5.60173C68.9822 5.76291 69.6562 6.04131 70.2203 6.44426C70.7845 6.8472 71.224 7.41866 71.5317 8.15861C71.8541 8.88392 72.0153 9.82901 72.0153 10.9866V15.3091C72.0299 15.8073 72.0519 16.2981 72.0885 16.7817C72.1178 17.2652 72.1691 17.6535 72.2351 17.9392L72.1618 18.1297C71.6123 18.3422 71.0116 18.5253 70.3669 18.6865C69.7368 18.833 69.0847 18.9429 68.4254 19.0235C67.7587 19.1041 67.1286 19.1407 66.5352 19.1407V19.1627Z" fill="#240253"/>
<path d="M75.5468 15.5362H75.7446C76.3307 15.778 77.0047 15.9905 77.7813 16.1663C78.5725 16.3421 79.3638 16.43 80.1623 16.43C80.4334 16.43 80.7338 16.4227 81.0635 16.4081C81.3858 16.3787 81.6862 16.3201 81.9646 16.2395C82.2577 16.159 82.4921 16.0124 82.6679 15.8073C82.8657 15.5948 82.961 15.3164 82.961 14.9648C82.961 14.5105 82.7778 14.2028 82.4042 14.0197C82.0305 13.8438 81.4591 13.69 80.6825 13.5581L79.5396 13.3676C78.2428 13.1405 77.2465 12.7522 76.5505 12.2101C75.8545 11.646 75.5101 10.8181 75.5101 9.71913C75.5101 8.92789 75.7226 8.20991 76.1402 7.57252C76.5798 6.92781 77.2465 6.42229 78.1549 6.04865C79.078 5.66036 80.2796 5.46987 81.7741 5.46987C82.4701 5.46987 83.1075 5.52116 83.6936 5.6164C84.2944 5.69699 84.8585 5.82154 85.3933 5.97539V8.75206H85.1955C84.5801 8.51029 83.9867 8.34179 83.4225 8.24654C82.8584 8.1513 82.2723 8.10002 81.6716 8.10002C80.7631 8.10002 80.0524 8.20991 79.5323 8.43703C79.0268 8.64949 78.7777 9.02313 78.7777 9.57261C78.7777 9.99021 78.9608 10.2906 79.3345 10.4664C79.7228 10.6422 80.2796 10.7961 81.0122 10.928L82.1258 11.1185C82.8877 11.2284 83.5764 11.4335 84.1918 11.7192C84.8219 12.0123 85.3274 12.4152 85.6937 12.9281C86.0673 13.4262 86.2505 14.071 86.2505 14.8622C86.2505 16.2615 85.723 17.3165 84.6753 18.0272C83.6423 18.7232 82.0672 19.0675 79.9645 19.0675C79.1879 19.0675 78.4113 19.0016 77.6348 18.877C76.8582 18.7451 76.1622 18.584 75.5468 18.3935V15.5435V15.5362Z" fill="#240253"/>
<path d="M89.6196 18.8693V4.59029C89.6196 4.26793 89.6122 3.85765 89.5976 3.35947C89.5829 2.84662 89.5536 2.34844 89.5243 1.8649C89.5097 1.38136 89.4584 0.993068 89.3778 0.707342L89.4511 0.516858H93.019V7.27904L92.2937 6.16544C92.7919 5.93833 93.334 5.75517 93.9201 5.60864C94.5209 5.44746 95.2095 5.36687 95.9861 5.36687C96.7627 5.36687 97.5173 5.46944 98.1987 5.68191C98.8947 5.87239 99.4954 6.20207 99.9936 6.67096C100.514 7.12519 100.917 7.72595 101.21 8.48056C101.503 9.22051 101.649 10.151 101.649 11.2572V18.8693H98.25V11.4257C98.25 10.5686 98.1181 9.90919 97.8617 9.44763C97.6053 8.96409 97.2389 8.63441 96.7701 8.45858C96.3158 8.26809 95.781 8.16552 95.1656 8.16552C94.8286 8.16552 94.4696 8.19483 94.0959 8.26077C93.737 8.3267 93.3999 8.39997 93.0776 8.48056C92.7699 8.56114 92.5281 8.63441 92.3523 8.70035L93.0336 7.17647V18.8693H89.6342H89.6196Z" fill="#240253"/>
<path d="M106.463 18.8709V5.8008C106.463 4.56265 106.683 3.53697 107.115 2.73107C107.57 1.92518 108.207 1.33175 109.035 0.943453C109.863 0.555159 110.866 0.364675 112.046 0.364675C112.464 0.364675 112.837 0.386653 113.16 0.437938C113.497 0.489222 113.79 0.555159 114.031 0.657727V3.26589H113.79C113.592 3.1853 113.379 3.11937 113.138 3.07541C112.911 3.00947 112.617 2.98017 112.266 2.98017C111.409 2.98017 110.793 3.20728 110.42 3.65419C110.046 4.10842 109.863 4.84105 109.863 5.85208V18.8709H106.463ZM104.346 8.38698V5.68357H113.233V8.38698H104.346Z" fill="#240253"/>
<path d="M115.768 18.8703V10.4377C115.768 10.1153 115.761 9.70505 115.746 9.20686C115.731 8.69401 115.702 8.19583 115.673 7.71229C115.658 7.2141 115.607 6.81848 115.526 6.52543L115.599 6.33494C116.054 6.17376 116.581 6.02724 117.175 5.90269C117.79 5.77082 118.427 5.67558 119.094 5.60964C119.775 5.52905 120.457 5.49242 121.131 5.49242C121.424 5.49242 121.739 5.49974 122.076 5.5144C122.413 5.52905 122.757 5.56568 123.094 5.60964V8.36433H122.874C122.633 8.29839 122.354 8.26176 122.047 8.24711C121.739 8.21781 121.438 8.19583 121.145 8.19583C120.625 8.19583 120.12 8.23246 119.614 8.31305C119.116 8.39364 118.684 8.48888 118.325 8.6061L118.838 7.82951C119.05 8.26176 119.153 9.01637 119.153 10.0787V18.8703H115.753H115.768Z" fill="#240253"/>
<path d="M132.83 19.1109C131.614 19.1109 130.53 18.9717 129.577 18.7006C128.625 18.4295 127.812 18.0193 127.152 17.4698C126.486 16.9057 125.98 16.1877 125.621 15.3232C125.284 14.4514 125.108 13.4257 125.108 12.2315C125.108 10.8175 125.372 9.60133 125.907 8.58298C126.442 7.54997 127.196 6.76605 128.163 6.21658C129.153 5.65245 130.303 5.37405 131.614 5.37405C133.087 5.37405 134.288 5.68176 135.204 6.28984C136.127 6.88327 136.794 7.7258 137.197 8.80277C137.6 9.86508 137.768 11.0886 137.71 12.4732L137.688 13.2718H127.299V11.0519H134.391V10.9054C134.391 9.92369 134.156 9.17641 133.688 8.65624C133.233 8.1434 132.537 7.87965 131.6 7.87965C131.013 7.87965 130.493 8.01152 130.024 8.26795C129.57 8.50971 129.204 8.92731 128.933 9.52074C128.676 10.1142 128.544 10.9274 128.544 11.9604V12.4659C128.544 13.477 128.742 14.2755 129.131 14.8543C129.519 15.4184 130.054 15.8214 130.735 16.0631C131.416 16.3049 132.2 16.4221 133.087 16.4221C133.878 16.4221 134.574 16.3489 135.175 16.2023C135.776 16.0558 136.244 15.8873 136.581 15.6968H136.823V18.4295C136.369 18.62 135.812 18.7812 135.145 18.9131C134.501 19.0449 133.731 19.1036 132.838 19.1036L132.83 19.1109Z" fill="#240253"/>
<path d="M148.289 19.1109C147.073 19.1109 145.988 18.9717 145.036 18.7006C144.084 18.4295 143.27 18.0193 142.611 17.4698C141.944 16.9057 141.439 16.1877 141.08 15.3232C140.743 14.4514 140.567 13.4257 140.567 12.2315C140.567 10.8175 140.831 9.60133 141.366 8.58298C141.9 7.54997 142.655 6.76605 143.622 6.21658C144.611 5.65245 145.761 5.37405 147.073 5.37405C148.545 5.37405 149.747 5.68176 150.663 6.28984C151.586 6.88327 152.252 7.7258 152.655 8.80277C153.058 9.86508 153.227 11.0886 153.168 12.4732L153.146 13.2718H142.758V11.0519H149.849V10.9054C149.849 9.92369 149.615 9.17641 149.146 8.65624C148.692 8.1434 147.996 7.87965 147.058 7.87965C146.472 7.87965 145.952 8.01152 145.483 8.26795C145.029 8.50971 144.662 8.92731 144.391 9.52074C144.135 10.1142 144.003 10.9274 144.003 11.9604V12.4659C144.003 13.477 144.201 14.2755 144.589 14.8543C144.977 15.4184 145.512 15.8214 146.194 16.0631C146.875 16.3049 147.659 16.4221 148.545 16.4221C149.337 16.4221 150.033 16.3489 150.633 16.2023C151.234 16.0558 151.703 15.8873 152.04 15.6968H152.282V18.4295C151.828 18.62 151.271 18.7812 150.604 18.9131C149.959 19.0449 149.19 19.1036 148.296 19.1036L148.289 19.1109Z" fill="#240253"/>
<path d="M15.3896 0.604234C11.873 0.604234 9.02307 3.43952 9.02307 6.94149H32.6504C36.167 6.94149 39.017 4.10621 39.017 0.604234H15.3896Z" fill="#04AB61"/>
<path d="M9.01599 6.94149C9.01599 3.43951 11.8733 0.604234 15.3899 0.604234V24.1217C15.3899 27.6237 12.5399 30.4589 9.02332 30.4589V6.94149H9.01599Z" fill="#04AB61"/>
<path fill-rule="evenodd" clip-rule="evenodd" d="M17.412 9.05184V15.3891H24.8409C28.3575 15.3891 31.2074 12.5538 31.2074 9.05184H17.412Z" fill="#FBB016"/>
<path d="M0.429443 15.3891C0.429443 11.8871 3.27938 9.05184 6.79601 9.05184V32.5693C6.79601 36.0713 3.94607 38.9065 0.429443 38.9065V15.3891Z" fill="#FBB016"/>
<path d="M77.8577 46.3953H153.005L150.79 66.3324H75.6425L80.6693 56.1935L77.8577 46.3953Z" fill="url(#paint0_linear_28_2007)"/>
<path d="M85.9619 60.7824L87.2485 53.525H84.7003L84.9751 52.0385H91.9202L91.6579 53.525H89.1097L87.8356 60.7824H85.9619ZM94.9852 60.9323C94.2774 60.9323 93.682 60.7949 93.199 60.5201C92.7243 60.2369 92.387 59.8289 92.1872 59.2959C91.9956 58.763 91.9623 58.1217 92.0872 57.3723L93.0241 52.0385H94.8978L93.9484 57.3723C93.8901 57.7553 93.8943 58.0843 93.9609 58.3591C94.0359 58.6339 94.1858 58.8421 94.4106 58.9836C94.6355 59.1252 94.9394 59.196 95.3225 59.196C95.6889 59.196 96.0095 59.1294 96.2843 58.9961C96.5591 58.8546 96.7881 58.6505 96.9713 58.3841C97.1545 58.1093 97.2794 57.772 97.346 57.3723L98.2829 52.0385H100.157L99.2197 57.3723C99.0782 58.1717 98.7992 58.8379 98.3828 59.3709C97.9664 59.8955 97.4626 60.2869 96.8714 60.545C96.2885 60.8032 95.6597 60.9323 94.9852 60.9323ZM100.223 60.7824L101.76 52.0385H105.12C105.769 52.0385 106.298 52.151 106.706 52.3758C107.123 52.6006 107.426 52.9004 107.618 53.2752C107.818 53.6416 107.905 54.0413 107.88 54.4743C107.855 55.0572 107.689 55.5694 107.381 56.0107C107.073 56.4521 106.648 56.7977 106.107 57.0475C105.565 57.2973 104.932 57.4222 104.208 57.4222H102.696L102.097 60.7824H100.223ZM104.795 60.7824L103.708 56.9601H105.669L106.856 60.7824H104.795ZM102.934 56.0732H104.345C104.828 56.0732 105.211 55.9441 105.494 55.686C105.778 55.4278 105.928 55.0822 105.944 54.6492C105.961 54.3328 105.878 54.0788 105.694 53.8872C105.511 53.6957 105.207 53.5999 104.783 53.5999H103.371L102.934 56.0732ZM108.238 60.7824L109.774 52.0385H111.66L114.458 57.8345L115.482 52.0385H117.356L115.82 60.7824H113.946L111.136 54.9865L110.111 60.7824H108.238ZM120.594 60.9323C119.953 60.9323 119.395 60.824 118.92 60.6075C118.454 60.391 118.108 60.0787 117.883 59.6707C117.659 59.2543 117.592 58.7421 117.684 58.1342H119.67C119.636 58.3841 119.661 58.6047 119.745 58.7963C119.836 58.9795 119.978 59.121 120.169 59.221C120.361 59.3126 120.582 59.3584 120.831 59.3584C121.09 59.3584 121.314 59.3167 121.506 59.2335C121.697 59.1419 121.847 59.017 121.956 58.8587C122.072 58.6922 122.135 58.5006 122.143 58.2841C122.151 58.1342 122.122 58.001 122.055 57.8844C121.997 57.7595 121.906 57.6512 121.781 57.5596C121.656 57.4597 121.51 57.3723 121.343 57.2973C121.185 57.2224 121.01 57.1516 120.819 57.085C120.627 57.01 120.432 56.9392 120.232 56.8726C119.641 56.6644 119.191 56.3813 118.883 56.0232C118.575 55.6651 118.433 55.2196 118.458 54.6867C118.483 54.1204 118.65 53.6291 118.958 53.2127C119.266 52.788 119.678 52.4632 120.194 52.2384C120.719 52.0052 121.306 51.8886 121.956 51.8886C122.547 51.8886 123.051 51.9886 123.467 52.1884C123.892 52.38 124.208 52.6673 124.416 53.0503C124.625 53.4334 124.695 53.9039 124.629 54.4618H122.618C122.651 54.2536 122.626 54.0746 122.543 53.9247C122.468 53.7748 122.351 53.6624 122.193 53.5874C122.035 53.5042 121.847 53.4625 121.631 53.4625C121.414 53.4625 121.219 53.5 121.044 53.575C120.877 53.6499 120.744 53.7582 120.644 53.8997C120.544 54.0413 120.49 54.2078 120.482 54.3994C120.473 54.5409 120.494 54.6659 120.544 54.7741C120.602 54.874 120.681 54.9656 120.781 55.0489C120.881 55.1239 121.002 55.1988 121.144 55.2738C121.285 55.3404 121.439 55.407 121.606 55.4736C121.781 55.5319 121.96 55.5944 122.143 55.661C122.434 55.7609 122.705 55.8817 122.955 56.0232C123.205 56.1648 123.425 56.3313 123.617 56.5229C123.808 56.7061 123.954 56.9268 124.054 57.1849C124.154 57.4431 124.196 57.7387 124.179 58.0718C124.162 58.6381 123.996 59.1377 123.679 59.5707C123.371 59.9954 122.951 60.3285 122.418 60.57C121.885 60.8115 121.277 60.9323 120.594 60.9323ZM132.295 60.7824L133.444 54.1995L131.807 54.6617L132.082 53.1003L134.655 52.0385H135.78L134.231 60.7824H132.295ZM139.526 60.9323C138.81 60.9323 138.206 60.7782 137.715 60.4701C137.232 60.162 136.869 59.7331 136.628 59.1835C136.395 58.6256 136.299 57.976 136.341 57.2349C136.374 56.4687 136.511 55.7651 136.753 55.1239C137.003 54.4743 137.34 53.9081 137.765 53.4251C138.189 52.9421 138.681 52.5673 139.239 52.3008C139.796 52.026 140.4 51.8886 141.05 51.8886C141.774 51.8886 142.378 52.0427 142.861 52.3508C143.344 52.6589 143.702 53.092 143.935 53.6499C144.177 54.1995 144.277 54.8449 144.235 55.586C144.21 56.3438 144.073 57.0475 143.823 57.697C143.581 58.3466 143.248 58.9129 142.823 59.3959C142.399 59.8788 141.903 60.2577 141.337 60.5326C140.779 60.799 140.175 60.9323 139.526 60.9323ZM139.801 59.246C140.134 59.246 140.446 59.1585 140.737 58.9836C141.037 58.8004 141.3 58.5506 141.524 58.2342C141.758 57.9177 141.941 57.5513 142.074 57.1349C142.216 56.7186 142.295 56.2689 142.311 55.7859C142.336 55.3196 142.291 54.924 142.174 54.5992C142.066 54.2745 141.891 54.0246 141.649 53.8498C141.416 53.6749 141.129 53.5874 140.787 53.5874C140.454 53.5874 140.138 53.6749 139.838 53.8498C139.547 54.0246 139.284 54.2703 139.051 54.5867C138.818 54.8949 138.635 55.2613 138.502 55.686C138.368 56.1023 138.289 56.552 138.264 57.035C138.239 57.493 138.285 57.8886 138.402 58.2217C138.518 58.5465 138.693 58.8004 138.926 58.9836C139.168 59.1585 139.459 59.246 139.801 59.246Z" fill="white"/>
<defs>
<linearGradient id="paint0_linear_28_2007" x1="110.49" y1="56.4491" x2="150.79" y2="44.0949" gradientUnits="userSpaceOnUse">
<stop stop-color="#6C38D4"/>
<stop offset="1" stop-color="#04AB61"/>
</linearGradient>
</defs>
</svg>
