<?xml version="1.0" encoding="UTF-8"?>
<svg id="Layer_1" data-name="Layer 1" xmlns="http://www.w3.org/2000/svg" xmlns:xlink="http://www.w3.org/1999/xlink" viewBox="0 0 58 57">
  <defs>
    <style>
      .cls-1 {
        fill: #ff5823;
      }

      .cls-2 {
        fill: #fff;
      }

      .cls-3 {
        fill: none;
      }

      .cls-4 {
        clip-path: url(#clippath);
      }
    </style>
    <clipPath id="clippath">
      <rect class="cls-3" x=".5" width="57" height="57"/>
    </clipPath>
  </defs>
  <g class="cls-4">
    <g>
      <path class="cls-2" d="M35.86,5.68l2.5-4.16c.28-.47.13-1.09-.34-1.37-.47-.29-1.09-.13-1.37.34l-2.64,4.39c-1.57-.56-3.25-.88-5.01-.88s-3.44.32-5.01.88L21.36.49c-.28-.47-.9-.63-1.37-.34-.47.28-.63.9-.34,1.37l2.5,4.16c-4.83,2.5-8.14,7.53-8.14,13.32,0,.55.45,1,1,1h28c.55,0,1-.45,1-1,0-5.8-3.31-10.83-8.14-13.32ZM16.04,18c.51-6.7,6.13-12,12.96-12s12.45,5.3,12.96,12h-25.92Z"/>
      <path class="cls-2" d="M35.98,11.36h-1.32c-.36,0-.66.3-.66.66v1.32c0,.36.3.66.66.66h1.32c.36,0,.66-.3.66-.66v-1.32c0-.36-.3-.66-.66-.66Z"/>
      <path class="cls-2" d="M23.34,11.36h-1.32c-.36,0-.66.3-.66.66v1.32c0,.36.3.66.66.66h1.32c.36,0,.66-.3.66-.66v-1.32c0-.36-.3-.66-.66-.66Z"/>
      <path class="cls-2" d="M43,21H15c-.55,0-1,.45-1,1v20.17c0,2.66,2.17,4.83,4.83,4.83h1.17v6.01c0,2.2,1.79,3.99,4,3.99s4-1.79,4-3.99v-6.01h2v6.01c0,2.2,1.79,3.99,4,3.99s4-1.79,4-3.99v-6.01h1.17c2.67,0,4.83-2.17,4.83-4.83v-20.17c0-.55-.45-1-1-1ZM42,42.17c0,1.56-1.27,2.83-2.83,2.83h-2.17c-.55,0-1,.45-1,1v7.01c0,1.1-.9,1.99-2,1.99s-2-.9-2-1.99v-7.01c0-.55-.45-1-1-1h-4c-.55,0-1,.45-1,1v7.01c0,1.1-.9,1.99-2,1.99s-2-.9-2-1.99v-7.01c0-.55-.45-1-1-1h-2.17c-1.56,0-2.83-1.27-2.83-2.83v-19.17h26v19.17Z"/>
      <path class="cls-1" d="M48.5,21c-1.93,0-3.5,1.57-3.5,3.5v13.99c0,1.93,1.57,3.5,3.5,3.5s3.5-1.57,3.5-3.5v-13.99c0-1.93-1.57-3.5-3.5-3.5Z"/>
      <path class="cls-1" d="M9.5,21c-1.93,0-3.5,1.57-3.5,3.5v13.99c0,1.93,1.57,3.5,3.5,3.5s3.5-1.57,3.5-3.5v-13.99c0-1.93-1.57-3.5-3.5-3.5Z"/>
    </g>
  </g>
</svg>