<?xml version="1.0" encoding="UTF-8"?>
<svg id="Layer_1" data-name="Layer 1" xmlns="http://www.w3.org/2000/svg" xmlns:xlink="http://www.w3.org/1999/xlink" viewBox="0 0 50 50">
  <defs>
    <style>
      .cls-1 {
        fill: #ff5823;
      }

      .cls-2 {
        fill: #fff;
      }

      .cls-3 {
        fill: none;
      }

      .cls-4 {
        clip-path: url(#clippath);
      }
    </style>
    <clipPath id="clippath">
      <rect class="cls-3" y="0" width="50" height="50"/>
    </clipPath>
  </defs>
  <g class="cls-4">
    <g>
      <path class="cls-1" d="M25.67,11.96h-1.09v-1.09C24.58,3.76,28.34,0,35.45,0h1.09v1.09c0,7.11-3.76,10.87-10.87,10.87Z"/>
      <path class="cls-2" d="M34.36,50c-1.75,0-3.48-.43-5.03-1.24-2.29-1.22-5.04-1.22-7.32,0-1.55.81-3.28,1.24-5.03,1.24-7.31,0-13.04-10.03-13.04-22.83,0-7.79,5.86-14.13,13.04-14.13,1.35,0,2.68.22,3.95.67l4.04,1.4c.46.16.96.16,1.43,0l4.02-1.4c1.27-.44,2.6-.66,3.94-.67,3.93,0,7.59,1.89,10.1,5.18l.95,1.26-1.52.43c-3.91,1.13-6.51,4.81-6.26,8.87.25,4.06,3.28,7.4,7.29,8.04l1.24.2-.38,1.2c-2.26,7.26-6.64,11.77-11.41,11.77ZM25.67,45.65c1.63.01,3.23.42,4.67,1.18,1.24.65,2.62.99,4.02.99,3.56,0,6.94-3.46,8.98-9.12-4.68-1.31-7.91-5.59-7.89-10.45.02-4.23,2.47-8.06,6.3-9.85-2-2.04-4.62-3.19-7.39-3.19-1.1,0-2.19.18-3.23.54l-4.04,1.4c-.92.32-1.92.32-2.84,0l-4.05-1.4c-1.04-.36-2.13-.54-3.23-.54-5.99,0-10.87,5.37-10.87,11.96,0,11.2,4.97,20.65,10.87,20.65,1.4,0,2.78-.34,4.02-.99,1.44-.76,3.04-1.17,4.67-1.18Z"/>
    </g>
  </g>
</svg>