<?xml version="1.0" encoding="UTF-8"?>
<svg id="Layer_1" data-name="Layer 1" xmlns="http://www.w3.org/2000/svg" viewBox="0 0 54 54">
  <defs>
    <style>
      .cls-1 {
        fill: #fff;
      }
    </style>
  </defs>
  <path class="cls-1" d="M27,27.84c4.27,0,7.75-3.48,7.75-7.75s-3.48-7.75-7.75-7.75-7.75,3.48-7.75,7.75,3.48,7.75,7.75,7.75ZM27,13.88c3.42,0,6.21,2.79,6.21,6.21s-2.79,6.21-6.21,6.21-6.21-2.79-6.21-6.21,2.79-6.21,6.21-6.21Z"/>
  <path class="cls-1" d="M8.55,46.96h14.4c-.04,1.11-.34,2.52-1.29,3.95h-1.77c-.43,0-.77.35-.77.77s.34.77.77.77h14.2c.43,0,.77-.35.77-.77s-.34-.77-.77-.77h-1.77c-.95-1.43-1.25-2.84-1.29-3.95h14.39c.91,0,1.77-.27,2.49-.73,1.3-.83,2.17-2.27,2.17-3.92v-26.06c0-2.56-2.09-4.65-4.65-4.65h-5.34l1.07-1.52c.5-.68.43-1.62-.18-2.24l-1.76-1.76c-.61-.6-1.55-.67-2.23-.18l-1.85,1.31c-1.48-.94-3.1-1.61-4.82-1.99l-.38-2.23c-.14-.84-.86-1.46-1.72-1.46h-2.48c-.87,0-1.59.62-1.71,1.45l-.39,2.23c-1.72.38-3.34,1.05-4.82,1.99l-1.85-1.31c-.7-.49-1.64-.42-2.24.19l-1.75,1.75c-.6.6-.68,1.54-.19,2.23l1.08,1.53h-5.35c-2.56,0-4.64,2.09-4.64,4.65v24.46s0,0,0,0v1.59c0,2.56,2.08,4.65,4.64,4.65ZM48.55,42.31c0,1.09-.57,2.05-1.43,2.61-.49.31-1.06.5-1.68.5H8.55c-1.71,0-3.1-1.39-3.1-3.1v-.82h43.09v.82ZM30.53,50.91h-7.07c.64-1.23.99-2.58,1.04-3.95h4.99c.04,1.37.4,2.72,1.04,3.95ZM14.1,8.94l1.75-1.75c.07-.07.18-.07.26-.02l2.28,1.61c.26.19.62.19.88,0,1.57-1.08,3.32-1.81,5.2-2.15.32-.06.57-.31.62-.63l.48-2.77c.02-.1.1-.15.19-.15h2.48c.08,0,.18.05.2.17l.47,2.75c.05.32.3.57.62.63,1.88.35,3.64,1.07,5.21,2.15.27.18.62.18.88,0l2.28-1.62c.08-.06.18-.05.25.02l1.74,1.74c.07.07.08.18.02.26l-1.61,2.28c-.19.26-.19.62,0,.88,1.08,1.57,1.81,3.33,2.15,5.21.06.32.31.57.63.62l2.75.47h0c.1.02.17.09.17.19v2.48c0,.09-.07.17-.17.19l-2.75.48c-.32.06-.57.3-.63.62-.35,1.89-1.07,3.64-2.15,5.2-.18.27-.18.62,0,.88l1.61,2.27c.06.08.05.18-.02.25l-1.74,1.75c-.08.07-.2.09-.27.04l-2.28-1.62c-.27-.19-.62-.19-.89,0-1.57,1.09-3.32,1.81-5.21,2.15-.32.06-.57.31-.62.63l-.47,2.76c-.01.09-.1.15-.2.15h-2.48c-.09,0-.18-.06-.19-.15l-.48-2.76c-.05-.32-.3-.57-.62-.63-1.88-.34-3.63-1.06-5.2-2.15-.13-.09-.29-.14-.44-.14s-.31.05-.45.14l-2.26,1.61c-.08.06-.2.05-.27-.02l-1.77-1.77c-.06-.06-.06-.16-.01-.24l1.62-2.28c.19-.27.19-.62,0-.89-1.09-1.56-1.81-3.31-2.15-5.2-.06-.32-.31-.57-.63-.62l-2.77-.48c-.09-.02-.17-.1-.17-.19v-2.48c0-.09.07-.17.17-.19l2.76-.47c.32-.05.57-.3.63-.62.34-1.88,1.06-3.63,2.15-5.21.18-.27.18-.62,0-.88l-1.62-2.28c-.05-.07-.04-.18.03-.25ZM8.55,13.15h4.88c-.59,1.14-1.02,2.34-1.3,3.6l-2.23.38c-.84.14-1.46.86-1.46,1.71v2.48c0,.85.61,1.57,1.45,1.71l2.24.39c.37,1.72,1.04,3.34,1.99,4.82l-1.32,1.85c-.49.71-.4,1.65.2,2.22l1.76,1.77c.6.58,1.53.67,2.24.18l1.84-1.31c1.48.95,3.09,1.62,4.82,1.99l.39,2.22c.13.84.85,1.45,1.71,1.45h2.48c.85,0,1.58-.6,1.72-1.44l.38-2.24c1.72-.37,3.34-1.04,4.82-1.99l1.85,1.32c.68.48,1.62.4,2.24-.2l1.74-1.75c.61-.59.69-1.54.19-2.24l-1.31-1.84c.94-1.48,1.61-3.09,1.99-4.82l2.23-.39c.84-.14,1.46-.86,1.46-1.71v-2.48c0-.85-.61-1.57-1.45-1.71l-2.23-.38c-.28-1.26-.72-2.47-1.3-3.6h4.87c1.72,0,3.11,1.39,3.11,3.1v23.69H5.45v-23.69c0-1.71,1.39-3.1,3.1-3.1Z"/>
</svg>