<?xml version="1.0" encoding="UTF-8"?>
<svg id="Layer_1" data-name="Layer 1" xmlns="http://www.w3.org/2000/svg" xmlns:xlink="http://www.w3.org/1999/xlink" viewBox="0 0 40 40">
  <defs>
    <style>
      .cls-1 {
        fill: #fff;
      }

      .cls-2 {
        clip-path: url(#clippath);
      }
    </style>
    <clipPath id="clippath">
      <rect class="cls-1" width="40" height="40"/>
    </clipPath>
  </defs>
  <rect class="cls-1" width="40" height="40"/>
  <g class="cls-2">
    <g>
      <path class="cls-1" d="M39.65,29.1l-4.1-2.05-2.61-6.79c-.03-.08-.08-.15-.14-.21s-.13-.11-.21-.14l-16.19-6.47c-.11-.05-.24-.06-.36-.03-.12.02-.23.08-.32.17l-2.16,2.16c-.08.09-.14.2-.17.31-.02.12-.01.24.03.35l6.47,16.19c.03.08.08.15.14.21s.13.11.21.14l6.79,2.61,2.05,4.1c.04.09.11.17.19.23.08.06.17.1.27.12.03,0,.07,0,.1,0,.17,0,.32-.07.44-.18l9.71-9.71c.07-.07.13-.15.16-.25.03-.09.04-.19.03-.29-.02-.1-.06-.19-.12-.27-.06-.08-.14-.14-.23-.19ZM14.75,16.32l.35-.34,8.06,8.06c-.53.75-.76,1.68-.64,2.59.12.91.57,1.75,1.28,2.34.7.59,1.61.9,2.53.86.92-.04,1.79-.42,2.44-1.07s1.03-1.52,1.07-2.44c.04-.92-.27-1.82-.86-2.53-.59-.7-1.43-1.16-2.34-1.28-.91-.12-1.84.11-2.59.64l-8.06-8.06.34-.35,15.55,6.22,2.45,6.38-6.98,6.98-6.38-2.45-6.22-15.55ZM26.16,23.73c.56,0,1.11.2,1.54.55s.73.85.84,1.4c.11.55.02,1.12-.24,1.62-.27.5-.69.88-1.21,1.1-.52.21-1.1.24-1.63.08-.54-.16-1-.51-1.31-.98-.31-.47-.45-1.03-.4-1.59.06-.56.3-1.08.7-1.48.46-.45,1.07-.71,1.72-.71ZM29.83,38.32l-1.56-3.12,6.92-6.92,3.12,1.56-8.48,8.48Z"/>
      <path class="cls-1" d="M11.95,33.44c-.12-.11-.28-.18-.44-.18s-.32.06-.44.18l-.79.79c-2.12-2.87-3.29-6.34-3.34-9.91-.06-3.57,1-7.07,3.03-10.01.61.33,1.31.46,1.99.37.69-.1,1.32-.41,1.81-.9.49-.49.81-1.12.91-1.81.1-.69-.02-1.39-.36-1.99,2.94-2.03,6.44-3.09,10.01-3.03,3.57.06,7.03,1.22,9.91,3.34l-.81.78c-.12.12-.18.28-.18.44,0,.08.02.16.05.24.03.08.08.15.13.2l2.76,2.73c.12.12.28.18.44.18s.32-.07.44-.18l2.74-2.74c.06-.06.1-.13.14-.2.03-.08.05-.16.05-.24s-.02-.16-.05-.24c-.03-.08-.08-.14-.14-.2l-2.74-2.74c-.12-.12-.28-.18-.44-.18s-.32.07-.44.18l-1.06,1.05c-2.61-1.96-5.7-3.2-8.94-3.58-3.25-.38-6.53.12-9.53,1.43l3.6-3.59c.41.2.87.24,1.31.12.44-.11.82-.38,1.08-.75.26-.37.38-.82.34-1.27-.04-.45-.24-.87-.56-1.19-.32-.32-.75-.51-1.2-.55-.45-.04-.9.09-1.27.35-.37.26-.63.65-.74,1.09-.11.44-.06.9.14,1.31l-6.08,6.09c-.62-.41-1.36-.6-2.1-.53-.74.07-1.43.4-1.96.92-.53.53-.85,1.22-.92,1.96-.07.74.11,1.48.53,2.1l-6.09,6.08c-.41-.2-.87-.25-1.31-.13-.44.11-.83.38-1.09.75-.26.37-.39.82-.35,1.27.04.45.23.88.56,1.2.32.32.75.52,1.2.56.45.04.9-.09,1.27-.35.37-.26.63-.65.75-1.09.11-.44.06-.91-.13-1.31l3.6-3.59c-1.31,2.99-1.81,6.28-1.43,9.52.38,3.25,1.61,6.33,3.57,8.94l-1.06,1.06c-.12.12-.18.28-.18.44s.07.32.18.44l2.74,2.74c.12.12.28.18.44.18.08,0,.16-.02.24-.05.08-.03.15-.08.2-.14l2.74-2.74c.12-.12.18-.28.18-.44s-.07-.32-.18-.44l-2.73-2.76ZM36.64,9.64l1.86,1.86-1.86,1.86-1.86-1.86,1.86-1.86ZM20.62,1.45c.09-.09.21-.16.34-.18.13-.03.26-.01.39.04.12.05.23.14.3.25.07.11.11.24.11.37s-.04.26-.11.37c-.07.11-.18.19-.3.25-.12.05-.26.06-.39.04-.13-.03-.25-.09-.34-.18-.06-.06-.11-.13-.14-.22-.03-.08-.05-.17-.05-.25s.02-.17.05-.25c.03-.08.08-.15.14-.22ZM10.12,10.12c.18-.18.4-.33.63-.43.24-.1.49-.15.75-.15s.51.05.75.15c.24.1.45.24.63.43.27.27.46.62.54,1,.08.38.04.77-.11,1.13-.15.36-.4.66-.72.88-.32.22-.7.33-1.09.33s-.77-.12-1.09-.33c-.32-.22-.57-.52-.72-.88-.15-.36-.19-.75-.11-1.13.08-.38.26-.73.54-1ZM2.39,21.56c-.13.11-.29.16-.46.15-.17,0-.32-.08-.44-.19-.12-.12-.19-.27-.19-.44,0-.17.05-.33.15-.46.13-.12.29-.19.47-.19s.34.07.47.19c.06.06.11.13.14.22.03.08.05.17.05.25s-.02.17-.05.25c-.03.08-.08.15-.14.22ZM11.51,38.48l-1.86-1.86,1.86-1.86,1.86,1.86-1.86,1.86Z"/>
    </g>
  </g>
</svg>