<svg width="40" height="40" viewBox="0 0 40 40" fill="none" xmlns="http://www.w3.org/2000/svg">
<g clip-path="url(#clip0_1497_1566)">
<path d="M39.6531 29.1031L35.5531 27.0531L32.9437 20.2656C32.913 20.1854 32.8661 20.1123 32.8059 20.051C32.7457 19.9897 32.6734 19.9415 32.5937 19.9094L16.4031 13.4375C16.2899 13.3924 16.166 13.3815 16.0466 13.4059C15.9273 13.4303 15.8176 13.4891 15.7312 13.575L13.5719 15.7344C13.4871 15.8209 13.4293 15.9301 13.4054 16.0488C13.3816 16.1675 13.3927 16.2906 13.4375 16.4031L19.9094 32.5938C19.9415 32.6735 19.9897 32.7457 20.051 32.8059C20.1123 32.8661 20.1854 32.913 20.2656 32.9438L27.0531 35.5531L29.1031 39.6531C29.1463 39.7435 29.2105 39.8222 29.2905 39.8826C29.3704 39.943 29.4637 39.9832 29.5625 40C29.5958 40.0031 29.6292 40.0031 29.6625 40C29.828 39.9993 29.9864 39.933 30.1031 39.8156L39.8156 30.1031C39.8871 30.0342 39.9411 29.9491 39.9732 29.8551C40.0052 29.7611 40.0144 29.6608 40 29.5625C39.9832 29.4637 39.943 29.3705 39.8826 29.2905C39.8222 29.2106 39.7435 29.1463 39.6531 29.1031ZM14.7469 16.3219L15.0937 15.9781L23.1531 24.0375C22.622 24.7901 22.3926 25.7147 22.5103 26.6283C22.628 27.5419 23.0843 28.3781 23.7888 28.9715C24.4934 29.565 25.395 29.8724 26.3153 29.8331C27.2357 29.7937 28.1077 29.4105 28.7591 28.7591C29.4105 28.1077 29.7937 27.2357 29.833 26.3153C29.8724 25.395 29.5649 24.4934 28.9715 23.7888C28.3781 23.0843 27.5419 22.628 26.6283 22.5103C25.7147 22.3926 24.7901 22.622 24.0375 23.1531L15.9781 15.0938L16.3219 14.7469L31.875 20.9688L34.3281 27.35L27.35 34.3281L20.9687 31.875L14.7469 16.3219ZM26.1562 23.7281C26.718 23.729 27.262 23.9245 27.6957 24.2815C28.1294 24.6385 28.4259 25.1348 28.5348 25.6858C28.6436 26.2369 28.558 26.8087 28.2925 27.3037C28.0271 27.7987 27.5982 28.1864 27.079 28.4007C26.5598 28.615 25.9823 28.6427 25.445 28.479C24.9076 28.3153 24.4437 27.9703 24.1322 27.5029C23.8206 27.0355 23.6808 26.4745 23.7365 25.9156C23.7921 25.3566 24.0399 24.8343 24.4375 24.4375C24.8938 23.9827 25.512 23.7275 26.1562 23.7281ZM29.8344 38.3188L28.2719 35.1938L35.1875 28.2781L38.3125 29.8406L29.8344 38.3188Z" fill="black"/>
<path d="M11.9529 33.4372C11.8334 33.3243 11.6752 33.2613 11.5107 33.2613C11.3463 33.2613 11.188 33.3243 11.0685 33.4372L10.2748 34.231C8.15658 31.3562 6.98805 27.8921 6.93203 24.3216C6.87602 20.7511 7.93531 17.2521 9.96227 14.3122C10.5695 14.6464 11.2688 14.7748 11.9551 14.6781C12.6415 14.5814 13.2781 14.2649 13.7694 13.776C14.2608 13.2871 14.5805 12.6522 14.6806 11.9663C14.7807 11.2804 14.6559 10.5806 14.3248 9.97162C17.2647 7.94466 20.7637 6.88537 24.3341 6.94139C27.9046 6.9974 31.3687 8.16593 34.2435 10.2841L33.4373 11.0685C33.321 11.1857 33.2559 11.3441 33.256 11.5091C33.2555 11.5914 33.2713 11.6729 33.3024 11.7491C33.3335 11.8252 33.3793 11.8945 33.4373 11.9529L36.1935 14.6872C36.3106 14.8037 36.469 14.869 36.6341 14.869C36.7993 14.869 36.9577 14.8037 37.0748 14.6872L39.8154 11.9466C39.8735 11.8886 39.9196 11.8196 39.9511 11.7438C39.9825 11.6679 39.9987 11.5866 39.9987 11.5044C39.9987 11.4223 39.9825 11.341 39.9511 11.2651C39.9196 11.1892 39.8735 11.1203 39.8154 11.0622L37.0748 8.32162C36.9577 8.20522 36.7993 8.13988 36.6341 8.13988C36.469 8.13988 36.3106 8.20522 36.1935 8.32162L35.1341 9.37475C32.5232 7.41005 29.4364 6.17568 26.1907 5.79838C22.945 5.42109 19.6574 5.91448 16.6654 7.22787L20.2685 3.63412C20.6771 3.82934 21.1416 3.87352 21.5796 3.75885C22.0176 3.64417 22.4008 3.37805 22.6613 3.00769C22.9218 2.63732 23.0427 2.18667 23.0025 1.73567C22.9623 1.28467 22.7637 0.862481 22.4418 0.544005C22.1199 0.225529 21.6957 0.0313533 21.2443 -0.00407358C20.7929 -0.0395004 20.3435 0.0861116 19.9759 0.350478C19.6084 0.614845 19.3463 1.00087 19.2362 1.44008C19.1262 1.87929 19.1753 2.34329 19.3748 2.74975L13.2935 8.84037C12.6761 8.42619 11.934 8.23923 11.194 8.31144C10.454 8.38365 9.76203 8.71054 9.23629 9.23627C8.71056 9.76201 8.38367 10.454 8.31146 11.194C8.23925 11.9339 8.42621 12.676 8.8404 13.2935L2.74977 19.3747C2.34172 19.1759 1.87638 19.1282 1.43646 19.24C0.996537 19.3519 0.610515 19.6161 0.346989 19.9857C0.0834636 20.3553 -0.0404981 20.8063 -0.0028684 21.2587C0.0347613 21.711 0.231545 22.1354 0.552516 22.4564C0.873487 22.7773 1.29786 22.9741 1.75021 23.0118C2.20257 23.0494 2.65362 22.9254 3.02322 22.6619C3.39281 22.3984 3.657 22.0124 3.76886 21.5724C3.88071 21.1325 3.83298 20.6672 3.63415 20.2591L7.23727 16.6654C5.92256 19.6565 5.42762 22.9437 5.80326 26.1894C6.1789 29.4351 7.41159 32.5223 9.37477 35.1341L8.31852 36.1935C8.20211 36.3106 8.13678 36.469 8.13678 36.6341C8.13678 36.7992 8.20211 36.9576 8.31852 37.0747L11.0591 39.8154C11.1758 39.9327 11.3343 39.9991 11.4998 39.9997C11.5822 39.9998 11.6639 39.9836 11.7401 39.9519C11.8162 39.9203 11.8854 39.8739 11.9435 39.8154L14.6873 37.0747C14.8037 36.9576 14.869 36.7992 14.869 36.6341C14.869 36.469 14.8037 36.3106 14.6873 36.1935L11.9529 33.4372ZM36.6404 9.64038L38.4966 11.4966L36.6404 13.3529L34.7841 11.4966L36.6404 9.64038ZM20.6248 1.44662C20.7176 1.35299 20.8362 1.28906 20.9655 1.26294C21.0948 1.23682 21.2289 1.24968 21.3508 1.2999C21.4728 1.35012 21.577 1.43543 21.6504 1.54501C21.7238 1.65459 21.763 1.7835 21.763 1.91537C21.763 2.04725 21.7238 2.17616 21.6504 2.28574C21.577 2.39532 21.4728 2.48063 21.3508 2.53085C21.2289 2.58107 21.0948 2.59393 20.9655 2.56781C20.8362 2.54169 20.7176 2.47776 20.6248 2.38412C20.5632 2.32259 20.5143 2.24952 20.4809 2.16909C20.4476 2.08866 20.4304 2.00244 20.4304 1.91537C20.4304 1.8283 20.4476 1.74209 20.4809 1.66166C20.5143 1.58122 20.5632 1.50815 20.6248 1.44662ZM10.1248 10.1247C10.3063 9.94239 10.522 9.79769 10.7596 9.69895C10.9971 9.60021 11.2519 9.54938 11.5091 9.54938C11.7664 9.54938 12.0212 9.60021 12.2587 9.69895C12.4963 9.79769 12.712 9.94239 12.8935 10.1247C13.1679 10.3986 13.3548 10.7478 13.4306 11.1279C13.5065 11.5081 13.4679 11.9022 13.3197 12.2604C13.1715 12.6187 12.9203 12.9249 12.598 13.1403C12.2758 13.3557 11.8968 13.4707 11.5091 13.4707C11.1215 13.4707 10.7425 13.3557 10.4202 13.1403C10.098 12.9249 9.84683 12.6187 9.69862 12.2604C9.55041 11.9022 9.51179 11.5081 9.58765 11.1279C9.66351 10.7478 9.85043 10.3986 10.1248 10.1247ZM2.38727 21.5623C2.25967 21.6687 2.0969 21.7235 1.93092 21.716C1.76495 21.7085 1.60778 21.6392 1.4903 21.5217C1.37282 21.4042 1.30352 21.2471 1.29602 21.0811C1.28852 20.9151 1.34336 20.7523 1.44977 20.6248C1.57484 20.5018 1.74317 20.433 1.91852 20.433C2.09387 20.433 2.26221 20.5018 2.38727 20.6248C2.44888 20.6863 2.49775 20.7593 2.5311 20.8398C2.56444 20.9202 2.5816 21.0064 2.5816 21.0935C2.5816 21.1806 2.56444 21.2668 2.5311 21.3472C2.49775 21.4277 2.44888 21.5007 2.38727 21.5623ZM11.5091 38.4779L9.6529 36.6216L11.5091 34.7654L13.3654 36.6216L11.5091 38.4779Z" fill="black"/>
</g>
<defs>
<clipPath id="clip0_1497_1566">
<rect width="40" height="40" fill="white"/>
</clipPath>
</defs>
</svg>
