<?xml version="1.0" encoding="UTF-8"?>
<svg id="Layer_1" data-name="Layer 1" xmlns="http://www.w3.org/2000/svg" xmlns:xlink="http://www.w3.org/1999/xlink" viewBox="0 0 40 40">
  <defs>
    <style>
      .cls-1 {
        fill: #fff;
      }

      .cls-2 {
        clip-path: url(#clippath);
      }
    </style>
    <clipPath id="clippath">
      <rect class="cls-1" width="40" height="40"/>
    </clipPath>
  </defs>
  <rect class="cls-1" width="40" height="40"/>
  <g class="cls-2">
    <g>
      <path class="cls-1" d="M34.38,28.13v-2.5c0-.83-.33-1.62-.92-2.21-.59-.59-1.38-.92-2.21-.92h-5.26c.58-1.07,1.05-2.19,1.39-3.35l2.38-1.9c.37-.29.64-.7.77-1.15.13-.45.13-.94-.02-1.38-.15-.45-.43-.84-.81-1.12-.38-.28-.83-.44-1.31-.46l1.39-3.83c.36-.98.47-2.03.33-3.06-.14-1.03-.52-2.01-1.11-2.87-.6-.85-1.39-1.55-2.31-2.03-.92-.48-1.95-.73-2.99-.73h-5.31c-3.97,0-7.86,1.11-11.23,3.22-.1.06-.18.15-.23.26-.05.11-.07.23-.06.35.01.12.06.23.14.32.08.09.18.16.29.2l1.51.5c.21.07.4.18.56.33.16.15.29.32.39.52.09.2.14.41.15.63,0,.22-.03.44-.11.64-.15.37-.22.78-.2,1.18.02.4.12.8.3,1.16l1.61,3.22c-.46.04-.9.21-1.26.5-.36.29-.63.68-.76,1.12-.14.44-.13.91,0,1.36.14.44.4.83.76,1.12l2.38,1.9c.35,1.16.81,2.29,1.39,3.35h-5.26c-.83,0-1.62.33-2.21.92-.59.59-.92,1.38-.92,2.21v2.5c-1.48.62-2.74,1.66-3.63,2.99-.89,1.33-1.37,2.9-1.37,4.5v3.12c0,.17.07.32.18.44.12.12.28.18.44.18h37.5c.17,0,.32-.07.44-.18.12-.12.18-.28.18-.44v-3.12c0-1.6-.48-3.17-1.37-4.5-.89-1.33-2.15-2.37-3.63-2.99ZM25,13.12h-3.75c-.17,0-.32.07-.44.18-.12.12-.18.28-.18.44v.62h-1.25v-.62c0-.17-.07-.32-.18-.44-.12-.12-.28-.18-.44-.18h-5.62v-.92l3.9-2.6c.84-.56,1.83-.86,2.84-.86,1.44,0,2.85-.49,3.97-1.39l1.02-.82,1.07,1.61c.62.92.95,2.01.94,3.12v1.86h-1.88ZM24.38,14.38v1.88c0,.17-.07.32-.18.44-.12.12-.28.18-.44.18h-1.25c-.17,0-.32-.07-.44-.18-.12-.12-.18-.28-.18-.44v-1.88h2.5ZM18.12,14.38v1.88c0,.17-.07.32-.18.44-.12.12-.28.18-.44.18h-1.25c-.17,0-.32-.07-.44-.18-.12-.12-.18-.28-.18-.44v-1.88h2.5ZM29.38,15.44c0,.16-.04.32-.1.46-.07.14-.17.27-.29.37l-1.13.91c.17-.92.26-1.86.27-2.8h.2c.14,0,.28.03.41.08.13.05.25.13.34.23.1.1.18.22.23.34s.08.27.08.41ZM10.95,8.05c.14-.36.21-.75.2-1.14-.01-.39-.1-.77-.26-1.12-.16-.35-.4-.67-.69-.93-.29-.26-.63-.46-1-.58l-.19-.06c2.89-1.54,6.11-2.35,9.38-2.35h5.31c.84,0,1.66.2,2.41.59.74.39,1.38.95,1.86,1.63.48.69.79,1.48.9,2.31.11.83.02,1.68-.27,2.47l-.54,1.49c-.14-1.04-.51-2.04-1.09-2.92l-1.45-2.18c-.05-.07-.11-.13-.18-.18-.07-.05-.16-.08-.24-.09-.09-.01-.17,0-.26.01-.08.02-.16.06-.23.12l-1.55,1.25c-.91.72-2.03,1.12-3.19,1.12-1.26,0-2.49.37-3.53,1.07l-4.18,2.79s-.07.06-.11.09l-1.04-2.08c-.1-.2-.16-.42-.17-.65,0-.23.03-.45.11-.66ZM11.02,16.27c-.17-.14-.3-.33-.36-.54-.06-.21-.05-.44.02-.65.07-.21.21-.39.39-.52.18-.13.4-.2.62-.2h.2c.02.94.11,1.88.27,2.8l-1.13-.91ZM13.14,14.38h1.24v1.88c0,.5.2.97.55,1.33.35.35.83.55,1.33.55h1.25c.5,0,.97-.2,1.33-.55.35-.35.55-.83.55-1.33v-.62h1.25v.62c0,.5.2.97.55,1.33.35.35.83.55,1.33.55h1.25c.5,0,.97-.2,1.33-.55.35-.35.55-.83.55-1.33v-1.88h1.24c-.05,2.86-.85,5.67-2.32,8.12h-9.09c-1.47-2.46-2.27-5.26-2.32-8.12ZM8.75,23.75h22.5c.5,0,.97.2,1.33.55.35.35.55.83.55,1.33v12.5H6.88v-12.5c0-.5.2-.97.55-1.33.35-.35.83-.55,1.33-.55ZM1.88,35.62c0-1.27.35-2.51,1.01-3.59.66-1.08,1.61-1.96,2.74-2.53v8.62H1.88v-2.5ZM38.12,38.12h-3.75v-8.62c1.13.58,2.07,1.45,2.74,2.53.66,1.08,1.01,2.32,1.01,3.59v2.5Z"/>
      <path class="cls-1" d="M20,36.25c.49,0,.98-.15,1.39-.42.41-.27.73-.67.92-1.12.19-.46.24-.96.14-1.44-.1-.48-.33-.93-.68-1.28-.35-.35-.8-.59-1.28-.68-.48-.1-.99-.05-1.44.14-.46.19-.85.51-1.12.92-.27.41-.42.89-.42,1.39,0,.66.26,1.3.73,1.77.47.47,1.1.73,1.77.73ZM20,32.5c.25,0,.49.07.69.21.21.14.37.33.46.56.09.23.12.48.07.72-.05.24-.17.47-.34.64-.17.17-.4.29-.64.34-.24.05-.49.02-.72-.07-.23-.09-.42-.25-.56-.46-.14-.21-.21-.45-.21-.69,0-.33.13-.65.37-.88.23-.23.55-.37.88-.37Z"/>
      <path class="cls-1" d="M15.81,30.44l.88-.88-2.06-2.06,2.06-2.06-.88-.88-2.5,2.5c-.12.12-.18.28-.18.44s.07.32.18.44l2.5,2.5Z"/>
      <path class="cls-1" d="M24.19,30.44l2.5-2.5c.12-.12.18-.28.18-.44s-.07-.32-.18-.44l-2.5-2.5-.88.88,2.06,2.06-2.06,2.06.88.88Z"/>
      <path class="cls-1" d="M21.38,24.62l-3.75,5,1,.75,3.75-5-1-.75Z"/>
    </g>
  </g>
</svg>