<?xml version="1.0" encoding="UTF-8"?>
<svg id="Layer_1" data-name="Layer 1" xmlns="http://www.w3.org/2000/svg" xmlns:xlink="http://www.w3.org/1999/xlink" viewBox="0 0 40 40">
  <defs>
    <style>
      .cls-1 {
        fill: #fff;
      }

      .cls-2 {
        clip-path: url(#clippath);
      }
    </style>
    <clipPath id="clippath">
      <rect class="cls-1" width="40" height="40"/>
    </clipPath>
  </defs>
  <rect class="cls-1" width="40" height="40"/>
  <g class="cls-2">
    <g>
      <path class="cls-1" d="M4.05,32.6c-.14,0-.29-.05-.4-.13-.14-.11-.23-.27-.26-.44L0,7.56c-.02-.18.02-.35.13-.49.11-.14.27-.23.44-.26l4.45-.61c.36-.05.7.2.75.57l.32,2.31,13.5-1.87-.32-2.31c-.05-.36.2-.7.57-.75l5.19-.72c.36-.05.7.2.75.57l.8,5.76-1.32.18-.71-5.1-3.87.54.32,2.31c.05.36-.2.7-.57.75l-14.82,2.05c-.36.05-.7-.2-.75-.57l-.32-2.31-3.13.43,3.2,23.14,23.14-3.2-.18-1.31,1.32-.18.27,1.97c.02.18-.02.35-.13.49-.11.14-.26.23-.44.26l-24.46,3.39s-.06,0-.09,0Z"/>
      <path class="cls-1" d="M5.52,10.49c-.33,0-.61-.24-.66-.58l-.82-5.93c-.02-.18.02-.35.13-.49.11-.14.26-.23.44-.26l14.82-2.05c.36-.05.7.2.75.57l.82,5.93c.02.18-.02.35-.13.49-.11.14-.26.23-.44.26l-14.82,2.05s-.06,0-.09,0ZM5.46,4.46l.64,4.61,13.5-1.87-.64-4.61-13.5,1.87Z"/>
      <path class="cls-1" d="M5.31,14.5l15.84-1.62.14,1.33-15.84,1.62-.14-1.33Z"/>
      <path class="cls-1" d="M12.44,17.94l6.52-.53.11,1.33-6.52.53-.11-1.33Z"/>
      <path class="cls-1" d="M5.92,18.47l3.26-.26.11,1.33-3.26.26-.11-1.33Z"/>
      <path class="cls-1" d="M6.2,23.4l14.95-1.56.14,1.33-14.95,1.56-.14-1.33Z"/>
      <path class="cls-1" d="M28.52,27.24c-5.09,0-9.24-4.14-9.24-9.24s4.14-9.24,9.24-9.24,9.24,4.14,9.24,9.24-4.14,9.24-9.24,9.24ZM28.52,10.11c-4.36,0-7.9,3.55-7.9,7.9s3.55,7.9,7.9,7.9,7.9-3.55,7.9-7.9-3.55-7.9-7.9-7.9Z"/>
      <path class="cls-1" d="M31.64,26l1.2-.58,1.55,3.22-1.2.58-1.55-3.22Z"/>
      <path class="cls-1" d="M37.2,38.83c-1.05,0-2.05-.59-2.54-1.59l-3.1-6.43c-.12-.26-.07-.57.14-.77l1.62-1.57c.1-.1.24-.16.38-.18l2.24-.29c.28-.04.56.11.68.37l3.1,6.43c.67,1.39.08,3.08-1.31,3.75,0,0,0,0,0,0-.39.19-.81.28-1.21.28ZM32.97,30.66l2.89,6c.35.73,1.24,1.04,1.97.69.73-.35,1.04-1.24.69-1.97l-2.89-6-1.54.2-1.12,1.08Z"/>
      <path class="cls-1" d="M31.13,23.43l-.58-1.2c1.13-.54,1.98-1.49,2.39-2.68.41-1.18.34-2.45-.2-3.58l1.2-.58c.7,1.45.79,3.08.26,4.6-.53,1.52-1.62,2.74-3.07,3.44Z"/>
    </g>
  </g>
</svg>