<?xml version="1.0" encoding="UTF-8"?>
<svg id="Layer_1" data-name="Layer 1" xmlns="http://www.w3.org/2000/svg" viewBox="0 0 80 80">
  <defs>
    <style>
      .cls-1 {
        fill: #fff;
      }
    </style>
  </defs>
  <path class="cls-1" d="M15.67,15.36c-.32.32-.5.75-.5,1.2,0,.45.18.89.49,1.21.32.32.75.5,1.2.5s.89-.18,1.21-.49c.32-.32.5-.75.5-1.2,0-.45-.18-.89-.49-1.21-.32-.32-.75-.5-1.2-.5-.45,0-.89.18-1.21.49Z"/>
  <path class="cls-1" d="M24.82,17.78c.24-.24.4-.54.47-.86.07-.33.03-.67-.09-.98-.13-.31-.34-.57-.62-.76-.28-.19-.61-.29-.94-.29s-.66.1-.94.29c-.28.19-.49.45-.62.76s-.16.65-.09.98c.07.33.23.63.47.86.16.16.34.28.54.37.2.09.42.13.64.13s.44-.04.64-.13c.2-.09.39-.21.54-.37Z"/>
  <path class="cls-1" d="M72.42,7.58c-2.02-2.01-4.75-3.14-7.6-3.13H15.18c-2.84,0-5.57,1.13-7.58,3.14-2.01,2.01-3.15,4.73-3.15,7.58v49.67c0,1.41.27,2.81.81,4.11.54,1.3,1.33,2.49,2.33,3.49,1,1,2.18,1.79,3.49,2.33,1.3.54,2.7.81,4.11.81h49.64c1.41,0,2.81-.27,4.11-.81,1.3-.54,2.49-1.33,3.49-2.33s1.79-2.18,2.33-3.49c.54-1.3.81-2.7.81-4.11V15.16c0-2.84-1.13-5.57-3.13-7.58ZM72.18,64.82c0,.97-.21,1.92-.59,2.81-.38.89-.94,1.69-1.63,2.36-.68.7-1.49,1.25-2.38,1.63-.89.38-1.85.58-2.82.59H15.18c-.97,0-1.93-.21-2.82-.59-.89-.38-1.7-.94-2.38-1.63-.7-.67-1.25-1.48-1.63-2.36-.38-.89-.58-1.85-.59-2.81V15.16c0-.97.19-1.92.55-2.82.37-.89.91-1.7,1.59-2.38.68-.68,1.5-1.22,2.39-1.59.89-.37,1.85-.55,2.82-.55h49.71c.97,0,1.92.18,2.82.55.89.37,1.71.91,2.39,1.59.68.68,1.23,1.49,1.59,2.38.37.89.56,1.85.55,2.82v49.67Z"/>
  <path class="cls-1" d="M58.07,39.78h-6.67l-4.73-9.38c-.2-.39-.54-.69-.96-.84-.42-.14-.87-.11-1.27.08-.39.2-.69.54-.83.96-.14.41-.12.87.07,1.26l3.93,7.87h-15.2l3.93-7.87c.19-.4.21-.85.07-1.26-.14-.41-.44-.76-.83-.96-.4-.19-.85-.22-1.27-.08-.42.14-.76.44-.96.84l-4.73,9.38h-6.67c-.45,0-.88.18-1.19.49-.32.32-.49.75-.49,1.19s.18.88.49,1.2c.32.32.75.5,1.2.51h1.11c.4,2.73,1.27,8.73,1.82,12.71.21,1.49.96,2.85,2.1,3.83,1.14.98,2.6,1.52,4.1,1.51h17.78c1.5,0,2.94-.54,4.07-1.52,1.13-.98,1.87-2.33,2.08-3.81.56-3.98,1.42-9.98,1.82-12.71h1.11c.45,0,.88-.19,1.2-.51.32-.32.49-.75.49-1.2,0-.43-.17-.85-.46-1.16-.3-.31-.7-.5-1.14-.53ZM51.78,55.33c-.09.69-.44,1.33-.97,1.78-.53.45-1.22.69-1.91.67h-17.78c-.68,0-1.34-.24-1.85-.69-.51-.45-.85-1.06-.95-1.73-.53-3.78-1.33-9.36-1.76-12.24h26.98c-.42,2.96-1.22,8.53-1.76,12.31v-.09Z"/>
</svg>