<?xml version="1.0" encoding="UTF-8"?>
<svg id="Layer_1" data-name="Layer 1" xmlns="http://www.w3.org/2000/svg" xmlns:xlink="http://www.w3.org/1999/xlink" viewBox="0 0 50 50">
  <defs>
    <style>
      .cls-1 {
        fill: #ff5827;
      }

      .cls-2, .cls-3 {
        fill: none;
      }

      .cls-3 {
        stroke: #fff;
        stroke-width: 2px;
      }

      .cls-4 {
        clip-path: url(#clippath);
      }
    </style>
    <clipPath id="clippath">
      <rect class="cls-2" width="50" height="50"/>
    </clipPath>
  </defs>
  <g class="cls-4">
    <g>
      <path class="cls-1" d="M40.04,33.1l.22-.06-.14-.18-6.01-7.99h0c-.17-.22-.24-.38-.25-.53,0-.14.05-.31.23-.53h0l3.15-4.1h0l2.33-3.08.13-.17-.21-.06c-.54-.16-.99-.16-1.39,0-.39.16-.71.46-1.01.89l-4.38,5.84-4.35-5.87c-.33-.48-.69-.76-1.12-.89-.42-.13-.89-.1-1.41,0l-.24.05.15.19,5.93,7.72-6.37,8.55-.13.18.21.06c.56.15,1.01.14,1.41-.03.39-.17.71-.49,1-.91l4.91-6.64.5.66,4.3,5.96c.31.47.65.79,1.07.95s.9.15,1.46,0h0ZM9.86,24.14h0v.03h0v1.49c.02.1.04.19.06.28.04.19.08.37.11.57h0c.24,1.81.78,3.52,2.09,4.88,2.21,2.33,6.38,2.87,9.31,1.2,1.97-1.12,2.9-2.92,3.31-5.05l.03-.13-.13-.04c-.4-.12-.75-.16-1.04-.03-.3.13-.48.43-.62.86h0c-.49,1.64-1.47,2.94-3.13,3.49-2.4.8-4.52.41-6.01-.81-1.47-1.2-2.36-3.23-2.3-5.78h13.35v-.14c.12-2.98-.47-5.67-2.89-7.58h0c-4.15-3.24-10.14-1.05-11.6,4.17h0s-.53,2.6-.53,2.6h-.01ZM17.74,17.37h0c3.13.02,5.45,2.59,5.59,6.3h-11.76c.11-1.88.77-3.44,1.82-4.54,1.08-1.13,2.59-1.77,4.34-1.76h.01Z"/>
      <circle class="cls-3" cx="25" cy="25" r="24"/>
    </g>
  </g>
</svg>