<?xml version="1.0" encoding="UTF-8"?>
<svg id="Layer_1" data-name="Layer 1" xmlns="http://www.w3.org/2000/svg" xmlns:xlink="http://www.w3.org/1999/xlink" viewBox="0 0 50 50">
  <defs>
    <style>
      .cls-1 {
        fill: #ff5823;
      }

      .cls-2 {
        fill: #fff;
      }

      .cls-3 {
        fill: none;
      }

      .cls-4 {
        clip-path: url(#clippath);
      }
    </style>
    <clipPath id="clippath">
      <rect class="cls-3" y="0" width="50" height="50"/>
    </clipPath>
  </defs>
  <g class="cls-4">
    <g>
      <path class="cls-2" d="M13.08,33.43c-.14,0-.27-.03-.4-.08-.13-.05-.24-.13-.34-.23l-7.35-7.39c-.19-.2-.3-.46-.3-.74s.11-.54.3-.74L28.86.31c.26-.26.62-.35.96-.28h14.42c.2,0,.4.06.57.18.17.11.3.28.38.47.08.19.1.4.06.6-.04.2-.13.39-.28.53l-31.16,31.32c-.1.1-.21.17-.34.23-.13.05-.26.08-.4.08ZM7.2,25l5.88,5.91L41.73,2.11h-11.73L7.2,25Z"/>
      <path class="cls-1" d="M44.54,50.9h-14.65c-.14,0-.27-.03-.4-.08-.13-.05-.24-.13-.34-.23l-12.85-12.92c-.19-.2-.3-.46-.3-.74s.11-.54.3-.74l12.86-12.89c.2-.2.46-.31.74-.31h14.64c.2,0,.4.06.57.18s.3.28.38.47c.08.19.1.4.06.6-.04.2-.13.39-.28.53l-12.1,12.16,12.1,12.18c.15.15.25.33.29.53.04.2.02.41-.06.6-.08.19-.21.35-.39.47-.17.11-.37.17-.58.17Z"/>
    </g>
  </g>
</svg>