<svg width="50" height="50" viewBox="0 0 50 50" fill="none" xmlns="http://www.w3.org/2000/svg">
<g clip-path="url(#clip0_1819_3676)">
<mask id="path-1-inside-1_1819_3676" fill="white">
<path d="M13.7005 33.3311C12.4291 33.3311 11.3939 34.3662 11.3939 35.6387C11.3939 36.9092 12.4291 37.9434 13.7005 37.9434C14.972 37.9434 16.0072 36.9092 16.0072 35.6387C16.0072 34.3662 14.972 33.3311 13.7005 33.3311ZM13.7005 36.3809C13.2904 36.3809 12.9564 36.0479 12.9564 35.6387C12.9564 35.2275 13.2904 34.8936 13.7005 34.8936C14.1107 34.8936 14.4447 35.2275 14.4447 35.6387C14.4447 36.0479 14.1107 36.3809 13.7005 36.3809ZM25.6341 17.0225H30.6644C31.096 17.0225 31.4457 16.6729 31.4457 16.2412V11.2148C31.4457 10.7832 31.096 10.4336 30.6644 10.4336H25.6351C25.2035 10.4336 24.8539 10.7832 24.8539 11.2148V16.2412C24.8529 16.6729 25.2025 17.0225 25.6341 17.0225ZM26.4154 11.9971H29.8832V15.4609H26.4164L26.4154 11.9971ZM17.6117 25.0322H22.6439C23.0755 25.0322 23.4251 24.6826 23.4251 24.251V19.2275C23.4251 18.7959 23.0755 18.4463 22.6439 18.4463H17.6117C17.18 18.4463 16.8304 18.7959 16.8304 19.2275V24.251C16.8304 24.6826 17.181 25.0322 17.6117 25.0322ZM18.3929 20.0088H21.8626V23.4697H18.3929V20.0088ZM43.3011 26.4551H38.2689C37.8373 26.4551 37.4876 26.8047 37.4876 27.2363V32.2627C37.4876 32.6943 37.8373 33.0439 38.2689 33.0439H43.3011C43.7328 33.0439 44.0824 32.6943 44.0824 32.2627V27.2363C44.0824 26.8047 43.7318 26.4551 43.3011 26.4551ZM42.5199 31.4814H39.0501V28.0176H42.5199V31.4814ZM49.2191 47.4229H47.7748V24.959C47.7748 24.665 47.6097 24.3965 47.348 24.2627L35.3568 18.1602V6.61523C35.3568 6.18359 35.0072 5.83398 34.5755 5.83398H33.1087V1.7959C33.1087 1.36426 32.7591 1.01465 32.3275 1.01465H15.9486C15.5169 1.01465 15.1673 1.36426 15.1673 1.7959V5.83301H13.7005C13.2689 5.83301 12.9193 6.18262 12.9193 6.61426V15.335H4.80405C4.37241 15.335 4.0228 15.6846 4.0228 16.1162V33.5879L0.321629 36.2861C0.153661 36.4082 0.0413558 36.5928 0.0101058 36.7969C-0.0221207 37.0019 0.0296371 37.2109 0.151707 37.3789L1.72104 39.5215C1.87436 39.7305 2.11167 39.8408 2.3519 39.8408C2.51206 39.8408 2.67319 39.792 2.81186 39.6904L4.0228 38.8076V47.4209H2.57847C2.14682 47.4209 1.79722 47.7705 1.79722 48.2021C1.79722 48.6338 2.14682 48.9834 2.57847 48.9834H49.2191C49.6507 48.9834 50.0003 48.6338 50.0003 48.2021C50.0003 47.7705 49.6507 47.4229 49.2191 47.4229ZM39.0492 37.624L39.2279 37.3799C39.3499 37.2129 39.4007 37.0029 39.3695 36.7988C39.3382 36.5947 39.2259 36.4102 39.058 36.2881L39.0492 36.2822V36.0312H42.5189V39.4922H39.0492V37.624ZM37.5052 37.0889L36.8607 37.9697L26.1419 30.1523C26.0052 30.0527 25.8431 30.002 25.682 30.002C25.5208 30.002 25.3587 30.0518 25.222 30.1523L21.9457 32.542L21.0179 31.8643L25.682 28.4648L37.5052 37.0889ZM16.7298 2.57715H31.5462V5.83301H16.7298V2.57715ZM14.4818 7.39648H33.7943V32.4492L26.1419 26.8682C25.8675 26.668 25.4955 26.668 25.221 26.8682L19.6898 30.8994L14.4818 27.1025V7.39648ZM12.9193 23.4697H9.03647V20.0088H12.9193V23.4697ZM5.5853 16.8984H12.9193V18.4463H8.25522C7.82358 18.4463 7.47397 18.7959 7.47397 19.2275V24.251C7.47397 24.6826 7.82358 25.0322 8.25522 25.0322H12.9193V27.1025L5.5853 32.4502V16.8984ZM2.52085 37.9707L1.87436 37.0889L13.7005 28.4668L25.5267 37.0898L24.8822 37.9707L14.1605 30.1523C13.8861 29.9522 13.514 29.9522 13.2396 30.1523L2.52085 37.9707ZM11.3978 47.4229V42.0234H16.0033V47.4229H11.3978ZM17.5658 47.4229V41.2422C17.5658 40.8105 17.2162 40.4609 16.7845 40.4609H10.6166C10.1849 40.4609 9.8353 40.8105 9.8353 41.2422V47.4229H5.5853V37.6699L13.7005 31.751L21.8158 37.668V47.4229H17.5658ZM23.3792 47.4229V38.8076L24.5931 39.6924C24.9417 39.9463 25.43 39.8701 25.6839 39.5225L27.2503 37.3799C27.3724 37.2129 27.4232 37.0029 27.3919 36.7979C27.3597 36.5928 27.2474 36.4092 27.0804 36.2871L23.2708 33.5098L25.682 31.751L33.7953 37.668V47.4229H23.3792ZM35.3568 47.4229V38.8076L36.5707 39.6924C36.7093 39.7939 36.8705 39.8428 37.0306 39.8428C37.1927 39.8428 37.3529 39.791 37.4876 39.6943V40.2725C37.4876 40.7041 37.8373 41.0537 38.2689 41.0537H43.3011C43.7328 41.0537 44.0824 40.7041 44.0824 40.2725V35.249C44.0824 34.8174 43.7328 34.4678 43.3011 34.4678H38.2689C37.8724 34.4678 37.5453 34.7637 37.4955 35.1475L35.3578 33.5889V19.9131L46.2132 25.4375V47.4229H35.3568Z"/>
<path d="M17.6116 17.0225H22.6439C23.0755 17.0225 23.4251 16.6729 23.4251 16.2412V11.2148C23.4251 10.7832 23.0755 10.4336 22.6439 10.4336H17.6116C17.18 10.4336 16.8304 10.7832 16.8304 11.2148V16.2412C16.8304 16.6729 17.181 17.0225 17.6116 17.0225ZM25.6341 25.0322H30.6644C31.096 25.0322 31.4456 24.6826 31.4456 24.251V19.2275C31.4456 18.7959 31.096 18.4463 30.6644 18.4463H25.6351C25.2034 18.4463 24.8538 18.7959 24.8538 19.2275V24.251C24.8529 24.6826 25.2025 25.0322 25.6341 25.0322Z"/>
</mask>
<path d="M13.7005 33.3311C12.4291 33.3311 11.3939 34.3662 11.3939 35.6387C11.3939 36.9092 12.4291 37.9434 13.7005 37.9434C14.972 37.9434 16.0072 36.9092 16.0072 35.6387C16.0072 34.3662 14.972 33.3311 13.7005 33.3311ZM13.7005 36.3809C13.2904 36.3809 12.9564 36.0479 12.9564 35.6387C12.9564 35.2275 13.2904 34.8936 13.7005 34.8936C14.1107 34.8936 14.4447 35.2275 14.4447 35.6387C14.4447 36.0479 14.1107 36.3809 13.7005 36.3809ZM25.6341 17.0225H30.6644C31.096 17.0225 31.4457 16.6729 31.4457 16.2412V11.2148C31.4457 10.7832 31.096 10.4336 30.6644 10.4336H25.6351C25.2035 10.4336 24.8539 10.7832 24.8539 11.2148V16.2412C24.8529 16.6729 25.2025 17.0225 25.6341 17.0225ZM26.4154 11.9971H29.8832V15.4609H26.4164L26.4154 11.9971ZM17.6117 25.0322H22.6439C23.0755 25.0322 23.4251 24.6826 23.4251 24.251V19.2275C23.4251 18.7959 23.0755 18.4463 22.6439 18.4463H17.6117C17.18 18.4463 16.8304 18.7959 16.8304 19.2275V24.251C16.8304 24.6826 17.181 25.0322 17.6117 25.0322ZM18.3929 20.0088H21.8626V23.4697H18.3929V20.0088ZM43.3011 26.4551H38.2689C37.8373 26.4551 37.4876 26.8047 37.4876 27.2363V32.2627C37.4876 32.6943 37.8373 33.0439 38.2689 33.0439H43.3011C43.7328 33.0439 44.0824 32.6943 44.0824 32.2627V27.2363C44.0824 26.8047 43.7318 26.4551 43.3011 26.4551ZM42.5199 31.4814H39.0501V28.0176H42.5199V31.4814ZM49.2191 47.4229H47.7748V24.959C47.7748 24.665 47.6097 24.3965 47.348 24.2627L35.3568 18.1602V6.61523C35.3568 6.18359 35.0072 5.83398 34.5755 5.83398H33.1087V1.7959C33.1087 1.36426 32.7591 1.01465 32.3275 1.01465H15.9486C15.5169 1.01465 15.1673 1.36426 15.1673 1.7959V5.83301H13.7005C13.2689 5.83301 12.9193 6.18262 12.9193 6.61426V15.335H4.80405C4.37241 15.335 4.0228 15.6846 4.0228 16.1162V33.5879L0.321629 36.2861C0.153661 36.4082 0.0413558 36.5928 0.0101058 36.7969C-0.0221207 37.0019 0.0296371 37.2109 0.151707 37.3789L1.72104 39.5215C1.87436 39.7305 2.11167 39.8408 2.3519 39.8408C2.51206 39.8408 2.67319 39.792 2.81186 39.6904L4.0228 38.8076V47.4209H2.57847C2.14682 47.4209 1.79722 47.7705 1.79722 48.2021C1.79722 48.6338 2.14682 48.9834 2.57847 48.9834H49.2191C49.6507 48.9834 50.0003 48.6338 50.0003 48.2021C50.0003 47.7705 49.6507 47.4229 49.2191 47.4229ZM39.0492 37.624L39.2279 37.3799C39.3499 37.2129 39.4007 37.0029 39.3695 36.7988C39.3382 36.5947 39.2259 36.4102 39.058 36.2881L39.0492 36.2822V36.0312H42.5189V39.4922H39.0492V37.624ZM37.5052 37.0889L36.8607 37.9697L26.1419 30.1523C26.0052 30.0527 25.8431 30.002 25.682 30.002C25.5208 30.002 25.3587 30.0518 25.222 30.1523L21.9457 32.542L21.0179 31.8643L25.682 28.4648L37.5052 37.0889ZM16.7298 2.57715H31.5462V5.83301H16.7298V2.57715ZM14.4818 7.39648H33.7943V32.4492L26.1419 26.8682C25.8675 26.668 25.4955 26.668 25.221 26.8682L19.6898 30.8994L14.4818 27.1025V7.39648ZM12.9193 23.4697H9.03647V20.0088H12.9193V23.4697ZM5.5853 16.8984H12.9193V18.4463H8.25522C7.82358 18.4463 7.47397 18.7959 7.47397 19.2275V24.251C7.47397 24.6826 7.82358 25.0322 8.25522 25.0322H12.9193V27.1025L5.5853 32.4502V16.8984ZM2.52085 37.9707L1.87436 37.0889L13.7005 28.4668L25.5267 37.0898L24.8822 37.9707L14.1605 30.1523C13.8861 29.9522 13.514 29.9522 13.2396 30.1523L2.52085 37.9707ZM11.3978 47.4229V42.0234H16.0033V47.4229H11.3978ZM17.5658 47.4229V41.2422C17.5658 40.8105 17.2162 40.4609 16.7845 40.4609H10.6166C10.1849 40.4609 9.8353 40.8105 9.8353 41.2422V47.4229H5.5853V37.6699L13.7005 31.751L21.8158 37.668V47.4229H17.5658ZM23.3792 47.4229V38.8076L24.5931 39.6924C24.9417 39.9463 25.43 39.8701 25.6839 39.5225L27.2503 37.3799C27.3724 37.2129 27.4232 37.0029 27.3919 36.7979C27.3597 36.5928 27.2474 36.4092 27.0804 36.2871L23.2708 33.5098L25.682 31.751L33.7953 37.668V47.4229H23.3792ZM35.3568 47.4229V38.8076L36.5707 39.6924C36.7093 39.7939 36.8705 39.8428 37.0306 39.8428C37.1927 39.8428 37.3529 39.791 37.4876 39.6943V40.2725C37.4876 40.7041 37.8373 41.0537 38.2689 41.0537H43.3011C43.7328 41.0537 44.0824 40.7041 44.0824 40.2725V35.249C44.0824 34.8174 43.7328 34.4678 43.3011 34.4678H38.2689C37.8724 34.4678 37.5453 34.7637 37.4955 35.1475L35.3578 33.5889V19.9131L46.2132 25.4375V47.4229H35.3568Z" fill="black"/>
<path d="M13.7005 33.3311C12.4291 33.3311 11.3939 34.3662 11.3939 35.6387C11.3939 36.9092 12.4291 37.9434 13.7005 37.9434C14.972 37.9434 16.0072 36.9092 16.0072 35.6387C16.0072 34.3662 14.972 33.3311 13.7005 33.3311ZM13.7005 36.3809C13.2904 36.3809 12.9564 36.0479 12.9564 35.6387C12.9564 35.2275 13.2904 34.8936 13.7005 34.8936C14.1107 34.8936 14.4447 35.2275 14.4447 35.6387C14.4447 36.0479 14.1107 36.3809 13.7005 36.3809ZM25.6341 17.0225H30.6644C31.096 17.0225 31.4457 16.6729 31.4457 16.2412V11.2148C31.4457 10.7832 31.096 10.4336 30.6644 10.4336H25.6351C25.2035 10.4336 24.8539 10.7832 24.8539 11.2148V16.2412C24.8529 16.6729 25.2025 17.0225 25.6341 17.0225ZM26.4154 11.9971H29.8832V15.4609H26.4164L26.4154 11.9971ZM17.6117 25.0322H22.6439C23.0755 25.0322 23.4251 24.6826 23.4251 24.251V19.2275C23.4251 18.7959 23.0755 18.4463 22.6439 18.4463H17.6117C17.18 18.4463 16.8304 18.7959 16.8304 19.2275V24.251C16.8304 24.6826 17.181 25.0322 17.6117 25.0322ZM18.3929 20.0088H21.8626V23.4697H18.3929V20.0088ZM43.3011 26.4551H38.2689C37.8373 26.4551 37.4876 26.8047 37.4876 27.2363V32.2627C37.4876 32.6943 37.8373 33.0439 38.2689 33.0439H43.3011C43.7328 33.0439 44.0824 32.6943 44.0824 32.2627V27.2363C44.0824 26.8047 43.7318 26.4551 43.3011 26.4551ZM42.5199 31.4814H39.0501V28.0176H42.5199V31.4814ZM49.2191 47.4229H47.7748V24.959C47.7748 24.665 47.6097 24.3965 47.348 24.2627L35.3568 18.1602V6.61523C35.3568 6.18359 35.0072 5.83398 34.5755 5.83398H33.1087V1.7959C33.1087 1.36426 32.7591 1.01465 32.3275 1.01465H15.9486C15.5169 1.01465 15.1673 1.36426 15.1673 1.7959V5.83301H13.7005C13.2689 5.83301 12.9193 6.18262 12.9193 6.61426V15.335H4.80405C4.37241 15.335 4.0228 15.6846 4.0228 16.1162V33.5879L0.321629 36.2861C0.153661 36.4082 0.0413558 36.5928 0.0101058 36.7969C-0.0221207 37.0019 0.0296371 37.2109 0.151707 37.3789L1.72104 39.5215C1.87436 39.7305 2.11167 39.8408 2.3519 39.8408C2.51206 39.8408 2.67319 39.792 2.81186 39.6904L4.0228 38.8076V47.4209H2.57847C2.14682 47.4209 1.79722 47.7705 1.79722 48.2021C1.79722 48.6338 2.14682 48.9834 2.57847 48.9834H49.2191C49.6507 48.9834 50.0003 48.6338 50.0003 48.2021C50.0003 47.7705 49.6507 47.4229 49.2191 47.4229ZM39.0492 37.624L39.2279 37.3799C39.3499 37.2129 39.4007 37.0029 39.3695 36.7988C39.3382 36.5947 39.2259 36.4102 39.058 36.2881L39.0492 36.2822V36.0312H42.5189V39.4922H39.0492V37.624ZM37.5052 37.0889L36.8607 37.9697L26.1419 30.1523C26.0052 30.0527 25.8431 30.002 25.682 30.002C25.5208 30.002 25.3587 30.0518 25.222 30.1523L21.9457 32.542L21.0179 31.8643L25.682 28.4648L37.5052 37.0889ZM16.7298 2.57715H31.5462V5.83301H16.7298V2.57715ZM14.4818 7.39648H33.7943V32.4492L26.1419 26.8682C25.8675 26.668 25.4955 26.668 25.221 26.8682L19.6898 30.8994L14.4818 27.1025V7.39648ZM12.9193 23.4697H9.03647V20.0088H12.9193V23.4697ZM5.5853 16.8984H12.9193V18.4463H8.25522C7.82358 18.4463 7.47397 18.7959 7.47397 19.2275V24.251C7.47397 24.6826 7.82358 25.0322 8.25522 25.0322H12.9193V27.1025L5.5853 32.4502V16.8984ZM2.52085 37.9707L1.87436 37.0889L13.7005 28.4668L25.5267 37.0898L24.8822 37.9707L14.1605 30.1523C13.8861 29.9522 13.514 29.9522 13.2396 30.1523L2.52085 37.9707ZM11.3978 47.4229V42.0234H16.0033V47.4229H11.3978ZM17.5658 47.4229V41.2422C17.5658 40.8105 17.2162 40.4609 16.7845 40.4609H10.6166C10.1849 40.4609 9.8353 40.8105 9.8353 41.2422V47.4229H5.5853V37.6699L13.7005 31.751L21.8158 37.668V47.4229H17.5658ZM23.3792 47.4229V38.8076L24.5931 39.6924C24.9417 39.9463 25.43 39.8701 25.6839 39.5225L27.2503 37.3799C27.3724 37.2129 27.4232 37.0029 27.3919 36.7979C27.3597 36.5928 27.2474 36.4092 27.0804 36.2871L23.2708 33.5098L25.682 31.751L33.7953 37.668V47.4229H23.3792ZM35.3568 47.4229V38.8076L36.5707 39.6924C36.7093 39.7939 36.8705 39.8428 37.0306 39.8428C37.1927 39.8428 37.3529 39.791 37.4876 39.6943V40.2725C37.4876 40.7041 37.8373 41.0537 38.2689 41.0537H43.3011C43.7328 41.0537 44.0824 40.7041 44.0824 40.2725V35.249C44.0824 34.8174 43.7328 34.4678 43.3011 34.4678H38.2689C37.8724 34.4678 37.5453 34.7637 37.4955 35.1475L35.3578 33.5889V19.9131L46.2132 25.4375V47.4229H35.3568Z" stroke="black" stroke-width="2" mask="url(#path-1-inside-1_1819_3676)"/>
<path d="M17.6116 17.0225H22.6439C23.0755 17.0225 23.4251 16.6729 23.4251 16.2412V11.2148C23.4251 10.7832 23.0755 10.4336 22.6439 10.4336H17.6116C17.18 10.4336 16.8304 10.7832 16.8304 11.2148V16.2412C16.8304 16.6729 17.181 17.0225 17.6116 17.0225ZM25.6341 25.0322H30.6644C31.096 25.0322 31.4456 24.6826 31.4456 24.251V19.2275C31.4456 18.7959 31.096 18.4463 30.6644 18.4463H25.6351C25.2034 18.4463 24.8538 18.7959 24.8538 19.2275V24.251C24.8529 24.6826 25.2025 25.0322 25.6341 25.0322Z" stroke="black" stroke-width="2" mask="url(#path-1-inside-1_1819_3676)"/>
</g>
<defs>
<clipPath id="clip0_1819_3676">
<rect width="50" height="50" fill="white"/>
</clipPath>
</defs>
</svg>