<svg width="50" height="50" viewBox="0 0 50 50" fill="none" xmlns="http://www.w3.org/2000/svg">
<path d="M46.8569 38.8106L45.2413 24.264L44.2573 18.3271C44.22 18.1084 44.1369 17.9 44.0134 17.7157C43.89 17.5314 43.7289 17.3753 43.5408 17.2576C43.3527 17.14 43.1418 17.0634 42.922 17.0331C42.7022 17.0027 42.4785 17.0192 42.2656 17.0815C42.2196 17.1063 34.3182 19.4084 34.2872 19.4499C34.1378 19.5099 34.0095 19.6128 33.9183 19.7455C33.8272 19.8782 33.7773 20.035 33.7749 20.196L33.9428 26.1006L31.0952 25.5019C30.9947 25.4806 30.891 25.4792 30.79 25.498C30.689 25.5167 30.5927 25.5552 30.5066 25.6112C30.4205 25.6672 30.3463 25.7397 30.2883 25.8244C30.2302 25.9091 30.1894 26.0045 30.1683 26.105C30.1471 26.2055 30.146 26.3092 30.1649 26.4101C30.1839 26.5111 30.2226 26.6073 30.2788 26.6933C30.335 26.7793 30.4076 26.8533 30.4924 26.9112C30.5773 26.9691 30.6727 27.0096 30.7733 27.0306L33.9886 27.7066L34.1701 34.0905L25.7716 31.9837V31.5777C25.7716 31.4751 25.7514 31.3735 25.7122 31.2787C25.673 31.1839 25.6154 31.0978 25.5429 31.0252C25.4704 30.9527 25.3842 30.8952 25.2894 30.8559C25.1946 30.8167 25.093 30.7965 24.9904 30.7966C24.8754 30.7987 24.7622 30.8254 24.6583 30.8749C24.5545 30.9244 24.4625 30.9956 24.3885 31.0837C24.3145 31.1718 24.2602 31.2747 24.2293 31.3855C24.1984 31.4963 24.1916 31.6125 24.2094 31.7262L15.0328 34.249L5.64801 31.4714L6.41215 25.4651L14.4066 27.8453C14.5576 27.8929 14.7125 27.9268 14.8696 27.9467C14.9526 27.9506 18.9843 26.9839 19.1862 26.9406C19.3853 26.8906 19.5566 26.7642 19.6633 26.5889C19.77 26.4136 19.8034 26.2033 19.7563 26.0035C19.7092 25.8037 19.5854 25.6305 19.4117 25.5213C19.2379 25.412 19.0282 25.3755 18.8277 25.4196L15.7345 26.1501L16.2106 20.2364C16.215 20.0596 16.1635 19.8859 16.0633 19.7402C15.9632 19.5944 15.8196 19.4841 15.653 19.4248L7.74124 17.0845C7.52915 17.0193 7.30562 16.9999 7.08547 17.0277C6.86533 17.0554 6.65359 17.1296 6.46431 17.2454C6.26943 17.3668 6.10323 17.529 5.97719 17.7209C5.85115 17.9128 5.76828 18.1298 5.73431 18.3568L3.1446 38.7732C3.08697 39.1496 3.16681 39.5341 3.3695 39.8564C3.5722 40.1787 3.88419 40.4173 4.24837 40.5284L14.0061 43.4148C14.2831 43.4795 14.5717 43.4753 14.8467 43.4026L24.9905 40.3987L35.1693 43.4079C35.4541 43.4847 35.7543 43.4829 36.0381 43.4026L45.7554 40.526C46.1128 40.4175 46.4199 40.1852 46.6217 39.8709C46.8236 39.5566 46.9069 39.1807 46.8569 38.8106ZM35.7315 34.019C35.7484 34.016 35.5223 27.8106 35.5727 27.837L43.7726 25.1853L44.464 31.4366L35.7315 34.019ZM42.7164 18.5826L43.5548 23.6363C43.5194 23.6378 43.4842 23.6418 43.4495 23.6484L35.5096 26.2184L35.3542 20.7528L42.7164 18.5826ZM24.2094 39.0006L15.2687 41.6478L15.7463 35.6729L24.2094 33.3464V39.0006ZM14.6021 20.7429L14.1672 26.1445L6.61186 23.8953L7.28813 18.5796L14.6021 20.7429ZM5.44821 33.0418L14.1854 35.6278L13.6979 41.6935L4.69084 38.9952L5.44821 33.0418ZM35.5926 41.9045L25.7716 39.0006V33.5943L34.5033 35.7846C34.7746 35.8586 35.0614 35.8528 35.3294 35.7678L44.6384 33.014L45.3038 39.0303L35.5926 41.9045Z" fill="black"/>
<path d="M24.9733 29.2347C25.227 29.2404 25.4786 29.1864 25.7076 29.077C25.9366 28.9676 26.1367 28.806 26.2918 28.6051C28.4895 25.7972 33.6002 18.8641 33.6002 15.1386C33.6013 14.0082 33.3796 12.8887 32.9478 11.844C32.5159 10.7994 31.8824 9.85008 31.0835 9.0504C30.2846 8.25072 29.3359 7.61633 28.2917 7.1835C27.2474 6.75067 26.1281 6.52789 24.9977 6.52789C23.8674 6.52789 22.7481 6.75067 21.7038 7.1835C20.6596 7.61633 19.7109 8.25072 18.912 9.0504C18.1131 9.85008 17.4796 10.7994 17.0477 11.844C16.6159 12.8887 16.3942 14.0082 16.3953 15.1386C16.3953 18.8641 21.506 25.7972 23.7029 28.6051C23.8538 28.7986 24.0464 28.9557 24.2663 29.0647C24.4862 29.1737 24.7279 29.2318 24.9733 29.2347ZM24.9974 8.09793C26.864 8.10016 28.6535 8.84265 29.9734 10.1625C31.2933 11.4824 32.0358 13.2719 32.038 15.1386C32.038 17.7847 28.4345 23.3326 25.0622 27.6424L25.1383 27.7019C25.0718 27.6762 24.9901 27.6872 24.9333 27.6424C21.561 23.3326 17.9575 17.7847 17.9575 15.1386C17.9596 13.272 18.7019 11.4825 20.0217 10.1626C21.3414 8.84273 23.1308 8.1002 24.9974 8.09793Z" fill="black"/>
<circle cx="25" cy="14.8649" r="3.97973" stroke="black" stroke-width="1.5"/>
</svg>