<?xml version="1.0" encoding="UTF-8"?>
<svg id="Layer_1" data-name="Layer 1" xmlns="http://www.w3.org/2000/svg" viewBox="0 0 51 50">
  <defs>
    <style>
      .cls-1 {
        fill: #fff;
      }
    </style>
  </defs>
  <path class="cls-1" d="M26.5,29.02c0,.4.33.73.73.73s.73-.33.73-.73c0-1.32-1.02-2.3-2.23-2.24v-.41c0-.4-.33-.73-.73-.73s-.73.33-.73.73v.41c-1.21-.08-2.23.94-2.23,2.24v1c0,1.28,1.02,2.33,2.23,2.24v2.54c-.42.05-.76-.26-.76-.77,0-.4-.33-.73-.73-.73s-.73.33-.73.73c0,1.28,1.02,2.33,2.23,2.24v.41c0,.4.33.73.73.73s.73-.33.73-.73v-.41c1.2.07,2.23-.93,2.23-2.24v-1c0-1.32-1.03-2.3-2.23-2.24v-2.54c.4-.07.76.28.76.77ZM24.28,30.79c-.42.05-.76-.26-.76-.77v-1c0-.48.36-.85.76-.77v2.54ZM26.5,33.02v1c0,.48-.35.85-.76.77v-2.54c.4-.07.76.28.76.77ZM28.38,7.8c0-1.86-1.51-3.37-3.37-3.37s-3.37,1.51-3.37,3.37,1.51,3.37,3.37,3.37,3.37-1.51,3.37-3.37ZM23.1,7.8c0-1.05.85-1.91,1.91-1.91s1.91.85,1.91,1.91-.85,1.91-1.91,1.91-1.91-.85-1.91-1.91ZM25.01,23.13c-4.63,0-8.4,3.77-8.4,8.4s3.77,8.4,8.4,8.4,8.4-3.77,8.4-8.4-3.77-8.4-8.4-8.4ZM25.01,38.45c-3.82,0-6.93-3.11-6.93-6.93s3.11-6.93,6.93-6.93,6.93,3.11,6.93,6.93-3.11,6.93-6.93,6.93ZM46.73,18.9c1.7.11,3.3-1.13,3.29-2.93v-2.2c-.01-.21-.08-.48-.38-.64L26.79.46c-1.11-.62-2.44-.62-3.55,0l-9.22,5.11c-.35.2-.48.64-.29,1,.2.35.64.48,1,.29L23.94,1.74c.67-.37,1.46-.37,2.13,0l20.38,11.3H3.57l8.14-4.51c.35-.2.48-.64.29-1-.2-.35-.64-.48-1-.29L.39,13.13C.22,13.23,0,13.44,0,13.77v2.2c-.02,1.73,1.54,3.12,3.29,2.93l2.58,3.63v17.98l-2.58,3.63h-1.58C.77,44.14,0,44.91,0,45.85v2.44c0,.94.77,1.71,1.71,1.71h46.6c.94,0,1.71-.77,1.71-1.71v-2.44c0-.94-.77-1.71-1.71-1.71h-1.58l-2.58-3.63v-17.98l2.58-3.63ZM2.93,17.44c-.81,0-1.47-.66-1.47-1.47v-1.47h47.09v1.47c0,.81-.66,1.47-1.47,1.47H2.93ZM37.54,32.15c.4,0,.73-.33.73-.73v-8.39h4.42v16.98h-4.42v-5.18c0-.4-.33-.73-.73-.73s-.73.33-.73.73v5.68l-2.58,3.63H15.79l-2.58-3.63v-17.98l2.58-3.63h18.44l2.58,3.63v8.89c0,.4.33.73.73.73ZM5.08,18.9h8.91l-1.89,2.66h-5.13l-1.89-2.66ZM11.75,23.03v16.98h-4.42v-16.98h4.42ZM6.97,41.48h5.13l1.89,2.66H5.08l1.89-2.66ZM48.31,45.6c.13,0,.24.11.24.24v2.44c0,.13-.11.24-.24.24H1.71c-.13,0-.24-.11-.24-.24v-2.44c0-.13.11-.24.24-.24h46.6ZM44.94,44.14h-8.91l1.89-2.66h5.13l1.89,2.66ZM43.05,21.56h-5.13l-1.89-2.66h8.91l-1.89,2.66Z"/>
</svg>