<svg width="50" height="50" viewBox="0 0 50 50" fill="none" xmlns="http://www.w3.org/2000/svg">
<path d="M25 12.7969C18.2712 12.7969 12.7969 18.2712 12.7969 25C12.7969 31.7288 18.2712 37.2031 25 37.2031C31.7288 37.2031 37.2031 31.7288 37.2031 25C37.2031 18.2712 31.7288 12.7969 25 12.7969ZM25 35.4844C19.2189 35.4844 14.5156 30.7811 14.5156 25C14.5156 19.2189 19.2189 14.5156 25 14.5156C30.7811 14.5156 35.4844 19.2189 35.4844 25C35.4844 30.7811 30.7811 35.4844 25 35.4844Z" fill="black"/>
<path d="M46.5438 3.10038C46.263 2.95136 45.9229 2.96932 45.6595 3.14721C41.4406 5.99784 38.9219 10.7395 38.9219 15.8312V26.9818C38.9219 28.1778 39.3877 29.3022 40.2333 30.1479L41.8438 31.7584V44.4219C41.8438 45.8435 43.0003 47 44.4219 47C45.8435 47 47 45.8435 47 44.4219V3.85938C47 3.54149 46.8245 3.24956 46.5438 3.10038ZM45.2812 44.4219C45.2812 44.8957 44.8957 45.2812 44.4219 45.2812C43.948 45.2812 43.5625 44.8957 43.5625 44.4219V31.4023C43.5625 31.1744 43.4719 30.9559 43.3108 30.7947L41.4486 28.9325C40.9276 28.4115 40.6406 27.7187 40.6406 26.9818V15.8312C40.6406 11.8798 42.3491 8.16613 45.2812 5.60365V44.4219Z" fill="black"/>
<path d="M23.0284 18.1846C22.8421 17.7481 22.337 17.5454 21.9006 17.7316C18.9845 18.9765 17.1002 21.8295 17.1002 25C17.1002 25.4746 17.485 25.8594 17.9596 25.8594C18.4342 25.8594 18.819 25.4746 18.819 25C18.819 22.5191 20.2935 20.2865 22.5755 19.3124C23.0119 19.1261 23.2148 18.6211 23.0284 18.1846Z" fill="black"/>
<path d="M24.9999 17.1002L24.9565 17.1003C24.4819 17.1035 24.0997 17.4908 24.1029 17.9654C24.1061 18.4381 24.4902 18.8191 24.9622 18.8191C24.9641 18.8191 24.9662 18.8191 24.9681 18.8191L24.9999 18.819C25.4746 18.819 25.8593 18.4342 25.8593 17.9596C25.8593 17.485 25.4746 17.1002 24.9999 17.1002Z" fill="black"/>
<path d="M36.9129 13.6974C35.3946 12.0976 33.6049 10.8388 31.5935 9.95604C29.5107 9.04201 27.2923 8.57855 25 8.57855C22.3806 8.57855 19.8768 9.17719 17.558 10.358C17.1351 10.5733 16.9668 11.0908 17.1821 11.5137C17.3976 11.9366 17.915 12.1048 18.338 11.8896C20.4128 10.833 22.6543 10.2973 25 10.2973C29.0731 10.2973 32.8611 11.925 35.6662 14.8806C35.8352 15.0587 36.0622 15.1484 36.2897 15.1484C36.5021 15.1484 36.7149 15.0701 36.8811 14.9123C37.2254 14.5856 37.2396 14.0417 36.9129 13.6974Z" fill="black"/>
<path d="M37.7472 33.9701C37.3748 33.6758 36.8344 33.739 36.5401 34.1113C33.7305 37.6648 29.5243 39.7027 25 39.7027C22.1683 39.7027 19.4194 38.8963 17.0505 37.3705C16.6516 37.1135 16.1196 37.2287 15.8627 37.6276C15.6057 38.0267 15.7209 38.5585 16.1199 38.8155C18.7669 40.5203 21.8376 41.4214 25 41.4214C30.0531 41.4214 34.7507 39.1455 37.8883 35.1771C38.1826 34.8049 38.1195 34.2645 37.7472 33.9701Z" fill="black"/>
<path d="M14.6839 35.4779L14.6713 35.4633C14.6667 35.4577 14.6621 35.4521 14.6574 35.4466C14.3517 35.0834 13.8096 35.037 13.4466 35.3426C13.0835 35.6484 13.0369 36.1904 13.3427 36.5535L13.351 36.5634L13.3514 36.5631C13.3605 36.5746 13.37 36.5861 13.3798 36.5974C13.5498 36.7954 13.7902 36.897 14.0322 36.897C14.2304 36.897 14.4295 36.8289 14.5916 36.6897C14.9517 36.3805 14.993 35.838 14.6839 35.4779Z" fill="black"/>
<path d="M13.6562 3C13.1816 3 12.7969 3.38474 12.7969 3.85938V13.1406H11.2493C11.2494 13.1358 11.25 13.1312 11.25 13.1263V3.85938C11.25 3.38474 10.8653 3 10.3906 3C9.91599 3 9.53125 3.38474 9.53125 3.85938V13.1263C9.53125 13.1311 9.53194 13.1358 9.53194 13.1406H7.98369C7.98377 13.1358 7.98438 13.1312 7.98438 13.1263V3.85938C7.98438 3.38474 7.59963 3 7.125 3C6.65037 3 6.26562 3.38474 6.26562 3.85938V13.1263C6.26562 13.1311 6.26631 13.1358 6.26631 13.1406H4.71875V3.85938C4.71875 3.38474 4.33401 3 3.85938 3C3.38474 3 3 3.38474 3 3.85938V14.3438C3 16.4518 4.27909 18.3544 6.17969 19.1768V44.4219C6.17969 45.8435 7.33623 47 8.75781 47C10.1794 47 11.3359 45.8435 11.3359 44.4219V19.1768C13.2365 18.3544 14.5156 16.4518 14.5156 14.3438V3.85938C14.5156 3.38474 14.1309 3 13.6562 3ZM10.238 17.7486C9.87036 17.8548 9.61719 18.1914 9.61719 18.5742V44.4219C9.61719 44.8957 9.23167 45.2812 8.75781 45.2812C8.28395 45.2812 7.89844 44.8957 7.89844 44.4219V18.5742C7.89844 18.1914 7.64535 17.8548 7.27763 17.7486C5.93846 17.3616 4.95895 16.2121 4.75759 14.8594H12.7579C12.5567 16.2121 11.5772 17.3616 10.238 17.7486Z" fill="black"/>
</svg>