<?xml version="1.0" encoding="UTF-8"?>
<svg id="Layer_1" data-name="Layer 1" xmlns="http://www.w3.org/2000/svg" viewBox="0 0 62 50">
  <defs>
    <style>
      .cls-1 {
        fill: #fff;
      }
    </style>
  </defs>
  <path class="cls-1" d="M58.88,11.35L34.04.7c-2.18-.94-4.69-.94-6.88,0L2.33,11.35c-1.44.62-2.33,1.97-2.33,3.54s.89,2.92,2.33,3.54l2.94,1.26s0,.06,0,.09v13.89c-1.13.38-1.95,1.46-1.95,2.72,0,.73.28,1.4.73,1.91-.5.49-.83,1.16-.9,1.91l-.7,7.74c-.05.53.13,1.06.49,1.45.36.39.87.62,1.4.62h3.72c.53,0,1.04-.22,1.4-.62.36-.39.54-.92.49-1.45l-.7-7.74c-.07-.75-.4-1.42-.9-1.91.45-.51.73-1.18.73-1.91,0-1.26-.82-2.34-1.95-2.72v-13.2l5.01,2.15s0,.06,0,.09v6.99c0,2.92,2,5.62,5.63,7.6,3.45,1.89,8.03,2.93,12.88,2.93s9.42-1.04,12.88-2.93c3.63-1.98,5.63-4.69,5.63-7.6v-6.99s0-.06,0-.09l9.77-4.19c1.44-.62,2.33-1.97,2.33-3.54,0-1.56-.89-2.92-2.33-3.54ZM8.08,48.15s-.04.02-.05.02h-3.72s-.03,0-.05-.02c-.02-.02-.02-.04-.02-.05l.7-7.74c.06-.63.58-1.11,1.22-1.11s1.16.48,1.22,1.11l.7,7.74s0,.03-.02.05ZM6.18,37.42c-.57,0-1.04-.47-1.04-1.04s.47-1.04,1.04-1.04,1.04.47,1.04,1.04-.47,1.04-1.04,1.04ZM47.28,25.79c0,2.37-1.95,4.68-5.35,6.35-.45.22-.64.77-.42,1.23.16.32.48.51.82.51.14,0,.27-.03.4-.09,1.89-.92,3.4-2.05,4.47-3.3-.34,1.93-1.95,3.76-4.6,5.21-3.19,1.74-7.45,2.7-12,2.7s-8.81-.96-12-2.7c-2.65-1.45-4.25-3.27-4.6-5.19.93,1.07,2.18,2.04,3.72,2.89,3.45,1.89,8.03,2.93,12.88,2.93,1.36,0,2.71-.08,4.02-.25.5-.06.86-.52.8-1.02-.06-.5-.52-.86-1.02-.8-1.24.15-2.51.23-3.8.23-4.55,0-8.81-.96-12-2.7-3.01-1.65-4.68-3.78-4.68-6v-2.39l13.24,5.67c1.09.47,2.26.7,3.44.7s2.35-.23,3.44-.7l13.23-5.67v2.39ZM58.16,16.74l-24.83,10.64c-1.73.74-3.71.74-5.43,0l-18.98-8.13,17.39-3.02c.78.93,2.38,1.53,4.3,1.53,2.75,0,4.82-1.23,4.82-2.87s-2.07-2.87-4.82-2.87c-2.5,0-4.44,1.02-4.77,2.43l-19.81,3.45c-.06.01-.11.03-.17.05l-2.8-1.2c-.76-.33-1.22-1.02-1.22-1.85s.46-1.53,1.22-1.85L27.89,2.39c.86-.37,1.79-.56,2.72-.56s1.85.18,2.71.55l24.84,10.65c.76.33,1.22,1.02,1.22,1.85s-.46,1.53-1.22,1.85ZM27.61,14.88c0-.27,1.03-1.04,2.99-1.04s2.99.77,2.99,1.04-1.03,1.04-2.99,1.04-2.99-.77-2.99-1.04Z"/>
  <path class="cls-1" d="M37.45,35.57c.07,0,.14,0,.21-.02.69-.16,1.37-.35,2.02-.55.48-.15.75-.67.6-1.15-.15-.48-.67-.75-1.15-.6-.61.19-1.24.36-1.88.51-.49.11-.8.61-.69,1.1.1.42.47.71.89.71Z"/>
</svg>