<svg width="50" height="50" viewBox="0 0 50 50" fill="none" xmlns="http://www.w3.org/2000/svg">
<path d="M41.4099 30.308C41.9646 28.5963 42.2463 26.8111 42.2463 24.9919C42.2463 23.1795 41.9666 21.4007 41.4152 19.6944C42.6278 19.2392 43.7302 18.5104 44.6455 17.5412C46.2274 15.8671 47.0622 13.6771 46.9964 11.3752C46.8601 6.6228 42.8823 2.86807 38.1279 3.00369C35.825 3.06949 33.6861 4.02789 32.1042 5.70233C31.3053 6.54794 30.6975 7.52515 30.2996 8.58191C28.5925 8.03104 26.8131 7.7514 24.9995 7.7514C23.1849 7.7514 21.4042 8.03171 19.6961 8.58325C18.4641 5.32401 15.311 3 11.6247 3C6.86896 3 3 6.86786 3 11.6219C3 15.3069 5.325 18.4587 8.58517 19.69C8.03314 21.398 7.75309 23.1782 7.75309 24.9919C7.75309 26.8111 8.03482 28.5963 8.58954 30.308C5.32702 31.5383 3 34.6915 3 38.3781C3 39.6758 3.28139 40.9236 3.83645 42.0865C3.98991 42.4077 4.37472 42.544 4.69607 42.3906C5.01708 42.2372 5.15341 41.8525 5.00029 41.5312C4.52851 40.5429 4.28943 39.4821 4.28943 38.3781C4.28943 34.335 7.58016 31.0455 11.6247 31.0455C15.6696 31.0455 18.9604 34.335 18.9604 38.3781C18.9604 42.4215 15.6696 45.7109 11.6247 45.7109C9.77991 45.7109 8.01668 45.0238 6.6601 43.776C6.39785 43.535 5.98986 43.5521 5.7491 43.8139C5.50801 44.0761 5.5248 44.4836 5.78705 44.7247C7.38238 46.192 9.45554 47 11.6247 47C15.3164 47 18.4735 44.6689 19.7015 41.4023C21.4076 41.9529 23.1866 42.2325 24.9995 42.2325C26.8128 42.2325 28.5921 41.9529 30.2983 41.4026C31.5263 44.6693 34.6833 47 38.375 47C43.1308 47 46.9997 43.1321 46.9997 38.3781C46.9997 34.6915 44.6727 31.538 41.4099 30.308ZM33.0417 6.58722C34.3868 5.16321 36.2065 4.34814 38.1651 4.29208C38.2363 4.29007 38.3068 4.28906 38.378 4.28906C42.3262 4.28906 45.5938 7.44156 45.7073 11.4118C45.7634 13.3696 45.0535 15.232 43.7083 16.6563C42.3632 18.0804 40.5435 18.8954 38.5849 18.9515C38.5137 18.9535 38.4428 18.9545 38.372 18.9545C34.4238 18.9545 31.1562 15.802 31.0427 11.8318C30.9863 9.87399 31.6965 8.01123 33.0417 6.58722ZM29.9366 40.1646C28.348 40.6809 26.6902 40.9434 24.9995 40.9434C23.3095 40.9434 21.6517 40.6809 20.0631 40.1646C20.185 39.5879 20.2498 38.9904 20.2498 38.3781C20.2498 33.624 16.3805 29.7564 11.6247 29.7564C11.0086 29.7564 10.4075 29.8219 9.82759 29.9451C9.30678 28.3512 9.04252 26.6879 9.04252 24.9919C9.04252 23.3014 9.30544 21.6434 9.82289 20.0536C10.4041 20.1778 11.0069 20.2436 11.6247 20.2436C13.1022 20.2436 14.5599 19.8636 15.8409 19.1448C16.1512 18.9706 16.2616 18.5779 16.0874 18.2673C15.9131 17.9568 15.5202 17.8467 15.2096 18.0209C14.121 18.6316 12.8813 18.9545 11.6247 18.9545C7.57982 18.9545 4.28943 15.665 4.28943 11.6216C4.28943 7.57852 7.58016 4.28906 11.6247 4.28906C15.6696 4.28906 18.9604 7.57852 18.9604 11.6219C18.9604 13.3135 18.3704 14.9638 17.2992 16.2693C17.0732 16.5442 17.1135 16.9504 17.3889 17.1763C17.6639 17.4019 18.0702 17.362 18.2962 17.0867C19.5557 15.5516 20.2498 13.6106 20.2498 11.6216C20.2498 11.0043 20.1837 10.4017 20.0597 9.82062C21.6497 9.30331 23.3085 9.04047 24.9995 9.04047C26.6902 9.04047 28.3484 9.30298 29.9376 9.81961C29.797 10.485 29.7338 11.1714 29.7536 11.8687C29.8876 16.5372 33.729 20.2439 38.3717 20.2436C38.4546 20.2436 38.5382 20.2426 38.6218 20.2399C39.1503 20.2248 39.6701 20.162 40.1769 20.0549C40.694 21.6441 40.9569 23.3021 40.9569 24.9919C40.9569 26.6879 40.6923 28.3512 40.1718 29.9451C39.5919 29.8216 38.9908 29.7564 38.375 29.7564C33.6192 29.7564 29.7503 33.624 29.7503 38.3781C29.7503 38.9907 29.8147 39.5882 29.9366 40.1646ZM38.375 45.7109C34.3301 45.7109 31.0397 42.4215 31.0397 38.3784C31.0397 34.335 34.3301 31.0455 38.375 31.0455C42.4199 31.0455 45.7103 34.335 45.7103 38.3784C45.7103 42.4215 42.4199 45.7109 38.375 45.7109Z" fill="black"/>
<path d="M15.7434 8.11018C15.5411 7.96472 15.275 7.96698 15.0753 8.11632C14.8755 8.26534 14.6616 8.38979 14.4368 8.48838C13.6309 7.82119 12.463 7.82895 11.6629 8.56499C11.2471 8.94771 10.9871 9.47687 10.9267 10.0484C10.0661 9.91293 9.28829 9.41157 8.77812 8.64289C8.65653 8.45993 8.45124 8.36069 8.24137 8.38203C8.03088 8.40369 7.84789 8.54333 7.76205 8.74762C7.74525 8.7877 7.35055 9.74193 7.40096 10.9098C7.43945 11.8036 7.74158 12.9557 8.8435 13.8452C8.44666 13.9807 8.02752 14.0434 7.60991 14.0256C7.33803 14.0143 7.09516 14.2015 7.02184 14.4782C6.94852 14.7549 7.0643 15.0487 7.30167 15.1883C8.22182 15.7291 9.20764 16 10.1709 16C11.0962 16 12.0005 15.7498 12.8051 15.2491C13.8142 14.621 14.5474 13.6594 14.9454 12.485C14.9579 12.4553 14.9683 12.4242 14.9766 12.3922C15.1813 11.7545 15.2885 11.0559 15.2885 10.315C15.2885 10.2827 15.2876 10.2501 15.2864 10.2178C15.6212 9.80011 15.8601 9.30522 15.9835 8.77025C16.0409 8.51876 15.9456 8.25564 15.7434 8.11018ZM14.0974 10.1214C14.109 10.1861 14.1151 10.253 14.1151 10.317C14.1151 10.9253 14.0296 11.4888 13.8667 11.9979C13.8579 12.0211 13.8505 12.0454 13.8444 12.0703C13.5398 12.9721 12.9854 13.6965 12.2103 14.1791C11.501 14.621 10.6868 14.8092 9.85712 14.7455C10.0471 14.6459 10.2307 14.5328 10.4064 14.4067C10.5824 14.28 10.6801 14.0625 10.6612 13.8378C10.6422 13.6131 10.5097 13.4173 10.3151 13.3258C9.21986 12.8108 8.63423 11.9917 8.57466 10.8917C8.56244 10.6664 8.57313 10.4502 8.59605 10.252C9.40285 10.9654 10.4363 11.3546 11.515 11.3252C11.8331 11.3165 12.0866 11.0414 12.0866 10.7049V10.3283C12.0866 10.3257 12.0866 10.3228 12.0866 10.3199C12.0826 10.006 12.2085 9.70767 12.4327 9.50176C12.8519 9.11612 13.4891 9.16299 13.8536 9.60649C13.9269 9.69538 14.0204 9.75842 14.1224 9.79171C14.0867 9.8958 14.0772 10.0093 14.0974 10.1214Z" fill="black"/>
<path d="M36.5914 12.5086H37.4297V16.355C37.4297 16.7111 37.6946 17 38.0211 17C38.3479 17 38.6124 16.7111 38.6124 16.355V12.5086H39.5256C39.8521 12.5086 40.117 12.2197 40.117 11.8636C40.117 11.5075 39.8521 11.2186 39.5256 11.2186H38.6124V9.41383C38.6124 8.79433 39.0747 8.29006 39.643 8.29006H40.4086C40.7351 8.29006 41 8.00114 41 7.64503C41 7.28858 40.7351 7 40.4086 7H39.643C38.4227 7 37.4297 8.08278 37.4297 9.41383V11.2186H36.5914C36.2649 11.2186 36 11.5075 36 11.8636C36 12.2197 36.2649 12.5086 36.5914 12.5086Z" fill="black"/>
<path d="M10.0077 42C10.182 42 10.3563 41.9595 10.5115 41.8787L15.4962 39.2858C15.807 39.1243 16 38.8231 16 38.4999C16 38.177 15.807 37.8758 15.4962 37.7143L10.5115 35.1213C10.2011 34.9596 9.81507 34.9596 9.50422 35.1213C9.19337 35.2828 9 35.584 9 35.9072V41.0929C9 41.4161 9.19337 41.7173 9.50422 41.8787C9.65946 41.9598 9.83338 42 10.0077 42ZM10.4646 36.6203L14.0788 38.5002L10.4646 40.3801V36.6203Z" fill="black"/>
<path d="M41.2608 34H35.7392C34.7803 34 34 34.7803 34 35.7396V41.2604C34 42.2197 34.7803 43 35.7392 43H41.2608C42.2197 43 43 42.2197 43 41.2604V35.7396C43 34.7803 42.2197 34 41.2608 34ZM41.7293 41.2604C41.7293 41.5191 41.5192 41.7293 41.2608 41.7293H35.7392C35.4808 41.7293 35.2707 41.5191 35.2707 41.2604V35.7396C35.2707 35.4812 35.4808 35.2707 35.7392 35.2707H41.2608C41.5192 35.2707 41.7293 35.4812 41.7293 35.7396V41.2604Z" fill="black"/>
<path d="M38 36C36.8973 36 36 36.8974 36 38.0002C36 39.103 36.8973 40 38 40C39.1027 40 40 39.103 40 38.0002C40 36.8974 39.1027 36 38 36ZM38 38.6767C37.6268 38.6767 37.3232 38.3731 37.3232 38.0002C37.3232 37.6269 37.6268 37.3233 38 37.3233C38.3732 37.3233 38.6768 37.6269 38.6768 38.0002C38.6768 38.3731 38.3732 38.6767 38 38.6767Z" fill="black"/>
<path d="M29.3702 18C29.022 18 28.7401 18.2932 28.7401 18.6546V18.9482C27.8521 19.492 26.9185 19.9615 25.9586 20.3457C25.19 20.6533 24.3961 20.909 23.5931 21.1091C23.4697 21.0106 23.3161 20.9509 23.1488 20.9509H20.2638C19.5668 20.9509 19 21.5401 19 22.2639V25.7017C19 26.4258 19.5668 27.0147 20.2638 27.0147H20.8404L21.059 31.3795C21.0763 31.7289 21.3546 32 21.6877 32C21.6986 32 21.7097 31.9997 21.7209 31.999C22.0684 31.9802 22.3355 31.6723 22.3175 31.3113L22.1022 27.0147H23.1488C23.3158 27.0147 23.4697 26.9553 23.5928 26.8568C24.1041 26.985 24.6127 27.1357 25.1099 27.3072C25.4404 27.4207 25.7968 27.2349 25.9064 26.8919C26.016 26.5486 25.8368 26.178 25.5067 26.0644C24.9727 25.8803 24.4267 25.7184 23.8773 25.581V22.3853C24.7378 22.1712 25.5881 21.8967 26.4114 21.5673C27.2076 21.2486 27.9873 20.8752 28.7398 20.4524V27.5148C28.4628 27.3594 28.1829 27.211 27.901 27.0702C27.5873 26.9134 27.2109 27.0505 27.0602 27.3764C26.9093 27.7024 27.0412 28.0934 27.3549 28.2503C27.8242 28.4848 28.2883 28.7433 28.7398 29.0188V29.3109C28.7398 29.6727 29.022 29.9656 29.3699 29.9656C29.7178 29.9656 30 29.6727 30 29.3109V18.6546C30.0003 18.2932 29.7181 18 29.3702 18ZM22.6174 25.7051L20.2602 25.7017L20.2638 22.2601H22.6174V25.7051Z" fill="black"/>
</svg>