<svg width="68" height="50" viewBox="0 0 68 50" fill="none" xmlns="http://www.w3.org/2000/svg">
<path d="M66.8365 23.8517H61.0837C63.4753 18.422 63.2167 14.0266 62.3118 11.0532C60.7605 5.75285 55.5247 0 47.7681 0C45.6996 0 43.6312 0.387832 41.4981 1.1635C37.8137 2.52091 35.3574 4.0076 34.2586 4.78327C33.1597 4.0076 30.7681 2.52091 27.019 1.1635C24.8859 0.387832 22.7529 0 20.7491 0C12.9924 0 7.75665 5.75285 6.20532 11.0532C5.30038 14.2205 4.97719 19.0038 8.01521 25.0152H1.03422C0.452472 25.0152 0 25.4677 0 26.0494C0 26.6312 0.452472 27.0836 1.03422 27.0836H9.24335C9.56654 27.6654 9.95437 28.2471 10.4068 28.8289C17.1293 38.5247 31.7376 49.0608 34.3878 49.7072V49.7718C34.3878 49.7718 34.4525 49.7719 34.5171 49.7072C34.5818 49.7072 34.6464 49.7072 34.711 49.7072V49.6426C36.9734 48.5437 51 39.4943 58.3688 28.7642C59.0799 27.7947 59.6616 26.8251 60.1787 25.8555H66.9658C67.5475 25.8555 68 25.403 68 24.8213C68 24.2395 67.4183 23.8517 66.8365 23.8517ZM56.4943 27.6654C49.6426 37.6844 37.038 45.7642 34.3232 47.5095C31.5437 45.7642 19.0038 37.6198 12.0875 27.6654C11.9582 27.4715 11.8289 27.2776 11.6996 27.0836H21.2015C21.5894 27.0836 21.9772 26.8897 22.1711 26.5019L26.5019 17.9696L33.289 35.3574C33.4183 35.7452 33.8707 36.0038 34.2586 36.0038C34.2586 36.0038 34.2586 36.0038 34.3232 36.0038C34.7757 36.0038 35.1635 35.6806 35.2928 35.2281L41.2395 14.8669L44.4068 25.1445C44.5361 25.5323 44.8593 25.7909 45.2472 25.8555C45.635 25.9201 46.0228 25.7262 46.2814 25.403L48.8023 21.7186L50.9354 25.3384C51.1293 25.6616 51.4525 25.8555 51.8403 25.8555H57.6578C57.27 26.5019 56.8821 27.0836 56.4943 27.6654ZM58.8213 23.8517H52.4867L49.8365 19.327C49.6426 19.0038 49.3194 18.8099 48.9316 18.8099C48.5437 18.8099 48.2205 18.9392 48.0266 19.2624L45.8289 22.4943L42.2738 10.924C42.1445 10.4715 41.692 10.2129 41.2395 10.1483C40.7871 10.1483 40.3346 10.4715 40.2053 10.924L34.1939 31.673L27.6654 14.9962C27.5361 14.6084 27.1483 14.3498 26.7605 14.3498C26.308 14.3498 25.9848 14.5437 25.7909 14.9316L20.6844 24.9506H10.4068C7.82129 20.2319 7.11027 15.7072 8.27376 11.635C9.63118 7.04562 14.0913 2.13308 20.8137 2.13308C22.6236 2.13308 24.4981 2.52091 26.3726 3.1673C31.0913 4.91255 33.6122 6.91635 33.6768 6.91635C34.0646 7.23954 34.5817 7.23954 34.9696 6.91635C34.9696 6.91635 37.4905 4.91255 42.2738 3.1673C44.1483 2.45627 46.0228 2.13308 47.8327 2.13308C54.4905 2.13308 59.0152 7.04562 60.3726 11.635C61.4715 15.384 60.8897 19.5209 58.8213 23.8517Z" fill="black"/>
</svg>