<svg width="61" height="61" viewBox="0 0 61 61" fill="none" xmlns="http://www.w3.org/2000/svg">
<g clip-path="url(#clip0_2870_265)">
<path d="M55.4997 49.8335H52.1505C52.1475 49.8335 52.1455 49.8305 52.1464 49.8277L54.2147 44.1745C54.2448 44.0918 54.2756 44.0103 54.3057 43.9301C54.552 43.2754 54.8312 42.5333 54.5143 41.8258C54.3266 41.4066 53.9728 41.0978 53.463 40.9079L50.1954 39.6907C50.1914 39.6893 50.1875 39.6884 50.1836 39.687C50.179 39.6854 50.1749 39.6832 50.1703 39.6817L44.8409 37.8764C44.7593 37.8488 44.7082 37.8273 44.6778 37.8126C44.6768 37.8121 44.6763 37.8114 44.6759 37.8103C44.6495 37.7201 44.6163 37.5449 44.5907 37.4097L43.2851 30.5685C43.2851 30.5679 43.2851 30.5674 43.2851 30.5668L44.261 25.5729C44.2614 25.5704 44.2641 25.5688 44.2666 25.5696L45.042 25.8382C45.0438 25.8388 45.0449 25.8405 45.0449 25.8423V29.5456C45.0449 31.3456 46.4749 32.8139 48.2302 32.8187H48.2469C49.095 32.8187 49.9281 32.468 50.535 31.8547C51.1442 31.2391 51.4798 30.4263 51.4798 29.5662V23.414C51.4798 23.402 51.4796 23.3902 51.4791 23.3781C51.427 22.0427 50.5536 20.8532 49.3035 20.4176L43.3321 18.3522C43.3313 18.352 43.3305 18.3514 43.33 18.3507L41.8638 16.2074C41.8625 16.2055 41.863 16.2028 41.8649 16.2015C42.9755 15.431 43.8448 14.3091 44.4542 12.8512C44.4628 12.8307 44.47 12.8097 44.4771 12.7888C44.4779 12.7862 44.4792 12.7841 44.4801 12.7815C44.4808 12.7793 44.4814 12.7773 44.4821 12.7751C44.4827 12.7732 44.4833 12.7712 44.4839 12.7694C45.3289 10.1681 45.4544 7.7782 44.8461 5.85751C44.1929 3.79448 42.7224 2.30007 40.5944 1.53598C39.5841 1.17203 38.598 1.18062 37.5537 1.18946C36.0723 1.20217 34.3911 1.21657 32.172 0.0953092C31.7408 -0.122795 31.2178 0.0456851 30.9885 0.475599C29.9434 2.43454 30.1758 4.27184 31.6003 5.64062C31.6019 5.64207 31.6021 5.64437 31.6009 5.64606C30.7386 6.89998 30.2706 8.38967 30.2706 9.93055C30.2706 12.4356 31.7091 14.878 33.9345 16.284C33.9366 16.2852 33.9372 16.2879 33.9359 16.2899L31.6522 19.9238C31.6513 19.925 31.65 19.9257 31.6486 19.9258L29.7364 19.9356C29.7349 19.9356 29.7336 19.9349 29.7328 19.9337L27.5692 16.7403C26.5658 15.2608 24.5614 14.8846 23.1002 15.902C22.3862 16.4009 21.9086 17.1555 21.7555 18.0269C21.6047 18.885 21.7912 19.7451 22.2804 20.4486L25.6538 25.3006C25.6563 25.3042 25.659 25.3081 25.6616 25.3118C26.5951 26.612 27.4122 26.6146 28.5507 26.6184H31.2564C31.2588 26.6184 31.2607 26.6203 31.2607 26.6228L31.2682 30.1827C31.2682 30.1839 31.2677 30.185 31.2669 30.1859L27.4356 33.9871C27.4354 33.9872 27.4353 33.9874 27.4351 33.9877C26.5016 34.9155 26.0284 36.0332 26.0284 37.3097V45.0899C26.0284 45.0919 26.0272 45.0936 26.0253 45.094C25.1602 45.3249 24.1221 45.8636 23.2786 46.7551C22.4632 47.6169 21.973 48.667 21.8325 49.83C21.8322 49.8322 21.8304 49.8337 21.8283 49.8337H18.0644C18.062 49.8337 18.0601 49.8318 18.0601 49.8294V49.455C18.0601 46.1227 15.579 43.3691 12.3939 42.9936C12.3917 42.9934 12.3902 42.9916 12.3902 42.9894V26.5414C12.3902 26.5382 12.3938 26.536 12.3966 26.5377L14.0477 27.4892C14.5622 27.7857 15.1314 27.9264 15.6969 27.9264C16.8288 27.9263 17.9467 27.3623 18.5847 26.352C19.0623 25.6017 19.2116 24.7178 19.0052 23.8631C18.7988 23.0081 18.2636 22.2942 17.4983 21.8534L5.05135 14.6808C3.51014 13.7931 1.47343 14.3017 0.510297 15.8156C0.033019 16.5677 -0.116026 17.4524 0.0909215 18.3066C0.297631 19.16 0.832573 19.8727 1.59722 20.3131L5.65039 22.6492C5.6517 22.6499 5.65253 22.6514 5.65253 22.653V31.5716C5.65253 32.071 6.03128 32.5083 6.52262 32.5211C7.02682 32.5342 7.43965 32.123 7.43965 31.6137V23.6879C7.43965 23.6846 7.44322 23.6825 7.44608 23.6842L10.6013 25.5027C10.6026 25.5034 10.6034 25.5049 10.6034 25.5065V42.9439C10.6034 42.9463 10.6015 42.9482 10.5991 42.9482H7.44382C7.44143 42.9482 7.43953 42.9463 7.43953 42.9439V36.1168C7.43953 35.6174 7.06078 35.1801 6.56944 35.1673C6.06524 35.1542 5.65242 35.5654 5.65242 36.0747V42.9437C5.65242 42.9462 5.65051 42.9481 5.64813 42.9481H2.57394C1.44388 42.9481 0.527811 43.8787 0.527811 45.0267V58.9226C0.527811 60.07 1.44341 61 2.57274 61H17.1668H55.4997C58.5327 61 61 58.4953 61 55.4167C61 52.3381 58.5326 49.8335 55.4997 49.8335ZM28.5489 24.8028C27.5288 24.7995 27.5059 24.7994 27.1096 24.2473L23.74 19.4009C23.5287 19.0968 23.4486 18.7222 23.5147 18.3457C23.5831 17.956 23.7955 17.6193 24.1117 17.3985C24.7611 16.9462 25.652 17.1131 26.0975 17.7696L28.4474 21.2383C28.7566 21.69 29.1006 21.7523 29.4309 21.7523L31.2462 21.7431C31.2486 21.7431 31.2505 21.7451 31.2505 21.7475L31.257 24.7984C31.257 24.8008 31.2551 24.8028 31.2527 24.8028H28.5489ZM1.82621 17.8728C1.73804 17.5086 1.80405 17.1274 2.01171 16.8002C2.31337 16.3261 2.85689 16.0586 3.39922 16.0586C3.66598 16.0586 3.9325 16.1234 4.16983 16.26L16.6171 23.4325C16.6171 23.4325 16.6171 23.4325 16.6172 23.4327C16.9501 23.6244 17.1819 23.9308 17.27 24.2956C17.3578 24.6599 17.292 25.0401 17.0827 25.3691C16.6355 26.0771 15.6493 26.3245 14.9297 25.9101L2.47886 18.734C2.14586 18.5421 1.91413 18.2364 1.82621 17.8728ZM52.8552 42.6301C52.8168 42.803 52.7116 43.0824 52.6367 43.282C52.6044 43.368 52.5714 43.4555 52.5395 43.5431L50.239 49.8307C50.2384 49.8324 50.2367 49.8335 50.2349 49.8335H49.7004C49.6092 49.8335 49.4194 49.8335 49.1899 49.4945C48.5721 48.5815 48.5425 46.6255 48.7237 46.1324L48.7615 46.0364C48.7629 46.0328 48.7642 46.029 48.7657 46.0255L50.4041 41.7065C50.4049 41.7044 50.4073 41.7033 50.4096 41.704L52.8445 42.6109C52.8484 42.6182 52.8511 42.623 52.8552 42.6301ZM44.2761 39.5988L48.7134 41.102C48.7156 41.1027 48.7168 41.1054 48.716 41.1077L48.3501 42.0723L47.4094 44.5524C47.4085 44.5546 47.4062 44.5557 47.404 44.5549L39.517 41.8009C38.9812 41.6136 38.8433 41.4233 38.6575 41.0367L37.137 37.8391C37.1361 37.8371 37.1368 37.8346 37.1387 37.8336C38.5493 37.0558 40.7066 35.8239 42.0698 33.7765C42.072 33.7733 42.0767 33.7743 42.0775 33.7781L42.8363 37.754C42.9773 38.5 43.1108 39.2046 44.2761 39.5988ZM42.17 19.9498C42.2919 19.9498 42.4156 19.9659 42.5385 19.9992C42.5474 20.0016 42.5534 20.0031 42.5599 20.0047C42.5607 20.005 42.5614 20.0051 42.5622 20.0053C42.5657 20.0062 42.5689 20.0069 42.5736 20.0079C42.5873 20.0116 42.6012 20.0169 42.6147 20.0218C42.6192 20.0235 42.6237 20.0251 42.6282 20.0266L48.7255 22.1354C49.2764 22.3275 49.6634 22.8482 49.6927 23.4342V29.5662C49.6927 29.9396 49.5443 30.2952 49.2748 30.5675C49.0004 30.8447 48.6264 31.0032 48.245 31.0032C48.2425 31.0032 48.24 31.0032 48.2375 31.0032C47.4625 31.001 46.832 30.3471 46.832 29.5455V25.6029C46.832 25.5739 46.8338 25.5465 46.835 25.5211C46.8782 24.6814 46.3817 24.3829 46.0831 24.2801L41.7091 22.7658C41.7088 22.7656 41.7085 22.7656 41.7082 22.7655C41.3489 22.6412 41.0581 22.3804 40.8893 22.0312C40.7212 21.6835 40.6957 21.2928 40.8179 20.9295C41.0182 20.333 41.5733 19.9498 42.17 19.9498ZM32.23 2.12021C32.2307 2.11767 32.2336 2.11634 32.236 2.11731C34.4236 3.03148 36.1496 3.01708 37.5688 3.00461C38.4895 2.99698 39.2841 2.99009 39.9982 3.24716C43.1302 4.37181 43.6138 7.11639 43.3834 9.4331C43.383 9.43686 43.3785 9.43831 43.3761 9.43552C43.1483 9.17457 42.8707 8.92875 42.5328 8.71501C42.5325 8.71477 42.5322 8.7144 42.5319 8.71416C41.5333 7.47852 40.1328 6.35605 38.2883 6.21359C36.782 6.09764 34.6944 5.65006 33.3534 4.74145C33.3527 4.74097 33.3519 4.7406 33.3512 4.74012C32.2747 4.01513 31.9115 3.18713 32.23 2.12021ZM32.0578 9.93031C32.0578 8.76161 32.413 7.63042 33.0692 6.67873C33.0717 6.67812 33.0734 6.67764 33.0759 6.67703C35.0333 7.70752 37.4067 7.96641 38.1533 8.0239C40.7089 8.22107 42.2329 11.429 42.662 12.47C42.6624 12.4711 42.6623 12.4723 42.6618 12.4734C42.0763 13.7095 41.2473 14.5881 40.1918 15.0882C39.4713 15.4325 38.6178 15.6071 37.6553 15.6071C36.9807 15.6071 36.2626 15.4403 35.5795 15.1252C33.8265 14.3136 32.0578 12.3925 32.0578 9.93031ZM35.5661 17.0696C35.5671 17.0679 35.5692 17.0672 35.5709 17.0679C36.2627 17.3007 36.9714 17.4227 37.6553 17.4227C38.5906 17.4227 39.4565 17.2867 40.2397 17.02C40.2415 17.0194 40.2434 17.02 40.2445 17.0216L41.1249 18.3088C41.1265 18.3111 41.1255 18.3142 41.1229 18.3152C40.2141 18.6346 39.4565 19.3601 39.1268 20.3434C38.8504 21.1646 38.9065 22.0484 39.2854 22.8317C39.6649 23.6166 40.3207 24.2036 41.1326 24.4843L42.5521 24.976C42.5541 24.9767 42.5553 24.9787 42.555 24.9809L41.6418 29.6547C41.6414 29.6567 41.6396 29.6582 41.6376 29.6582H33.0587C33.0564 29.6582 33.0544 29.6562 33.0544 29.6538L33.0365 21.0963C33.0365 21.0955 33.0367 21.0946 33.0372 21.094L35.5661 17.0696ZM27.8156 37.3095C27.8156 36.5292 28.0999 35.867 28.6845 35.2857L32.5253 31.4748C32.5262 31.4739 32.5272 31.4736 32.5283 31.4736H41.2283C41.2313 31.4736 41.2335 31.4767 41.2324 31.4795C40.338 34.0083 37.7598 35.427 36.1445 36.3161C35.9176 36.4409 35.7033 36.5589 35.526 36.6622L32.6195 38.3119C31.4088 38.9995 31.1868 39.3596 31.2223 40.579C31.2266 40.7291 31.2316 40.8991 31.2316 41.1035L31.2482 44.9564C31.2482 44.9588 31.2462 44.9608 31.2439 44.9608H27.82C27.8176 44.9608 27.8157 44.9588 27.8157 44.9564V37.3095H27.8156ZM24.5672 48.013C25.3653 47.1693 26.4443 46.7763 26.922 46.7763H31.2495C31.2518 46.7763 31.2538 46.7782 31.2538 46.7807L31.2603 49.8293C31.2603 49.8317 31.2584 49.8336 31.256 49.8336H23.6422C23.6395 49.8336 23.6374 49.8311 23.6379 49.8284C23.7619 49.1436 24.0729 48.5355 24.5672 48.013ZM2.3148 58.9215V45.0269C2.3148 44.8821 2.43144 44.7637 2.57382 44.7637H11.6501C14.1992 44.7637 16.2731 46.8682 16.2731 49.4549V50.7414V59.1805C16.2731 59.1829 16.2712 59.1848 16.2688 59.1848H2.57394C2.43144 59.1847 2.3148 59.0662 2.3148 58.9215ZM55.4997 59.1847H18.0646C18.0622 59.1847 18.0603 59.1828 18.0603 59.1804V56.3289C18.0603 56.3265 18.0622 56.3246 18.0646 56.3246H55.564C56.0555 56.3246 56.486 55.9398 56.4986 55.4407C56.5115 54.9284 56.1068 54.5091 55.6054 54.5091H18.0646C18.0622 54.5091 18.0603 54.5071 18.0603 54.5047V51.6532C18.0603 51.6508 18.0622 51.6489 18.0646 51.6489H22.6867H32.1558H38.4452C38.9368 51.6489 39.3672 51.2641 39.3799 50.765C39.3927 50.2528 38.988 49.8334 38.4867 49.8334H33.0517C33.0493 49.8334 33.0474 49.8314 33.0474 49.829L33.0391 45.9514V45.8683C33.0391 45.8677 33.039 45.8671 33.039 45.8665C33.039 45.8665 33.0391 45.8651 33.0391 45.8644L33.0186 41.0994C33.0186 40.8721 33.013 40.6798 33.0085 40.5252C33.007 40.4736 33.0054 40.4198 33.0043 40.3685C33.0018 40.2568 33.0584 40.1529 33.1524 40.095C33.2753 40.0191 33.4178 39.9381 33.4912 39.8966L35.5658 38.719C35.568 38.7178 35.5707 38.7187 35.5718 38.721L37.0498 41.8294C37.3583 42.4716 37.8001 43.1206 38.9358 43.5176L46.8812 46.2919C46.8831 46.2925 46.8843 46.2943 46.8841 46.2964C46.7766 47.2752 46.8699 48.6971 47.3465 49.8274C47.3477 49.8302 47.3456 49.8334 47.3427 49.8334H42.7667C42.2751 49.8334 41.8447 50.2181 41.832 50.7173C41.8192 51.2295 42.2239 51.6489 42.7252 51.6489H49.7006H50.8591H55.4999C57.5473 51.6489 59.213 53.3391 59.213 55.4167C59.2129 57.4945 57.5472 59.1847 55.4997 59.1847Z" fill="#FF8285"/>
<path d="M9.15446 53.3575H7.37295C6.88137 53.3575 6.45092 53.7423 6.43829 54.2415C6.42542 54.7537 6.83014 55.1731 7.33149 55.1731H9.11312C9.60469 55.1731 10.0351 54.7883 10.0478 54.2891C10.0606 53.7768 9.6558 53.3575 9.15446 53.3575Z" fill="#FF8285"/>
<path d="M9.15584 49.0693H7.37099C6.87942 49.0693 6.44896 49.454 6.43633 49.9532C6.42347 50.4654 6.82819 50.8848 7.32953 50.8848H9.11438C9.60596 50.8848 10.0364 50.5 10.049 50.0009C10.062 49.4885 9.65719 49.0693 9.15584 49.0693Z" fill="#FF8285"/>
</g>
<defs>
<clipPath id="clip0_2870_265">
<rect width="61" height="61" fill="white"/>
</clipPath>
</defs>
</svg>