<svg width="50" height="50" viewBox="0 0 50 50" fill="none" xmlns="http://www.w3.org/2000/svg">
<path d="M12.7188 30.2862C12.7051 30.2549 12.6904 30.2237 12.6748 30.1934C12.5536 29.9683 12.3736 29.7803 12.1542 29.6493C11.9347 29.5182 11.6838 29.449 11.4282 29.449C11.1726 29.449 10.9217 29.5182 10.7023 29.6493C10.4828 29.7803 10.3029 29.9683 10.1816 30.1934C10.165 30.2237 10.1504 30.2549 10.1367 30.2862L8.92578 33.1182C8.83797 33.323 8.80312 33.5467 8.82446 33.7686C8.84579 33.9904 8.92261 34.2034 9.04785 34.3877C9.17768 34.5785 9.35252 34.7344 9.55691 34.8415C9.76131 34.9487 9.98896 35.0038 10.2197 35.002H12.6426C12.8734 35.0037 13.1011 34.9484 13.3055 34.8411C13.5099 34.7338 13.6847 34.5777 13.8145 34.3867C13.9398 34.2024 14.0166 33.9894 14.0378 33.7675C14.0589 33.5456 14.0238 33.3219 13.9355 33.1172L12.7188 30.2862ZM12.8535 33.7588C12.8298 33.7934 12.7978 33.8215 12.7605 33.8406C12.7231 33.8597 12.6816 33.8692 12.6396 33.8682H10.2168C10.1749 33.8692 10.1333 33.8597 10.096 33.8406C10.0586 33.8215 10.0267 33.7934 10.0029 33.7588C9.98243 33.7292 9.96979 33.6948 9.9662 33.6589C9.96262 33.6231 9.9682 33.5869 9.98242 33.5537L11.1934 30.7217C11.2005 30.7062 11.2087 30.6912 11.2178 30.6768C11.2419 30.644 11.2736 30.6176 11.3101 30.5997C11.3467 30.5818 11.3871 30.5731 11.4277 30.5742C11.4771 30.5723 11.5259 30.5854 11.5677 30.6117C11.6096 30.638 11.6425 30.6764 11.6621 30.7217L12.874 33.5537C12.8889 33.5867 12.8949 33.623 12.8913 33.659C12.8877 33.695 12.8746 33.7294 12.8535 33.7588Z" fill="black"/>
<path d="M41.2666 18.4707H34.874C33.166 18.4707 31.7764 19.8379 31.7764 21.5215C31.7769 21.7744 31.7268 22.0249 31.629 22.2582C31.5313 22.4915 31.3878 22.7029 31.207 22.8799C30.8392 23.2426 30.3427 23.4449 29.8262 23.4424H28.752C28.7793 23.2617 28.7931 23.0792 28.793 22.8965C28.7936 22.404 28.6956 21.9163 28.5047 21.4623C28.3139 21.0083 28.034 20.5971 27.6816 20.2529C27.1082 19.6856 26.3684 19.3164 25.5703 19.1992V9.04785C25.5703 8.89582 25.5099 8.75001 25.4024 8.64251C25.2949 8.535 25.1491 8.47461 24.9971 8.47461C24.845 8.47461 24.6992 8.535 24.5917 8.64251C24.4842 8.75001 24.4238 8.89582 24.4238 9.04785V19.2041C23.6257 19.3213 22.8859 19.6905 22.3125 20.2578C21.9601 20.6019 21.6803 21.0131 21.4894 21.4672C21.2985 21.9212 21.2005 22.4089 21.2012 22.9014C21.2011 23.0841 21.2148 23.2666 21.2422 23.4473H20.168C19.6543 23.4514 19.16 23.2514 18.7937 22.8912C18.4274 22.531 18.2192 22.0401 18.2148 21.5264C18.2153 21.1243 18.1353 20.7262 17.9794 20.3555C17.8236 19.9849 17.5952 19.6492 17.3076 19.3682C16.7239 18.7933 15.9365 18.4724 15.1172 18.4756H8.73438C5.12109 18.4756 2.18359 21.3701 2.18359 24.9277V35.0654C2.18359 38.623 5.12109 41.5166 8.7334 41.5166H11.8467C12.6646 41.5153 13.463 41.2669 14.1373 40.8038C14.8115 40.3408 15.3301 39.6848 15.625 38.9219C17.2646 34.6152 20.9453 31.832 25 31.832C29.0547 31.832 32.7383 34.6152 34.375 38.9229C34.6703 39.6854 35.189 40.3411 35.8631 40.8039C36.5373 41.2667 37.3356 41.5151 38.1533 41.5166H41.2656C44.8789 41.5166 47.8164 38.6221 47.8164 35.0645V24.9219C47.8164 21.3643 44.8789 18.4707 41.2666 18.4707ZM22.3506 22.8965C22.3502 22.5526 22.4187 22.2121 22.552 21.8951C22.6854 21.5781 22.8809 21.291 23.127 21.0508C23.6275 20.5612 24.2998 20.2871 25 20.2871C25.7002 20.2871 26.3725 20.5612 26.873 21.0508C27.1191 21.291 27.3146 21.5781 27.448 21.8951C27.5813 22.2121 27.6498 22.5526 27.6494 22.8965C27.6496 23.08 27.63 23.2631 27.5908 23.4424H22.4092C22.37 23.2631 22.3504 23.08 22.3506 22.8965ZM46.667 35.0645C46.667 37.999 44.2432 40.3867 41.2627 40.3867H38.1533C37.5677 40.3851 36.9961 40.2066 36.5136 39.8746C36.0311 39.5427 35.6601 39.0728 35.4492 38.5264C33.6416 33.7734 29.54 30.7021 25 30.7021C20.46 30.7021 16.3594 33.7725 14.5508 38.5254C14.3401 39.0718 13.9693 39.5418 13.487 39.874C13.0047 40.2061 12.4333 40.3848 11.8477 40.3867H8.7334C5.75391 40.3867 3.33008 38 3.33008 35.0654V24.9229C3.33008 21.9873 5.75488 19.6006 8.73438 19.6006H15.126C15.6414 19.5986 16.1367 19.8005 16.5039 20.1621C16.685 20.3391 16.8289 20.5506 16.927 20.784C17.0251 21.0175 17.0755 21.2682 17.0752 21.5215C17.0752 23.2041 18.4648 24.5723 20.1729 24.5723H29.8252C30.645 24.5755 31.4328 24.2543 32.0166 23.6787C32.3039 23.3978 32.5321 23.0622 32.6878 22.6917C32.8434 22.3212 32.9234 21.9233 32.9229 21.5215C32.9272 21.0078 33.1354 20.5169 33.5017 20.1567C33.868 19.7964 34.3623 19.5964 34.876 19.6006H41.2686C44.248 19.6006 46.6719 21.9873 46.6719 24.9219L46.667 35.0645Z" fill="black"/>
<path d="M9.85352 30.04C10.108 29.9418 10.327 29.7692 10.4819 29.5446C10.6368 29.3201 10.7203 29.054 10.7217 28.7813C10.7217 28.7461 10.7217 28.7119 10.7217 28.6777C10.7157 28.6029 10.7033 28.5287 10.6846 28.4561C10.6353 28.263 10.5443 28.083 10.4179 27.929C10.2915 27.7749 10.1329 27.6505 9.95313 27.5645C9.92188 27.5498 9.88965 27.5352 9.85547 27.5215L6.92578 26.3555C6.76416 26.2924 6.59242 26.2593 6.41895 26.2578C6.13034 26.2518 5.84681 26.3343 5.60645 26.4941C5.41982 26.6162 5.26645 26.7828 5.16009 26.9788C5.05373 27.1748 4.99771 27.3942 4.99707 27.6172V29.9521C4.99781 30.1753 5.05386 30.3947 5.16021 30.5909C5.26655 30.7871 5.41987 30.9538 5.60645 31.0762C5.84026 31.2306 6.11434 31.3128 6.39453 31.3125C6.43848 31.3125 6.4834 31.3125 6.52832 31.3066C6.66444 31.2931 6.79794 31.2602 6.92481 31.209L9.04395 30.3662L9.85352 30.04Z" fill="black"/>
<path d="M10.1367 27.2754C10.2307 27.4939 10.3797 27.6844 10.5693 27.8281C10.817 28.0137 11.1183 28.1137 11.4277 28.1133C11.7373 28.1141 12.0386 28.014 12.2861 27.8281C12.4763 27.6849 12.6255 27.4943 12.7188 27.2754L13.9307 24.4433C14.0186 24.2385 14.0535 24.0148 14.0321 23.7929C14.0108 23.5711 13.9339 23.3581 13.8086 23.1738C13.6959 23.0076 13.5489 22.8676 13.3773 22.7633C13.2058 22.659 13.0138 22.5929 12.8145 22.5693C12.7564 22.5626 12.6981 22.5594 12.6396 22.5595H10.2178C9.98704 22.5579 9.75945 22.6131 9.55508 22.7202C9.35071 22.8274 9.17585 22.9831 9.0459 23.1738C8.92066 23.3582 8.84384 23.5711 8.8225 23.793C8.80117 24.0148 8.83602 24.2385 8.92383 24.4433L10.1367 27.2754ZM10.0029 23.8037C10.0267 23.7688 10.0588 23.7405 10.0963 23.7212C10.1339 23.7019 10.1756 23.6924 10.2178 23.6933H12.6396C12.6815 23.6926 12.723 23.7022 12.7603 23.7212C12.7976 23.7403 12.8296 23.7683 12.8535 23.8027L12.8623 23.8183C12.8792 23.8469 12.889 23.8791 12.8909 23.9122C12.8928 23.9454 12.8867 23.9785 12.873 24.0088L11.6621 26.8408C11.6453 26.8836 11.6156 26.9201 11.5771 26.9453C11.5325 26.9735 11.4806 26.9881 11.4277 26.9873C11.3752 26.988 11.3236 26.9734 11.2793 26.9453C11.2408 26.9199 11.2109 26.8835 11.1934 26.8408L9.98242 24.0088C9.9682 23.9756 9.96262 23.9394 9.9662 23.9036C9.96979 23.8677 9.98243 23.8333 10.0029 23.8037Z" fill="black"/>
<path d="M17.2627 26.5547C17.0701 26.4261 16.8491 26.3462 16.6189 26.3217C16.3886 26.2972 16.1558 26.3289 15.9404 26.4141L13.0107 27.5596C12.922 27.5935 12.8369 27.6364 12.7568 27.6875C12.5471 27.8179 12.3779 28.0043 12.2685 28.2257C12.1591 28.4471 12.1138 28.6947 12.1377 28.9405C12.1639 29.1891 12.2588 29.4256 12.4118 29.6234C12.5648 29.8213 12.7698 29.9726 13.0039 30.0606L15.9336 31.209C16.1491 31.2942 16.3819 31.3259 16.6123 31.3016C16.8428 31.2773 17.0639 31.1976 17.2568 31.0694C17.441 30.9485 17.5924 30.784 17.6975 30.5904C17.8027 30.3968 17.8583 30.1803 17.8594 29.96V27.6621C17.859 27.4426 17.8043 27.2267 17.7002 27.0334C17.5961 26.8402 17.4458 26.6757 17.2627 26.5547Z" fill="black"/>
<path d="M39.0469 26.9971C40.5459 26.9971 41.7646 25.8301 41.7646 24.3965C41.7646 22.9629 40.5459 21.7949 39.0469 21.7949C37.5479 21.7949 36.3281 22.9619 36.3281 24.3965C36.3281 25.8311 37.5479 26.9971 39.0469 26.9971ZM39.0469 22.9248C39.9131 22.9248 40.6182 23.585 40.6182 24.3965C40.6182 25.208 39.9131 25.8682 39.0469 25.8682C38.1807 25.8682 37.4756 25.208 37.4756 24.3965C37.4756 23.585 38.1836 22.9248 39.0469 22.9248Z" fill="black"/>
<path d="M39.0469 30.5664C37.5479 30.5664 36.3281 31.7314 36.3281 33.166C36.3281 34.6006 37.5469 35.7676 39.0459 35.7676C40.5449 35.7676 41.7637 34.6006 41.7637 33.166C41.7637 31.7314 40.5459 30.5664 39.0469 30.5664ZM39.0469 34.6396C38.1807 34.6396 37.4756 33.9795 37.4756 33.168C37.4756 32.3564 38.1807 31.6963 39.0469 31.6963C39.9131 31.6963 40.6182 32.3564 40.6182 33.168C40.6182 33.9795 39.9131 34.6377 39.0469 34.6377V34.6396Z" fill="black"/>
<path d="M43.1309 26.1797C41.6318 26.1797 40.4121 27.3467 40.4121 28.7813C40.4121 30.2158 41.6318 31.3828 43.1309 31.3828C44.6299 31.3828 45.8486 30.2158 45.8486 28.7813C45.8486 27.3467 44.6289 26.1797 43.1309 26.1797Z" fill="black"/>
<path d="M37.2773 28.7813C37.2773 27.3467 36.0576 26.1797 34.5596 26.1797C33.0615 26.1797 31.8408 27.3438 31.8408 28.7813C31.8408 30.2188 33.0605 31.3828 34.5596 31.3828C36.0586 31.3828 37.2773 30.2158 37.2773 28.7813Z" fill="black"/>
<path d="M24.8535 25.2461C24.3465 25.2538 23.8531 25.4112 23.4352 25.6985C23.0174 25.9857 22.6938 26.3901 22.5051 26.8608C22.3164 27.3314 22.271 27.8473 22.3746 28.3437C22.4782 28.8401 22.7262 29.2947 23.0875 29.6506C23.4487 30.0064 23.9071 30.2476 24.4049 30.3437C24.9028 30.4398 25.418 30.3866 25.8858 30.1909C26.3535 29.9951 26.753 29.6654 27.0339 29.2433C27.3149 28.8212 27.4648 28.3254 27.4648 27.8184C27.4589 27.1312 27.1806 26.4745 26.6911 25.9922C26.2015 25.51 25.5407 25.2417 24.8535 25.2461ZM24.8535 29.2617C24.569 29.2575 24.2921 29.1692 24.0576 29.0081C23.8231 28.8469 23.6414 28.6201 23.5354 28.356C23.4295 28.0919 23.404 27.8024 23.462 27.5238C23.5201 27.2453 23.6593 26.9901 23.862 26.7904C24.0646 26.5907 24.3218 26.4553 24.6012 26.4014C24.8806 26.3474 25.1697 26.3772 25.4322 26.487C25.6947 26.5969 25.9189 26.7819 26.0765 27.0187C26.2342 27.2556 26.3183 27.5338 26.3184 27.8184C26.315 28.2038 26.1589 28.5723 25.8843 28.8428C25.6097 29.1134 25.239 29.2641 24.8535 29.2617Z" fill="black"/>
</svg>