<?xml version="1.0" encoding="UTF-8"?>
<svg id="Layer_1" data-name="Layer 1" xmlns="http://www.w3.org/2000/svg" viewBox="0 0 61 61">
  <defs>
    <style>
      .cls-1 {
        fill: #fff;
      }
    </style>
  </defs>
  <path class="cls-1" d="M16.73,39.37h-7.87c-1.04,0-2.04.41-2.78,1.15-.74.74-1.15,1.74-1.15,2.78s.41,2.04,1.15,2.78c.74.74,1.74,1.15,2.78,1.15h7.87c1.04,0,2.04-.41,2.78-1.15.74-.74,1.15-1.74,1.15-2.78s-.41-2.04-1.15-2.78c-.74-.74-1.74-1.15-2.78-1.15ZM13.17,41.34l1.97,3.93h-2.72l-1.97-3.93h2.72ZM6.89,43.3c0-.42.14-.83.39-1.17.25-.34.61-.58,1.01-.71l1.92,3.84h-1.36c-.52,0-1.02-.21-1.39-.58-.37-.37-.58-.87-.58-1.39ZM17.29,45.18l-1.92-3.84h1.36c.47,0,.93.17,1.28.48.36.31.59.73.66,1.2.07.47-.03.94-.29,1.34-.25.4-.64.69-1.09.82Z"/>
  <path class="cls-1" d="M56.08,31.5h1.97c.78,0,1.53-.31,2.09-.86.55-.55.86-1.3.86-2.09s-.31-1.53-.86-2.09c-.55-.55-1.3-.86-2.09-.86h-1.97c-.6,0-1.19.19-1.68.53-.49.34-.87.83-1.08,1.4l-1.6,1.28c-1.75-3.33-4.56-5.99-7.98-7.56,1.11-2.25,1.62-4.74,1.49-7.24-.13-2.5-.89-4.93-2.21-7.06-1.33-2.13-3.17-3.88-5.36-5.1-2.19-1.22-4.66-1.85-7.16-1.85s-4.97.64-7.16,1.85c-2.19,1.22-4.04,2.97-5.36,5.1s-2.09,4.56-2.21,7.06c-.13,2.5.39,5,1.49,7.24-3.42,1.57-6.23,4.23-7.98,7.56l-1.6-1.28c-.21-.56-.58-1.05-1.08-1.4-.49-.34-1.08-.53-1.68-.53h-1.97c-.78,0-1.53.31-2.09.86-.55.55-.86,1.3-.86,2.09s.31,1.53.86,2.09c.55.55,1.3.86,2.09.86h2l1.28,2.14c-1.76.38-3.34,1.35-4.48,2.74-1.13,1.4-1.76,3.15-1.76,4.95v7.87c0,1.49.49,2.94,1.38,4.13.44.58.97,1.09,1.57,1.5v2.23c0,1.04.41,2.04,1.15,2.78.74.74,1.74,1.15,2.78,1.15h1.97c1.04,0,2.04-.41,2.78-1.15.74-.74,1.15-1.74,1.15-2.78v-.98h35.42v.98c0,1.04.41,2.04,1.15,2.78.74.74,1.74,1.15,2.78,1.15h1.97c1.04,0,2.04-.41,2.78-1.15.74-.74,1.15-1.74,1.15-2.78v-2.23c.6-.41,1.13-.92,1.57-1.5.89-1.19,1.37-2.64,1.38-4.13v-7.87c0-1.8-.62-3.55-1.76-4.95-1.13-1.4-2.72-2.37-4.48-2.75l1.28-2.14h.03ZM56.08,27.57h1.97c.26,0,.51.1.7.29.18.18.29.43.29.7s-.1.51-.29.7c-.18.18-.43.29-.7.29h-1.97c-.26,0-.51-.1-.7-.29-.18-.18-.29-.43-.29-.7s.1-.51.29-.7c.18-.18.43-.29.7-.29ZM30.5,2.01c2.53,0,5,.75,7.11,2.15,2.1,1.4,3.74,3.4,4.71,5.74.97,2.34,1.22,4.91.73,7.39-.49,2.48-1.71,4.76-3.5,6.54-1.79,1.79-4.07,3.01-6.55,3.5-2.48.49-5.05.24-7.39-.73-2.34-.97-4.33-2.61-5.74-4.71-1.41-2.1-2.16-4.57-2.16-7.1,0-3.39,1.35-6.64,3.75-9.03,2.4-2.4,5.65-3.74,9.04-3.75ZM20.77,25.85c2.68,2.38,6.15,3.69,9.73,3.69s7.05-1.31,9.73-3.69c1.25.29,2.43.86,3.44,1.65,1.01.8,1.84,1.8,2.42,2.95.11.21.16.45.15.69-.01.24-.08.47-.21.67-.13.2-.3.37-.51.49-.21.12-.44.18-.68.18h-28.68c-.24,0-.47-.06-.68-.18-.21-.12-.38-.28-.51-.49-.13-.2-.2-.44-.21-.67-.01-.24.04-.48.15-.69.58-1.15,1.41-2.16,2.42-2.95,1.01-.8,2.19-1.36,3.44-1.65ZM1.97,28.55c0-.26.1-.51.29-.7.18-.18.43-.29.7-.29h1.97c.26,0,.51.1.7.29.18.18.29.43.29.7s-.1.51-.29.7c-.18.18-.43.29-.7.29h-1.97c-.26,0-.51-.1-.7-.29s-.29-.43-.29-.7ZM10.82,57.07c0,.52-.21,1.02-.58,1.39-.37.37-.87.58-1.39.58h-1.97c-.52,0-1.02-.21-1.39-.58-.37-.37-.58-.87-.58-1.39v-1.29c.64.2,1.3.3,1.97.3h3.94v.98ZM10.19,54.12c1.57-1.27,3.53-1.96,5.55-1.97h29.52c2.02,0,3.98.7,5.55,1.97H10.19ZM56.08,57.07c0,.52-.21,1.02-.58,1.39s-.87.58-1.39.58h-1.97c-.52,0-1.02-.21-1.39-.58-.37-.37-.58-.87-.58-1.39v-.98h3.94c.67,0,1.33-.11,1.97-.3v1.29ZM52.27,34.94c.09.15.21.28.36.36.15.09.32.13.5.13,1.57,0,3.07.62,4.17,1.73,1.11,1.11,1.73,2.61,1.73,4.17v7.87c0,1.3-.52,2.55-1.44,3.48-.92.92-2.17,1.44-3.48,1.44h-.53c-1.01-1.22-2.29-2.21-3.72-2.89-1.44-.68-3.01-1.04-4.6-1.04H15.74c-1.59,0-3.16.36-4.6,1.04-1.44.68-2.71,1.67-3.72,2.89h-.53c-1.3,0-2.56-.52-3.48-1.44-.92-.92-1.44-2.17-1.44-3.48v-7.87c0-1.56.62-3.06,1.73-4.17,1.11-1.11,2.61-1.73,4.17-1.73.17,0,.35-.05.5-.13.15-.09.27-.21.36-.37.09-.15.13-.32.13-.5,0-.17-.05-.34-.14-.49l-1.89-3.16c.29-.24.52-.54.7-.87l1.5,1.2c.12.09.26.16.4.19.15.03.3.03.45,0,.15-.04.28-.11.4-.21.12-.1.21-.22.27-.36,1.5-3.46,4.25-6.23,7.7-7.77.3.45.62.88.97,1.29-2.63.92-4.8,2.82-6.06,5.31-.26.51-.38,1.09-.36,1.66.03.57.2,1.13.5,1.62.3.49.72.89,1.23,1.17.5.28,1.07.43,1.64.43h28.68c.57,0,1.14-.15,1.64-.43.5-.28.92-.68,1.23-1.17.3-.49.47-1.05.5-1.62.03-.57-.1-1.14-.35-1.66-1.26-2.48-3.43-4.39-6.06-5.31.35-.41.67-.84.97-1.29,3.45,1.53,6.2,4.31,7.7,7.77.06.14.15.26.27.36.12.1.25.17.4.21.15.04.3.04.45,0,.15-.03.29-.1.4-.19l1.5-1.2c.18.33.41.62.7.87l-1.89,3.16c-.09.15-.14.32-.14.49,0,.17.04.34.13.49Z"/>
  <path class="cls-1" d="M44.27,39.37c-1.04,0-2.04.41-2.78,1.15-.74.74-1.15,1.74-1.15,2.78s.41,2.04,1.15,2.78c.74.74,1.74,1.15,2.78,1.15h7.87c1.04,0,2.04-.41,2.78-1.15.74-.74,1.15-1.74,1.15-2.78s-.41-2.04-1.15-2.78c-.74-.74-1.74-1.15-2.78-1.15h-7.87ZM50.55,41.34l-1.97,3.93h-2.72l1.97-3.93h2.72ZM42.31,43.3c0-.52.21-1.02.58-1.39.37-.37.87-.58,1.39-.58h1.36l-1.92,3.84c-.4-.12-.76-.37-1.01-.71-.25-.34-.39-.75-.39-1.17ZM54.11,43.3c0,.52-.21,1.02-.58,1.39-.37.37-.87.58-1.39.58h-1.36l1.92-3.84c.4.12.76.37,1.01.71.25.34.39.75.39,1.17Z"/>
  <path class="cls-1" d="M25.63,23.83l1.06-1.06c.28.14.57.26.86.36v1.48c0,.26.1.51.29.7.18.18.43.29.7.29h3.94c.26,0,.51-.1.7-.29.18-.18.29-.43.29-.7v-1.49c.29-.1.58-.22.86-.36l1.06,1.06c.18.18.43.29.7.29s.51-.1.7-.29l2.78-2.78c.18-.18.29-.43.29-.7s-.1-.51-.29-.7l-1.06-1.06c.13-.28.25-.57.36-.87h1.49c.26,0,.51-.1.7-.29.18-.18.29-.43.29-.7v-3.93c0-.26-.1-.51-.29-.7-.18-.18-.43-.29-.7-.29h-1.49c-.1-.29-.22-.58-.36-.86l1.06-1.06c.18-.18.29-.43.29-.7s-.1-.51-.29-.7l-2.79-2.79c-.19-.18-.44-.28-.7-.28s-.51.1-.7.28l-1.06,1.06c-.28-.14-.57-.26-.86-.36v-1.49c0-.26-.1-.51-.29-.7-.18-.18-.43-.29-.7-.29h-3.94c-.26,0-.51.1-.7.29-.18.18-.29.43-.29.7v1.49c-.29.1-.58.22-.86.36l-1.06-1.06c-.18-.18-.43-.29-.7-.29s-.51.1-.7.29l-2.79,2.79c-.18.18-.29.43-.29.7s.1.51.29.7l1.06,1.06c-.14.28-.25.57-.36.86h-1.48c-.26,0-.51.1-.7.29-.18.18-.29.43-.29.7v3.93c0,.26.1.51.29.7.18.18.43.29.7.29h1.49c.1.29.22.58.36.86l-1.06,1.06c-.18.18-.29.43-.29.7s.1.51.29.7l2.78,2.78c.19.18.44.28.7.28.26,0,.51-.1.7-.28ZM24.56,18.27c-.33-.55-.58-1.14-.74-1.76-.05-.21-.18-.4-.35-.53-.17-.13-.38-.21-.6-.21h-1.23v-1.97h1.23c.22,0,.43-.07.6-.21.17-.13.3-.32.35-.53.16-.62.41-1.22.74-1.76.11-.19.16-.41.13-.63-.03-.22-.13-.42-.28-.58l-.88-.88,1.39-1.39.88.88c.16.16.36.25.58.28.22.03.44-.02.63-.13.55-.33,1.15-.58,1.77-.74.21-.05.4-.18.53-.35.13-.17.21-.38.21-.6v-1.23h1.97v1.23c0,.22.07.43.21.6.13.17.32.3.53.35.62.16,1.22.41,1.77.74.19.11.41.16.63.13.22-.03.42-.13.58-.28l.88-.88,1.39,1.39-.88.88c-.16.16-.25.36-.28.58-.03.22.02.44.13.63.33.55.58,1.15.74,1.77.06.21.18.39.35.53.17.13.38.2.6.2h1.23v1.97h-1.23c-.22,0-.43.07-.6.21-.17.13-.3.32-.35.53-.16.62-.41,1.22-.74,1.76-.11.19-.16.41-.13.63.03.22.13.42.28.58l.88.88-1.39,1.39-.88-.88c-.16-.16-.36-.25-.58-.28-.22-.03-.44.02-.63.13-.55.33-1.15.58-1.77.74-.21.06-.4.18-.53.35-.13.17-.2.38-.2.6v1.23h-1.97v-1.23c0-.22-.07-.43-.21-.6-.13-.17-.32-.3-.53-.35-.62-.16-1.22-.41-1.77-.74-.19-.11-.41-.16-.63-.13-.22.03-.42.13-.58.28l-.88.88-1.39-1.39.88-.88c.16-.16.25-.36.28-.58.03-.22-.02-.44-.13-.63h0Z"/>
  <path class="cls-1" d="M30.5,18.72c.78,0,1.54-.23,2.19-.66.65-.43,1.15-1.05,1.45-1.77.3-.72.38-1.51.22-2.27-.15-.76-.53-1.46-1.08-2.01s-1.25-.92-2.01-1.08c-.76-.15-1.55-.07-2.27.22-.72.3-1.33.8-1.77,1.45-.43.65-.66,1.41-.66,2.19,0,1.04.41,2.04,1.15,2.78.74.74,1.74,1.15,2.78,1.15ZM30.5,12.82c.39,0,.77.12,1.09.33.32.22.58.52.72.88.15.36.19.75.11,1.14-.08.38-.26.73-.54,1.01s-.63.46-1.01.54c-.38.08-.78.04-1.14-.11-.36-.15-.67-.4-.88-.72-.22-.32-.33-.7-.33-1.09,0-.52.21-1.02.58-1.39.37-.37.87-.58,1.39-.58Z"/>
</svg>