<?xml version="1.0" encoding="UTF-8"?>
<svg id="Layer_1" data-name="Layer 1" xmlns="http://www.w3.org/2000/svg" xmlns:xlink="http://www.w3.org/1999/xlink" viewBox="0 0 50 50">
  <defs>
    <style>
      .cls-1 {
        fill: #fff;
      }

      .cls-2 {
        fill: none;
      }

      .cls-3 {
        clip-path: url(#clippath);
      }
    </style>
    <clipPath id="clippath">
      <rect class="cls-2" x="1" width="48.48" height="50"/>
    </clipPath>
  </defs>
  <g class="cls-3">
    <path class="cls-1" d="M49.46,11.29c.02.07.03.14.03.2v10.71c0,.28-.15.54-.39.68l-8.99,5.18v10.26c0,.28-.15.54-.39.68l-18.77,10.81s-.09.04-.14.06c-.02,0-.03.02-.05.02-.13.03-.27.03-.4,0-.02,0-.04-.02-.06-.03-.04-.02-.09-.03-.13-.05L1.39,39c-.24-.14-.39-.4-.39-.68V6.18c0-.07,0-.14.03-.21,0-.02.02-.04.03-.07.01-.04.03-.08.05-.12.01-.03.04-.05.05-.07.02-.03.04-.06.07-.09.02-.02.05-.04.08-.06.03-.02.05-.05.09-.07L10.78.1c.24-.14.54-.14.78,0l9.38,5.4h0s.06.04.09.07c.03.02.05.04.08.06.03.03.05.06.07.09.02.02.04.04.05.07.02.04.04.08.05.12,0,.02.02.04.03.07.02.07.03.14.03.2v20.07l7.82-4.5v-10.26c0-.07,0-.14.03-.2,0-.02.02-.04.03-.07.02-.04.03-.08.05-.12.01-.03.04-.05.05-.07.02-.03.04-.06.07-.09.02-.02.05-.04.08-.06.03-.02.05-.05.09-.07l9.39-5.4c.24-.14.54-.14.78,0l9.38,5.4s.06.04.09.07c.02.02.05.04.08.06.03.03.05.06.07.09.02.02.04.04.05.07.02.04.04.08.05.12,0,.02.02.04.03.07ZM47.92,21.76v-8.91l-3.28,1.89-4.54,2.61v8.91l7.82-4.5ZM38.54,37.87v-8.92l-4.46,2.55-12.74,7.27v9l17.21-9.91ZM2.56,7.54v30.34l17.2,9.9v-9l-8.99-5.09h0s0,0,0,0c-.03-.02-.06-.04-.08-.06-.02-.02-.05-.04-.07-.06h0s-.04-.06-.06-.08c-.02-.03-.04-.05-.06-.08h0s-.03-.07-.04-.1c-.01-.03-.03-.06-.04-.09,0-.04-.01-.08-.02-.12,0-.03-.01-.06-.01-.09h0V12.04l-4.54-2.61-3.28-1.89ZM11.17,1.68L3.35,6.18l7.82,4.5,7.82-4.5L11.16,1.68h0ZM15.23,29.77l4.54-2.61V7.54l-3.28,1.89-4.54,2.61v19.62l3.28-1.89ZM39.32,7l-7.82,4.5,7.82,4.5,7.82-4.5-7.82-4.5ZM38.54,17.35l-4.54-2.61-3.28-1.89v8.91l4.54,2.61,3.28,1.89v-8.91ZM20.55,37.43l11.47-6.55,5.73-3.27-7.81-4.5-8.99,5.18-8.2,4.72,7.8,4.42Z"/>
  </g>
</svg>