<?xml version="1.0" encoding="UTF-8"?>
<svg id="Layer_1" data-name="Layer 1" xmlns="http://www.w3.org/2000/svg" viewBox="0 0 40 40">
  <defs>
    <style>
      .cls-1 {
        fill: #fff;
      }
    </style>
  </defs>
  <path class="cls-1" d="M39.27,29.45c-.42-1.58-2.06-2.54-3.74-2.19l-11.66,2.48c.23-.63.23-1.32,0-1.95s-.67-1.16-1.25-1.5l-6.76-3.9c-.27-.17-.53-.36-.76-.58-.59-.51-1.33-1.15-2.71-1.3-1.31-.14-3.01.17-5.31.96-.08-.49-.33-.93-.7-1.25-.38-.32-.85-.5-1.35-.5h-2.34c-.55,0-1.08.22-1.46.61-.39.39-.61.92-.61,1.46v11.52c0,.55.22,1.08.61,1.46.39.39.92.61,1.46.61h2.33c.54,0,1.07-.21,1.45-.6.39-.38.61-.9.62-1.44,1.86-.26,4.23,1.09,6.53,2.4,1.98,1.13,3.86,2.21,5.44,2.21.3,0,.59-.04.88-.13l17.15-4.6c.79-.21,1.46-.73,1.87-1.44.41-.71.52-1.55.31-2.34ZM5.03,34.13h-2.33c-.22,0-.43-.09-.58-.24-.15-.15-.24-.36-.24-.58v-11.52c0-.22.09-.43.24-.58.15-.15.36-.24.58-.24h2.33c.22,0,.43.09.58.24.15.15.24.36.24.58v11.52c0,.22-.09.43-.24.58-.15.15-.36.24-.58.24ZM36.77,32.02l-17.16,4.6h-.03c-1.21.39-3.3-.8-5.33-1.96-2.42-1.38-4.91-2.8-7.15-2.58v-9.29c5.11-1.83,6.16-.92,7.19-.04.29.27.61.51.95.72l6.76,3.9c.18.11.34.25.47.41.13.17.22.36.28.56.05.2.07.42.04.63-.03.21-.1.41-.2.59-.11.18-.25.34-.41.47-.17.13-.36.22-.56.28-.2.05-.42.07-.63.04-.21-.03-.41-.1-.59-.2l-5.64-3.26c-.14-.08-.31-.1-.47-.05-.16.04-.29.15-.37.29-.08.14-.1.31-.06.47.04.16.14.29.28.38l5.64,3.26c.43.25.92.38,1.42.38.45,0,.89-.11,1.29-.31.03,0,.06,0,.09-.01l13.22-2.8c1.04-.22,2.02.33,2.27,1.28.12.47.06.97-.18,1.39-.24.42-.64.73-1.11.85h0ZM4.91,23.23c0,.21-.06.41-.17.58-.11.17-.28.31-.47.39-.19.08-.4.1-.6.06-.2-.04-.39-.14-.53-.28-.15-.15-.25-.33-.29-.53-.04-.2-.02-.41.06-.6.08-.19.21-.35.38-.47.17-.11.37-.18.58-.18.28,0,.54.11.73.3.2.19.31.46.31.73ZM17.24,16.36h1.06c.21.75.51,1.48.9,2.16l-.75.75c-.2.19-.32.45-.33.73-.02.27.06.55.23.77.66.88,1.44,1.66,2.32,2.32.22.17.49.25.77.23.27-.02.53-.14.73-.33l.75-.75c.68.39,1.41.69,2.16.9v1.06c0,.28.1.54.28.75.18.21.43.34.7.38,1.09.15,2.19.15,3.28,0,.27-.04.52-.17.71-.38.18-.21.28-.48.28-.75v-1.06c.75-.21,1.48-.51,2.16-.9l.75.75c.19.2.45.32.73.33.27.02.55-.06.77-.23.88-.66,1.66-1.44,2.32-2.32.17-.22.25-.49.23-.77-.02-.27-.14-.53-.33-.73l-.75-.75c.39-.68.69-1.41.9-2.16h1.06c.28,0,.54-.1.75-.28.21-.18.34-.43.38-.7.15-1.09.15-2.19,0-3.28-.04-.27-.17-.52-.38-.7-.21-.18-.47-.28-.75-.28h-1.06c-.21-.75-.51-1.48-.9-2.16l.75-.75c.19-.19.31-.45.33-.72.02-.27-.06-.55-.23-.76-.66-.88-1.44-1.66-2.32-2.32-.22-.17-.49-.25-.77-.23-.28.02-.53.14-.73.33l-.75.75c-.68-.39-1.4-.69-2.16-.9v-1.06c0-.28-.1-.54-.28-.75-.18-.21-.43-.34-.7-.38-1.09-.15-2.19-.15-3.28,0-.27.04-.52.17-.7.38-.18.21-.28.47-.28.75v1.06c-.75.21-1.48.51-2.16.9l-.75-.75c-.19-.2-.45-.31-.73-.33-.27-.02-.55.06-.77.23-.88.66-1.66,1.44-2.32,2.32-.17.22-.25.49-.23.77.02.27.14.53.33.73l.75.75c-.39.68-.69,1.41-.9,2.16h-1.06c-.28,0-.54.1-.75.28-.21.18-.34.43-.38.7-.15,1.09-.15,2.19,0,3.28.04.27.17.52.38.7.21.18.47.28.75.28ZM17.34,12.37h1.45c.14,0,.28-.05.39-.14.11-.09.19-.21.22-.35.21-.95.59-1.86,1.11-2.68.08-.12.11-.26.09-.4-.02-.14-.08-.27-.18-.37l-1.02-1.03c.56-.73,1.21-1.38,1.94-1.94l1.02,1.03c.1.1.23.16.37.18.14.02.28-.02.4-.09.82-.52,1.73-.9,2.68-1.11.14-.03.26-.11.35-.22.09-.11.14-.25.14-.39v-1.45c.91-.12,1.83-.12,2.74,0v1.45c0,.14.05.28.14.39.09.11.21.19.35.22.95.21,1.86.59,2.68,1.11.12.08.26.11.4.09.14-.02.27-.08.37-.18l1.03-1.03c.73.56,1.38,1.21,1.94,1.94l-1.03,1.03c-.1.1-.16.23-.18.37-.02.14.02.28.09.4.52.82.9,1.73,1.11,2.68.03.14.11.26.22.35.11.09.25.14.39.14h1.45c.12.91.12,1.83,0,2.74h-1.45c-.14,0-.28.05-.39.14-.11.09-.19.21-.22.35-.21.95-.59,1.86-1.11,2.69-.08.12-.11.26-.09.4.02.14.08.27.18.37l1.03,1.03c-.56.73-1.21,1.38-1.94,1.94l-1.03-1.02c-.1-.1-.23-.16-.37-.18-.14-.02-.28.02-.4.09-.82.52-1.73.9-2.68,1.11-.14.03-.26.11-.35.22-.09.11-.14.25-.14.39v1.45c-.91.12-1.83.12-2.74,0v-1.45c0-.14-.05-.28-.14-.39-.09-.11-.21-.19-.35-.22-.95-.21-1.86-.59-2.68-1.11-.12-.08-.26-.11-.4-.09-.14.02-.27.08-.37.18l-1.02,1.03c-.73-.56-1.38-1.21-1.94-1.94l1.02-1.02c.1-.1.16-.23.18-.37.02-.14-.02-.28-.09-.4-.52-.82-.9-1.73-1.11-2.68-.03-.14-.11-.26-.22-.35-.11-.09-.25-.14-.39-.14h-1.45c-.12-.91-.12-1.83,0-2.74h0ZM27.69,20c1.24,0,2.45-.37,3.48-1.05,1.03-.69,1.83-1.67,2.31-2.81s.6-2.4.36-3.62c-.24-1.21-.84-2.33-1.71-3.2-.88-.88-1.99-1.47-3.2-1.71-1.21-.24-2.47-.12-3.62.36s-2.12,1.28-2.81,2.31c-.69,1.03-1.05,2.24-1.05,3.48,0,1.66.66,3.25,1.84,4.42,1.17,1.17,2.76,1.83,4.42,1.84ZM27.69,8.73c.99,0,1.96.29,2.78.84.82.55,1.47,1.33,1.84,2.25.38.92.48,1.92.29,2.89-.19.97-.67,1.86-1.37,2.56-.7.7-1.59,1.18-2.56,1.37-.97.19-1.98.09-2.89-.28-.92-.38-1.7-1.02-2.25-1.84-.55-.82-.84-1.79-.84-2.78,0-1.33.53-2.6,1.47-3.54.94-.94,2.21-1.47,3.54-1.47h0ZM25.09,14.33c-.06-.06-.1-.13-.14-.2-.03-.08-.05-.16-.05-.24s.02-.16.05-.24c.03-.08.08-.14.14-.2.06-.06.13-.1.2-.14.08-.03.16-.05.24-.05.08,0,.16.02.24.05.08.03.14.08.2.14l1,1,2.4-2.75c.11-.11.26-.18.42-.18.16,0,.31.05.43.15.12.1.19.25.21.41.02.16-.03.31-.12.44l-2.84,3.25c-.06.06-.13.12-.2.15-.08.04-.16.06-.25.06h-.02c-.08,0-.16-.02-.24-.05-.08-.03-.14-.08-.2-.14l-1.47-1.47Z"/>
</svg>