<svg width="40" height="40" viewBox="0 0 40 40" fill="none" xmlns="http://www.w3.org/2000/svg">
<path d="M39.2703 29.4531C38.8477 27.8742 37.2062 26.9148 35.5336 27.2656L23.8758 29.7406C24.1051 29.11 24.1056 28.4189 23.8771 27.788C23.6486 27.1571 23.2057 26.6265 22.6258 26.289L15.868 22.3867C15.5968 22.2173 15.342 22.023 15.107 21.8062C14.5133 21.2929 13.7742 20.6547 12.3969 20.5078C11.0883 20.3687 9.38516 20.6757 7.08437 21.4718C7.00757 20.9839 6.75926 20.5394 6.38406 20.2182C6.00887 19.897 5.53141 19.7202 5.0375 19.7195H2.69688C2.14757 19.7201 1.62094 19.9386 1.23252 20.327C0.844106 20.7154 0.62562 21.2421 0.625 21.7914V33.3078C0.62562 33.8571 0.844106 34.3837 1.23252 34.7721C1.62094 35.1605 2.14757 35.379 2.69688 35.3797H5.03047C5.57401 35.3789 6.09554 35.1649 6.48286 34.7835C6.87019 34.4022 7.09235 33.8841 7.10156 33.3406C8.96562 33.0789 11.3336 34.4304 13.6289 35.7414C15.607 36.8711 17.493 37.9484 19.0688 37.9484C19.3652 37.9508 19.6603 37.9079 19.9438 37.8211L37.0938 33.2257C37.8825 33.0138 38.5547 32.4973 38.9629 31.7899C39.371 31.0825 39.4816 30.242 39.2703 29.4531ZM5.03047 34.1297H2.69688C2.47896 34.1294 2.27004 34.0428 2.11595 33.8887C1.96186 33.7346 1.87521 33.5257 1.875 33.3078V21.7914C1.87521 21.5735 1.96186 21.3645 2.11595 21.2105C2.27004 21.0564 2.47896 20.9697 2.69688 20.9695H5.03047C5.24838 20.9697 5.45731 21.0564 5.61139 21.2105C5.76548 21.3645 5.85214 21.5735 5.85234 21.7914V33.3078C5.85214 33.5257 5.76548 33.7346 5.61139 33.8887C5.45731 34.0428 5.24838 34.1294 5.03047 34.1297ZM36.7703 32.0203L19.6094 36.6172L19.5805 36.6257C18.375 37.0109 16.2781 35.814 14.2508 34.6562C11.8344 33.275 9.34375 31.8547 7.10469 32.0781V22.7882C12.2102 20.957 13.2664 21.8687 14.2922 22.7515C14.5859 23.0211 14.9051 23.2616 15.2453 23.4695L22.0031 27.3711C22.1856 27.4769 22.3454 27.6177 22.4735 27.7854C22.6015 27.953 22.6953 28.1442 22.7495 28.3481C22.8036 28.552 22.8171 28.7646 22.7891 28.9737C22.7611 29.1828 22.6922 29.3843 22.5863 29.5668C22.4805 29.7492 22.3397 29.9091 22.172 30.0371C22.0044 30.1652 21.8132 30.259 21.6093 30.3131C21.4054 30.3673 21.1928 30.3807 20.9837 30.3527C20.7746 30.3248 20.5731 30.2558 20.3906 30.15L14.7484 26.8929C14.6053 26.8152 14.4374 26.7964 14.2806 26.8406C14.1238 26.8848 13.9905 26.9885 13.909 27.1296C13.8275 27.2706 13.8043 27.438 13.8444 27.5959C13.8844 27.7538 13.9846 27.8898 14.1234 27.975L19.7656 31.2328C20.198 31.483 20.6887 31.6148 21.1883 31.6148C21.6366 31.6142 22.0786 31.5087 22.4789 31.307C22.5083 31.305 22.5375 31.3011 22.5664 31.2953L35.7898 28.4953C36.8297 28.275 37.8055 28.8273 38.0609 29.7797C38.1856 30.2476 38.1198 30.7459 37.8779 31.1654C37.636 31.5849 37.2378 31.8914 36.7703 32.0179V32.0203ZM4.90547 23.2265C4.90609 23.4328 4.84547 23.6347 4.7313 23.8065C4.61712 23.9783 4.45452 24.1124 4.2641 24.1917C4.07367 24.271 3.86399 24.2921 3.6616 24.2521C3.4592 24.2122 3.27321 24.1131 3.12718 23.9674C2.98114 23.8217 2.88164 23.636 2.84126 23.4336C2.80088 23.2313 2.82145 23.0216 2.90035 22.831C2.97926 22.6404 3.11296 22.4775 3.28452 22.3629C3.45607 22.2484 3.65777 22.1873 3.86406 22.1875C4.13967 22.1881 4.40384 22.2977 4.59894 22.4923C4.79404 22.687 4.90423 22.9509 4.90547 23.2265ZM17.2445 16.3601H18.3023C18.512 17.1136 18.8126 17.8387 19.1977 18.5195L18.45 19.2679C18.2538 19.4615 18.1349 19.72 18.1155 19.9949C18.0961 20.2699 18.1775 20.5424 18.3445 20.7617C19.0057 21.639 19.7865 22.4195 20.6641 23.0804C20.8831 23.2479 21.1557 23.3296 21.4307 23.3104C21.7057 23.2911 21.9643 23.1721 22.1578 22.9757L22.9062 22.2281C23.5869 22.6132 24.3117 22.9144 25.0648 23.125V24.1828C25.0632 24.4584 25.1621 24.7252 25.343 24.9332C25.5239 25.1411 25.7744 25.276 26.0477 25.3125C27.136 25.4657 28.2405 25.4657 29.3289 25.3125C29.6025 25.2761 29.8535 25.1411 30.0346 24.9328C30.2157 24.7245 30.3145 24.4572 30.3125 24.1812V23.125C31.0659 22.9151 31.791 22.6144 32.4719 22.2297L33.2195 22.9773C33.4131 23.1737 33.6716 23.2926 33.9466 23.3119C34.2216 23.3312 34.4943 23.2494 34.7133 23.082C35.5906 22.4207 36.3708 21.6397 37.0312 20.7617C37.1984 20.5425 37.2799 20.27 37.2607 19.9951C37.2414 19.7201 37.1226 19.4616 36.9266 19.2679L36.1781 18.5195C36.5632 17.839 36.8639 17.1142 37.0734 16.3609H38.132C38.4077 16.3627 38.6746 16.2639 38.8826 16.083C39.0906 15.902 39.2254 15.6514 39.2617 15.3781C39.415 14.2897 39.415 13.1852 39.2617 12.0968C39.2252 11.8237 39.0903 11.5733 38.8823 11.3925C38.6744 11.2117 38.4076 11.113 38.132 11.1148H37.0727C36.8626 10.3613 36.5617 9.63623 36.1766 8.95544L36.925 8.20778C37.12 8.01454 37.2383 7.75707 37.2578 7.48321C37.2774 7.20935 37.1969 6.9377 37.0312 6.71872C36.3705 5.84076 35.5897 5.05996 34.7117 4.39919C34.4927 4.23175 34.2201 4.15 33.9451 4.16927C33.67 4.18855 33.4115 4.30752 33.218 4.50388L32.4703 5.25231C31.7901 4.86633 31.0655 4.56438 30.3125 4.3531V3.29528C30.3144 3.01963 30.2157 2.75275 30.0349 2.54465C29.8541 2.33654 29.6037 2.2015 29.3305 2.16481C28.242 2.01318 27.1377 2.01318 26.0492 2.16481C25.7761 2.20166 25.5257 2.33675 25.345 2.54482C25.1642 2.75289 25.0655 3.01968 25.0672 3.29528V4.3531C24.3132 4.56309 23.5876 4.864 22.9062 5.24919L22.1578 4.50075C21.9641 4.3047 21.7056 4.18593 21.4307 4.16666C21.1558 4.1474 20.8832 4.22895 20.6641 4.39606C19.7859 5.05779 19.0051 5.83966 18.3445 6.71872C18.1774 6.9379 18.0958 7.21053 18.1152 7.48551C18.1347 7.76049 18.2537 8.01895 18.45 8.21247L19.1977 8.96013C18.8125 9.6408 18.5118 10.366 18.3023 11.1195H17.2445C16.9689 11.1176 16.702 11.2163 16.4939 11.3971C16.2858 11.5779 16.1507 11.8283 16.1141 12.1015C15.9608 13.1899 15.9608 14.2944 16.1141 15.3828C16.1516 15.6552 16.2871 15.9046 16.4951 16.0845C16.7031 16.2643 16.9695 16.3623 17.2445 16.3601ZM17.3391 12.3664H18.7891C18.9312 12.3664 19.0691 12.318 19.1801 12.2291C19.291 12.1401 19.3683 12.0161 19.3992 11.8773C19.6122 10.9255 19.9886 10.0177 20.5117 9.1945C20.5878 9.07455 20.6207 8.93229 20.605 8.79114C20.5894 8.64998 20.5262 8.51836 20.4258 8.41794L19.4008 7.39216C19.9597 6.66293 20.6122 6.01045 21.3414 5.45153L22.3664 6.47731C22.4669 6.57792 22.5986 6.64127 22.74 6.65689C22.8813 6.67252 23.0237 6.63948 23.1437 6.56325C23.967 6.04014 24.8747 5.66373 25.8266 5.45075C25.9647 5.4198 26.0882 5.34289 26.1769 5.23262C26.2656 5.12235 26.3142 4.98524 26.3148 4.84372V3.38981C27.2258 3.27106 28.1484 3.27106 29.0594 3.38981V4.84372C29.0593 4.98588 29.1078 5.1238 29.1967 5.23473C29.2856 5.34566 29.4097 5.42296 29.5484 5.45388C30.4998 5.66561 31.4073 6.0407 32.2305 6.56247C32.3505 6.6387 32.4929 6.67173 32.6342 6.65611C32.7756 6.64049 32.9073 6.57714 33.0078 6.47653L34.0336 5.45075C34.7624 6.00989 35.4146 6.66235 35.9734 7.39138L34.9484 8.41716C34.848 8.51758 34.7848 8.6492 34.7692 8.79035C34.7536 8.93151 34.7865 9.07377 34.8625 9.19372C35.3857 10.0164 35.7621 10.9236 35.975 11.875C36.0061 12.0136 36.0834 12.1375 36.1944 12.2262C36.3053 12.315 36.4431 12.3633 36.5852 12.3633H38.0352C38.1549 13.2742 38.1549 14.1969 38.0352 15.1078H36.5844C36.4425 15.1079 36.3048 15.1563 36.194 15.245C36.0833 15.3338 36.006 15.4576 35.975 15.5961C35.7623 16.5487 35.3859 17.4573 34.8625 18.2812C34.7865 18.4012 34.7536 18.5434 34.7692 18.6846C34.7848 18.8257 34.848 18.9574 34.9484 19.0578L35.9742 20.0836C35.4149 20.8124 34.7625 21.4649 34.0336 22.0242L33.0078 20.9992C32.9073 20.8989 32.7756 20.8358 32.6345 20.8203C32.4933 20.8048 32.3511 20.8379 32.2313 20.914C31.4078 21.4373 30.4998 21.8137 29.5477 22.0265C29.4092 22.0576 29.2854 22.1348 29.1966 22.2456C29.1079 22.3563 29.0595 22.494 29.0594 22.6359V24.0867C28.1484 24.2054 27.2258 24.2054 26.3148 24.0867V22.6359C26.3149 22.4939 26.2666 22.356 26.1778 22.2451C26.0891 22.1342 25.9652 22.0568 25.8266 22.0257C24.8744 21.8136 23.9666 21.4372 23.1437 20.9132C23.0237 20.837 22.8813 20.804 22.74 20.8196C22.5986 20.8352 22.4669 20.8986 22.3664 20.9992L21.3414 22.025C20.6122 21.4661 19.9597 20.8136 19.4008 20.0843L20.4258 19.0625C20.5262 18.962 20.5894 18.8304 20.605 18.6893C20.6207 18.5481 20.5878 18.4059 20.5117 18.2859C19.9884 17.4627 19.612 16.555 19.3992 15.6031C19.3683 15.4643 19.291 15.3403 19.1801 15.2514C19.0691 15.1624 18.9312 15.114 18.7891 15.114H17.3391C17.2193 14.2034 17.2193 13.2809 17.3391 12.3703V12.3664ZM27.6875 20C28.9253 20 30.1354 19.6329 31.1646 18.9452C32.1938 18.2575 32.996 17.28 33.4697 16.1364C33.9434 14.9928 34.0673 13.7344 33.8258 12.5204C33.5843 11.3063 32.9883 10.1912 32.113 9.31588C31.2377 8.4406 30.1225 7.84453 28.9085 7.60304C27.6944 7.36155 26.436 7.48549 25.2924 7.95919C24.1488 8.43289 23.1714 9.23507 22.4837 10.2643C21.796 11.2935 21.4289 12.5035 21.4289 13.7414C21.4308 15.4007 22.0908 16.9915 23.2641 18.1648C24.4374 19.3381 26.0282 19.9981 27.6875 20ZM27.6875 8.73278C28.6781 8.73278 29.6465 9.02653 30.4701 9.57688C31.2938 10.1272 31.9357 10.9095 32.3148 11.8247C32.6939 12.7399 32.7931 13.7469 32.5999 14.7185C32.4066 15.6901 31.9296 16.5825 31.2291 17.283C30.5286 17.9834 29.6362 18.4605 28.6646 18.6537C27.6931 18.847 26.686 18.7478 25.7708 18.3687C24.8556 17.9896 24.0734 17.3477 23.523 16.524C22.9727 15.7003 22.6789 14.732 22.6789 13.7414C22.6795 12.4129 23.2073 11.139 24.1464 10.1993C25.0855 9.25969 26.359 8.73111 27.6875 8.72966V8.73278ZM25.0883 14.3328C25.0303 14.2747 24.9843 14.2058 24.9529 14.1299C24.9215 14.0541 24.9054 13.9728 24.9054 13.8907C24.9054 13.8086 24.9216 13.7273 24.9531 13.6515C24.9845 13.5757 25.0306 13.5068 25.0887 13.4488C25.1467 13.3908 25.2157 13.3448 25.2915 13.3134C25.3674 13.282 25.4487 13.2659 25.5307 13.2659C25.6128 13.266 25.6941 13.2822 25.7699 13.3136C25.8458 13.345 25.9146 13.3911 25.9727 13.4492L26.9766 14.4531L29.375 11.7008C29.4874 11.5898 29.6377 11.5255 29.7956 11.5208C29.9535 11.5162 30.1073 11.5715 30.2261 11.6756C30.3448 11.7797 30.4198 11.925 30.4358 12.0821C30.4519 12.2393 30.4078 12.3966 30.3125 12.5226L27.4766 15.7757C27.4202 15.8404 27.3512 15.8927 27.2738 15.9296C27.1964 15.9664 27.1122 15.9869 27.0266 15.9898H27.0055C26.9234 15.9899 26.8421 15.9738 26.7662 15.9424C26.6903 15.911 26.6214 15.865 26.5633 15.807L25.0883 14.3328Z" fill="black"/>
</svg>
