<?xml version="1.0" encoding="UTF-8"?>
<svg id="Layer_1" data-name="Layer 1" xmlns="http://www.w3.org/2000/svg" xmlns:xlink="http://www.w3.org/1999/xlink" viewBox="0 0 50 50">
  <defs>
    <style>
      .cls-1 {
        fill: #ff5823;
      }

      .cls-2 {
        fill: #fff;
      }

      .cls-3 {
        fill: none;
      }

      .cls-4 {
        clip-path: url(#clippath);
      }
    </style>
    <clipPath id="clippath">
      <rect class="cls-3" width="50" height="50"/>
    </clipPath>
  </defs>
  <g class="cls-4">
    <g>
      <path class="cls-2" d="M19.73,35.04c-.19,0-.38-.06-.53-.2l-5.34-4.55c-.18-.16-.29-.39-.29-.63s.11-.47.29-.63l5.34-4.55c.35-.3.87-.25,1.16.09.3.35.25.87-.09,1.16l-4.6,3.92,4.6,3.92c.35.3.39.82.09,1.16-.16.19-.4.29-.63.29Z"/>
      <path class="cls-2" d="M30.27,35.04c-.23,0-.47-.1-.63-.29-.3-.35-.25-.87.09-1.16l4.6-3.92-4.6-3.92c-.35-.3-.39-.82-.09-1.16.3-.35.82-.39,1.16-.09l5.34,4.55c.18.16.29.39.29.63s-.11.47-.29.63l-5.34,4.55c-.16.13-.35.2-.53.2Z"/>
      <path class="cls-2" d="M23.11,38.45c-.06,0-.11,0-.17-.02-.45-.09-.73-.53-.64-.98l3.33-15.81c.09-.45.53-.73.98-.64.45.09.73.53.64.98l-3.33,15.81c-.08.39-.42.66-.81.66Z"/>
      <path class="cls-2" d="M44.46,47.06H5.54c-3.06,0-5.54-2.49-5.54-5.54V8.49C0,5.43,2.49,2.95,5.54,2.95h38.92c3.06,0,5.54,2.49,5.54,5.54v33.03c0,3.06-2.49,5.54-5.54,5.54ZM5.54,4.6c-2.15,0-3.89,1.75-3.89,3.89v33.03c0,2.15,1.75,3.89,3.89,3.89h38.92c2.15,0,3.89-1.75,3.89-3.89V8.49c0-2.15-1.75-3.89-3.89-3.89H5.54Z"/>
      <path class="cls-2" d="M49.17,16.17H.83c-.46,0-.83-.37-.83-.83s.37-.83.83-.83h48.35c.46,0,.83.37.83.83s-.37.83-.83.83Z"/>
      <path class="cls-1" d="M14.1,12.22c-1.44,0-2.61-1.17-2.61-2.61s1.17-2.61,2.61-2.61,2.61,1.17,2.61,2.61-1.17,2.61-2.61,2.61Z"/>
      <path class="cls-1" d="M6.08,12.19c-1.44,0-2.61-1.17-2.61-2.61s1.17-2.61,2.61-2.61,2.61,1.17,2.61,2.61-1.17,2.61-2.61,2.61Z"/>
      <path class="cls-1" d="M22.13,12.24c-1.44,0-2.61-1.17-2.61-2.61s1.17-2.61,2.61-2.61,2.61,1.17,2.61,2.61-1.17,2.61-2.61,2.61Z"/>
    </g>
  </g>
</svg>