<?xml version="1.0" encoding="UTF-8"?>
<svg id="Layer_1" data-name="Layer 1" xmlns="http://www.w3.org/2000/svg" xmlns:xlink="http://www.w3.org/1999/xlink" viewBox="0 0 54 54">
  <defs>
    <style>
      .cls-1 {
        fill: #fff;
      }

      .cls-2 {
        fill: none;
      }

      .cls-3 {
        clip-path: url(#clippath);
      }
    </style>
    <clipPath id="clippath">
      <rect class="cls-2" width="54" height="54"/>
    </clipPath>
  </defs>
  <g class="cls-3">
    <path class="cls-1" d="M38.4,0H15.6c-2.3,0-4.18,1.88-4.18,4.18v45.64c0,2.3,1.87,4.18,4.18,4.18h22.79c2.3,0,4.18-1.87,4.18-4.18V4.18c0-2.3-1.87-4.18-4.18-4.18h.01ZM40.89,49.82c0,1.37-1.12,2.49-2.49,2.49H15.6c-1.37,0-2.49-1.12-2.49-2.49V4.18c0-1.38,1.12-2.49,2.49-2.49h22.79c1.37,0,2.49,1.12,2.49,2.49v45.64h0ZM18.6,5.47c0-.47.38-.84.84-.84h15.11c.47,0,.84.38.84.84s-.38.84-.84.84h-15.11c-.47,0-.84-.38-.84-.84ZM29.17,48.53c0,.47-.38.84-.84.84h-2.65c-.47,0-.84-.38-.84-.84s.38-.84.84-.84h2.65c.47,0,.84.38.84.84ZM36.67,30.46l-1.78-.58.85-1.66c.35-.69.22-1.52-.33-2.07l-1.41-1.41c-.55-.55-1.38-.69-2.07-.33l-1.67.85-.58-1.77c-.24-.74-.92-1.23-1.69-1.23h-2c-.77,0-1.45.49-1.7,1.23l-.58,1.78-1.66-.84c-.69-.35-1.52-.22-2.07.33l-1.41,1.41c-.55.55-.68,1.38-.33,2.07l.85,1.66-1.78.58c-.74.24-1.23.92-1.23,1.7v2c0,.77.49,1.46,1.23,1.7l1.78.58-.85,1.67c-.35.69-.22,1.52.33,2.07l1.41,1.41c.55.55,1.38.68,2.07.33l1.66-.85.58,1.78c.24.74.92,1.23,1.7,1.23h2c.78,0,1.46-.5,1.69-1.23l.58-1.78,1.66.85c.69.35,1.53.22,2.07-.33l1.42-1.41c.55-.55.68-1.38.33-2.07l-.85-1.66,1.78-.58c.74-.24,1.23-.92,1.23-1.69v-2c0-.77-.49-1.45-1.23-1.7v-.04ZM36.22,34.15s-.02.08-.07.09l-2.16.7c-.25.08-.45.27-.53.52-.08.21-.16.42-.25.61-.11.24-.11.51,0,.75l1.03,2.03s.02.08-.02.11l-1.42,1.42s-.06.04-.11.02l-2.03-1.03c-.23-.12-.51-.12-.74,0-.2.1-.41.18-.62.26-.24.09-.43.28-.51.53l-.7,2.17s-.03.06-.09.06h-2s-.08-.02-.09-.07l-.7-2.16c-.08-.25-.27-.44-.51-.53-.22-.08-.42-.17-.62-.26-.11-.05-.24-.08-.36-.08-.13,0-.26.03-.38.09l-2.03,1.03s-.07.03-.11-.02l-1.41-1.41s-.05-.06-.02-.11l1.03-2.03c.12-.23.12-.51,0-.75-.09-.19-.17-.39-.26-.62-.09-.24-.28-.43-.53-.51l-2.16-.7s-.07-.04-.07-.09v-2s.02-.08.07-.09l2.16-.7c.25-.08.44-.27.53-.51.08-.22.16-.42.26-.62.11-.24.11-.51-.01-.74l-1.03-2.02c-.03-.06,0-.09.01-.11l1.41-1.41s.07-.04.11-.02l2.03,1.03c.23.12.51.12.74.01.21-.1.41-.18.61-.25.25-.09.44-.28.52-.53l.7-2.16s.05-.07.09-.07h2s.07.02.09.07l.7,2.16c.08.25.28.45.52.54.21.07.41.16.61.25.24.11.51.11.74-.01l2.03-1.03s.07-.02.11.02l1.42,1.41s.04.06.02.11l-1.03,2.02c-.12.23-.12.51,0,.74.1.21.18.41.25.61.09.25.28.44.54.52l2.16.7c.06.02.07.06.07.09v2h0l.02-.02ZM27,28.09c-2.79,0-5.06,2.27-5.06,5.06s2.27,5.06,5.06,5.06,5.06-2.27,5.06-5.06-2.27-5.06-5.06-5.06ZM27,36.52c-1.86,0-3.37-1.51-3.37-3.37s1.51-3.37,3.37-3.37,3.37,1.51,3.37,3.37-1.51,3.37-3.37,3.37ZM18.31,15.94c-.16-.16-.25-.37-.25-.6s.09-.44.25-.6l3.17-3.17c.33-.33.86-.33,1.19,0s.33.86,0,1.19l-2.58,2.58,2.58,2.57c.33.33.33.86,0,1.19-.16.16-.38.25-.6.25s-.43-.08-.6-.25l-3.17-3.17h.01ZM32.52,11.57l3.17,3.17c.16.16.25.37.25.6s-.09.44-.25.6l-3.17,3.17c-.16.16-.38.25-.6.25s-.43-.08-.6-.25c-.33-.33-.33-.86,0-1.19l2.58-2.57-2.58-2.58c-.33-.33-.33-.86,0-1.19.33-.33.86-.33,1.19,0h0ZM28.44,9.97c.45.12.72.58.6,1.03l-2.44,9.11c-.1.38-.44.63-.81.63-.07,0-.15,0-.22-.03-.45-.12-.72-.58-.6-1.03l2.44-9.11c.12-.45.58-.72,1.03-.6Z"/>
  </g>
</svg>