<?xml version="1.0" encoding="UTF-8"?>
<svg id="Layer_1" data-name="Layer 1" xmlns="http://www.w3.org/2000/svg" xmlns:xlink="http://www.w3.org/1999/xlink" viewBox="0 0 50 50">
  <defs>
    <style>
      .cls-1 {
        mask: url(#mask-1);
      }

      .cls-2 {
        fill: #ff5823;
      }

      .cls-2, .cls-3 {
        fill-rule: evenodd;
      }

      .cls-4, .cls-3 {
        fill: #fff;
      }

      .cls-5 {
        mask: url(#mask);
      }

      .cls-6 {
        fill: none;
      }

      .cls-7 {
        clip-path: url(#clippath);
      }
    </style>
    <clipPath id="clippath">
      <rect class="cls-6" width="50" height="50"/>
    </clipPath>
    <mask id="mask" x="2.4" y="-.6" width="45.54" height="51.2" maskUnits="userSpaceOnUse">
      <g id="path-1-inside-1_3015_1520" data-name="path-1-inside-1 3015 1520">
        <path class="cls-3" d="M23.24,49.49c.59.34,1.25.51,1.92.51s1.34-.17,1.93-.51l18.32-10.58c1.19-.69,1.92-1.97,1.92-3.34V14.42c0-1.37-.74-2.65-1.92-3.34L27.09.49c-1.15-.66-2.69-.66-3.85,0L4.92,11.08c-1.19.68-1.92,1.97-1.92,3.34v21.14c0,1.37.73,2.66,1.92,3.34l4.8,2.77c2.33,1.15,3.16,1.15,4.22,1.15,3.45,0,5.42-2.08,5.42-5.72v-20.88c0-.3-.24-.53-.53-.53h-2.32c-.3,0-.53.23-.53.53v20.88c0,1.61-1.67,3.21-4.39,1.85l-5.02-2.9c-.18-.1-.29-.29-.29-.49V14.42c0-.2.11-.4.29-.5L24.89,3.35c.17-.1.4-.1.56,0l18.32,10.57c.18.1.29.3.29.5v21.14c0,.2-.11.4-.28.5l-18.32,10.58c-.16.1-.4.1-.57,0l-4.7-2.79c-.14-.08-.32-.11-.45-.03-1.3.74-1.55.84-2.77,1.26-.3.11-.75.29.17.8l6.12,3.62Z"/>
      </g>
    </mask>
    <mask id="mask-1" x="20.53" y="14.53" width="20.03" height="21.5" maskUnits="userSpaceOnUse">
      <g id="path-3-inside-2_3015_1520" data-name="path-3-inside-2 3015 1520">
        <path class="cls-3" d="M21.13,28.66c0,3.09,1.68,6.77,9.7,6.77,5.81,0,9.13-2.29,9.13-6.28,0-3.96-2.67-5.01-8.31-5.75-5.69-.75-6.27-1.14-6.27-2.47,0-1.1.49-2.57,4.7-2.57,3.76,0,5.15.81,5.72,3.35.05.24.27.41.51.41h2.38c.15,0,.29-.06.39-.17.1-.11.15-.26.14-.41-.37-4.37-3.27-6.41-9.14-6.41-5.23,0-8.34,2.2-8.34,5.9,0,4.01,3.1,5.12,8.11,5.61,6,.59,6.46,1.46,6.46,2.64,0,2.05-1.64,2.92-5.5,2.92-4.85,0-5.92-1.22-6.27-3.63-.04-.26-.26-.45-.53-.45h-2.37c-.29,0-.53.24-.53.53Z"/>
      </g>
    </mask>
  </defs>
  <g class="cls-7">
    <g>
      <path class="cls-3" d="M23.24,49.49c.59.34,1.25.51,1.92.51s1.34-.17,1.93-.51l18.32-10.58c1.19-.69,1.92-1.97,1.92-3.34V14.42c0-1.37-.74-2.65-1.92-3.34L27.09.49c-1.15-.66-2.69-.66-3.85,0L4.92,11.08c-1.19.68-1.92,1.97-1.92,3.34v21.14c0,1.37.73,2.66,1.92,3.34l4.8,2.77c2.33,1.15,3.16,1.15,4.22,1.15,3.45,0,5.42-2.08,5.42-5.72v-20.88c0-.3-.24-.53-.53-.53h-2.32c-.3,0-.53.23-.53.53v20.88c0,1.61-1.67,3.21-4.39,1.85l-5.02-2.9c-.18-.1-.29-.29-.29-.49V14.42c0-.2.11-.4.29-.5L24.89,3.35c.17-.1.4-.1.56,0l18.32,10.57c.18.1.29.3.29.5v21.14c0,.2-.11.4-.28.5l-18.32,10.58c-.16.1-.4.1-.57,0l-4.7-2.79c-.14-.08-.32-.11-.45-.03-1.3.74-1.55.84-2.77,1.26-.3.11-.75.29.17.8l6.12,3.62Z"/>
      <g class="cls-5">
        <path class="cls-4" d="M23.24,49.49l-.31.52h0s.3-.52.3-.52ZM27.09,49.49l-.3-.52h0s.3.52.3.52ZM45.42,38.91l.3.52h0s-.3-.52-.3-.52ZM45.42,11.08l-.3.52h0s.3-.52.3-.52ZM27.09.49l.3-.52h0s-.3.52-.3.52ZM23.24.49l-.3-.52h0s.3.52.3.52ZM4.92,11.08l.3.52h0s-.3-.52-.3-.52ZM4.92,38.91l-.3.52h0s.3-.52.3-.52ZM9.73,41.67l-.3.52h.02s.02.02.02.02l.27-.54ZM11.59,38.95l-.3.52h.02s.02.02.02.02l.27-.54ZM6.57,36.05l.3-.52h0s0,0,0,0l-.29.53ZM6.58,13.92l.3.52h0s-.3-.52-.3-.52ZM24.89,3.35l.3.52h0s-.3-.52-.3-.52ZM25.45,3.35l-.3.52h0s.3-.52.3-.52ZM43.76,13.92l.31-.52h0s-.3.52-.3.52ZM43.77,36.06l.3.52h0s-.3-.52-.3-.52ZM25.45,46.63l-.3-.52h0s0,0,0,0l.31.51ZM24.88,46.63l-.31.52h0s0,0,0,0l.29-.52ZM20.18,43.84l.31-.52h0s-.3.52-.3.52ZM19.72,43.81l-.29-.52h0s.3.52.3.52ZM16.96,45.07l-.2-.57h0s.2.57.2.57ZM17.13,45.87l.31-.52h0s0,0,0,0l-.29.52ZM25.16,49.4c-.57,0-1.13-.15-1.62-.43l-.6,1.04c.68.39,1.45.59,2.22.59v-1.2ZM26.79,48.97c-.49.29-1.05.43-1.63.43v1.2c.78,0,1.55-.2,2.23-.59l-.6-1.04ZM45.12,38.39l-18.32,10.58.6,1.04,18.32-10.58-.6-1.04ZM46.74,35.56c0,1.16-.62,2.24-1.63,2.83l.6,1.04c1.37-.8,2.22-2.27,2.22-3.86h-1.2ZM46.74,14.42v21.14h1.2V14.42h-1.2ZM45.12,11.6c1,.58,1.62,1.66,1.62,2.82h1.2c0-1.59-.85-3.07-2.22-3.86l-.6,1.04ZM26.79,1.01l18.32,10.59.6-1.04L27.4-.03l-.6,1.04ZM23.54,1.01c.98-.55,2.29-.55,3.26,0L27.39-.03c-1.34-.76-3.1-.76-4.44,0l.59,1.04ZM5.22,11.6L23.54,1.01,22.94-.03,4.62,10.56l.6,1.04ZM3.6,14.42c0-1.16.62-2.24,1.62-2.82l-.6-1.04c-1.37.79-2.22,2.27-2.22,3.86h1.2ZM3.6,35.56V14.42h-1.2v21.14h1.2ZM5.22,38.39c-1-.58-1.62-1.66-1.62-2.82h-1.2c0,1.59.85,3.07,2.22,3.86l.6-1.04ZM10.02,41.15l-4.8-2.77-.6,1.04,4.8,2.77.6-1.04ZM13.95,42.22c-.53,0-.94,0-1.5-.13-.57-.13-1.31-.39-2.45-.96l-.53,1.08c1.19.58,2.02.89,2.72,1.05.7.16,1.24.16,1.77.16v-1.2ZM18.77,37.1c0,1.71-.47,2.98-1.26,3.81-.79.83-1.97,1.31-3.57,1.31v1.2c1.85,0,3.38-.56,4.44-1.68,1.06-1.12,1.58-2.71,1.58-4.64h-1.2ZM18.77,16.22v20.88h1.2v-20.88h-1.2ZM18.84,16.3s-.07-.03-.07-.07h1.2c0-.64-.52-1.13-1.13-1.13v1.2ZM16.52,16.3h2.32v-1.2h-2.32v1.2ZM16.58,16.22s0,.04-.02.05c-.01.01-.03.02-.04.02v-1.2c-.62,0-1.13.5-1.13,1.13h1.2ZM16.58,37.1v-20.88h-1.2v20.88h1.2ZM11.33,39.49c1.49.75,2.81.73,3.78.17.96-.55,1.48-1.56,1.48-2.56h-1.2c0,.61-.31,1.2-.87,1.52-.54.31-1.42.41-2.65-.2l-.54,1.07ZM6.27,36.57l5.02,2.9.6-1.04-5.02-2.9-.6,1.04ZM5.69,35.56c0,.42.23.81.6,1.02l.57-1.06s.02.02.02.02c0,0,0,.01,0,.02h-1.2ZM5.69,14.42v21.14h1.2V14.42h-1.2ZM6.28,13.4c-.37.21-.59.61-.59,1.02h1.2s0,0,0,0c0,0,0,0,0,0,0,0,0,0,0,0,0,0,0,0-.01,0l-.59-1.04ZM24.59,2.83L6.28,13.4l.6,1.04L25.19,3.87l-.6-1.04ZM25.75,2.83c-.36-.21-.81-.21-1.17,0l.6,1.04s-.01,0-.01,0c0,0,0,0,0,0,0,0,0,0,0,0,0,0,0,0-.02,0l.6-1.04ZM44.06,13.4L25.75,2.83l-.6,1.04,18.32,10.57.6-1.04ZM44.65,14.42c0-.42-.22-.81-.58-1.02l-.61,1.03s0,0,0,0c0,0,0,0,0,0h1.2ZM44.65,35.56V14.42h-1.2v21.14h1.2ZM44.07,36.58c.36-.21.58-.61.58-1.01h-1.2s0,0,0,0c0,0,0,0,0,0,0,0,0,0,0,0,0,0,0,0,.01-.01l.6,1.04ZM25.75,47.15l18.32-10.58-.6-1.04-18.32,10.58.6,1.04ZM24.59,47.16c.34.19.82.21,1.17-.01l-.62-1.02s.03-.02.04-.02c0,0,0,0,0,0s0,0,0,0c0,0,0,0,.01,0l-.59,1.05ZM19.87,44.36l4.7,2.79.61-1.03-4.7-2.79-.61,1.03ZM20.02,44.33c-.06.04-.11.03-.13.03-.01,0-.02,0-.01,0l.6-1.04c-.24-.14-.66-.26-1.05-.04l.59,1.05ZM17.16,45.64c1.25-.43,1.53-.55,2.87-1.3l-.59-1.04c-1.27.72-1.48.8-2.67,1.21l.39,1.13ZM17.42,45.34c-.21-.12-.28-.19-.3-.2,0,0,.02.02.04.08.02.07.03.16,0,.26-.03.09-.07.15-.1.18s-.04.03-.04.03c.02,0,.05-.03.13-.05l-.4-1.13c-.07.03-.2.07-.33.14-.1.06-.34.21-.42.51-.1.35.07.63.22.79.15.16.36.31.61.45l.59-1.05ZM23.55,48.97l-6.12-3.62-.61,1.03,6.12,3.62.61-1.03Z"/>
      </g>
      <path class="cls-2" d="M21.13,28.66c0,3.09,1.68,6.77,9.7,6.77,5.81,0,9.13-2.29,9.13-6.28,0-3.96-2.67-5.01-8.31-5.75-5.69-.75-6.27-1.14-6.27-2.47,0-1.1.49-2.57,4.7-2.57,3.76,0,5.15.81,5.72,3.35.05.24.27.41.51.41h2.38c.15,0,.29-.06.39-.17.1-.11.15-.26.14-.41-.37-4.37-3.27-6.41-9.14-6.41-5.23,0-8.34,2.2-8.34,5.9,0,4.01,3.1,5.12,8.11,5.61,6,.59,6.46,1.46,6.46,2.64,0,2.05-1.64,2.92-5.5,2.92-4.85,0-5.92-1.22-6.27-3.63-.04-.26-.26-.45-.53-.45h-2.37c-.29,0-.53.24-.53.53Z"/>
      <g class="cls-1">
        <path class="cls-4" d="M39.96,29.15h-.6s.6,0,.6,0ZM31.65,23.4l-.08.59h0l.08-.59ZM35.81,21.7l.59-.12h0s-.59.12-.59.12ZM39.09,21.95l.43.41h0s0-.02,0-.02l-.45-.4ZM39.23,21.54l-.6.05h0s.6-.05.6-.05ZM29.86,26.65l-.06.6h0s.06-.6.06-.6ZM24.55,28.59l.59-.09h0s-.59.09-.59.09ZM30.82,34.83c-3.93,0-6.18-.9-7.45-2.07-1.26-1.16-1.65-2.66-1.65-4.1h-1.2c0,1.65.45,3.53,2.04,4.98,1.58,1.45,4.17,2.38,8.26,2.38v-1.2ZM39.36,29.15c0,1.8-.74,3.19-2.13,4.14-1.42.98-3.57,1.54-6.4,1.54v1.2c2.97,0,5.39-.58,7.08-1.75,1.72-1.19,2.65-2.94,2.65-5.13h-1.2ZM31.57,23.99c2.82.37,4.78.81,6.03,1.59.61.38,1.03.82,1.32,1.38.28.56.44,1.27.44,2.19h1.2c0-1.06-.18-1.96-.57-2.74-.4-.78-.99-1.38-1.75-1.86-1.5-.93-3.69-1.39-6.5-1.76l-.16,1.19ZM24.78,20.92c0,.36.04.77.27,1.15.23.39.61.65,1.1.85.94.39,2.6.69,5.42,1.06l.16-1.19c-2.87-.38-4.35-.66-5.11-.98-.37-.15-.49-.28-.54-.37-.06-.09-.09-.23-.09-.53h-1.2ZM30.09,17.75c-2.15,0-3.49.37-4.3,1-.85.66-1,1.52-1,2.17h1.2c0-.45.09-.88.54-1.22.49-.38,1.5-.75,3.56-.75v-1.2ZM36.4,21.57c-.31-1.36-.86-2.38-1.95-3.01-1.04-.61-2.46-.8-4.36-.8v1.2c1.87,0,3.01.21,3.76.64.69.41,1.12,1.06,1.38,2.24l1.17-.26ZM36.33,21.52s.03,0,.05.02c.01,0,.02.02.03.05l-1.17.24c.11.52.58.89,1.1.89v-1.2ZM38.7,21.52h-2.38v1.2h2.38v-1.2ZM38.66,21.53s.01,0,.02-.01c0,0,.02,0,.03,0v1.2c.32,0,.61-.14.82-.35l-.87-.83ZM38.63,21.6s0-.03,0-.04c0,0,0-.01,0-.01l.9.8c.2-.23.32-.53.29-.86l-1.19.11ZM30.09,15.73c2.88,0,4.93.5,6.29,1.46,1.33.93,2.08,2.35,2.25,4.4l1.2-.1c-.2-2.32-1.08-4.1-2.76-5.28-1.65-1.16-3.99-1.67-6.98-1.67v1.2ZM22.35,21.03c0-1.66.69-2.95,1.96-3.85,1.3-.92,3.24-1.45,5.78-1.45v-1.2c-2.69,0-4.91.56-6.48,1.67-1.59,1.13-2.46,2.79-2.46,4.83h1.2ZM29.92,26.05c-2.5-.25-4.41-.64-5.69-1.41-.62-.37-1.09-.83-1.4-1.4-.31-.57-.49-1.29-.49-2.21h-1.2c0,1.08.21,2.01.64,2.79.43.78,1.05,1.39,1.83,1.85,1.53.92,3.68,1.32,6.19,1.57l.12-1.19ZM36.93,29.29c0-.33-.03-.72-.24-1.11-.21-.4-.57-.71-1.07-.97-.98-.5-2.7-.87-5.69-1.16l-.12,1.19c3,.29,4.51.65,5.27,1.04.36.18.49.34.56.46.07.13.1.28.1.55h1.2ZM30.82,32.81c1.95,0,3.45-.22,4.48-.76.53-.28.94-.65,1.22-1.14.28-.48.4-1.03.4-1.62h-1.2c0,.43-.09.76-.24,1.02-.15.26-.38.49-.75.68-.76.4-2.01.62-3.92.62v1.2ZM23.96,28.67c.19,1.27.59,2.39,1.71,3.13,1.07.71,2.71,1.01,5.15,1.01v-1.2c-2.41,0-3.73-.31-4.49-.81-.71-.47-1.02-1.17-1.19-2.31l-1.19.18ZM24.02,28.74s-.03,0-.04-.02c-.01-.01-.02-.03-.02-.04l1.18-.19c-.09-.55-.56-.95-1.12-.95v1.2ZM21.66,28.74h2.37v-1.2h-2.37v1.2ZM21.73,28.66s-.03.07-.07.07v-1.2c-.62,0-1.13.5-1.13,1.13h1.2Z"/>
      </g>
    </g>
  </g>
</svg>