<?xml version="1.0" encoding="UTF-8"?>
<svg id="Layer_1" data-name="Layer 1" xmlns="http://www.w3.org/2000/svg" viewBox="0 0 51 50">
  <defs>
    <style>
      .cls-1 {
        fill: #ff5823;
      }

      .cls-2 {
        fill: #fff;
      }
    </style>
  </defs>
  <path class="cls-2" d="M25.44,27.79c.57,0,1.14-.17,1.61-.49.48-.32.85-.77,1.07-1.3.22-.53.28-1.11.17-1.68s-.39-1.08-.8-1.49c-.41-.41-.92-.68-1.49-.8-.56-.11-1.15-.05-1.68.17s-.98.59-1.3,1.07c-.32.48-.49,1.04-.49,1.61,0,.77.31,1.51.85,2.05.54.54,1.28.85,2.05.85ZM49,25c0-3.27-4.86-5.59-11.31-6.85,2.28-6.15,2.81-11.53.03-13.23-2-1.23-5.07-.13-8.81,3.18-1.02.91-1.99,1.88-2.91,2.9-.84-1.08-1.75-2.11-2.7-3.09-3.5-3.57-6.46-4.88-8.56-3.79-2.1,1.09-2.73,4.25-1.88,9.17.3,1.59.69,3.16,1.17,4.71-6.8,1.24-12.02,3.6-12.02,7s4.86,5.59,11.31,6.85c-2.28,6.15-2.81,11.53-.03,13.22.55.33,1.18.51,1.82.5,1.87,0,4.24-1.24,7-3.67,1.01-.92,1.98-1.89,2.89-2.9.84,1.08,1.75,2.1,2.7,3.08,2.7,2.75,5.08,4.16,7,4.16.55,0,1.08-.12,1.57-.37,2.1-1.09,2.76-4.26,1.88-9.18-.29-1.59-.68-3.16-1.15-4.7,6.78-1.24,12-3.61,12-7ZM30.23,9.6c2.64-2.34,4.53-3.15,5.66-3.15.27,0,.55.06.78.19,1.42.86,1.33,5.08-.97,11.17-1.74-.27-3.58-.47-5.44-.59-1-1.64-2-3.18-3.03-4.6.94-1.06,1.95-2.06,3-3.01ZM17.59,27c.27.56.55,1.11.83,1.67.37.7.73,1.39,1.11,2.07-1.23-.1-2.39-.24-3.5-.4.47-1.09.97-2.2,1.56-3.33ZM16.66,19.61c.97-.13,2-.24,3.04-.33-.34.52-.67,1.05-1,1.59-.33.54-.64,1.06-.95,1.59-.39-.96-.75-1.92-1.09-2.85ZM18.76,24.76c.5-.93,1.06-1.88,1.65-2.85.59-.97,1.18-1.89,1.78-2.78,1.07-.05,2.17-.08,3.31-.08,1.24,0,2.43.03,3.58.08.59,1,1.16,2.05,1.72,3.14.5,1,1,2,1.44,3-.5.93-1.06,1.88-1.65,2.85-.59.97-1.18,1.88-1.78,2.76-1.07.05-2.17.08-3.31.08-1.24,0-2.43-.03-3.58-.08-.59-1-1.16-2.05-1.72-3.14-.51-.99-.99-1.99-1.44-2.98ZM32.29,29.14c.33-.52.64-1.06.95-1.59.4.96.77,1.92,1.1,2.85-.97.13-2,.24-3.04.33.34-.52.67-1.05.99-1.59ZM33.4,23.03c-.27-.56-.54-1.11-.83-1.67-.37-.7-.73-1.39-1.11-2.06,1.22.1,2.39.24,3.5.4-.47,1.07-.97,2.18-1.56,3.33ZM27.84,17.09c-.78-.03-1.57-.04-2.34-.04h-1.87c.75-1,1.5-2,2.26-2.91.66.95,1.31,1.93,1.95,2.95ZM15.65,5.89c.2-.1.43-.15.65-.14,1.11,0,3,.93,5.57,3.55.99,1.01,1.92,2.08,2.79,3.2-1.2,1.43-2.4,3-3.56,4.66-1.73.11-3.43.28-5.07.5-.5-1.56-.9-3.15-1.2-4.76-.8-4.44-.09-6.54.83-7.02ZM4,25c0-1.72,3.88-3.9,10.65-5.08.55,1.55,1.17,3.15,1.89,4.77-.93,1.76-1.76,3.54-2.5,5.28-6.38-1.21-10.03-3.31-10.03-4.97ZM20.77,40.4c-3.4,3-5.56,3.5-6.45,2.97-1.42-.86-1.32-5.08.98-11.17,1.74.27,3.58.47,5.44.6,1,1.63,2,3.17,3.03,4.6-.94,1.06-1.95,2.06-3,3.01ZM23.16,32.9c.78.03,1.57.04,2.34.04h1.87c-.75,1-1.5,2-2.26,2.91-.66-.94-1.31-1.92-1.95-2.94h0ZM35.35,44.11c-.92.5-3.04-.17-6.22-3.41-.99-1.01-1.92-2.08-2.79-3.19,1.2-1.43,2.4-3,3.56-4.66,1.73-.11,3.43-.28,5.07-.5.5,1.56.9,3.15,1.2,4.76.82,4.44.1,6.54-.83,7.01ZM36.35,30.11c-.54-1.56-1.17-3.16-1.88-4.78.92-1.76,1.76-3.54,2.5-5.28,6.38,1.18,10.03,3.28,10.03,4.94s-3.88,3.9-10.65,5.08v.03Z"/>
  <path class="cls-1" d="M25.44,27.79c.57,0,1.14-.17,1.61-.49.48-.32.85-.77,1.07-1.3.22-.53.28-1.11.17-1.68-.11-.56-.39-1.08-.8-1.49-.41-.41-.92-.68-1.49-.8-.56-.11-1.15-.05-1.68.17-.53.22-.98.59-1.3,1.07-.32.48-.49,1.04-.49,1.61,0,.77.31,1.51.85,2.05s1.28.85,2.05.85Z"/>
</svg>