<?xml version="1.0" encoding="UTF-8"?>
<svg id="Layer_1" data-name="Layer 1" xmlns="http://www.w3.org/2000/svg" xmlns:xlink="http://www.w3.org/1999/xlink" viewBox="0 0 50 50">
  <defs>
    <style>
      .cls-1 {
        fill: #ff5823;
      }

      .cls-2 {
        fill: #fff;
      }

      .cls-3 {
        fill: none;
      }

      .cls-4 {
        clip-path: url(#clippath-1);
      }

      .cls-5 {
        clip-path: url(#clippath);
      }
    </style>
    <clipPath id="clippath">
      <rect class="cls-3" width="50" height="50"/>
    </clipPath>
    <clipPath id="clippath-1">
      <rect class="cls-3" width="50" height="50"/>
    </clipPath>
  </defs>
  <g class="cls-5">
    <g class="cls-4">
      <g>
        <path class="cls-2" d="M30.97,49.96c-.26,0-.5-.1-.69-.27-.19-.17-.31-.41-.34-.66-.03-.26.04-.51.19-.72.15-.21.37-.35.62-.41l14.02-2.91c-.77-5.27-4.45-30.23-5-33.95-.76-.05-2.16-.15-3.37-.24-.22-.02-.42-.1-.59-.24l-3.68-3.05c-.11-.09-.2-.19-.27-.31-.07-.12-.11-.26-.13-.4-.02-.14,0-.28.04-.42s.11-.26.2-.37c.09-.11.2-.2.32-.26.12-.06.26-.1.4-.11.14-.01.28,0,.41.05.13.05.25.12.36.21l3.42,2.84c.87.06,3.19.23,3.44.24.69,0,1.31.54,1.43,1.26.04.22,4.35,29.54,5.22,35.41.04.26-.02.53-.18.75-.15.22-.38.37-.64.42l-14.99,3.11c-.07.02-.14.03-.21.03Z"/>
        <path class="cls-2" d="M30.98,50c-.06,0-.13,0-.19-.02l-26.94-5.08c-.26-.05-.49-.2-.65-.41s-.22-.48-.19-.74c.14-1.11,3.49-27.19,3.64-28.11.2-1.65.52-2.01,2.25-2.56,1.29-.42,20.88-6.57,23.49-7.3v-.03c.37-.13.91-.06,1.19.23.1.1.17.22.22.35.05.13.07.27.07.41l-1.84,42.26c0,.15-.04.3-.11.43-.07.13-.16.25-.28.34-.18.15-.41.23-.65.23ZM5.2,43.03l24.79,4.68,1.73-39.59c-7.4,2.3-14.8,4.61-22.19,6.93-.27.09-.69.22-.79.28.04,0,0,.37-.03.59-.12.73-2.28,17.51-3.51,27.11Z"/>
        <path class="cls-2" d="M13.34,13.84c-.16,0-.32-.04-.47-.11-.14-.07-.27-.18-.37-.31-.1-.13-.16-.28-.19-.44-.03-.16-.02-.32.02-.48C12.74,11.14,16.42-.92,22.56.05c1.5.23,2.7,1.01,3.47,2.25,1.37,2.19,1.13,5.43.66,6.95-.09.26-.27.47-.51.59-.24.12-.52.15-.78.07-.26-.08-.48-.26-.61-.49-.13-.24-.16-.52-.09-.78.29-.95.59-3.59-.44-5.24-.46-.73-1.12-1.15-2.02-1.29-3.64-.56-7.02,7.95-7.9,10.98-.06.22-.19.41-.37.54-.18.14-.4.21-.63.21Z"/>
        <path class="cls-1" d="M17.95,41.67c-4.77,0-7.21-3.02-7.31-3.15-.1-.13-.18-.29-.21-.45-.03-.17-.02-.34.03-.5l1.19-3.92c.05-.17.14-.32.26-.44.12-.12.28-.21.44-.26.17-.05.35-.05.52-.01.17.04.33.12.46.24.52.45,2.27,1.75,3.5,1.75.73,0,.75-.7.75-.71,0-.81-.58-1.33-1.61-2.18-1.38-1.14-3.26-2.71-3.26-6.01-.04-2.51.87-4.84,2.55-6.55,1.8-1.83,4.34-2.79,7.34-2.79,2.52,0,3.83.74,3.98.83.21.12.36.31.44.54.08.22.09.47,0,.7l-1.73,5.1c-.04.13-.11.25-.21.35-.09.1-.2.19-.33.25l-.04.02c-.15.07-.31.11-.47.11-.16,0-.33-.04-.47-.12-.01,0-1.3-.68-2.76-.68-1.72,0-1.72.8-1.72,1.1,0,.39.86,1.04,1.62,1.61,1.82,1.37,4.32,3.25,4.32,7.09,0,4.78-3,8.11-7.29,8.11Z"/>
        <path class="cls-2" d="M19.43,11.94c-.15,0-.29-.03-.43-.09-.13-.06-.25-.15-.35-.26-.1-.11-.17-.24-.22-.38-.04-.14-.06-.29-.04-.43.37-3.22,2.57-9.31,8.25-9.31,3.33,0,5.65,3.03,5.65,5.74,0,.28-.11.54-.31.74-.2.2-.46.31-.74.31s-.54-.11-.74-.31c-.2-.2-.31-.46-.31-.74,0-1.5-1.27-3.66-3.57-3.66-5.26,0-6.17,7.39-6.18,7.46-.03.25-.15.49-.34.66s-.44.26-.69.26Z"/>
      </g>
    </g>
  </g>
</svg>