<?xml version="1.0" encoding="UTF-8"?>
<svg id="Layer_1" data-name="Layer 1" xmlns="http://www.w3.org/2000/svg" viewBox="0 0 54 54">
  <defs>
    <style>
      .cls-1 {
        fill: #fff;
      }
    </style>
  </defs>
  <path class="cls-1" d="M49.47,35.18l-6.29-3.63,6.29-3.64c.16-.09.29-.23.38-.39.09-.16.14-.34.14-.53s-.05-.37-.14-.53c-.09-.16-.22-.29-.38-.39l-6.29-3.64,6.25-3.61c.18-.09.32-.23.42-.4.07-.12.12-.25.13-.39.02-.14.01-.28-.03-.41-.04-.13-.1-.26-.18-.37s-.19-.2-.31-.27L27.54,4.34c-.16-.09-.34-.14-.53-.14s-.37.05-.53.14L4.55,16.99c-.16.09-.3.23-.39.39-.09.16-.14.34-.14.53s.05.37.14.53c.09.16.23.29.39.39l6.29,3.63-6.29,3.64c-.16.09-.29.23-.38.39-.09.16-.14.34-.14.53s.05.37.14.53c.09.16.22.29.38.39l6.29,3.64-6.29,3.63c-.16.09-.3.23-.39.39-.09.16-.14.34-.14.53s.05.37.14.53c.09.16.23.29.39.39l21.94,12.66c.16.08.34.12.51.12.19,0,.37-.05.53-.14l21.94-12.66c.16-.09.29-.23.38-.39.09-.16.14-.34.14-.53s-.05-.37-.14-.53c-.09-.16-.22-.29-.38-.39v.03ZM27,6.46l19.83,11.44-19.83,11.45L7.17,17.9,27,6.46ZM12.93,23.68l13.5,7.81c.16.09.34.14.52.14.19,0,.37-.05.53-.14l13.5-7.81,5.84,3.32-19.83,11.45L7.17,27l5.76-3.32ZM27,47.54l-19.83-11.44,5.76-3.38,13.5,7.81c.16.09.34.14.52.14s.36-.05.52-.14l13.54-7.81,5.76,3.38-19.79,11.44Z"/>
</svg>