<?xml version="1.0" encoding="UTF-8"?>
<svg id="Layer_1" data-name="Layer 1" xmlns="http://www.w3.org/2000/svg" viewBox="0 0 50 50">
  <defs>
    <style>
      .cls-1 {
        fill: #ff5823;
      }

      .cls-2 {
        fill: #fff;
      }
    </style>
  </defs>
  <path class="cls-2" d="M43.92,2H6.08c-1.7,0-3.08,1.38-3.08,3.08v29.57c0,1.7,1.38,3.08,3.08,3.08h13.65v7.01h-2.49c-.36,0-.65.29-.65.65s.29.65.65.65h15.52c.36,0,.65-.29.65-.65s-.29-.65-.65-.65h-2.49v-2.21c0-.36-.29-.65-.65-.65s-.65.29-.65.65v2.21h-7.96v-7.01h7.96v1.76c0,.36.29.65.65.65s.65-.29.65-.65v-1.76h13.65c1.7,0,3.08-1.38,3.08-3.08V5.08c0-1.7-1.38-3.08-3.08-3.08ZM4.29,5.08c0-.99.8-1.79,1.79-1.79h37.84c.99,0,1.79.8,1.79,1.79v24.66H4.29V5.08ZM45.71,34.65c0,.99-.8,1.79-1.79,1.79H6.08c-.99,0-1.79-.8-1.79-1.79v-3.62h41.42v3.62Z"/>
  <path class="cls-2" d="M23.71,34.38h2.58c.36,0,.65-.29.65-.65s-.29-.65-.65-.65h-2.58c-.36,0-.65.29-.65.65s.29.65.65.65Z"/>
  <path class="cls-2" d="M20.82,19.39v-5.76c0-.36-.29-.65-.65-.65s-.65.29-.65.65v5.76c0,.36.29.65.65.65s.65-.29.65-.65Z"/>
  <path class="cls-2" d="M13.11,12.99c-.36,0-.65.29-.65.65v3.96c0,.85.39,1.52,1.2,2.04.78.5,1.82.54,2.65.12,1.19-.6,1.44-1.51,1.44-2.16v-3.96c0-.36-.29-.65-.65-.65s-.65.29-.65.65v3.96c0,.3-.08.68-.73,1.01-.41.21-.98.2-1.38-.05-.43-.27-.61-.55-.61-.95v-3.96c0-.36-.29-.65-.65-.65Z"/>
  <path class="cls-1" d="M33.36,6.2c-3.43,0-6.48,1.69-8.36,4.28-.85-1.18-1.95-2.17-3.21-2.9-1.56-.9-3.34-1.37-5.15-1.37-2.15,0-4.22.66-5.97,1.9-.29.21-.36.61-.15.9s.61.36.9.15c1.53-1.09,3.33-1.66,5.22-1.66,3.12,0,5.95,1.56,7.61,4.18-.77,1.44-1.21,3.09-1.21,4.84s.44,3.4,1.21,4.84c-1.67,2.62-4.51,4.18-7.61,4.18-4.97,0-9.02-4.05-9.02-9.02,0-1.97.63-3.85,1.81-5.42.21-.28.16-.69-.13-.9-.28-.21-.69-.16-.9.13-1.35,1.8-2.07,3.94-2.07,6.2,0,5.69,4.63,10.31,10.31,10.31,3.35,0,6.42-1.59,8.36-4.28,1.88,2.59,4.92,4.28,8.36,4.28,5.69,0,10.31-4.63,10.31-10.31,0-5.69-4.63-10.31-10.31-10.31Z"/>
  <path class="cls-2" d="M37.38,16.31l1.62-2.3c.21-.29.14-.69-.16-.9-.29-.21-.69-.14-.9.16l-1.36,1.93-1.36-1.93c-.2-.29-.61-.36-.9-.16-.29.2-.36.61-.16.9l1.62,2.3-1.91,2.71c-.21.29-.14.69.16.9.29.21.69.14.9-.16l1.65-2.34,1.64,2.34c.2.28.61.36.9.16.29-.2.36-.61.16-.9l-1.91-2.71Z"/>
  <path class="cls-2" d="M31.96,12.99c-.36,0-.65.29-.65.65v3.96c0,.3-.08.68-.73,1.01-.2.1-.42.15-.66.15h0c-.27,0-.5-.07-.72-.2-.43-.27-.61-.55-.61-.95v-3.96c0-.36-.29-.65-.65-.65s-.65.29-.65.65v3.96c0,.85.39,1.52,1.2,2.04.77.49,1.83.53,2.65.12,1.19-.6,1.44-1.51,1.44-2.16v-3.96c0-.36-.29-.65-.65-.65Z"/>
</svg>