<?xml version="1.0" encoding="UTF-8"?>
<svg id="Layer_1" data-name="Layer 1" xmlns="http://www.w3.org/2000/svg" xmlns:xlink="http://www.w3.org/1999/xlink" viewBox="0 0 80 80">
  <defs>
    <style>
      .cls-1 {
        fill: #fff;
      }

      .cls-2 {
        fill: none;
      }

      .cls-3 {
        clip-path: url(#clippath);
      }
    </style>
    <clipPath id="clippath">
      <rect class="cls-2" width="80" height="80"/>
    </clipPath>
  </defs>
  <g class="cls-3">
    <g>
      <path class="cls-1" d="M31.56,56.06c-.3,0-.61-.1-.85-.32l-8.55-7.28c-.29-.25-.46-.62-.46-1.01s.17-.75.46-1.01l8.55-7.28c.56-.47,1.39-.41,1.86.15s.41,1.39-.15,1.86l-7.37,6.27,7.37,6.27c.56.47.62,1.31.15,1.86-.26.31-.63.47-1.01.47v.02Z"/>
      <path class="cls-1" d="M48.44,56.06c-.37,0-.75-.16-1.01-.47-.47-.55-.41-1.39.15-1.86l7.37-6.27-7.37-6.27c-.56-.47-.62-1.31-.15-1.86.47-.56,1.31-.62,1.86-.15l8.55,7.28c.29.25.46.62.46,1.01s-.17.75-.46,1.01l-8.55,7.28c-.25.21-.55.32-.85.32v-.02Z"/>
      <path class="cls-1" d="M36.97,61.52c-.09,0-.18,0-.27-.03-.71-.15-1.17-.85-1.02-1.56l5.33-25.29c.15-.71.85-1.17,1.56-1.02.71.15,1.17.85,1.02,1.56l-5.33,25.29c-.13.62-.68,1.05-1.29,1.05Z"/>
      <path class="cls-1" d="M71.13,75.3H8.87c-4.89,0-8.87-3.98-8.87-8.87V13.59C0,8.7,3.98,4.72,8.87,4.72h62.26c4.89,0,8.87,3.98,8.87,8.87v52.85c0,4.89-3.98,8.87-8.87,8.87h0ZM8.87,7.36c-3.43,0-6.23,2.79-6.23,6.23v52.85c0,3.43,2.79,6.23,6.23,6.23h62.26c3.43,0,6.23-2.79,6.23-6.23V13.59c0-3.43-2.79-6.23-6.23-6.23H8.87Z"/>
      <path class="cls-1" d="M78.68,25.87H1.32c-.73,0-1.32-.59-1.32-1.32s.59-1.32,1.32-1.32h77.36c.73,0,1.32.59,1.32,1.32s-.59,1.32-1.32,1.32Z"/>
      <path class="cls-1" d="M22.57,19.55c-2.3,0-4.18-1.88-4.18-4.18s1.88-4.18,4.18-4.18,4.18,1.88,4.18,4.18-1.88,4.18-4.18,4.18ZM22.57,13.83c-.85,0-1.54.69-1.54,1.54s.69,1.54,1.54,1.54,1.54-.69,1.54-1.54-.69-1.54-1.54-1.54Z"/>
      <path class="cls-1" d="M9.72,19.51c-2.3,0-4.18-1.88-4.18-4.18s1.88-4.18,4.18-4.18,4.18,1.88,4.18,4.18-1.88,4.18-4.18,4.18ZM9.72,13.79c-.85,0-1.54.69-1.54,1.54s.69,1.54,1.54,1.54,1.54-.69,1.54-1.54-.69-1.54-1.54-1.54Z"/>
      <path class="cls-1" d="M35.41,19.59c-2.3,0-4.18-1.88-4.18-4.18s1.88-4.18,4.18-4.18,4.18,1.88,4.18,4.18-1.88,4.18-4.18,4.18ZM35.41,13.87c-.85,0-1.54.69-1.54,1.54s.69,1.54,1.54,1.54,1.54-.69,1.54-1.54-.69-1.54-1.54-1.54Z"/>
    </g>
  </g>
</svg>