<?xml version="1.0" encoding="UTF-8"?>
<svg id="Layer_1" data-name="Layer 1" xmlns="http://www.w3.org/2000/svg" xmlns:xlink="http://www.w3.org/1999/xlink" viewBox="0 0 50 50">
  <defs>
    <style>
      .cls-1 {
        fill: #ff5823;
      }

      .cls-1, .cls-2 {
        fill-rule: evenodd;
      }

      .cls-2 {
        fill: #fff;
      }

      .cls-3 {
        fill: none;
      }

      .cls-4 {
        clip-path: url(#clippath-1);
      }

      .cls-5 {
        clip-path: url(#clippath);
      }
    </style>
    <clipPath id="clippath">
      <rect class="cls-3" width="50" height="50"/>
    </clipPath>
    <clipPath id="clippath-1">
      <rect class="cls-3" y="15" width="50" height="19.72"/>
    </clipPath>
  </defs>
  <g class="cls-5">
    <g class="cls-4">
      <g>
        <path class="cls-2" d="M0,15.02s1.97-.25,3.28.92c.81.72,1.04,1.88,1.04,1.88l2.68,10.53,2.23-8.62c.22-.92.61-2.04,1.23-2.82.79-.98,2.39-1.04,2.56-1.04s1.77.06,2.56,1.04c.62.77,1.01,1.9,1.23,2.82l2.23,8.62,2.68-10.53s.24-1.15,1.05-1.88c1.31-1.17,3.28-.92,3.28-.92l-5.13,19.68s-1.69.12-2.54-.31c-1.11-.57-1.64-1.02-2.32-3.7l-.07-.28c-.25-.99-.62-2.53-1-4.09l-.11-.47-.11-.47c-.55-2.25-1.05-4.33-1.14-4.59-.08-.26-.17-.84-.6-.84s-.52.59-.6.84c-.09.29-.7,2.78-1.31,5.29l-.11.47c-.31,1.29-.63,2.57-.94,3.86l-.07.27c-.68,2.68-1.21,3.12-2.32,3.7-.85.44-2.54.31-2.54.31L0,15.02ZM30.99,18.52v12.41c-.01,2.4-.26,2.94-1.36,3.49-.85.43-2.16.27-2.16.27v-13.12c0-.66.23-1.09,1.04-1.48.49-.23.94-.41,1.42-.67.42-.22.78-.53,1.06-.9ZM32.39,15.09s2.73-.47,4.08.78c.86.8,1.83,2.25,1.83,2.25l2.38,3.5c.11.18.27.38.51.38s.39-.2.51-.38l2.38-3.5s.97-1.44,1.83-2.25c1.35-1.25,4.08-.78,4.08-.78l-6.47,9.8,6.45,9.77h-.02c-.27.03-2.84.3-4.12-.89-.87-.8-1.75-2.11-1.75-2.11l-2.39-3.5c-.11-.18-.27-.38-.51-.38s-.39.2-.51.38l-2.39,3.5s-.84,1.3-1.7,2.11c-1.35,1.26-4.2.89-4.2.89l6.46-9.77-6.47-9.81Z"/>
        <path class="cls-1" d="M30.49,15h.03c0,1.34-.13,2.14-.98,2.76-.4.29-.83.52-1.29.7-.46.17-.89.43-1.26.76,0-2.45.37-3.33,1.37-3.86.61-.32,1.6-.36,1.99-.36h.13Z"/>
      </g>
    </g>
  </g>
</svg>