<?xml version="1.0" encoding="UTF-8"?>
<svg id="Layer_1" data-name="Layer 1" xmlns="http://www.w3.org/2000/svg" xmlns:xlink="http://www.w3.org/1999/xlink" viewBox="0 0 50 50">
  <defs>
    <style>
      .cls-1 {
        fill: #ff5823;
      }

      .cls-2, .cls-3 {
        fill: none;
      }

      .cls-3 {
        stroke: #fff;
      }

      .cls-4 {
        clip-path: url(#clippath);
      }
    </style>
    <clipPath id="clippath">
      <rect class="cls-2" y="10" width="50" height="29.88"/>
    </clipPath>
  </defs>
  <g class="cls-4">
    <g>
      <path class="cls-3" d="M30.74,34.36h-.74l.28.69,1.46,3.59-7.57-4.21-.11-.06H4.66c-2.3,0-4.16-1.86-4.16-4.16v-15.54h0,0c-.02-2.28,1.84-4.16,4.14-4.16h40.7c2.3,0,4.16,1.86,4.16,4.16v15.54c0,2.3-1.86,4.16-4.16,4.16h-14.6Z"/>
      <path class="cls-1" d="M5.31,15.29c.25-.33.63-.51,1.14-.54.92-.07,1.45.35,1.57,1.26.56,3.66,1.17,6.77,1.82,9.31l3.96-7.31c.36-.67.81-1.02,1.35-1.05.79-.05,1.28.44,1.48,1.47.45,2.33,1.03,4.31,1.72,6,.47-4.45,1.26-7.66,2.38-9.64.27-.49.67-.74,1.19-.77.42-.04.79.09,1.14.35.34.26.52.6.56,1,.02.32-.04.58-.18.84-.7,1.26-1.28,3.38-1.75,6.33-.45,2.86-.61,5.08-.51,6.68.04.44-.04.82-.22,1.16-.22.39-.54.6-.96.63-.47.04-.96-.18-1.43-.65-1.68-1.67-3.02-4.16-3.99-7.47-1.17,2.24-2.04,3.93-2.6,5.05-1.07,1.98-1.97,3-2.73,3.05-.49.04-.9-.37-1.26-1.21-.92-2.3-1.91-6.73-2.98-13.31-.07-.46.04-.86.29-1.17ZM44.13,18.04c-.65-1.1-1.61-1.77-2.89-2.03-.34-.07-.67-.11-.98-.11-1.73,0-3.14.88-4.25,2.63-.94,1.49-1.41,3.14-1.41,4.94,0,1.35.29,2.51.87,3.47.65,1.1,1.61,1.77,2.89,2.03.34.07.67.11.98.11,1.75,0,3.16-.88,4.25-2.63.94-1.51,1.41-3.16,1.41-4.96.02-1.37-.29-2.51-.87-3.45ZM41.86,22.9c-.25,1.16-.7,2.02-1.37,2.6-.52.46-1.01.65-1.46.56-.43-.09-.79-.46-1.07-1.14-.22-.54-.33-1.09-.33-1.6,0-.44.04-.88.13-1.28.16-.72.47-1.42.96-2.09.6-.86,1.23-1.21,1.88-1.09.43.09.79.46,1.07,1.14.22.54.33,1.09.33,1.6,0,.46-.04.89-.13,1.3ZM32.82,18.04c-.65-1.1-1.63-1.77-2.89-2.03-.34-.07-.67-.11-.98-.11-1.73,0-3.14.88-4.25,2.63-.94,1.49-1.41,3.14-1.41,4.94,0,1.35.29,2.51.87,3.47.65,1.1,1.61,1.77,2.89,2.03.34.07.67.11.98.11,1.75,0,3.16-.88,4.25-2.63.94-1.51,1.41-3.16,1.41-4.96,0-1.37-.29-2.51-.87-3.45ZM30.53,22.9c-.25,1.16-.7,2.02-1.37,2.6-.52.46-1.01.65-1.46.56-.43-.09-.79-.46-1.07-1.14-.22-.54-.33-1.09-.33-1.6,0-.44.04-.88.13-1.28.16-.72.47-1.42.96-2.09.6-.86,1.23-1.21,1.88-1.09.43.09.79.46,1.07,1.14.22.54.33,1.09.33,1.6.02.46-.04.89-.13,1.3Z"/>
    </g>
  </g>
</svg>