<?xml version="1.0" encoding="UTF-8"?>
<svg id="Layer_1" data-name="Layer 1" xmlns="http://www.w3.org/2000/svg" xmlns:xlink="http://www.w3.org/1999/xlink" viewBox="0 0 50 50">
  <defs>
    <style>
      .cls-1, .cls-2 {
        fill: #fff;
      }

      .cls-3 {
        mask: url(#mask);
      }

      .cls-2 {
        fill-rule: evenodd;
      }

      .cls-4 {
        clip-path: url(#clippath-1);
      }

      .cls-5 {
        clip-path: url(#clippath);
      }
    </style>
    <clipPath id="clippath">
      <rect class="cls-1" width="50" height="50"/>
    </clipPath>
    <clipPath id="clippath-1">
      <rect class="cls-1" width="50" height="50"/>
    </clipPath>
    <mask id="mask" x="-.4" y="-.4" width="50.8" height="50.8" maskUnits="userSpaceOnUse">
      <g id="path-1-inside-1_3015_1592" data-name="path-1-inside-1 3015 1592">
        <path class="cls-2" d="M0,25C0,11.21,11.22,0,25,0s25,11.21,25,25c0,13.79-11.21,25-25,25S0,38.78,0,25ZM4.47,15.85c-1.25,2.79-1.95,5.89-1.95,9.15,0,8.9,5.17,16.59,12.67,20.23L4.47,15.85ZM18.65,46.56c2.01.59,4.14.92,6.35.92,2.62,0,5.13-.45,7.46-1.27-.06-.1-.12-.2-.16-.31l-6.91-18.93-6.74,19.6ZM30.67,14.25s-1.22.14-2.57.21l8.12,24.16,2.24-7.49c.06-.19.12-.38.18-.56.88-2.82,1.54-4.9,1.54-6.7,0-2.78-1-4.7-1.85-6.2-.09-.14-.18-.28-.26-.42-1.04-1.67-1.94-3.14-1.94-4.85,0-2.07,1.57-3.99,3.77-3.99.06,0,.12,0,.18.01.04,0,.07,0,.11,0-4-3.66-9.33-5.9-15.18-5.9-7.85,0-14.76,4.03-18.78,10.13.53.02,1.02.03,1.45.03,2.35,0,5.99-.29,5.99-.29,1.21-.07,1.35,1.71.14,1.85,0,0-1.22.14-2.57.21l8.18,24.35,4.92-14.75-3.5-9.6c-1.21-.07-2.36-.21-2.36-.21-1.21-.07-1.07-1.92.14-1.85,0,0,3.71.29,5.92.29,2.35,0,5.99-.29,5.99-.29,1.21-.07,1.35,1.71.14,1.85ZM43.17,24.58l-6.87,19.85c6.68-3.9,11.18-11.14,11.18-19.43,0-3.91-1-7.58-2.75-10.78.1.72.15,1.48.15,2.31,0,2.28-.43,4.85-1.71,8.05Z"/>
      </g>
    </mask>
  </defs>
  <rect class="cls-1" width="50" height="50"/>
  <g class="cls-5">
    <g>
      <rect class="cls-1" width="50" height="50"/>
      <g class="cls-4">
        <g>
          <path class="cls-2" d="M0,25C0,11.21,11.22,0,25,0s25,11.21,25,25c0,13.79-11.21,25-25,25S0,38.78,0,25ZM4.47,15.85c-1.25,2.79-1.95,5.89-1.95,9.15,0,8.9,5.17,16.59,12.67,20.23L4.47,15.85ZM18.65,46.56c2.01.59,4.14.92,6.35.92,2.62,0,5.13-.45,7.46-1.27-.06-.1-.12-.2-.16-.31l-6.91-18.93-6.74,19.6ZM30.67,14.25s-1.22.14-2.57.21l8.12,24.16,2.24-7.49c.06-.19.12-.38.18-.56.88-2.82,1.54-4.9,1.54-6.7,0-2.78-1-4.7-1.85-6.2-.09-.14-.18-.28-.26-.42-1.04-1.67-1.94-3.14-1.94-4.85,0-2.07,1.57-3.99,3.77-3.99.06,0,.12,0,.18.01.04,0,.07,0,.11,0-4-3.66-9.33-5.9-15.18-5.9-7.85,0-14.76,4.03-18.78,10.13.53.02,1.02.03,1.45.03,2.35,0,5.99-.29,5.99-.29,1.21-.07,1.35,1.71.14,1.85,0,0-1.22.14-2.57.21l8.18,24.35,4.92-14.75-3.5-9.6c-1.21-.07-2.36-.21-2.36-.21-1.21-.07-1.07-1.92.14-1.85,0,0,3.71.29,5.92.29,2.35,0,5.99-.29,5.99-.29,1.21-.07,1.35,1.71.14,1.85ZM43.17,24.58l-6.87,19.85c6.68-3.9,11.18-11.14,11.18-19.43,0-3.91-1-7.58-2.75-10.78.1.72.15,1.48.15,2.31,0,2.28-.43,4.85-1.71,8.05Z"/>
          <g class="cls-3">
            <path class="cls-1" d="M50,25h-.4s0,0,0,0h.4ZM4.47,15.85l.38-.14-.34-.93-.4.9.37.16ZM15.19,45.23l-.17.36.89.43-.34-.93-.38.14ZM18.65,46.56l-.38-.13-.14.4.4.12.11-.38ZM32.47,46.2l.13.38.47-.17-.27-.42-.34.21ZM32.31,45.89l-.38.14h0s.37-.14.37-.14ZM25.39,26.97l.38-.14-.39-1.06-.37,1.07.38.13ZM28.1,14.46l-.02-.4-.53.03.17.5.38-.13ZM30.67,14.25l.05.4h0s-.05-.4-.05-.4ZM36.22,38.62l-.38.13.4,1.19.36-1.21-.38-.11ZM38.46,31.13l-.38-.12h0s.38.12.38.12ZM38.64,30.57l-.38-.12h0l.38.12ZM38.32,17.67l.35-.2h0s-.34.2-.34.2ZM38.06,17.24l-.34.21h0l.34-.21ZM40.07,8.42l-.03.4h0l.03-.4ZM40.18,8.42l-.02.4,1.11.06-.82-.75-.27.29ZM6.22,12.65l-.33-.22-.39.6.72.02v-.4ZM13.66,12.4l-.02-.4h0s.03.4.03.4ZM13.8,14.25l.05.4h0s-.05-.4-.05-.4ZM11.23,14.46l-.02-.4-.53.03.17.5.38-.13ZM19.41,38.81l-.38.13.38,1.13.38-1.13-.38-.13ZM24.33,24.06l.38.13.04-.13-.05-.13-.38.14ZM20.83,14.46l.38-.14-.09-.25-.26-.02-.02.4ZM18.47,14.25l.05-.4h-.01s-.01,0-.01,0l-.02.4ZM18.62,12.4l.03-.4h0s-.02.4-.02.4ZM30.53,12.4l-.02-.4h0s.03.4.03.4ZM36.3,44.43l-.38-.13-.35,1.02.93-.54-.2-.35ZM43.17,24.58l-.37-.15h0s0,.02,0,.02l.38.13ZM47.48,25h-.4s0,0,0,0h.4ZM44.72,14.22l.35-.19-.75.25.4-.05ZM25-.4C10.99-.4-.4,10.99-.4,25H.4C.4,11.44,11.44.4,25,.4V-.4ZM50.4,25c0-14.01-11.39-25.4-25.4-25.4V.4c13.56,0,24.6,11.04,24.6,24.6h.8ZM25,50.4c14.01,0,25.4-11.39,25.4-25.4h-.8c0,13.56-11.04,24.6-24.6,24.6v.8ZM-.4,25c0,14.01,11.39,25.4,25.4,25.4v-.8C11.44,49.6.4,38.56.4,25H-.4ZM2.92,25c0-3.2.69-6.24,1.91-8.98l-.73-.33c-1.27,2.84-1.98,5.99-1.98,9.31h.8ZM15.37,44.87c-7.37-3.58-12.44-11.13-12.44-19.87h-.8c0,9.06,5.26,16.88,12.89,20.59l.35-.72ZM4.09,15.99l10.72,29.38.75-.27L4.85,15.71l-.75.27ZM25,47.08c-2.17,0-4.26-.32-6.24-.9l-.23.77c2.05.6,4.22.93,6.46.93v-.8ZM32.33,45.83c-2.29.81-4.76,1.25-7.33,1.25v.8c2.66,0,5.22-.46,7.6-1.3l-.27-.75ZM31.93,46.04c.06.14.12.26.19.37l.68-.43c-.05-.08-.09-.16-.13-.24l-.74.3ZM25.02,27.1l6.91,18.93.75-.27-6.91-18.93-.75.27ZM19.03,46.69l6.74-19.6-.76-.26-6.74,19.6.76.26ZM28.12,14.86c.68-.04,1.33-.09,1.81-.13.24-.02.44-.04.57-.06.07,0,.12-.01.16-.02.02,0,.03,0,.04,0,0,0,0,0,.01,0,0,0,0,0,0,0,0,0,0,0,0,0h0l-.05-.4-.05-.4h0s0,0,0,0c0,0,0,0,0,0,0,0,0,0,0,0,0,0-.02,0-.04,0-.04,0-.09,0-.15.02-.13.01-.33.03-.56.06-.47.04-1.11.1-1.78.13l.04.8ZM36.6,38.5l-8.12-24.16-.76.25,8.12,24.16.76-.25ZM38.08,31.02l-2.24,7.49.77.23,2.24-7.49-.77-.23ZM38.26,30.45c-.06.18-.12.37-.18.56l.76.24c.06-.19.12-.38.18-.56l-.76-.24ZM39.77,23.86c0,1.73-.63,3.74-1.52,6.59l.76.24c.88-2.8,1.55-4.94,1.55-6.82h-.8ZM37.97,17.86c.85,1.48,1.8,3.33,1.8,6h.8c0-2.88-1.04-4.88-1.91-6.4l-.69.4ZM37.72,17.45c.09.14.17.28.26.42l.68-.42c-.09-.14-.18-.29-.26-.43l-.68.42ZM35.71,12.39c0,1.84.98,3.41,2,5.06l.68-.42c-1.05-1.69-1.88-3.06-1.88-4.64h-.8ZM39.89,8.01c-2.47,0-4.17,2.14-4.17,4.39h.8c0-1.88,1.43-3.59,3.37-3.59v-.8ZM40.1,8.02c-.06,0-.14-.01-.22-.01v.8s.09,0,.15,0l.07-.8ZM40.2,8.02s-.06,0-.1,0l-.07.8s.08,0,.12,0l.04-.8ZM25,2.92c5.75,0,10.98,2.2,14.91,5.8l.54-.59c-4.07-3.73-9.49-6.01-15.45-6.01v.8ZM6.56,12.87C10.5,6.88,17.29,2.92,25,2.92v-.8c-7.99,0-15.02,4.1-19.11,10.31l.67.44ZM7.67,12.28c-.42,0-.91-.01-1.43-.03l-.02.8c.53.02,1.03.03,1.46.03v-.8ZM13.66,12.4q-.03-.4-.03-.4h0s0,0,0,0c0,0,0,0,0,0,0,0,0,0,0,0,0,0-.02,0-.03,0-.03,0-.07,0-.12,0-.1,0-.25.02-.44.03-.38.03-.9.06-1.5.1-1.2.07-2.69.14-3.85.14v.8c1.19,0,2.7-.07,3.9-.14.6-.04,1.13-.07,1.51-.1.19-.01.34-.02.45-.03.05,0,.09,0,.12,0,.01,0,.02,0,.03,0,0,0,0,0,0,0,0,0,0,0,0,0h0s0,0-.03-.4ZM13.85,14.64c.41-.05.73-.24.93-.52.2-.27.28-.6.26-.92-.02-.31-.15-.63-.4-.86-.25-.24-.6-.37-1.01-.35l.05.8c.2-.01.32.05.4.13.09.08.14.21.16.35.01.14-.03.28-.1.38-.07.09-.19.18-.38.2l.09.79ZM11.25,14.86c.68-.04,1.33-.09,1.81-.13.24-.02.44-.04.57-.06.07,0,.12-.01.16-.02.02,0,.03,0,.04,0,0,0,0,0,.01,0,0,0,0,0,0,0,0,0,0,0,0,0h0l-.05-.4-.05-.4h0s0,0,0,0h0s0,0,0,0c0,0,0,0,0,0,0,0-.02,0-.04,0-.04,0-.09,0-.15.02-.13.01-.33.03-.56.06-.47.04-1.11.1-1.78.13l.04.8ZM19.79,38.68L11.61,14.33l-.76.25,8.18,24.35.76-.25ZM23.95,23.93l-4.92,14.75.76.25,4.92-14.75-.76-.25ZM20.45,14.6l3.5,9.6.75-.27-3.5-9.6-.75.27ZM18.47,14.25q-.05.4-.05.4h0s0,0,0,0c0,0,0,0,0,0,0,0,0,0,.01,0,0,0,.02,0,.04,0,.03,0,.08.01.15.02.13.01.31.03.53.06.44.04,1.04.1,1.65.13l.05-.8c-.6-.04-1.18-.09-1.62-.13-.22-.02-.4-.04-.52-.06-.06,0-.11-.01-.14-.02-.02,0-.03,0-.04,0,0,0,0,0,0,0,0,0,0,0,0,0h0s0,0,0,0h0l-.05.4ZM18.64,12c-.41-.02-.76.12-1.01.37-.24.24-.37.56-.39.88-.02.31.05.65.26.92.21.28.54.46.95.49l.05-.8c-.19-.01-.3-.09-.36-.17-.07-.09-.11-.23-.1-.38.01-.15.07-.28.16-.37.08-.08.21-.14.4-.13l.05-.8ZM24.54,12.28c-1.09,0-2.56-.07-3.76-.14-.6-.04-1.13-.07-1.51-.1-.19-.01-.34-.02-.45-.03-.05,0-.09,0-.12,0-.01,0-.02,0-.03,0,0,0,0,0,0,0,0,0,0,0,0,0,0,0,0,0,0,0h0l-.03.4-.03.4h0s0,0,0,0c0,0,0,0,0,0,0,0,.02,0,.03,0,.03,0,.07,0,.12,0,.11,0,.26.02.45.03.38.03.92.06,1.52.1,1.2.07,2.7.14,3.81.14v-.8ZM30.53,12.4q-.03-.4-.03-.4h0s0,0,0,0c0,0,0,0,0,0,0,0-.02,0-.03,0-.03,0-.07,0-.12,0-.1,0-.25.02-.44.03-.38.03-.9.06-1.5.1-1.2.07-2.69.14-3.85.14v.8c1.19,0,2.7-.07,3.9-.14.6-.04,1.13-.07,1.51-.1.19-.01.34-.02.45-.03.05,0,.09,0,.12,0,.01,0,.02,0,.03,0,0,0,0,0,0,0,0,0,0,0,0,0,0,0,0,0,0,0h0l-.03-.4ZM30.72,14.64c.41-.05.73-.24.93-.52.2-.27.28-.6.26-.92-.02-.31-.15-.63-.4-.86-.25-.24-.6-.37-1.01-.35l.05.8c.2-.01.32.05.4.13.09.08.14.21.16.35.01.14-.03.28-.1.38-.07.09-.19.18-.38.2l.09.79ZM36.68,44.56l6.87-19.85-.76-.26-6.87,19.85.76.26ZM47.08,25c0,8.14-4.41,15.26-10.98,19.08l.4.69c6.8-3.97,11.38-11.33,11.38-19.77h-.8ZM44.37,14.41c1.72,3.14,2.71,6.75,2.7,10.59h.8c0-3.98-1.02-7.72-2.8-10.98l-.7.38ZM45.28,16.53c0-.84-.06-1.63-.16-2.37l-.79.11c.1.7.15,1.45.15,2.26h.8ZM43.54,24.73c1.3-3.25,1.74-5.86,1.74-8.2h-.8c0,2.23-.41,4.74-1.68,7.9l.74.3Z"/>
          </g>
        </g>
      </g>
    </g>
  </g>
</svg>