<svg width="38" height="38" viewBox="0 0 38 38" fill="none" xmlns="http://www.w3.org/2000/svg">
<g clip-path="url(#clip0_1134_6842)">
<path d="M2.73275 20.1893C3.52614 20.8433 4.58687 21.8327 5.39078 22.445C5.19242 23.4048 5.06523 24.3758 4.92356 25.3467C4.80879 26.1331 4.51966 27.1539 5.02849 27.8635C6.72449 29.8754 10.0519 25.4188 10.9247 24.0627C11.3452 24.4011 11.7224 24.8035 12.1729 25.1011C11.9383 26.2974 11.7791 27.5052 11.6047 28.7125C11.4688 29.654 11.1223 30.8789 11.7241 31.7312C13.7324 34.1785 18.0414 28.4618 19.0419 26.8162C20.0106 28.4193 24.0313 33.7087 26.1078 32.0044C26.8994 31.3296 26.6867 30.1771 26.5565 29.2755C26.3553 27.8817 26.1787 26.4829 25.9067 25.1014C26.2612 24.8419 26.6003 24.562 26.922 24.2628C27.6518 25.6689 31.0741 30.1464 32.8374 28.7078C33.5089 28.1389 33.335 27.1797 33.2236 26.4165C33.0598 25.2936 32.9195 24.1656 32.6887 23.0549C33.4865 22.4486 34.5598 21.4474 35.3473 20.7988C36.2449 20.0845 38.051 18.7814 36.7321 17.6203C36.8032 17.4691 36.6276 17.3931 36.5202 17.5029C35.3489 17.2132 34.1626 16.9882 32.9666 16.829C32.3839 16.7751 31.6444 16.5062 31.099 16.7676C30.3483 16.8716 29.7621 17.5461 29.3107 18.1181C28.8354 18.0563 28.3886 17.977 27.9244 17.8895C28.7207 17.2653 29.5404 16.6721 30.279 15.978C30.4435 16.2463 30.6544 16.4832 30.9018 16.6778C31.067 16.7457 31.3287 16.667 31.2662 16.3977C31.1209 16.0506 30.9238 15.7275 30.6815 15.4395C30.74 15.3521 30.7167 15.2339 30.6294 15.1754C30.5851 15.1457 30.5302 15.1359 30.4783 15.1486C29.4651 13.635 28.3405 12.1993 27.1136 10.8532C27.0565 10.7976 26.9652 10.7989 26.9096 10.856C26.9019 10.8638 26.8952 10.8726 26.8895 10.8821C25.5341 12.5518 24.0945 14.6493 23.7222 16.8076C23.7274 16.9629 23.8577 17.0845 24.013 17.0792C24.1061 17.076 24.1917 17.027 24.2414 16.9482C24.3862 16.6694 24.4929 16.3725 24.559 16.0654C24.603 16.0945 24.6607 16.0929 24.703 16.0614C25.9557 15.1942 27.0753 14.176 28.2503 13.2068C28.792 13.9534 29.3178 14.7115 29.8753 15.4465C28.959 16.1667 28.0888 16.9437 27.2698 17.7728C26.7646 17.6799 26.2771 17.6068 25.766 17.5159C26.0697 17.2249 29.2476 15.1591 27.9244 15.0017C27.5502 15.0321 27.2847 15.3495 26.9759 15.5352C26.2179 16.1088 25.4977 16.7308 24.82 17.3975C24.6215 17.3849 24.4223 17.3898 24.2247 17.412C24.047 17.4341 23.9285 17.6826 24.1237 17.7848C24.2443 17.846 24.3691 17.8988 24.497 17.943C24.5604 18.0721 24.7166 18.1255 24.8458 18.062C24.851 18.0595 24.8561 18.0567 24.8611 18.0538C26.4386 18.4287 28.0277 18.6706 29.6184 18.9702C30.1014 19.0577 30.7087 19.114 30.6255 19.7556C30.4837 20.2308 30.1798 20.6414 29.7668 20.916C28.3948 22.1604 26.8941 23.2721 25.5497 24.5384C25.4204 24.5464 25.3216 24.657 25.3282 24.7864C25.3807 26.8455 26.0194 28.8898 25.9223 30.9387C25.1064 33.9531 19.754 27.6865 19.1757 26.4841C19.2599 26.3597 19.1682 26.2148 19.04 26.3079C18.9117 26.215 18.8203 26.3593 18.9039 26.4847C18.3351 27.6737 12.9746 33.9563 12.1578 30.9387C12.0605 28.8898 12.6993 26.8455 12.7515 24.7864C12.7574 24.6573 12.6592 24.5472 12.5303 24.5384C11.1825 23.2746 9.68667 22.1593 8.31311 20.916C7.97033 20.611 7.51095 20.2459 7.45433 19.7556C7.3798 19.1099 7.96949 19.0595 8.46141 18.9702C9.07175 18.8595 9.68217 18.7489 10.2926 18.6382C10.6439 18.5202 15.0256 17.9998 13.8552 17.4121C12.8513 17.4136 11.851 17.531 10.874 17.762C11.5909 17.1621 12.4492 16.5581 12.8459 15.6965C12.7863 15.0741 12.1222 15.8984 11.9479 16.0742C11.3593 16.7432 10.6429 17.2805 10.0243 17.9136C9.19071 18.0228 8.36424 18.1807 7.54913 18.3865C7.66108 18.2056 8.65962 17.2714 8.10506 17.3162C6.84802 18.3717 5.73577 19.5885 4.79721 20.9351C4.72572 21.6098 6.55142 19.5343 6.72693 19.3581C6.64714 19.8032 6.76229 20.2611 7.04319 20.6155C6.54708 20.9592 6.10127 21.3702 5.7184 21.8369C5.07391 21.2228 4.35871 20.7037 3.69891 20.1105C4.78105 19.1944 5.71459 18.0933 6.74979 17.1165C7.73302 16.0452 9.00804 15.198 9.84091 14.0106C9.90668 13.2087 8.00462 15.1668 7.82096 15.3422C9.0213 13.838 10.1142 12.2511 11.0916 10.5933C11.4173 11.0028 11.703 11.4426 11.9449 11.9064C11.3199 12.4018 10.7238 12.9325 10.1594 13.496C10.0615 13.5894 10.1906 13.7654 10.3065 13.6867C10.9509 13.2699 11.5673 12.8138 12.1684 12.3373C12.7477 13.3689 13.2161 14.4591 13.5654 15.5895C13.6571 15.8973 13.7678 16.66 14.231 16.4085C14.0869 16.5917 13.9733 16.7971 13.8945 17.0166C13.8195 17.2557 14.0898 17.3747 14.2577 17.2871C14.7529 16.8351 15.1798 16.3137 15.5249 15.7389C16.8015 14.0932 17.9824 12.3755 19.0618 10.5942C20.7387 12.6317 21.6288 15.2037 22.486 17.6437C22.5682 17.7753 22.7417 17.8154 22.8733 17.7331C22.953 17.6833 23.0025 17.597 23.0053 17.503C22.9307 16.8386 22.7327 16.1939 22.4215 15.6021C21.6343 13.66 20.5347 11.8596 19.1663 10.2724C19.1252 10.2042 19.0366 10.1822 18.9684 10.2234C18.959 10.2291 18.9503 10.2358 18.9424 10.2435C17.2845 12.1598 15.7432 14.174 14.3269 16.2752C14.4373 15.9991 14.2604 15.689 14.1787 15.4204C13.7334 14.0773 13.0893 12.8085 12.2677 11.6565C11.9236 11.1838 11.5163 10.7565 11.1904 10.2724C11.1492 10.2042 11.0605 10.1822 10.9923 10.2235C10.9829 10.2292 10.9742 10.2359 10.9663 10.2436C9.79313 11.5261 8.71624 12.8934 7.74445 14.3344C7.58418 14.6853 6.28043 15.9822 7.05378 16.0873L6.98085 16.1582C6.43582 15.8965 5.69577 16.1657 5.11339 16.2195C4.53406 16.3024 3.95831 16.4175 3.38219 16.5201C2.47357 16.6981 0.943324 16.6222 0.898438 17.8778C0.903467 18.9704 2.02318 19.5348 2.73275 20.1893ZM27.4037 13.2499C26.5046 14.0288 25.5524 14.7468 24.7158 15.5952C25.258 14.0293 26.0234 12.5499 26.9885 11.2029C27.2726 11.7546 27.5949 12.2859 27.9529 12.7929C27.7583 12.9335 27.5782 13.1026 27.4037 13.2499ZM32.5788 27.7759C32.4135 28.7074 31.3584 28.4224 30.8105 27.9769C31.1363 27.9251 32.8612 26.4659 32.0333 26.3201C31.6549 26.4508 31.3164 26.6763 31.05 26.975C30.7998 27.173 30.5958 27.4232 30.4523 27.7082C30.2019 27.5086 29.9661 27.3184 29.7306 27.1074C30.6999 26.5323 31.5754 25.8122 32.3267 24.9721C32.5043 25.8959 32.5887 26.8352 32.5788 27.7759ZM29.1753 22.3301C30.0809 21.4857 31.7976 20.5981 31.2887 19.12C31.8824 18.7207 32.6563 18.4726 33.0617 17.8578C33.1604 16.947 31.358 18.6043 31.1087 18.8011C30.8051 18.4691 30.3876 18.2636 29.9394 18.2255C30.4372 17.9123 30.9065 17.5557 31.3416 17.1599C32.7591 17.5632 34.2023 17.8697 35.6615 18.0772C24.4995 26.4524 26.5374 26.2825 36.1524 18.1913C36.8547 18.5244 36.042 19.352 35.6549 19.6306C34.5562 20.6219 33.3606 21.5076 32.2917 22.5265C32.1812 22.5499 32.1043 22.6502 32.1101 22.7629C32.1406 23.3864 32.2049 24.0069 32.2814 24.6262C31.7036 24.832 31.1835 25.1732 30.7647 25.6214C30.3125 26.0181 29.8821 26.439 29.4755 26.8823C29.1836 26.6168 28.8975 26.3463 28.625 26.06C29.6701 25.2698 31.1528 24.2833 32.0411 23.4425C32.0884 23.3599 32.0599 23.2545 31.9773 23.2071C31.9516 23.1924 31.9225 23.1845 31.893 23.1843C31.1433 23.4123 30.4529 23.8023 29.8709 24.3269C29.2948 24.7324 28.7915 25.2323 28.3823 25.8057C27.9184 25.2682 27.4943 24.6977 27.1132 24.0987C27.8006 23.5092 28.488 22.9196 29.1753 22.3301ZM10.5242 23.7191L10.6987 23.8688C10.2455 24.7672 6.01119 29.5285 5.49557 27.111C10.2024 23.4409 10.4972 20.9729 5.47423 26.6095C5.54274 25.7713 5.68891 24.9462 5.786 24.1118C5.8462 24.1024 5.9016 24.1228 5.96546 24.0819C6.86121 23.4546 7.69446 22.7426 8.45356 21.9555C9.15489 22.5314 9.83306 23.1317 10.5242 23.7191ZM6.81068 21.5377C7.00516 21.3671 7.17495 21.1808 7.36318 21.0012C7.60354 21.2474 7.87095 21.4689 8.13646 21.6921C7.27006 22.2785 6.49129 22.985 5.82372 23.7904C5.88255 23.2924 5.93109 22.7935 5.95952 22.2929C6.26275 22.073 6.51202 21.7701 6.81068 21.5377ZM2.43341 17.465C3.78136 17.2017 5.1313 17.0273 6.46035 16.6638C5.38294 17.6704 4.38058 18.7546 3.46129 19.9074C3.23274 19.7135 3.00496 19.5186 2.77794 19.3229C3.38905 18.8106 3.92433 18.2141 4.36755 17.5513C4.41571 16.5167 2.6445 18.8433 2.47745 19.0658C1.78648 18.5483 1.04811 17.5912 2.43341 17.465Z" fill="black"/>
<path d="M20.6693 16.653C20.9292 16.4245 20.8274 16.0041 20.7576 15.7077C20.5377 14.8166 20.1179 13.9872 19.5302 13.2822C19.3251 13.0209 18.8899 13.3605 19.0701 13.6371C19.5006 14.3322 19.8095 15.0956 19.9834 15.8946C20.0257 16.2288 20.2138 16.9504 20.6693 16.653Z" fill="black"/>
<path d="M20.5335 18.0951C20.711 18.2668 20.994 18.2622 21.1658 18.0847C21.3376 17.9072 21.3329 17.6242 21.1554 17.4524C21.0738 17.3735 20.9653 17.3285 20.8518 17.3267C20.6013 17.3311 20.4019 17.5376 20.4063 17.788C20.4084 17.9028 20.4538 18.0125 20.5335 18.0951Z" fill="black"/>
<path d="M12.4653 13.6929C11.0919 14.3188 10.0091 15.4831 8.89442 16.4821C8.84557 16.5342 8.84808 16.616 8.90013 16.6648C8.94075 16.703 9.00134 16.7108 9.05034 16.6842C9.39647 16.4814 13.7254 13.8633 12.4653 13.6929Z" fill="black"/>
<path d="M19.2641 8.16188C19.4087 8.14275 19.517 8.02006 19.518 7.87419C19.5129 7.5513 19.5305 7.22849 19.5705 6.90804C19.6761 6.50521 19.6772 6.0821 19.5739 5.67866C19.2791 5.31553 18.9657 5.88336 18.9273 6.16494C18.8214 6.75646 18.8266 7.36254 18.9426 7.95208C18.9815 8.09306 19.1194 8.18306 19.2641 8.16188Z" fill="black"/>
<path d="M21.4148 9.2176C21.8073 9.40522 22.0506 8.83184 22.2729 8.59399C22.6171 8.25639 22.9065 7.86713 23.1306 7.44029C23.1842 6.85563 22.4568 7.13592 22.2185 7.38131C21.7631 7.77057 21.4331 8.28604 21.2703 8.86262C21.2342 8.99995 21.2931 9.14459 21.4148 9.2176Z" fill="black"/>
<path d="M15.742 8.51096C16.072 8.88041 16.5048 9.14279 16.985 9.26435C17.5271 9.32798 17.4716 8.86525 17.2134 8.55021C16.922 8.23981 16.573 7.98909 16.186 7.81183C16.0495 7.72069 15.8736 7.71314 15.7298 7.79225C15.5336 7.92492 15.482 8.19157 15.6146 8.38781C15.648 8.43727 15.6915 8.47918 15.742 8.51096Z" fill="black"/>
</g>
<defs>
<clipPath id="clip0_1134_6842">
<rect width="36.3" height="36.3" fill="white" transform="translate(0.898438 0.799805)"/>
</clipPath>
</defs>
</svg>