<svg width="34" height="33" viewBox="0 0 34 33" fill="none" xmlns="http://www.w3.org/2000/svg">
<path d="M31.0949 25.085C31.0549 24.56 31.0199 24.035 30.9649 23.52C30.8599 22.485 30.6999 21.49 30.4899 20.535C30.0649 18.625 29.4149 16.9 28.5899 15.45C27.7749 13.995 26.7999 12.82 25.8349 11.92C24.8699 11.02 23.9249 10.375 23.1299 9.89997C22.3349 9.42997 21.6799 9.12997 21.2349 8.94497C20.7849 8.75997 20.5399 8.68497 20.5349 8.70497C20.5049 8.76497 21.4549 9.14497 22.9899 10.135C24.4949 11.125 26.6299 12.815 28.1599 15.69C28.9299 17.11 29.5349 18.795 29.9249 20.655C30.1199 21.585 30.2599 22.565 30.3549 23.58C30.4299 24.585 30.5249 25.665 30.5349 26.715C30.5349 27.245 30.4999 27.77 30.3899 28.285C30.3299 28.565 30.2749 28.735 30.1349 28.915C29.9949 29.095 29.8049 29.26 29.5849 29.4C28.7049 29.965 27.5599 30.29 26.4549 30.625C25.3449 30.93 24.1799 31.125 22.9999 31.09C21.8299 31.07 20.6449 30.73 19.3599 30.585C18.0599 30.43 16.7699 30.61 15.5699 30.865C14.3649 31.12 13.2049 31.465 12.0749 31.67C10.9449 31.865 9.80486 31.895 8.73986 31.69C7.69986 31.55 6.87986 30.775 6.68986 29.835C6.27986 27.715 5.88486 25.69 5.67986 23.79C5.47486 21.89 5.46486 20.105 5.73986 18.515C6.00486 16.92 6.52486 15.535 7.12486 14.405C7.73986 13.275 8.42986 12.4 9.05486 11.74C10.2549 10.505 11.1149 9.98997 11.1699 9.88497C11.3599 10.06 11.5849 10.19 11.8099 10.25C12.1999 10.365 12.5799 10.375 12.9499 10.36C13.3199 10.345 13.6699 10.305 13.9999 10.27C14.3349 10.24 14.6649 10.205 14.9899 10.175C15.6499 10.11 16.2849 10.045 16.8899 9.98497C17.4649 9.90997 18.0449 9.90497 18.6049 9.80997C18.8849 9.75997 19.1599 9.70497 19.4299 9.56997C19.7099 9.42997 19.9149 9.21997 20.0499 8.97997C20.3399 8.49497 20.2449 7.89997 19.9649 7.57497C19.8149 7.38497 19.6349 7.27997 19.4649 7.20997C19.6149 7.13497 19.8799 6.95497 20.2099 6.63997C20.7049 6.15997 21.3499 5.37497 21.8549 4.22997C22.0949 3.65497 22.3299 2.99497 22.3249 2.20997C22.3349 2.01497 22.2999 1.81497 22.2649 1.60997C22.2149 1.40497 22.1349 1.13997 21.8599 0.94997C21.5699 0.76497 21.2649 0.81997 21.0649 0.86497C20.8599 0.91497 20.6699 0.96497 20.4699 1.02997C20.0749 1.15497 19.6799 1.30997 19.2849 1.49997C18.8899 1.67997 18.5049 1.94997 18.1749 2.08997C17.8299 2.23497 17.5699 2.20997 17.3299 1.96997C17.0699 1.72497 16.8849 1.28497 16.4799 0.89497C16.2749 0.69997 15.9849 0.54497 15.6799 0.50997C15.3749 0.46997 15.0849 0.53497 14.8349 0.63997C14.3399 0.85997 13.9799 1.20497 13.6849 1.57997C13.4149 1.93497 13.1799 2.26997 12.9049 2.51497C12.6349 2.75997 12.3399 2.88997 12.0249 2.87997C11.6999 2.87497 11.3449 2.74497 10.9599 2.64497C10.5599 2.54497 10.1299 2.49497 9.69486 2.65497C9.47986 2.73497 9.27486 2.88497 9.14986 3.08997C9.02986 3.29497 8.98986 3.52497 8.99486 3.72497C9.00986 4.12497 9.14486 4.44497 9.25486 4.72997C9.72986 5.87997 10.3349 6.69497 10.7899 7.20497C11.1449 7.59497 11.4049 7.81497 11.5249 7.87997C11.3749 7.95497 11.2199 8.05497 11.0749 8.18497C10.9999 8.25497 10.9299 8.34997 10.8649 8.43497C10.8149 8.53997 10.7549 8.65497 10.7349 8.77497C10.6899 9.02997 10.7499 9.26497 10.8399 9.45997C10.9099 9.61497 11.0249 9.74997 11.1549 9.86997C11.0949 9.88497 10.8899 9.99997 10.5299 10.22C10.1299 10.495 9.53486 10.9 8.86486 11.545C8.19486 12.185 7.45486 13.065 6.78486 14.21C6.13486 15.36 5.56486 16.78 5.25486 18.42C4.93486 20.065 4.91986 21.905 5.09986 23.84C5.27986 25.78 5.65486 27.815 6.05486 29.955C6.17486 30.555 6.49486 31.12 6.94986 31.54C7.39486 31.97 8.02486 32.24 8.60986 32.335C9.77486 32.565 10.9949 32.535 12.1899 32.335C13.3849 32.12 14.5349 31.785 15.7149 31.535C16.8899 31.285 18.0899 31.13 19.2849 31.27C20.4849 31.405 21.7049 31.75 22.9849 31.775C24.2499 31.81 25.4849 31.6 26.6399 31.275C27.2249 31.11 27.7749 30.925 28.3349 30.725C28.8899 30.52 29.4399 30.285 29.9549 29.95C30.2099 29.78 30.4599 29.58 30.6649 29.315C30.8799 29.055 30.9949 28.68 31.0399 28.415C31.1599 27.84 31.1899 27.265 31.1849 26.71C31.1799 26.155 31.1349 25.61 31.0949 25.085ZM11.5349 8.66997C11.6949 8.50997 11.9649 8.38497 12.2249 8.28497C13.2949 7.89997 14.4049 7.80997 15.2999 7.65497C16.1999 7.51997 16.9299 7.43497 17.4349 7.38497C17.9449 7.32497 18.2299 7.26497 18.2249 7.21497C18.2199 7.16497 17.9399 7.13497 17.4299 7.10997C16.9149 7.07997 16.1649 7.08997 15.2449 7.16497C14.3299 7.25997 13.2399 7.28497 12.0049 7.67997C11.8649 7.72997 11.7249 7.78497 11.5799 7.85497C11.5399 7.75497 11.3249 7.48997 11.0049 7.03497C10.6249 6.48997 10.1099 5.66497 9.71986 4.55497C9.62486 4.27497 9.52986 3.98997 9.53486 3.72497C9.53986 3.45997 9.65486 3.28497 9.89986 3.20497C10.1449 3.12497 10.4799 3.14997 10.8049 3.24497C11.1449 3.33497 11.5299 3.49997 12.0099 3.52497C12.4949 3.55497 13.0099 3.32997 13.3549 3.01497C13.7099 2.69997 13.9699 2.33497 14.2299 1.99997C14.4699 1.69997 14.7799 1.41997 15.1099 1.27997C15.4449 1.13997 15.7499 1.16997 16.0049 1.40997C16.2749 1.64997 16.4599 2.07997 16.8449 2.46997C17.0349 2.66497 17.3299 2.82497 17.6299 2.86497C17.9349 2.90497 18.2199 2.82497 18.4449 2.72497C18.9099 2.51497 19.2199 2.26997 19.5849 2.09997C19.9449 1.91997 20.3049 1.76997 20.6699 1.64497C21.0199 1.52497 21.4749 1.38997 21.5299 1.46997C21.6499 1.50997 21.7399 1.91997 21.7449 2.22497C21.7799 2.87497 21.5949 3.49997 21.3949 4.04497C20.9799 5.13997 20.4199 5.93997 20.0099 6.45497C19.6949 6.83997 19.4549 7.06997 19.3699 7.17997C19.2499 7.14497 19.1399 7.11997 19.0449 7.11497C18.5049 7.08497 18.2299 7.17997 18.2299 7.21997C18.2299 7.27497 18.5249 7.27997 18.9999 7.38497C19.2299 7.44497 19.5049 7.55497 19.6549 7.80497C19.8199 8.05497 19.8399 8.41997 19.6299 8.72497C19.5299 8.87497 19.3799 9.00997 19.1999 9.07997C19.0149 9.15997 18.7749 9.20497 18.5249 9.23497C18.0199 9.29497 17.4449 9.27997 16.8199 9.34497C15.6199 9.43997 14.3049 9.54997 12.9249 9.65997C12.2699 9.69497 11.6449 9.57997 11.4599 9.15497C11.3699 8.93997 11.3649 8.83497 11.5349 8.66997Z" fill="black"/>
<path d="M24.8602 18.9001C24.8502 18.7601 24.8152 18.5951 24.7552 18.4001C24.7302 18.3001 24.7002 18.1951 24.6652 18.0851C24.6202 17.9751 24.5752 17.8601 24.5252 17.7401C24.1402 16.7651 23.1452 15.4451 21.4152 14.6051C19.7152 13.7551 17.2552 13.4851 14.8802 14.4651C14.2902 14.7101 13.7252 15.0451 13.1902 15.4451C12.6652 15.8601 12.1802 16.3601 11.7752 16.9301C10.9602 18.0701 10.5452 19.5851 10.7552 21.0801C10.9852 22.5701 11.7952 23.9001 12.8702 24.7901C13.9402 25.6951 15.2252 26.2251 16.4752 26.4251C19.0002 26.8351 21.3502 26.0201 22.7952 24.7801C24.2752 23.5401 24.8802 21.9901 24.9752 20.9451C24.9902 20.8151 25.0002 20.6901 25.0152 20.5751C25.0152 20.4601 25.0102 20.3501 25.0102 20.2451C25.0102 20.0401 25.0002 19.8701 24.9702 19.7351C24.9252 19.4601 24.8902 19.3251 24.8652 19.3251C24.7952 19.3301 24.9002 19.9101 24.7102 20.9001C24.5402 21.8801 23.9002 23.2901 22.4852 24.3901C21.1002 25.4951 18.9052 26.1951 16.5852 25.7851C15.4352 25.5801 14.2702 25.0851 13.3152 24.2601C12.3502 23.4501 11.6502 22.2801 11.4452 20.9751C11.2652 19.6651 11.6152 18.3451 12.3352 17.3151C12.6952 16.8001 13.1252 16.3501 13.5952 15.9651C14.0802 15.5951 14.5902 15.2801 15.1302 15.0501C17.2952 14.1201 19.5902 14.3101 21.2002 15.0501C22.8402 15.7801 23.8352 16.9551 24.2702 17.8501C24.7252 18.7501 24.7952 19.3351 24.8652 19.3201C24.8952 19.3151 24.8902 19.1751 24.8602 18.9001Z" fill="black"/>
<path d="M18.9696 19.5651C18.6246 19.4901 18.3196 19.5251 18.0596 19.5401C17.7946 19.5551 17.5846 19.5501 17.3596 19.4951C16.9246 19.3951 16.5346 19.1551 16.3296 18.8401C16.1246 18.5351 16.1046 18.1301 16.2296 17.8201C16.3546 17.5101 16.6246 17.3101 16.9246 17.2051C17.5396 17.0051 18.1196 17.1451 18.5046 17.2301C18.8946 17.3251 19.1196 17.3801 19.1396 17.3301C19.1546 17.2851 18.9746 17.1501 18.5946 16.9701C18.3846 16.8801 18.0896 16.7551 17.7296 16.7001C17.8396 16.5951 17.8946 16.3851 17.8646 16.1601C17.8196 15.8501 17.6296 15.6201 17.4346 15.6501C17.2446 15.6801 17.1246 15.9501 17.1696 16.2601C17.1946 16.4351 17.2696 16.5751 17.3596 16.6701C17.1796 16.6701 16.9896 16.6851 16.7896 16.7301C16.3946 16.8151 15.9296 17.0951 15.7046 17.5801C15.4796 18.0501 15.4746 18.6651 15.7846 19.1801C16.0896 19.6851 16.6246 20.0201 17.2046 20.1651C17.4896 20.2401 17.8196 20.2551 18.0946 20.2351C18.3746 20.2201 18.6246 20.2001 18.8246 20.2501C19.2346 20.3301 19.5746 20.6801 19.7096 21.0701C19.8496 21.4701 19.7646 21.8601 19.5046 22.1651C19.2546 22.4701 18.8896 22.6751 18.5246 22.7751C18.1596 22.8801 17.8046 22.8701 17.4796 22.7951C16.8346 22.6451 16.3846 22.2701 16.1146 22.0001C15.8396 21.7201 15.7196 21.5251 15.6746 21.5501C15.6346 21.5651 15.6696 21.8051 15.8996 22.1701C16.1296 22.5251 16.5796 23.0201 17.3446 23.2751C17.5946 23.3601 17.8846 23.4001 18.1896 23.3951C18.1796 23.4751 18.1746 23.5601 18.1896 23.6551C18.2346 23.9751 18.4296 24.2101 18.6196 24.1801C18.8096 24.1501 18.9296 23.8701 18.8846 23.5551C18.8696 23.4601 18.8446 23.3801 18.8096 23.3051C19.2296 23.1901 19.6496 22.9701 19.9996 22.5901C20.1846 22.3751 20.3396 22.1151 20.4146 21.8001C20.4846 21.4901 20.4596 21.1651 20.3646 20.8601C20.1696 20.2551 19.6596 19.7051 18.9696 19.5651Z" fill="black"/>
<path d="M27.3602 26.3749C27.0202 27.5249 26.4352 28.3299 26.5152 28.3899C26.5752 28.4549 27.3252 27.6999 27.6952 26.4749C28.0702 25.2499 27.8652 24.2049 27.7752 24.2249C27.6752 24.2349 27.7152 25.2299 27.3602 26.3749Z" fill="black"/>
<path d="M27.6899 28.4098C27.7649 28.4598 28.3449 27.6898 28.7149 26.5748C29.0949 25.4598 29.0949 24.4948 29.0049 24.4898C28.9049 24.4798 28.7449 25.3898 28.3849 26.4598C28.0249 27.5348 27.5999 28.3548 27.6899 28.4098Z" fill="black"/>
<path d="M5.76071 13.425C6.28071 12.345 6.99071 11.645 6.92071 11.57C6.87071 11.495 6.00571 12.12 5.44571 13.27C4.87571 14.415 4.91071 15.48 5.00071 15.475C5.10071 15.49 5.22071 14.5 5.76071 13.425Z" fill="black"/>
<path d="M5.76516 11.3652C5.70016 11.3002 5.00016 11.9702 4.45516 13.0102C3.90016 14.0502 3.74016 15.0002 3.83016 15.0202C3.93016 15.0452 4.23015 14.1702 4.76516 13.1752C5.29016 12.1752 5.84516 11.4302 5.76516 11.3652Z" fill="black"/>
</svg>