<svg width="54" height="54" viewBox="0 0 54 54" fill="none" xmlns="http://www.w3.org/2000/svg">
<path d="M27.0008 27.8412C31.2752 27.8412 34.7536 24.3636 34.7536 20.0883C34.7536 15.8131 31.2752 12.3354 27.0008 12.3354C22.7255 12.3354 19.2471 15.8131 19.2471 20.0883C19.2471 24.3636 22.7255 27.8412 27.0008 27.8412ZM27.0008 13.8783C30.4244 13.8783 33.2108 16.6639 33.2108 20.0883C33.2108 23.5119 30.4251 26.2983 27.0008 26.2983C23.5764 26.2983 20.79 23.5127 20.79 20.0883C20.79 16.6647 23.5764 13.8783 27.0008 13.8783Z" fill="black"/>
<path d="M8.55127 46.9608H22.9546C22.916 48.0725 22.6167 49.4819 21.6671 50.9136H19.8974C19.4708 50.9136 19.126 51.2592 19.126 51.6851C19.126 52.1109 19.4708 52.4565 19.8974 52.4565H22.0821H31.9148H34.1002C34.5268 52.4565 34.8716 52.1109 34.8716 51.6851C34.8716 51.2592 34.5268 50.9136 34.1002 50.9136H32.3298C31.3809 49.4811 31.0808 48.0717 31.0423 46.9608H45.4364C46.3513 46.9608 47.2022 46.6916 47.9227 46.2341C49.2241 45.4087 50.0912 43.9607 50.0912 42.3114V16.2557C50.0912 13.693 48.0029 11.6078 45.4364 11.6078H40.0988L41.1688 10.0927C41.6702 9.41077 41.5993 8.46963 40.9922 7.84785L39.2348 6.09054C38.6254 5.49345 37.6835 5.42094 37.0008 5.91234L35.1555 7.21914C33.6713 6.27491 32.0536 5.60608 30.3333 5.22654L29.953 3.00097C29.8157 2.15625 29.0936 1.54297 28.235 1.54297H25.7588C24.8909 1.54297 24.1704 2.16088 24.0493 2.99248L23.662 5.22654C21.9394 5.60608 20.3233 6.27491 18.8452 7.21914L17 5.91234C16.3018 5.4194 15.3591 5.49654 14.7605 6.09748L13.0086 7.8494C12.4053 8.45343 12.3251 9.39303 12.8173 10.0827L13.9004 11.6093H8.55127C5.99244 11.6093 3.91036 13.6945 3.91036 16.2572V40.7123C3.91036 40.7146 3.90881 40.7169 3.90881 40.72V42.3107C3.90881 44.8741 5.99167 46.9608 8.55127 46.9608ZM48.5452 42.3091C48.5452 43.4022 47.9751 44.3619 47.1188 44.9158C46.6328 45.2297 46.0566 45.4164 45.4356 45.4164H8.55127C6.84333 45.4164 5.45321 44.0232 5.45321 42.3114V41.4899H48.5444L48.5452 42.3091ZM30.5316 50.9144H23.4653C24.1033 49.6847 24.4589 48.3317 24.5029 46.9616H29.4948C29.538 48.3309 29.8944 49.684 30.5316 50.9144ZM14.0994 8.93865L15.8513 7.18674C15.9207 7.11808 16.028 7.11191 16.1097 7.17054L18.3847 8.78283C18.6493 8.97028 19.0034 8.9726 19.2687 8.78823C20.8347 7.70745 22.5851 6.98308 24.4705 6.63594C24.7883 6.57731 25.0359 6.32737 25.0915 6.00877L25.5721 3.23471C25.5875 3.13288 25.677 3.08583 25.7588 3.08583H28.235C28.3191 3.08583 28.4117 3.13597 28.4318 3.254L28.9016 6.008C28.9556 6.32737 29.204 6.57808 29.5226 6.63671C31.4048 6.98308 33.1583 7.70745 34.7336 8.78977C35.0005 8.9726 35.3522 8.97105 35.6168 8.7836L37.898 7.16745C37.9766 7.11114 38.0823 7.12117 38.1502 7.18751L39.8952 8.93248C39.9654 9.00423 39.9777 9.1076 39.9168 9.19014L38.3045 11.4736C38.1186 11.7374 38.1163 12.0892 38.2991 12.3553C39.3806 13.9298 40.1058 15.6825 40.4522 17.5663C40.5108 17.8849 40.7615 18.1325 41.0809 18.1873L43.8341 18.6579H43.8372C43.9344 18.6741 44.003 18.752 44.003 18.8461V21.3301C44.003 21.4219 43.9313 21.5021 43.8318 21.5191L41.0786 21.9974C40.76 22.0529 40.5108 22.3006 40.4514 22.6176C40.1042 24.5045 39.3799 26.2541 38.2991 27.8194C38.1155 28.0863 38.1178 28.4396 38.3045 28.7034L39.9168 30.9776C39.9739 31.0586 39.9692 31.162 39.8998 31.2306L38.1626 32.9756C38.0831 33.0497 37.9674 33.0643 37.8933 33.0134L35.6176 31.3934C35.3515 31.2044 34.9989 31.2021 34.7312 31.3872C33.1583 32.4757 31.4064 33.1993 29.5249 33.538C29.2055 33.5958 28.9563 33.8473 28.9016 34.1675L28.431 36.9315C28.4163 37.0171 28.3322 37.0819 28.235 37.0819H25.7588C25.6646 37.0819 25.5836 37.0225 25.5698 36.9276L25.0922 34.1659C25.0375 33.8465 24.7875 33.5958 24.4689 33.538C22.5843 33.1985 20.8355 32.4757 19.271 31.388C19.1391 31.2962 18.9848 31.2499 18.8313 31.2499C18.6747 31.2499 18.5181 31.2977 18.3839 31.3934L16.1198 33.0057C16.0349 33.0628 15.9192 33.0551 15.8528 32.9895L14.087 31.2175C14.0261 31.1589 14.0246 31.0547 14.0747 30.9807L15.6947 28.705C15.8837 28.4396 15.8852 28.0847 15.7001 27.8171C14.6132 26.2534 13.8896 24.5053 13.5509 22.6207C13.4938 22.3013 13.2431 22.0529 12.9237 21.9974L10.1566 21.5183C10.0625 21.5021 9.99076 21.4219 9.99076 21.3301V18.8461C9.99076 18.752 10.0594 18.6741 10.1597 18.6579L12.9214 18.1873C13.2416 18.1325 13.493 17.8834 13.5509 17.5632C13.8888 15.6817 14.6132 13.9306 15.7009 12.3569C15.8852 12.0899 15.8829 11.7366 15.6955 11.472L14.0739 9.18705C14.0207 9.11223 14.0307 9.00731 14.0994 8.93865ZM8.55127 13.1507H13.4336C12.8481 14.2893 12.4123 15.4943 12.1384 16.7555L9.90359 17.1366C9.05964 17.277 8.4479 17.996 8.4479 18.8461V21.3301C8.4479 22.1802 9.05964 22.8992 9.89819 23.0388L12.1384 23.4269C12.5126 25.1502 13.1806 26.7664 14.1295 28.2437L12.8103 30.0966C12.322 30.8094 12.4107 31.7498 13.0078 32.3191L14.7667 34.0857C15.3653 34.6697 16.3003 34.7514 17.003 34.2701L18.8452 32.9586C20.3225 33.9075 21.9394 34.5763 23.662 34.9505L24.047 37.1745C24.1742 38.0146 24.894 38.6248 25.7588 38.6248H28.235C29.0898 38.6248 29.8126 38.02 29.9522 37.1884L30.3333 34.9497C32.0536 34.5755 33.6721 33.9067 35.1555 32.9571L37.0039 34.2731C37.6843 34.7499 38.6192 34.672 39.2418 34.0772L40.986 32.3261C41.5931 31.7321 41.6741 30.7901 41.1765 30.0858L39.8705 28.2421C40.814 26.7648 41.482 25.1495 41.8623 23.4261L44.091 23.0388C44.9349 22.8984 45.5467 22.1795 45.5467 21.3293V18.8453C45.5467 17.996 44.9365 17.2778 44.0941 17.1359L41.8616 16.7548C41.5831 15.4935 41.1464 14.2885 40.5625 13.1499H45.4356C47.152 13.1499 48.5475 14.5431 48.5475 16.2549V39.9462H5.45321V16.2557C5.45321 14.5439 6.84333 13.1507 8.55127 13.1507Z" fill="black"/>
</svg>