<svg width="40" height="40" viewBox="0 0 40 40" fill="none" xmlns="http://www.w3.org/2000/svg">
<g clip-path="url(#clip0_1497_1554)">
<path d="M4.05351 32.5951C3.90893 32.5951 3.76771 32.5483 3.6512 32.4603C3.51023 32.3535 3.41745 32.1947 3.3931 32.0195L0.00621348 7.55925C-0.0178828 7.38411 0.0283224 7.20637 0.135141 7.0654C0.241959 6.92442 0.400448 6.83139 0.57558 6.80729L5.02233 6.19396C5.38241 6.14614 5.72323 6.39778 5.77366 6.76233L6.09523 9.06961L19.5961 7.1988L19.28 4.89152C19.2302 4.52722 19.4844 4.19136 19.8487 4.14056L25.0354 3.42053C25.3989 3.3711 25.7365 3.62436 25.7877 3.98928L26.5878 9.74952L25.2669 9.9331L24.5585 4.83302L20.6916 5.36984L21.0077 7.67749C21.0575 8.04179 20.803 8.37802 20.4387 8.42845L5.61828 10.4817C5.25696 10.5305 4.91737 10.2779 4.8667 9.91335L4.54512 7.6057L1.41882 8.03707L4.62263 31.1764L27.7617 27.9722L27.5804 26.6666L28.9007 26.483L29.1741 28.4494C29.1986 28.6246 29.1522 28.8023 29.0455 28.9433C28.9391 29.0845 28.7806 29.1773 28.6055 29.2018L4.14493 32.5887C4.11437 32.5931 4.08382 32.5951 4.05351 32.5951Z" fill="black"/>
<path d="M5.52389 10.4853C5.19635 10.4853 4.91055 10.2437 4.86434 9.91011L4.04271 3.98033C4.01862 3.80519 4.06482 3.62745 4.17164 3.48648C4.27846 3.3455 4.43657 3.25272 4.61171 3.22838L19.436 1.17498C19.7953 1.12356 20.1371 1.37905 20.1879 1.74397L21.0096 7.67376C21.0337 7.84889 20.9875 8.02663 20.8806 8.16761C20.7738 8.30858 20.6157 8.40137 20.4406 8.42571L5.61642 10.4791C5.58549 10.4835 5.55456 10.4853 5.52389 10.4853ZM5.4552 4.4579L6.09387 9.06674L19.5971 7.19631L18.9584 2.58747L5.4552 4.4579Z" fill="black"/>
<path d="M5.30548 14.4967L21.1422 12.8732L21.2782 14.1997L5.44146 15.8232L5.30548 14.4967Z" fill="black"/>
<path d="M12.4381 17.9435L18.957 17.4139L19.065 18.743L12.5461 19.2727L12.4381 17.9435Z" fill="black"/>
<path d="M5.91953 18.4718L9.17923 18.207L9.28721 19.5361L6.02751 19.8009L5.91953 18.4718Z" fill="black"/>
<path d="M6.19986 23.3994L21.1534 21.8364L21.2921 23.1631L6.33853 24.7261L6.19986 23.3994Z" fill="black"/>
<path d="M28.5165 27.2448C23.424 27.2448 19.281 23.1018 19.281 18.0092C19.281 12.9166 23.4239 8.77362 28.5165 8.77362C33.6092 8.77362 37.7521 12.9166 37.7521 18.0092C37.7521 23.1018 33.609 27.2448 28.5165 27.2448ZM28.5165 10.1071C24.1593 10.1071 20.6143 13.6521 20.6143 18.0093C20.6143 22.3665 24.1593 25.9115 28.5165 25.9115C32.8737 25.9115 36.4187 22.3665 36.4187 18.0093C36.4187 13.6521 32.8736 10.1071 28.5165 10.1071Z" fill="black"/>
<path d="M31.6407 25.9974L32.8422 25.4186L34.3918 28.6356L33.1902 29.2144L31.6407 25.9974Z" fill="black"/>
<path d="M37.1963 38.8316C36.1501 38.8316 35.1441 38.2457 34.6607 37.2418L31.5627 30.8084C31.438 30.5496 31.493 30.2407 31.6988 30.0408L33.3186 28.4682C33.4221 28.3676 33.5556 28.3035 33.6988 28.2853L35.9392 27.9991C36.2237 27.9601 36.4997 28.112 36.624 28.3709L39.722 34.8049C40.3939 36.1995 39.8054 37.8818 38.4101 38.5536C38.4101 38.5543 38.4098 38.5543 38.4098 38.5543C38.0183 38.7424 37.6042 38.8316 37.1963 38.8316ZM32.9726 30.6625L35.8619 36.6636C36.2148 37.3954 37.0979 37.7033 37.8313 37.353C38.5644 36.9996 38.8737 36.1161 38.5208 35.383L35.6311 29.3825L34.0881 29.5795L32.9726 30.6625Z" fill="black"/>
<path d="M31.1253 23.426L30.5464 22.2248C31.675 21.6815 32.5243 20.731 32.9378 19.549C33.3515 18.3667 33.2799 17.0942 32.7366 15.966L33.9378 15.3872C34.6361 16.8365 34.7279 18.4709 34.1963 19.9892C33.665 21.5078 32.5745 22.7281 31.1253 23.426Z" fill="black"/>
</g>
<defs>
<clipPath id="clip0_1497_1554">
<rect width="40" height="40" fill="white"/>
</clipPath>
</defs>
</svg>
