<svg width="80" height="80" viewBox="0 0 80 80" fill="none" xmlns="http://www.w3.org/2000/svg">
<path d="M15.6667 15.3554C15.3455 15.6737 15.1638 16.1065 15.1618 16.5586C15.1597 17.0108 15.3373 17.4453 15.6556 17.7665C15.9738 18.0877 16.4066 18.2693 16.8588 18.2714C17.311 18.2735 17.7455 18.0959 18.0667 17.7776C18.3879 17.4594 18.5695 17.0265 18.5716 16.5744C18.5737 16.1222 18.396 15.6877 18.0778 15.3665C17.7595 15.0453 17.3267 14.8637 16.8745 14.8616C16.4224 14.8595 15.9879 15.0371 15.6667 15.3554Z" fill="black"/>
<path d="M24.8222 17.7776C25.0599 17.542 25.2223 17.2411 25.2887 16.9131C25.3551 16.5851 25.3225 16.2447 25.1951 15.9352C25.0677 15.6257 24.8513 15.3611 24.5732 15.1748C24.2951 14.9886 23.968 14.8892 23.6333 14.8892C23.2987 14.8892 22.9715 14.9886 22.6935 15.1748C22.4154 15.3611 22.199 15.6257 22.0716 15.9352C21.9442 16.2447 21.9116 16.5851 21.978 16.9131C22.0444 17.2411 22.2068 17.542 22.4445 17.7776C22.5996 17.9355 22.7846 18.0609 22.9887 18.1465C23.1929 18.2321 23.412 18.2762 23.6333 18.2762C23.8547 18.2762 24.0738 18.2321 24.278 18.1465C24.4821 18.0609 24.6671 17.9355 24.8222 17.7776Z" fill="black"/>
<path d="M72.4222 7.57768C70.4037 5.56812 67.6705 4.44127 64.8222 4.44434H15.1778C12.335 4.44434 9.60828 5.57212 7.59603 7.5802C5.58377 9.58829 4.45034 12.3126 4.44446 15.1555V64.8221C4.43858 66.2333 4.71219 67.6317 5.24951 68.9365C5.78683 70.2414 6.57721 71.427 7.57507 72.4248C8.57292 73.4227 9.75849 74.2131 11.0634 74.7504C12.3683 75.2877 13.7666 75.5613 15.1778 75.5555H64.8222C66.2334 75.5613 67.6318 75.2877 68.9367 74.7504C70.2415 74.2131 71.4271 73.4227 72.425 72.4248C73.4228 71.427 74.2132 70.2414 74.7505 68.9365C75.2878 67.6317 75.5615 66.2333 75.5556 64.8221V15.1555C75.5552 12.3144 74.4284 9.58936 72.4222 7.57768ZM72.1778 64.8221C72.1708 65.7897 71.9706 66.746 71.589 67.6352C71.2074 68.5243 70.652 69.3283 69.9556 69.9999C69.2783 70.6951 68.4701 71.2493 67.5777 71.6307C66.6852 72.0121 65.7261 72.2131 64.7556 72.2221H15.1778C14.2073 72.2131 13.2482 72.0121 12.3557 71.6307C11.4632 71.2493 10.6551 70.6951 9.97779 69.9999C9.28133 69.3283 8.72601 68.5243 8.34441 67.6352C7.96281 66.746 7.76261 65.7897 7.75557 64.8221V15.1555C7.75262 14.1897 7.94102 13.233 8.3099 12.3405C8.67878 11.448 9.22083 10.6374 9.90474 9.95554C10.5886 9.2737 11.4009 8.73411 12.2945 8.36793C13.1881 8.00175 14.1454 7.81624 15.1111 7.82212H64.8222C65.788 7.81624 66.7453 8.00175 67.6389 8.36793C68.5325 8.73411 69.3447 9.2737 70.0286 9.95554C70.7125 10.6374 71.2546 11.448 71.6235 12.3405C71.9923 13.233 72.1807 14.1897 72.1778 15.1555V64.8221Z" fill="black"/>
<path d="M58.0667 39.7776H51.4L46.6667 30.3998C46.4708 30.0063 46.1273 29.7061 45.7111 29.5645C45.2949 29.423 44.8396 29.4517 44.4445 29.6443C44.055 29.8445 43.7585 30.1881 43.6176 30.6027C43.4766 31.0173 43.5022 31.4704 43.6889 31.8665L47.6222 39.7332H32.4222L36.3556 31.8665C36.5423 31.4704 36.5679 31.0173 36.4269 30.6027C36.286 30.1881 35.9895 29.8445 35.6 29.6443C35.2048 29.4517 34.7496 29.423 34.3334 29.5645C33.9171 29.7061 33.5737 30.0063 33.3778 30.3998L28.6445 39.7776H21.9778C21.5299 39.7776 21.1003 39.9556 20.7836 40.2723C20.4668 40.589 20.2889 41.0186 20.2889 41.4665C20.2889 41.9165 20.4661 42.3484 20.7822 42.6687C21.0983 42.9889 21.5278 43.1718 21.9778 43.1776H23.0889C23.4889 45.911 24.3556 51.9109 24.9111 55.8887C25.1259 57.3767 25.8721 58.7366 27.0118 59.7171C28.1516 60.6975 29.6078 61.2321 31.1111 61.2221H48.8889C50.3847 61.2214 51.8301 60.6819 52.9605 59.7025C54.091 58.723 54.8308 57.3691 55.0445 55.8887C55.6 51.9109 56.4667 45.911 56.8667 43.1776H57.9778C58.4278 43.1718 58.8573 42.9889 59.1734 42.6687C59.4895 42.3484 59.6667 41.9165 59.6667 41.4665C59.6673 41.0336 59.5016 40.6169 59.2039 40.3026C58.9061 39.9884 58.499 39.8004 58.0667 39.7776ZM51.7778 55.3332C51.6846 56.0261 51.3375 56.6597 50.8038 57.1113C50.27 57.5629 49.5877 57.8004 48.8889 57.7776H31.1111C30.4309 57.7791 29.7729 57.5349 29.2584 57.0898C28.744 56.6447 28.4075 56.0288 28.3111 55.3554C27.7778 51.5776 26.9778 45.9998 26.5556 43.111H53.5334C53.1111 46.0665 52.3111 51.6443 51.7778 55.4221V55.3332Z" fill="black"/>
</svg>