<svg width="50" height="50" viewBox="0 0 50 50" fill="none" xmlns="http://www.w3.org/2000/svg">
<g clip-path="url(#clip0_3015_1578)">
<path d="M40.037 33.0988L40.2554 33.0432L40.1198 32.8632L34.1049 24.8716L34.1043 24.8709C33.9371 24.6516 33.861 24.4887 33.854 24.3399C33.8473 24.1958 33.9045 24.0336 34.0806 23.8135L34.0824 23.8112L37.2324 19.7097L37.2332 19.7086L39.5582 16.6261L39.689 16.4526L39.4804 16.3918C38.9417 16.2349 38.4918 16.232 38.0951 16.3905C37.7014 16.5478 37.3819 16.8554 37.0857 17.2756L32.7078 23.1128L28.3621 17.2439C28.0318 16.7625 27.6701 16.481 27.2442 16.3532C26.8232 16.2268 26.3584 16.2568 25.8348 16.3586L25.5968 16.4049L25.7445 16.5972L31.6716 24.3168L25.2988 32.8714L25.167 33.0484L25.38 33.1059C25.9386 33.2567 26.3941 33.2442 26.7906 33.0717C27.1833 32.9009 27.4968 32.5822 27.7907 32.1639L32.7 25.5232L33.2006 26.1868L37.505 32.1419C37.8174 32.6103 38.159 32.93 38.5785 33.09C38.9985 33.2502 39.4741 33.2419 40.037 33.0988ZM9.86066 24.1411L9.85765 24.1559V24.1709V24.1718C9.85765 24.6564 9.85495 25.1408 9.85001 25.6254L9.84985 25.6409L9.85286 25.6561C9.87217 25.7536 9.89285 25.8477 9.91322 25.9403C9.95488 26.1298 9.99524 26.3134 10.0199 26.5082L10.0199 26.5082L10.0201 26.5091C10.2601 28.3168 10.7978 30.0291 12.1136 31.3847C14.3206 33.7179 18.4958 34.2534 21.4228 32.5812C23.3946 31.4568 24.3218 29.6596 24.73 27.5358L24.7555 27.4032L24.6264 27.364C24.225 27.2419 23.8753 27.1997 23.586 27.3316C23.2907 27.4662 23.1027 27.7603 22.9702 28.195L22.9701 28.1955C22.4755 29.8387 21.4955 31.132 19.8429 31.6871C17.4452 32.4916 15.3251 32.1012 13.8298 30.8768C12.3601 29.6734 11.4718 27.6457 11.533 25.0923H24.7414H24.8855L24.8912 24.9482C25.0094 21.9729 24.4168 19.2776 21.9935 17.3712L21.9931 17.3709C17.847 14.1301 11.8502 16.3183 10.3899 21.5392L10.3895 21.5391L10.3874 21.5497L9.86066 24.1411ZM17.735 17.3678L17.7351 17.3678C20.862 17.3899 23.1881 19.9626 23.325 23.6648H11.569C11.6745 21.7854 12.3392 20.222 13.394 19.1247C14.477 17.998 15.979 17.354 17.735 17.3678Z" fill="#02A738" stroke="#02A738" stroke-width="0.3"/>
<circle cx="25" cy="25" r="24" stroke="white" stroke-width="2"/>
</g>
<defs>
<clipPath id="clip0_3015_1578">
<rect width="50" height="50" fill="white"/>
</clipPath>
</defs>
</svg>