<svg width="50" height="50" viewBox="0 0 50 50" fill="none" xmlns="http://www.w3.org/2000/svg">
<g clip-path="url(#clip0_3015_1538)">
<path d="M9.16699 8.67357C9.16699 4.43557 12.6026 1 16.8406 1H23.491V16.3471H16.8406C12.6026 16.3471 9.16699 12.9116 9.16699 8.67357V8.67357Z" fill="#02A738"/>
<path d="M16.3697 0.961554H24.1031V16.4282H16.3697C12.0987 16.4282 8.63636 12.9659 8.63636 8.6949C8.63636 4.42389 12.0987 0.961554 16.3697 0.961554Z" stroke="white" stroke-width="1.92311"/>
<path d="M16.3697 17.2667H24.1031V32.7334H16.3697C12.0987 32.7334 8.63636 29.2711 8.63636 25.0001C8.63636 20.7291 12.0987 17.2667 16.3697 17.2667Z" stroke="white" stroke-width="1.92311"/>
<path d="M16.3697 33.5717H24.1031V41.305C24.1031 45.576 20.6407 49.0384 16.3697 49.0384C12.0987 49.0384 8.63636 45.576 8.63636 41.305C8.63636 37.034 12.0987 33.5717 16.3697 33.5717Z" stroke="white" stroke-width="1.92311"/>
<path d="M32.7367 0.961554H23.9805V16.4282H32.7367C37.0078 16.4282 40.4701 12.9659 40.4701 8.6949C40.4701 4.42389 37.0077 0.961554 32.7367 0.961554Z" stroke="white" stroke-width="1.92311"/>
<path d="M32.7367 32.7334C37.0077 32.7334 40.4701 29.2711 40.4701 25.0001C40.4701 20.7291 37.0077 17.2667 32.7367 17.2667C28.4657 17.2667 25.0034 20.7291 25.0034 25.0001C25.0034 29.2711 28.4657 32.7334 32.7367 32.7334Z" stroke="white" stroke-width="1.92311"/>
<path d="M24.0215 16.3464H28.8293V16.3464C28.8293 19.0017 26.6767 21.1542 24.0215 21.1542V21.1542V16.3464Z" fill="white"/>
</g>
<defs>
<clipPath id="clip0_3015_1538">
<rect width="50" height="50" fill="white"/>
</clipPath>
</defs>
</svg>