<svg width="50" height="50" viewBox="0 0 50 50" fill="none" xmlns="http://www.w3.org/2000/svg">
<g clip-path="url(#clip0_837_365)">
<path d="M13.0792 33.4296C12.9421 33.4297 12.8064 33.4027 12.6798 33.3501C12.5533 33.2975 12.4383 33.2205 12.3417 33.1233L4.99166 25.7358C4.79752 25.5403 4.68857 25.2759 4.68857 25.0004C4.68857 24.7249 4.79752 24.4605 4.99166 24.265L28.8604 0.306665C29.1208 0.0462482 29.4854 -0.0475018 29.8167 0.0233315H44.2396C44.4443 0.0253072 44.644 0.0873409 44.8138 0.201739C44.9836 0.316138 45.1161 0.477868 45.1949 0.666872C45.2736 0.855877 45.2952 1.06384 45.2568 1.26497C45.2185 1.46611 45.1219 1.65156 44.9792 1.79833L13.8187 33.1233C13.7218 33.2206 13.6065 33.2978 13.4795 33.3503C13.3526 33.4029 13.2165 33.4298 13.0792 33.4296ZM7.19999 25.0004L13.0812 30.9108L41.7333 2.10666H30.0062L7.19999 25.0004Z" fill="white"/>
<path d="M44.5427 50.8958H29.8948C29.7577 50.8959 29.622 50.8689 29.4954 50.8163C29.3689 50.7638 29.2539 50.6867 29.1573 50.5896L16.3031 37.6708C16.109 37.4753 16 37.211 16 36.9354C16 36.6599 16.109 36.3955 16.3031 36.2L29.1593 23.3083C29.3554 23.1118 29.6213 23.001 29.8989 23H44.5427C44.7474 23.002 44.9471 23.064 45.1169 23.1784C45.2867 23.2928 45.4192 23.4545 45.498 23.6435C45.5767 23.8325 45.5983 24.0405 45.5599 24.2416C45.5216 24.4428 45.425 24.6282 45.2823 24.775L33.1781 36.9375L45.2823 49.1167C45.4284 49.2625 45.528 49.4484 45.5683 49.6509C45.6086 49.8535 45.5878 50.0634 45.5085 50.254C45.4292 50.4447 45.2951 50.6075 45.1232 50.7217C44.9512 50.836 44.7491 50.8966 44.5427 50.8958Z" fill="#02A738"/>
</g>
<defs>
<clipPath id="clip0_837_365">
<rect width="50" height="50" fill="white" transform="translate(0 0.000488281)"/>
</clipPath>
</defs>
</svg>