<svg width="51" height="50" viewBox="0 0 51 50" fill="none" xmlns="http://www.w3.org/2000/svg">
<path d="M26.504 29.0158C26.504 29.4204 26.832 29.7485 27.2367 29.7485C27.6415 29.7485 27.9695 29.4204 27.9695 29.0158C27.9695 27.698 26.9445 26.7133 25.7428 26.78V26.3749C25.7428 25.9702 25.4148 25.6422 25.0101 25.6422C24.6054 25.6422 24.2774 25.9702 24.2774 26.3749V26.78C23.0689 26.6985 22.0485 27.7187 22.0507 29.0158V30.0177C22.0446 31.2985 23.0689 32.3465 24.2774 32.2535V34.7961C23.8613 34.8463 23.5161 34.5344 23.5161 34.0258C23.5161 33.6211 23.1881 33.2931 22.7834 33.2931C22.3788 33.2931 22.0507 33.6211 22.0507 34.0258C22.0507 35.3065 23.0689 36.3546 24.2774 36.2615V36.6668C24.2774 37.0714 24.6054 37.3995 25.0101 37.3995C25.4148 37.3995 25.7428 37.0714 25.7428 36.6668V36.2615C26.9398 36.3281 27.9727 35.3338 27.9695 34.0258V33.0237C27.9724 31.7057 26.9444 30.7215 25.7428 30.788V28.2454C26.1464 28.1762 26.504 28.5213 26.504 29.0158ZM24.2774 30.7881C23.8614 30.8385 23.5167 30.5263 23.5161 30.0178V29.0159C23.5152 28.5322 23.875 28.1705 24.2774 28.2455V30.7881ZM26.504 33.0238V34.0259C26.4979 34.5069 26.1509 34.8734 25.7428 34.7962V32.2536C26.1464 32.184 26.5048 32.5295 26.504 33.0238ZM28.3806 7.7952C28.3806 5.93674 26.8685 4.42471 25.0101 4.42471C23.1516 4.42471 21.6396 5.93674 21.6396 7.7952C21.6396 9.65365 23.1516 11.1657 25.0101 11.1657C26.8685 11.1657 28.3806 9.65365 28.3806 7.7952ZM23.105 7.7952C23.105 6.74478 23.9597 5.89014 25.0101 5.89014C26.0605 5.89014 26.9151 6.74478 26.9151 7.7952C26.9151 8.84561 26.0605 9.70025 25.0101 9.70025C23.9597 9.70025 23.105 8.84561 23.105 7.7952ZM25.0101 23.1251C20.3807 23.1251 16.6144 26.8915 16.6144 31.5209C16.6144 36.1502 20.3807 39.9166 25.0101 39.9166C29.6396 39.9166 33.4058 36.1502 33.4058 31.5209C33.4058 26.8915 29.6396 23.1251 25.0101 23.1251ZM25.0101 38.4512C21.1887 38.4512 18.0798 35.3422 18.0798 31.5209C18.0798 27.6995 21.1887 24.5906 25.0101 24.5906C28.8314 24.5906 31.9404 27.6995 31.9404 31.5209C31.9404 35.3422 28.8314 38.4512 25.0101 38.4512ZM46.7347 18.9033C48.4306 19.0094 50.0345 17.7762 50.02 15.9725V13.7743C50.0079 13.5644 49.9389 13.2984 49.6351 13.1294L26.7864 0.462489C25.6742 -0.154163 24.346 -0.154163 23.2338 0.462489L14.0153 5.57312C13.6613 5.76929 13.5334 6.21527 13.7297 6.56922C13.9259 6.92317 14.372 7.05115 14.7258 6.85478L23.9443 1.74415C24.6118 1.37418 25.4086 1.37428 26.0759 1.74415L46.4546 13.0416H3.5657L11.7014 8.53133C12.0553 8.33516 12.1832 7.88918 11.9869 7.53523C11.7908 7.18128 11.3448 7.0534 10.9908 7.24967L0.385231 13.1293C0.216804 13.2279 -0.00281435 13.4389 0.000116503 13.7743V15.9725C-0.0155147 17.6978 1.54409 19.0917 3.28541 18.9033L5.86183 22.5299V40.5118L3.28541 44.1383H1.70978C0.767121 44.1383 0.000116503 44.9053 0.000116503 45.848V48.2903C0.000116503 49.233 0.767121 50 1.70978 50H48.3104C49.253 50 50.02 49.233 50.02 48.2903V45.848C50.02 44.9053 49.253 44.1383 48.3104 44.1383H46.7347L44.1583 40.5118V22.5299L46.7347 18.9033ZM2.93097 17.4379C2.12293 17.4379 1.46554 16.7805 1.46554 15.9725V14.507H48.5546V15.9725C48.5546 16.7805 47.8972 17.4379 47.0892 17.4379H2.93097ZM37.5394 32.15C37.9441 32.15 38.2721 31.822 38.2721 31.4173V23.0288H42.6929V40.0129H38.2721V34.8366C38.2721 34.432 37.9441 34.1039 37.5394 34.1039C37.1346 34.1039 36.8067 34.432 36.8067 34.8366V40.5118L34.2303 44.1383H15.79L13.2136 40.5118V22.5299L15.79 18.9033H34.2304L36.8068 22.5299V31.4173C36.8067 31.822 37.1347 32.15 37.5394 32.15ZM5.0831 18.9033H13.9924L12.1027 21.5634H6.97282L5.0831 18.9033ZM11.7482 23.0288V40.0129H7.32725V23.0288H11.7482ZM6.97282 41.4783H12.1026L13.9923 44.1383H5.0831L6.97282 41.4783ZM48.3104 45.6037C48.4451 45.6037 48.5546 45.7133 48.5546 45.848V48.2903C48.5546 48.425 48.4451 48.5346 48.3104 48.5346H1.70978C1.57516 48.5346 1.46554 48.425 1.46554 48.2903V45.848C1.46554 45.7133 1.57516 45.6037 1.70978 45.6037H48.3104ZM44.9372 44.1383H36.0279L37.9178 41.4783H43.0474L44.9372 44.1383ZM43.0473 21.5634H37.9177L36.0279 18.9033H44.9371L43.0473 21.5634Z" fill="black"/>
</svg>