<svg width="62" height="50" viewBox="0 0 62 50" fill="none" xmlns="http://www.w3.org/2000/svg">
<path d="M58.8835 11.3473L34.0436 0.701403C31.8598 -0.234472 29.3536 -0.233739 27.1671 0.703235L2.3326 11.3467C0.893857 11.9632 0 13.3185 0 14.8837C0 16.448 0.893246 17.8026 2.33114 18.4188L5.26677 19.677C5.26372 19.7073 5.26213 19.7381 5.26213 19.7691V33.6611C4.1274 34.0444 3.30781 35.1183 3.30781 36.3808C3.30781 37.1127 3.58361 37.7812 4.03616 38.2888C3.53561 38.7795 3.20325 39.4447 3.13461 40.1985L2.4313 47.9354C2.38329 48.4639 2.56101 48.9916 2.91878 49.3834C3.27654 49.7752 3.78613 50 4.31673 50H8.03958C8.57018 50 9.07977 49.7752 9.43753 49.3834C9.79542 48.9916 9.97302 48.4638 9.92501 47.9354L9.2217 40.1985C9.15318 39.4448 8.8207 38.7796 8.32015 38.2888C8.7727 37.7813 9.0485 37.1128 9.0485 36.3808C9.0485 35.1184 8.22891 34.0445 7.09418 33.6611V20.4602L12.1068 22.6085C12.1037 22.6388 12.1021 22.6694 12.1021 22.7005V29.6948C12.1021 32.614 14.1009 35.3145 17.7304 37.2991C21.185 39.188 25.7581 40.2283 30.6071 40.2283C35.4561 40.2283 40.0292 39.188 43.4837 37.2991C47.1132 35.3145 49.1121 32.614 49.1121 29.6948V22.7005C49.1121 22.6694 49.1105 22.6388 49.1074 22.6086L58.882 18.4195C60.3207 17.8029 61.2146 16.4475 61.2146 14.8824C61.2147 13.3181 60.3214 11.9635 58.8835 11.3473ZM8.08466 48.1479C8.06658 48.1678 8.04691 48.1678 8.03958 48.1678H4.31673C4.30928 48.1678 4.28973 48.1678 4.27166 48.1479C4.25346 48.128 4.25529 48.1086 4.2559 48.1012L4.95921 40.3643C5.01698 39.7298 5.54099 39.2512 6.17822 39.2512C6.81532 39.2512 7.33933 39.7298 7.3971 40.3643L8.10041 48.1011C8.10115 48.1086 8.10286 48.128 8.08466 48.1479ZM6.17822 37.419C5.60572 37.419 5.13998 36.9533 5.13998 36.3808C5.13998 35.8083 5.60572 35.3426 6.17822 35.3426C6.75071 35.3426 7.21645 35.8083 7.21645 36.3808C7.21645 36.9533 6.75071 37.419 6.17822 37.419ZM47.28 25.7863C47.28 28.1552 45.3303 30.468 41.9309 32.1318C41.4764 32.3542 41.2884 32.9029 41.5109 33.3572C41.6698 33.6821 41.9955 33.8709 42.3344 33.8709C42.4696 33.8709 42.6067 33.8408 42.7365 33.7773C44.622 32.8545 46.1327 31.7303 47.2098 30.4802C46.8663 32.4121 45.2622 34.2388 42.605 35.6917C39.4153 37.4358 35.1546 38.3962 30.6073 38.3962C26.0601 38.3962 21.7993 37.4358 18.6096 35.6917C15.9622 34.244 14.3596 32.4253 14.0083 30.5011C14.9343 31.5685 16.1837 32.5447 17.7306 33.3906C21.1851 35.2794 25.7582 36.3197 30.6072 36.3197C31.9638 36.3197 33.3168 36.2372 34.6286 36.0745C35.1307 36.0122 35.4873 35.5547 35.425 35.0526C35.3627 34.5505 34.9059 34.1938 34.4031 34.2562C33.1658 34.4098 31.8886 34.4876 30.6072 34.4876C26.06 34.4876 21.7992 33.5271 18.6095 31.783C15.5947 30.1346 13.9344 28.005 13.9344 25.7863V23.3918L27.171 29.0648C28.2623 29.5325 29.4339 29.7663 30.6061 29.7663C31.7797 29.7663 32.9537 29.5319 34.0476 29.0631L47.28 23.392V25.7863ZM58.1603 16.7355L33.3257 27.3789C31.5981 28.1193 29.6178 28.1199 27.8928 27.3807L8.91268 19.2462L26.3036 16.2216C27.0858 17.1474 28.6799 17.7536 30.6072 17.7536C33.3578 17.7536 35.4319 16.5195 35.4319 14.8832C35.4319 13.2468 33.3578 12.0128 30.6072 12.0128C28.1091 12.0128 26.1692 13.0307 25.8342 14.4434L6.02126 17.8892C5.96312 17.8993 5.90754 17.9151 5.85429 17.9352L3.05301 16.7345C2.28851 16.4072 1.83218 15.7151 1.83218 14.8837C1.83218 14.0514 2.28912 13.3586 3.05436 13.0306L27.8889 2.38713C28.7535 2.01666 29.6812 1.83137 30.6087 1.83137C31.5345 1.83137 32.4602 2.01605 33.3219 2.38529L58.1618 13.0312C58.9262 13.3588 59.3825 14.0509 59.3825 14.8823C59.3825 15.7149 58.9256 16.4075 58.1603 16.7355ZM27.6147 14.8833C27.6147 14.6164 28.6436 13.8451 30.6072 13.8451C32.5708 13.8451 33.5998 14.6164 33.5998 14.8833C33.5998 15.1502 32.5708 15.9215 30.6072 15.9215C28.6436 15.9215 27.6147 15.1501 27.6147 14.8833Z" fill="black"/>
<path d="M37.4465 35.5656C37.5148 35.5656 37.5841 35.5579 37.6535 35.5419C38.3449 35.3821 39.0259 35.1967 39.6778 34.9904C40.1602 34.8378 40.4275 34.3231 40.275 33.8408C40.1224 33.3584 39.6078 33.0908 39.1252 33.2435C38.5194 33.4351 37.8855 33.6077 37.2412 33.7566C36.7482 33.8705 36.4409 34.3623 36.5547 34.8553C36.6527 35.279 37.0296 35.5656 37.4465 35.5656Z" fill="black"/>
</svg>