<svg width="61" height="61" viewBox="0 0 61 61" fill="none" xmlns="http://www.w3.org/2000/svg">
<path d="M16.7258 39.3687H8.85484C7.81109 39.3687 6.81008 39.783 6.07203 40.5206C5.33399 41.2581 4.91936 42.2585 4.91936 43.3016C4.91936 44.3447 5.33399 45.345 6.07203 46.0826C6.81008 46.8202 7.81109 47.2345 8.85484 47.2345H16.7258C17.7696 47.2345 18.7706 46.8202 19.5086 46.0826C20.2467 45.345 20.6613 44.3447 20.6613 43.3016C20.6613 42.2585 20.2467 41.2581 19.5086 40.5206C18.7706 39.783 17.7696 39.3687 16.7258 39.3687ZM13.1662 41.3351L15.1339 45.268H12.4145L10.4467 41.3351H13.1662ZM6.8871 43.3016C6.8891 42.8798 7.02675 42.4698 7.27973 42.1322C7.53272 41.7946 7.88763 41.5472 8.29207 41.4266L10.2146 45.268H8.85484C8.33296 45.268 7.83246 45.0609 7.46344 44.6921C7.09441 44.3233 6.8871 43.8231 6.8871 43.3016ZM17.2886 45.1766L15.3661 41.3351H16.7258C17.1975 41.3345 17.6537 41.5037 18.0108 41.8118C18.3679 42.1198 18.6021 42.5461 18.6704 43.0125C18.7388 43.479 18.6367 43.9544 18.383 44.3518C18.1292 44.7493 17.7407 45.042 17.2886 45.1766Z" fill="#FF8285"/>
<path d="M56.0806 31.503H58.0484C58.8312 31.503 59.582 31.1922 60.1355 30.6391C60.689 30.0859 61 29.3356 61 28.5533C61 27.771 60.689 27.0207 60.1355 26.4676C59.582 25.9144 58.8312 25.6036 58.0484 25.6036H56.0806C55.4794 25.6066 54.8934 25.7931 54.4011 26.138C53.9088 26.4829 53.5336 26.9699 53.3258 27.5337L51.73 28.8119C49.9773 25.4812 47.1711 22.8237 43.7488 21.2538C44.8546 19.0053 45.369 16.5123 45.2435 14.01C45.1179 11.5077 44.3566 9.0786 43.0313 6.95187C41.7059 4.82514 39.8603 3.07088 37.6685 1.85457C35.4767 0.63826 33.011 0 30.5039 0C27.9969 0 25.5311 0.63826 23.3393 1.85457C21.1475 3.07088 19.3019 4.82514 17.9766 6.95187C16.6513 9.0786 15.8899 11.5077 15.7644 14.01C15.6388 16.5123 16.1532 19.0053 17.2591 21.2538C13.8368 22.8237 11.0306 25.4812 9.2779 28.8119L7.67419 27.5337C7.46637 26.9699 7.0912 26.4829 6.59889 26.138C6.10657 25.7931 5.5206 25.6066 4.91935 25.6036H2.95161C2.1688 25.6036 1.41804 25.9144 0.864507 26.4676C0.310973 27.0207 0 27.771 0 28.5533C0 29.3356 0.310973 30.0859 0.864507 30.6391C1.41804 31.1922 2.1688 31.503 2.95161 31.503H4.91935C4.93018 31.503 4.94002 31.503 4.95084 31.503L6.23577 33.6435C4.47302 34.0199 2.89258 34.9886 1.75787 36.3883C0.623164 37.788 0.00273815 39.534 0 41.3353V49.2012C0.00275044 50.69 0.485791 52.1381 1.37742 53.3308C1.81819 53.9129 2.34969 54.4205 2.95161 54.8341V57.0671C2.95161 58.1101 3.36624 59.1105 4.10429 59.8481C4.84234 60.5856 5.84334 61 6.8871 61H8.85484C9.89859 61 10.8996 60.5856 11.6376 59.8481C12.3757 59.1105 12.7903 58.1101 12.7903 57.0671V56.0838H48.2097V57.0671C48.2097 58.1101 48.6243 59.1105 49.3624 59.8481C50.1004 60.5856 51.1014 61 52.1452 61H54.1129C55.1567 61 56.1577 60.5856 56.8957 59.8481C57.6338 59.1105 58.0484 58.1101 58.0484 57.0671V54.8351C58.6499 54.4207 59.1814 53.9128 59.6226 53.3308C60.5138 52.1379 60.9968 50.6899 61 49.2012V41.3353C60.9979 39.5335 60.3778 37.7868 59.2431 36.3865C58.1083 34.9862 56.5275 34.017 54.7642 33.6406L56.0492 31.503C56.06 31.503 56.0698 31.503 56.0806 31.503ZM56.0806 27.5701H58.0484C58.3093 27.5701 58.5596 27.6737 58.7441 27.8581C58.9286 28.0425 59.0323 28.2925 59.0323 28.5533C59.0323 28.8141 58.9286 29.0642 58.7441 29.2486C58.5596 29.433 58.3093 29.5365 58.0484 29.5365H56.0806C55.8197 29.5365 55.5695 29.433 55.3849 29.2486C55.2004 29.0642 55.0968 28.8141 55.0968 28.5533C55.0968 28.2925 55.2004 28.0425 55.3849 27.8581C55.5695 27.6737 55.8197 27.5701 56.0806 27.5701ZM30.5 2.00603C33.0297 2.00603 35.5026 2.75568 37.6059 4.16019C39.7093 5.56469 41.3486 7.56097 42.3167 9.89658C43.2848 12.2322 43.5381 14.8022 43.0446 17.2817C42.551 19.7612 41.3329 22.0387 39.5441 23.8263C37.7554 25.6139 35.4763 26.8313 32.9953 27.3245C30.5142 27.8177 27.9425 27.5645 25.6054 26.5971C23.2682 25.6297 21.2707 23.9914 19.8652 21.8894C18.4598 19.7874 17.7097 17.3161 17.7097 14.7881C17.7136 11.3992 19.0624 8.15036 21.4602 5.75411C23.858 3.35786 27.109 2.00993 30.5 2.00603ZM20.7685 25.8475C23.4521 28.2242 26.9137 29.5365 30.4995 29.5365C34.0853 29.5365 37.5469 28.2242 40.2305 25.8475C41.4854 26.1406 42.6608 26.7051 43.6738 27.5014C44.6867 28.2976 45.5127 29.3061 46.0934 30.4559C46.2006 30.6697 46.2514 30.9074 46.2407 31.1464C46.2301 31.3854 46.1585 31.6177 46.0326 31.8212C45.9068 32.0247 45.731 32.1926 45.5219 32.309C45.3128 32.4254 45.0773 32.4864 44.838 32.4862H16.162C15.9227 32.4864 15.6872 32.4254 15.4781 32.309C15.269 32.1926 15.0932 32.0247 14.9674 31.8212C14.8415 31.6177 14.7699 31.3854 14.7593 31.1464C14.7486 30.9074 14.7994 30.6697 14.9066 30.4559C15.4872 29.3062 16.313 28.2978 17.3258 27.5015C18.3386 26.7053 19.5138 26.1407 20.7685 25.8475ZM1.96774 28.5533C1.96774 28.2925 2.0714 28.0425 2.25591 27.8581C2.44042 27.6737 2.69067 27.5701 2.95161 27.5701H4.91935C5.18029 27.5701 5.43054 27.6737 5.61506 27.8581C5.79957 28.0425 5.90323 28.2925 5.90323 28.5533C5.90323 28.8141 5.79957 29.0642 5.61506 29.2486C5.43054 29.433 5.18029 29.5365 4.91935 29.5365H2.95161C2.69067 29.5365 2.44042 29.433 2.25591 29.2486C2.0714 29.0642 1.96774 28.8141 1.96774 28.5533ZM10.8226 57.0671C10.8226 57.5886 10.6153 58.0888 10.2462 58.4576C9.87722 58.8264 9.37672 59.0335 8.85484 59.0335H6.8871C6.36522 59.0335 5.86472 58.8264 5.49569 58.4576C5.12667 58.0888 4.91935 57.5886 4.91935 57.0671V55.782C5.55699 55.9781 6.21995 56.0798 6.8871 56.0838H10.8226V57.0671ZM10.1929 54.1174C11.7656 52.8513 13.7225 52.1578 15.7419 52.1509H45.2581C47.2775 52.1578 49.2344 52.8513 50.8071 54.1174H10.1929ZM56.0806 57.0671C56.0806 57.5886 55.8733 58.0888 55.5043 58.4576C55.1353 58.8264 54.6348 59.0335 54.1129 59.0335H52.1452C51.6233 59.0335 51.1228 58.8264 50.7538 58.4576C50.3847 58.0888 50.1774 57.5886 50.1774 57.0671V56.0838H54.1129C54.7801 56.0798 55.443 55.9781 56.0806 55.782V57.0671ZM52.2731 34.9374C52.3589 35.0888 52.4833 35.2146 52.6337 35.3022C52.7841 35.3898 52.955 35.4359 53.129 35.4359C54.6942 35.4375 56.1948 36.0595 57.3015 37.1656C58.4082 38.2716 59.0307 39.7712 59.0323 41.3353V49.2012C59.0323 50.5051 58.514 51.7555 57.5914 52.6775C56.6689 53.5994 55.4176 54.1174 54.1129 54.1174H53.5826C52.5678 52.8927 51.2963 51.9056 49.8579 51.226C48.4194 50.5464 46.8491 50.1909 45.2581 50.1844H15.7419C14.1509 50.1909 12.5806 50.5464 11.1421 51.226C9.7037 51.9056 8.43216 52.8927 7.4174 54.1174H6.8871C5.5824 54.1174 4.33115 53.5994 3.40859 52.6775C2.48603 51.7555 1.96774 50.5051 1.96774 49.2012V41.3353C1.9693 39.7712 2.59175 38.2716 3.69848 37.1656C4.80521 36.0595 6.30581 35.4375 7.87097 35.4359C8.04511 35.4359 8.21612 35.3897 8.36654 35.302C8.51696 35.2143 8.64139 35.0883 8.72713 34.9368C8.81287 34.7853 8.85685 34.6138 8.85457 34.4398C8.85229 34.2658 8.80383 34.0955 8.71415 33.9463L6.82019 30.7912C7.10566 30.5489 7.34239 30.2546 7.51776 29.9239L9.01521 31.1205C9.13357 31.215 9.27215 31.2809 9.42017 31.313C9.56818 31.3452 9.72163 31.3428 9.86855 31.3059C10.0155 31.2691 10.1519 31.1989 10.2672 31.1007C10.3825 31.0026 10.4736 30.8791 10.5333 30.74C12.034 27.2776 14.7819 24.5051 18.2321 22.9725C18.5324 23.4192 18.8569 23.8492 19.2042 24.2605C16.5748 25.1825 14.4042 27.085 13.1465 29.57C12.888 30.0839 12.7655 30.6554 12.7906 31.2301C12.8157 31.8047 12.9876 32.3634 13.2899 32.8529C13.5922 33.3424 14.0148 33.7464 14.5176 34.0264C15.0203 34.3065 15.5865 34.4532 16.162 34.4527H44.838C45.4127 34.4527 45.978 34.3059 46.48 34.0261C46.982 33.7464 47.4041 33.3431 47.7062 32.8545C48.0084 32.3658 48.1805 31.8081 48.2063 31.2343C48.2321 30.6605 48.1106 30.0896 47.8535 29.5759C46.5955 27.0912 44.425 25.1888 41.7958 24.2664C42.1428 23.8549 42.4673 23.4249 42.7679 22.9784C46.2181 24.511 48.966 27.2835 50.4667 30.7459C50.5264 30.885 50.6175 31.0085 50.7328 31.1066C50.8481 31.2048 50.9845 31.275 51.1315 31.3118C51.2784 31.3487 51.4318 31.3511 51.5798 31.3189C51.7278 31.2868 51.8664 31.2209 51.9848 31.1264L53.4822 29.9298C53.6576 30.2605 53.8943 30.5548 54.1798 30.7971L52.2859 33.9522C52.1972 34.1008 52.1493 34.2701 52.1471 34.4431C52.1448 34.6161 52.1883 34.7866 52.2731 34.9374Z" fill="#FF8285"/>
<path d="M44.2742 39.3687C43.2304 39.3687 42.2294 39.783 41.4914 40.5206C40.7533 41.2581 40.3387 42.2585 40.3387 43.3016C40.3387 44.3447 40.7533 45.345 41.4914 46.0826C42.2294 46.8202 43.2304 47.2345 44.2742 47.2345H52.1452C53.1889 47.2345 54.1899 46.8202 54.928 46.0826C55.666 45.345 56.0807 44.3447 56.0807 43.3016C56.0807 42.2585 55.666 41.2581 54.928 40.5206C54.1899 39.783 53.1889 39.3687 52.1452 39.3687H44.2742ZM50.5533 41.3351L48.5855 45.268H45.8661L47.8338 41.3351H50.5533ZM42.3065 43.3016C42.3065 42.78 42.5138 42.2799 42.8828 41.9111C43.2518 41.5423 43.7523 41.3351 44.2742 41.3351H45.6339L43.7114 45.1766C43.307 45.056 42.9521 44.8086 42.6991 44.471C42.4461 44.1333 42.3085 43.7234 42.3065 43.3016ZM54.1129 43.3016C54.1129 43.8231 53.9056 44.3233 53.5366 44.6921C53.1675 45.0609 52.667 45.268 52.1452 45.268H50.7855L52.7079 41.4266C53.1124 41.5472 53.4673 41.7946 53.7203 42.1322C53.9733 42.4698 54.1109 42.8798 54.1129 43.3016Z" fill="#FF8285"/>
<path d="M25.6269 23.834L26.6836 22.778C26.9649 22.9136 27.2536 23.0335 27.5484 23.1368V24.6205C27.5484 24.8813 27.652 25.1314 27.8365 25.3158C28.0211 25.5002 28.2713 25.6038 28.5323 25.6038H32.4677C32.7287 25.6038 32.9789 25.5002 33.1634 25.3158C33.348 25.1314 33.4516 24.8813 33.4516 24.6205V23.1339C33.7464 23.0305 34.0351 22.9107 34.3164 22.775L35.3731 23.834C35.5576 24.0183 35.8078 24.1218 36.0687 24.1218C36.3296 24.1218 36.5798 24.0183 36.7643 23.834L39.5487 21.0514C39.7331 20.867 39.8367 20.617 39.8367 20.3563C39.8367 20.0955 39.7331 19.8455 39.5487 19.6611L38.493 18.6051C38.628 18.3226 38.7479 18.0332 38.8521 17.7379H40.3387C40.5996 17.7379 40.8499 17.6343 41.0344 17.4499C41.2189 17.2655 41.3226 17.0155 41.3226 16.7547V12.8218C41.3226 12.561 41.2189 12.3109 41.0344 12.1265C40.8499 11.9421 40.5996 11.8385 40.3387 11.8385H38.8521C38.7478 11.5443 38.6279 11.2558 38.493 10.9743L39.5516 9.91827C39.7361 9.73388 39.8397 9.48384 39.8397 9.22312C39.8397 8.9624 39.7361 8.71236 39.5516 8.52797L36.7643 5.74248C36.5763 5.56483 36.3274 5.46585 36.0687 5.46585C35.81 5.46585 35.5611 5.56483 35.3731 5.74248L34.3164 6.80142C34.0351 6.66574 33.7464 6.54593 33.4516 6.44254V4.95589C33.4516 4.69512 33.348 4.44503 33.1634 4.26064C32.9789 4.07625 32.7287 3.97266 32.4677 3.97266H28.5323C28.2713 3.97266 28.0211 4.07625 27.8365 4.26064C27.652 4.44503 27.5484 4.69512 27.5484 4.95589V6.44254C27.2536 6.54593 26.9649 6.66574 26.6836 6.80142L25.6269 5.74248C25.4424 5.55815 25.1922 5.4546 24.9313 5.4546C24.6704 5.4546 24.4202 5.55815 24.2357 5.74248L21.4484 8.52797C21.2639 8.71236 21.1603 8.9624 21.1603 9.22312C21.1603 9.48384 21.2639 9.73388 21.4484 9.91827L22.5041 10.9743C22.3691 11.2558 22.2493 11.5443 22.145 11.8385H20.6613C20.4003 11.8385 20.1501 11.9421 19.9656 12.1265C19.7811 12.3109 19.6774 12.561 19.6774 12.8218V16.7547C19.6774 17.0155 19.7811 17.2655 19.9656 17.4499C20.1501 17.6343 20.4003 17.7379 20.6613 17.7379H22.1479C22.2522 18.0322 22.3721 18.3206 22.507 18.6022L21.4484 19.6582C21.2639 19.8426 21.1603 20.0926 21.1603 20.3533C21.1603 20.614 21.2639 20.8641 21.4484 21.0485L24.2327 23.831C24.4205 24.0099 24.6698 24.11 24.9292 24.1105C25.1886 24.1111 25.4384 24.0121 25.6269 23.834ZM24.5633 18.2748C24.2344 17.7249 23.9865 17.1305 23.8274 16.5099C23.773 16.2987 23.65 16.1115 23.4776 15.9778C23.3052 15.8442 23.0932 15.7716 22.875 15.7715H21.6452V13.805H22.875C23.0928 13.805 23.3045 13.7329 23.4768 13.5998C23.6492 13.4667 23.7725 13.2802 23.8274 13.0695C23.9865 12.4489 24.2344 11.8545 24.5633 11.3046C24.677 11.1165 24.7243 10.8958 24.6977 10.6776C24.6711 10.4595 24.5722 10.2565 24.4167 10.1011L23.5381 9.22312L24.9313 7.83086L25.8099 8.70889C25.9652 8.86444 26.1683 8.96349 26.3866 8.99022C26.6048 9.01695 26.8258 8.96983 27.0141 8.85637C27.5643 8.52724 28.1591 8.2792 28.7802 8.11993C28.991 8.06508 29.1776 7.94187 29.3108 7.76963C29.444 7.59738 29.5162 7.38584 29.5161 7.16816V5.93912H31.4839V7.16816C31.4838 7.38584 31.556 7.59738 31.6892 7.76963C31.8224 7.94187 32.009 8.06508 32.2198 8.11993C32.8426 8.27875 33.4391 8.5268 33.9908 8.85637C34.1791 8.96983 34.4001 9.01695 34.6184 8.99022C34.8366 8.96349 35.0397 8.86444 35.195 8.70889L36.0736 7.83086L37.4668 9.22312L36.5882 10.1011C36.4327 10.2565 36.3338 10.4595 36.3072 10.6776C36.2806 10.8958 36.3279 11.1165 36.4416 11.3046C36.771 11.856 37.0188 12.4521 37.1775 13.0744C37.2331 13.2834 37.3561 13.4682 37.5273 13.6002C37.6986 13.7323 37.9087 13.8042 38.125 13.805H39.3548V15.7715H38.125C37.9072 15.7714 37.6955 15.8436 37.5231 15.9767C37.3508 16.1098 37.2275 16.2963 37.1726 16.5069C37.0135 17.1275 36.7656 17.7219 36.4367 18.2718C36.323 18.4599 36.2757 18.6807 36.3023 18.8988C36.3288 19.117 36.4278 19.3199 36.5833 19.4753L37.4619 20.3533L36.0687 21.7456L35.1901 20.8675C35.0347 20.712 34.8317 20.613 34.6134 20.5862C34.3952 20.5595 34.1742 20.6066 33.9858 20.7201C33.4342 21.0496 32.8377 21.2977 32.2149 21.4565C32.005 21.5123 31.8195 21.6359 31.6873 21.808C31.555 21.9802 31.4835 22.1912 31.4839 22.4083V23.6373H29.5161V22.4083C29.5162 22.1906 29.444 21.9791 29.3108 21.8068C29.1776 21.6346 28.991 21.5114 28.7802 21.4565C28.1591 21.2972 27.5643 21.0492 27.0141 20.7201C26.8258 20.6066 26.6048 20.5595 26.3866 20.5862C26.1683 20.613 25.9652 20.712 25.8099 20.8675L24.9313 21.7456L23.5381 20.3533L24.4167 19.4753C24.5722 19.3199 24.6711 19.117 24.6977 18.8988C24.7243 18.6807 24.677 18.4599 24.5633 18.2718V18.2748Z" fill="#FF8285"/>
<path d="M30.5 18.7208C31.2784 18.7208 32.0393 18.4902 32.6864 18.058C33.3336 17.6259 33.838 17.0116 34.1359 16.293C34.4338 15.5743 34.5117 14.7836 34.3599 14.0206C34.208 13.2577 33.8332 12.5569 33.2828 12.0069C32.7324 11.4569 32.0312 11.0823 31.2678 10.9306C30.5044 10.7788 29.7131 10.8567 28.994 11.1544C28.2748 11.452 27.6602 11.9561 27.2278 12.6029C26.7953 13.2497 26.5645 14.0101 26.5645 14.7879C26.5645 15.831 26.9791 16.8313 27.7172 17.5689C28.4552 18.3065 29.4562 18.7208 30.5 18.7208ZM30.5 12.8214C30.8892 12.8214 31.2696 12.9368 31.5932 13.1529C31.9168 13.3689 32.169 13.6761 32.318 14.0354C32.4669 14.3947 32.5059 14.7901 32.4299 15.1716C32.354 15.553 32.1666 15.9034 31.8914 16.1784C31.6162 16.4534 31.2656 16.6407 30.8839 16.7166C30.5022 16.7925 30.1065 16.7535 29.747 16.6047C29.3874 16.4559 29.0801 16.2038 28.8639 15.8804C28.6477 15.557 28.5323 15.1768 28.5323 14.7879C28.5323 14.2664 28.7396 13.7662 29.1086 13.3974C29.4776 13.0286 29.9781 12.8214 30.5 12.8214Z" fill="#FF8285"/>
</svg>