<svg width="50" height="50" viewBox="0 0 50 50" fill="none" xmlns="http://www.w3.org/2000/svg">
<g clip-path="url(#clip0_3015_1557)">
<path d="M49.4575 11.2916C49.4755 11.3581 49.4848 11.4267 49.4848 11.4957V22.2093C49.4848 22.4892 49.3351 22.7477 49.0923 22.887L40.1002 28.0641V38.3257C40.1002 38.605 39.9517 38.8627 39.7096 39.0034L20.9392 49.8088C20.8962 49.8332 20.8494 49.8488 20.8025 49.8654C20.7849 49.8713 20.7683 49.882 20.7498 49.8869C20.6185 49.9215 20.4806 49.9215 20.3494 49.8869C20.3279 49.881 20.3084 49.8693 20.2879 49.8615C20.2449 49.8459 20.2 49.8322 20.159 49.8088L1.39253 39.0034C1.14988 38.864 1 38.6055 1 38.3257V6.18473C1 6.11443 1.00976 6.04608 1.02734 5.97968C1.0332 5.95722 1.04687 5.93671 1.05468 5.91426C1.06933 5.87324 1.083 5.83126 1.10448 5.79318C1.11913 5.76779 1.14061 5.74728 1.15819 5.72385C1.18064 5.6926 1.20115 5.66038 1.22751 5.63304C1.24997 5.61058 1.27927 5.59398 1.30465 5.57445C1.33297 5.55101 1.35836 5.52563 1.39058 5.50707L10.7753 0.104355C11.0171 -0.034785 11.3146 -0.034785 11.5564 0.104355L20.9402 5.50707H20.9421C20.9734 5.5266 20.9997 5.55101 21.028 5.57347C21.0534 5.593 21.0818 5.61058 21.1042 5.63206C21.1316 5.66038 21.1511 5.6926 21.1745 5.72385C21.1911 5.74728 21.2136 5.76779 21.2272 5.79318C21.2497 5.83223 21.2624 5.87324 21.278 5.91426C21.2858 5.93671 21.2995 5.95722 21.3054 5.98065C21.3233 6.0472 21.3325 6.11581 21.3327 6.18473V26.2597L29.1521 21.7572V11.4947C29.1521 11.4263 29.1619 11.357 29.1795 11.2916C29.1863 11.2682 29.199 11.2476 29.2068 11.2252C29.2225 11.1842 29.2361 11.1422 29.2576 11.1041C29.2723 11.0787 29.2937 11.0582 29.3103 11.0348C29.3338 11.0035 29.3533 10.9713 29.3806 10.944C29.4031 10.9215 29.4314 10.9049 29.4568 10.8854C29.4861 10.8619 29.5115 10.8366 29.5427 10.818L38.9284 5.41529C39.1702 5.27595 39.4678 5.27595 39.7096 5.41529L49.0933 10.818C49.1265 10.8375 49.1519 10.8619 49.1812 10.8844C49.2056 10.9039 49.2339 10.9215 49.2564 10.943C49.2837 10.9713 49.3032 11.0035 49.3267 11.0348C49.3442 11.0582 49.3657 11.0787 49.3794 11.1041C49.4018 11.1422 49.4145 11.1842 49.4302 11.2252C49.439 11.2476 49.4516 11.2682 49.4575 11.2916ZM47.9206 21.7572V12.8481L44.6368 14.7385L40.1002 17.3505V26.2597L47.9206 21.7572ZM38.5368 37.8736V28.9586L34.0745 31.5071L21.3317 38.7797V47.7787L38.5368 37.8736ZM2.56428 7.53712V37.8736L19.7674 47.7778V38.7807L10.7802 33.6944L10.7772 33.6924L10.7733 33.6905C10.7431 33.6729 10.7177 33.6475 10.6894 33.626C10.6649 33.6065 10.6366 33.5909 10.6151 33.5694L10.6132 33.5665C10.5878 33.542 10.5702 33.5118 10.5487 33.4844C10.5292 33.4581 10.5058 33.4356 10.4902 33.4083L10.4892 33.4053C10.4716 33.3761 10.4609 33.3409 10.4482 33.3077C10.4355 33.2784 10.4189 33.2511 10.4111 33.2198C10.4013 33.1827 10.3993 33.1427 10.3954 33.1046C10.3915 33.0753 10.3837 33.046 10.3837 33.0167V33.0148V12.0396L5.84809 9.42656L2.56428 7.53712ZM11.1668 1.68426L3.34837 6.18473L11.1649 10.6852L18.9824 6.18376L11.1649 1.68426H11.1668ZM15.2328 29.771L19.7684 27.1599V7.53712L16.4846 9.42754L11.948 12.0396V31.6624L15.2328 29.771ZM39.319 6.99519L31.5015 11.4957L39.319 15.9961L47.1355 11.4947L39.319 6.99519ZM38.5368 17.3505L34.0002 14.7385L30.7164 12.8481V21.7572L35.2521 24.3683L38.5368 26.2597V17.3505ZM20.5486 37.4274L32.0151 30.8812L37.7469 27.6101L29.9353 23.1125L20.9411 28.2907L12.7438 33.0099L20.5486 37.4274Z" fill="white"/>
</g>
<defs>
<clipPath id="clip0_3015_1557">
<rect width="48.4848" height="50" fill="white" transform="translate(1)"/>
</clipPath>
</defs>
</svg>