<svg width="50" height="50" viewBox="0 0 50 50" fill="none" xmlns="http://www.w3.org/2000/svg">
<g clip-path="url(#clip0_3015_1633)">
<path d="M19.7277 35.0391C19.5388 35.0391 19.3486 34.9742 19.1933 34.842L13.8517 30.2936C13.6675 30.1365 13.5615 29.9071 13.5615 29.6648C13.5615 29.423 13.6679 29.1936 13.8517 29.0365L19.1933 24.4881C19.5402 24.1924 20.0612 24.2343 20.3569 24.5812C20.6522 24.9285 20.6107 25.4495 20.2634 25.7448L15.6602 29.6648L20.2634 33.5849C20.6107 33.8806 20.6522 34.4016 20.3569 34.7485C20.1934 34.9406 19.9612 35.0391 19.7277 35.0391Z" fill="white"/>
<path d="M30.2727 35.0391C30.0391 35.0391 29.8069 34.9406 29.6439 34.7485C29.3481 34.4016 29.3901 33.8806 29.7369 33.5849L34.3401 29.6648L29.7369 25.7448C29.3901 25.4495 29.3481 24.9285 29.6439 24.5812C29.9392 24.2343 30.4606 24.1924 30.807 24.4881L36.1486 29.0365C36.3329 29.1936 36.4388 29.423 36.4388 29.6648C36.4388 29.9071 36.3329 30.1365 36.1486 30.2936L30.807 34.842C30.6518 34.9742 30.4615 35.0391 30.2727 35.0391Z" fill="white"/>
<path d="M23.109 38.4505C23.0523 38.4505 22.9952 38.4445 22.9376 38.4326C22.4917 38.3386 22.2061 37.9005 22.3001 37.4546L25.6292 21.6486C25.7232 21.2027 26.1608 20.9171 26.6071 21.0111C27.053 21.105 27.3386 21.5426 27.2447 21.989L23.9156 37.795C23.8336 38.1838 23.4909 38.4505 23.109 38.4505Z" fill="white"/>
<path d="M44.4575 47.0619H5.54245C2.48655 47.0619 0 44.5758 0 41.5195V8.49045C0 5.43455 2.48655 2.948 5.54245 2.948H44.4575C47.5135 2.948 50 5.43455 50 8.49045V41.5195C50 44.5758 47.5135 47.0619 44.4575 47.0619ZM5.54245 4.59894C3.39678 4.59894 1.65094 6.34478 1.65094 8.49045V41.5195C1.65094 43.6651 3.39678 45.411 5.54245 45.411H44.4575C46.6032 45.411 48.3491 43.6651 48.3491 41.5195V8.49045C48.3491 6.34478 46.6032 4.59894 44.4575 4.59894H5.54245Z" fill="white"/>
<path d="M49.1745 16.1663H0.825472C0.369435 16.1663 0 15.7969 0 15.3409C0 14.8853 0.369435 14.5154 0.825472 14.5154H49.1745C49.6306 14.5154 50 14.8853 50 15.3409C50 15.7969 49.6306 16.1663 49.1745 16.1663Z" fill="white"/>
<path d="M14.104 12.2163C12.664 12.2163 11.4917 11.044 11.4917 9.604C11.4917 8.16357 12.664 6.9917 14.104 6.9917C15.5444 6.9917 16.7163 8.16357 16.7163 9.604C16.7163 11.044 15.5444 12.2163 14.104 12.2163Z" fill="#02A738"/>
<path d="M6.07764 12.1909C4.63721 12.1909 3.46533 11.019 3.46533 9.57861C3.46533 8.13818 4.63721 6.96631 6.07764 6.96631C7.51807 6.96631 8.68994 8.13818 8.68994 9.57861C8.68994 11.019 7.51807 12.1909 6.07764 12.1909Z" fill="#02A738"/>
<path d="M22.1304 12.2412C20.6904 12.2412 19.5186 11.0694 19.5186 9.62893C19.5186 8.18896 20.6904 7.01709 22.1304 7.01709C23.5708 7.01709 24.7427 8.18896 24.7427 9.62893C24.7427 11.0694 23.5708 12.2412 22.1304 12.2412Z" fill="#02A738"/>
</g>
<defs>
<clipPath id="clip0_3015_1633">
<rect width="50" height="50" fill="white"/>
</clipPath>
</defs>
</svg>