<svg width="54" height="54" viewBox="0 0 54 54" fill="none" xmlns="http://www.w3.org/2000/svg">
<g clip-path="url(#clip0_804_684)">
<path d="M38.397 0H15.6031C13.2996 0 11.4265 1.87523 11.4265 4.17973V49.8234C11.4265 52.1258 13.2996 54 15.6031 54H38.3959C40.6983 54 42.5725 52.1269 42.5725 49.8234V4.17973C42.5735 1.87523 40.6994 0 38.397 0ZM40.8871 49.8234C40.8871 51.1966 39.7702 52.3136 38.397 52.3136H15.6031C14.2299 52.3136 13.113 51.1966 13.113 49.8234V4.17973C13.113 2.80441 14.2299 1.68645 15.6031 1.68645H38.3959C39.7691 1.68645 40.886 2.80547 40.886 4.17973V49.8234H40.8871ZM18.6016 5.46855C18.6016 5.00238 18.9791 4.62586 19.4442 4.62586H34.5537C35.0199 4.62586 35.3964 5.00344 35.3964 5.46855C35.3964 5.93367 35.0188 6.31125 34.5537 6.31125H19.4453C18.9791 6.31125 18.6016 5.93367 18.6016 5.46855ZM29.1674 48.5346C29.1674 49.0008 28.7898 49.3773 28.3247 49.3773H25.6764C25.2102 49.3773 24.8337 48.9997 24.8337 48.5346C24.8337 48.0695 25.2113 47.6919 25.6764 47.6919H28.3247C28.7898 47.6919 29.1674 48.0684 29.1674 48.5346ZM36.6747 30.4583L34.8986 29.8814L35.7455 28.2182C36.0967 27.5263 35.9659 26.6952 35.4196 26.1478L34.0063 24.7377C33.4589 24.185 32.6268 24.0521 31.936 24.4055L30.2706 25.2524L29.6948 23.4784C29.4575 22.7401 28.7772 22.2444 28.0009 22.2444H25.9981C25.225 22.2444 24.5447 22.738 24.3021 23.4763L23.7263 25.2513L22.0651 24.4065C21.3754 24.0532 20.5422 24.185 19.9937 24.7345L18.5794 26.1489C18.0331 26.6952 17.9023 27.5263 18.2535 28.2192L19.1004 29.8804L17.3243 30.4573C16.5882 30.6967 16.0935 31.378 16.0935 32.1532V34.1529C16.0935 34.927 16.5882 35.6084 17.3243 35.8488L19.0994 36.4257L18.2493 38.0911C17.9012 38.7819 18.0341 39.612 18.5794 40.1583L19.9937 41.5726C20.5432 42.1221 21.3754 42.2539 22.0641 41.9006L23.7252 41.0527L24.3021 42.8277C24.5416 43.5639 25.2229 44.0585 25.9981 44.0585H28.0009C28.7793 44.0585 29.4596 43.5618 29.6937 42.8277L30.2706 41.0516L31.9328 41.8996C32.6247 42.2539 33.4579 42.1211 34.001 41.5726L35.4185 40.1583C35.967 39.6098 36.0967 38.7777 35.7444 38.089L34.8986 36.4257L36.6768 35.8488C37.4119 35.6073 37.9055 34.926 37.9055 34.1539V32.1543C37.9066 31.3812 37.413 30.7009 36.6747 30.4583ZM36.2201 34.1539C36.2201 34.2014 36.198 34.232 36.1537 34.2457L33.9894 34.9481C33.7395 35.0293 33.5423 35.2213 33.4547 35.4691C33.3788 35.6832 33.2944 35.8879 33.2026 36.0798C33.0887 36.3171 33.0919 36.5924 33.2111 36.8265L34.2436 38.8557C34.2658 38.899 34.2605 38.9327 34.2278 38.9654L32.8071 40.3829C32.7755 40.4146 32.7428 40.4198 32.7017 40.3988L30.6746 39.3641C30.4415 39.2449 30.1673 39.2418 29.93 39.3536C29.7275 39.4495 29.5239 39.5339 29.3066 39.613C29.0619 39.7016 28.8721 39.8978 28.7919 40.1446L28.0874 42.3109C28.0779 42.3415 28.06 42.3721 27.9999 42.3721H25.9981C25.9496 42.3721 25.9211 42.352 25.9063 42.3056L25.2039 40.1435C25.1237 39.8978 24.936 39.7016 24.6924 39.613C24.473 39.5318 24.2684 39.4474 24.0691 39.3525C23.9551 39.2987 23.8317 39.2713 23.7083 39.2713C23.5765 39.2713 23.4457 39.3019 23.3255 39.363L21.2973 40.3977C21.2689 40.4125 21.2309 40.423 21.1866 40.3787L19.7723 38.9644C19.7512 38.9433 19.7258 38.9074 19.7533 38.8526L20.7879 36.8255C20.9071 36.5913 20.9113 36.315 20.7974 36.0777C20.7078 35.891 20.6234 35.6885 20.539 35.4586C20.4504 35.216 20.2542 35.0272 20.0085 34.9471L17.8475 34.2446C17.801 34.2299 17.781 34.2014 17.781 34.1518V32.1521C17.781 32.1026 17.8 32.0752 17.8475 32.0604L20.0096 31.358C20.2564 31.2778 20.4536 31.088 20.5411 30.8433C20.6192 30.6271 20.7046 30.4235 20.8006 30.22C20.9124 29.9837 20.9082 29.7095 20.79 29.4764L19.7585 27.4535C19.729 27.3966 19.7491 27.3649 19.7733 27.3407L21.1876 25.9263C21.2225 25.8915 21.2562 25.8852 21.3005 25.9084L23.3276 26.9399C23.5607 27.058 23.8349 27.0622 24.0712 26.9504C24.2779 26.8523 24.4783 26.769 24.685 26.6962C24.9318 26.6087 25.1248 26.4115 25.205 26.1615L25.9063 23.9994C25.9211 23.953 25.9517 23.9309 25.9991 23.9309H28.002C28.0484 23.9309 28.0758 23.9509 28.0906 23.9973L28.793 26.1615C28.8742 26.4115 29.0683 26.6098 29.3161 26.6973C29.5218 26.769 29.7222 26.8523 29.93 26.9504C30.1662 27.0622 30.4404 27.058 30.6735 26.9399L32.7027 25.9073C32.7428 25.8862 32.7755 25.8915 32.8114 25.9274L34.2278 27.3407C34.2531 27.366 34.2721 27.3966 34.2436 27.4525L33.2121 29.4764C33.093 29.7095 33.0898 29.9837 33.2016 30.22C33.3007 30.4277 33.383 30.6292 33.4547 30.8338C33.5412 31.0827 33.7395 31.2757 33.9905 31.3569L36.1526 32.0583C36.2138 32.0783 36.2212 32.1184 36.2212 32.1511V34.1539H36.2201ZM27 28.0937C24.2104 28.0937 21.9417 30.3634 21.9417 33.152C21.9417 35.9406 24.2104 38.2113 27 38.2113C29.7897 38.2113 32.0583 35.9416 32.0583 33.153C32.0583 30.3645 29.7897 28.0937 27 28.0937ZM27 36.5249C25.1406 36.5249 23.6282 35.0125 23.6282 33.153C23.6282 31.2936 25.1406 29.7812 27 29.7812C28.8594 29.7812 30.3719 31.2936 30.3719 33.153C30.3719 35.0125 28.8594 36.5249 27 36.5249ZM18.3083 15.9363C18.1501 15.7781 18.0616 15.564 18.0616 15.3404C18.0616 15.1168 18.1501 14.9027 18.3083 14.7445L21.4809 11.572C21.8099 11.243 22.3436 11.243 22.6726 11.572C23.0017 11.9011 23.0017 12.4348 22.6726 12.7638L20.0971 15.3394L22.6726 17.9118C23.0017 18.2408 23.0028 18.7745 22.6737 19.1046C22.5092 19.2691 22.293 19.3514 22.0767 19.3514C21.8616 19.3514 21.6454 19.2691 21.4809 19.1046L18.3083 15.9363ZM32.5203 11.572L35.6928 14.7445C35.851 14.9027 35.9396 15.1168 35.9396 15.3404C35.9396 15.564 35.851 15.7781 35.6928 15.9363L32.5203 19.1057C32.3557 19.2702 32.1395 19.3525 31.9244 19.3525C31.7082 19.3525 31.493 19.2702 31.3274 19.1057C30.9984 18.7766 30.9984 18.2429 31.3285 17.9128L33.904 15.3404L31.3285 12.7649C30.9994 12.4358 30.9994 11.9021 31.3285 11.5731C31.6575 11.243 32.1912 11.243 32.5203 11.572ZM28.4376 9.96996C28.8869 10.0902 29.1548 10.5521 29.0335 11.0025L26.594 20.1118C26.4927 20.4884 26.1521 20.7373 25.7798 20.7373C25.708 20.7373 25.6342 20.7278 25.5614 20.7088C25.1121 20.5886 24.8442 20.1266 24.9655 19.6763L27.405 10.5669C27.5253 10.1166 27.9883 9.84973 28.4376 9.96996Z" fill="black"/>
</g>
<defs>
<clipPath id="clip0_804_684">
<rect width="54" height="54" fill="white"/>
</clipPath>
</defs>
</svg>