<svg width="50" height="50" viewBox="0 0 50 50" fill="none" xmlns="http://www.w3.org/2000/svg">
<g clip-path="url(#clip0_3015_1520)">
<mask id="path-1-inside-1_3015_1520" fill="white">
<path fill-rule="evenodd" clip-rule="evenodd" d="M23.2438 49.4859C23.8296 49.8255 24.4949 50 25.1648 50C25.844 50 26.5077 49.8255 27.095 49.4859L45.4164 38.9075C46.6019 38.2158 47.3404 36.9383 47.3404 35.5642V14.4199C47.3404 13.0458 46.6035 11.7651 45.4164 11.0796L27.095 0.491918C25.9437 -0.163973 24.4029 -0.163973 23.2438 0.491918L4.92094 11.0796C3.73535 11.7636 3 13.0458 3 14.4199V35.5642C3 36.9383 3.73379 38.222 4.92094 38.9075L9.72561 41.6728C12.0532 42.8195 12.8867 42.8195 13.9461 42.8195C17.3922 42.8195 19.3708 40.735 19.3708 37.1003V16.224C19.3708 15.9279 19.1293 15.6958 18.8395 15.6958H16.5167C16.2207 15.6958 15.9838 15.9295 15.9838 16.224V37.1003C15.9838 38.7112 14.3169 40.3143 11.5936 38.9527L6.57392 36.0534C6.39787 35.9583 6.2857 35.7667 6.2857 35.5642V14.4199C6.2857 14.2189 6.39786 14.0195 6.57546 13.9182L24.8859 3.34917C25.0557 3.25102 25.2816 3.25102 25.4499 3.34917L43.765 13.9151C43.941 14.0195 44.0501 14.2127 44.0501 14.4199V35.5642C44.0501 35.7667 43.9394 35.9614 43.7696 36.0596L25.4467 46.6349C25.291 46.7299 25.0495 46.7299 24.8797 46.6349L20.1794 43.8446C20.0392 43.7636 19.86 43.734 19.7244 43.8103C18.4251 44.5488 18.1774 44.6469 16.9591 45.0691C16.6584 45.1751 16.2129 45.3558 17.1258 45.8668L23.2438 49.4859Z"/>
</mask>
<path fill-rule="evenodd" clip-rule="evenodd" d="M23.2438 49.4859C23.8296 49.8255 24.4949 50 25.1648 50C25.844 50 26.5077 49.8255 27.095 49.4859L45.4164 38.9075C46.6019 38.2158 47.3404 36.9383 47.3404 35.5642V14.4199C47.3404 13.0458 46.6035 11.7651 45.4164 11.0796L27.095 0.491918C25.9437 -0.163973 24.4029 -0.163973 23.2438 0.491918L4.92094 11.0796C3.73535 11.7636 3 13.0458 3 14.4199V35.5642C3 36.9383 3.73379 38.222 4.92094 38.9075L9.72561 41.6728C12.0532 42.8195 12.8867 42.8195 13.9461 42.8195C17.3922 42.8195 19.3708 40.735 19.3708 37.1003V16.224C19.3708 15.9279 19.1293 15.6958 18.8395 15.6958H16.5167C16.2207 15.6958 15.9838 15.9295 15.9838 16.224V37.1003C15.9838 38.7112 14.3169 40.3143 11.5936 38.9527L6.57392 36.0534C6.39787 35.9583 6.2857 35.7667 6.2857 35.5642V14.4199C6.2857 14.2189 6.39786 14.0195 6.57546 13.9182L24.8859 3.34917C25.0557 3.25102 25.2816 3.25102 25.4499 3.34917L43.765 13.9151C43.941 14.0195 44.0501 14.2127 44.0501 14.4199V35.5642C44.0501 35.7667 43.9394 35.9614 43.7696 36.0596L25.4467 46.6349C25.291 46.7299 25.0495 46.7299 24.8797 46.6349L20.1794 43.8446C20.0392 43.7636 19.86 43.734 19.7244 43.8103C18.4251 44.5488 18.1774 44.6469 16.9591 45.0691C16.6584 45.1751 16.2129 45.3558 17.1258 45.8668L23.2438 49.4859Z" fill="white"/>
<path d="M23.2438 49.4859L22.9383 50.0023L22.9429 50.005L23.2438 49.4859ZM27.095 49.4859L26.795 48.9663L26.7947 48.9665L27.095 49.4859ZM45.4164 38.9075L45.7164 39.4271L45.7187 39.4257L45.4164 38.9075ZM45.4164 11.0796L45.1161 11.5991L45.1163 11.5992L45.4164 11.0796ZM27.095 0.491918L27.3953 -0.0275851L27.392 -0.0294178L27.095 0.491918ZM23.2438 0.491918L22.9483 -0.030297L22.9436 -0.0275864L23.2438 0.491918ZM4.92094 11.0796L5.22075 11.5994L5.22113 11.5992L4.92094 11.0796ZM4.92094 38.9075L4.62091 39.4271L4.62164 39.4275L4.92094 38.9075ZM9.72561 41.6728L9.42631 42.1929L9.44309 42.2025L9.46046 42.2111L9.72561 41.6728ZM11.5936 38.9527L11.2935 39.4722L11.3091 39.4813L11.3253 39.4893L11.5936 38.9527ZM6.57392 36.0534L6.87401 35.5338L6.86653 35.5295L6.85894 35.5254L6.57392 36.0534ZM6.57546 13.9182L6.87266 14.4394L6.87541 14.4379L6.57546 13.9182ZM24.8859 3.34917L25.1858 3.86882L25.1861 3.86865L24.8859 3.34917ZM25.4499 3.34917L25.1475 3.86745L25.15 3.86889L25.4499 3.34917ZM43.765 13.9151L44.071 13.399L44.0648 13.3954L43.765 13.9151ZM43.7696 36.0596L44.0696 36.5793L44.0699 36.5791L43.7696 36.0596ZM25.4467 46.6349L25.1468 46.1152L25.1405 46.1188L25.1343 46.1226L25.4467 46.6349ZM24.8797 46.6349L24.5734 47.1508L24.58 47.1547L24.5866 47.1584L24.8797 46.6349ZM20.1794 43.8446L20.4857 43.3286L20.4795 43.3251L20.1794 43.8446ZM19.7244 43.8103L19.43 43.2875L19.428 43.2887L19.7244 43.8103ZM16.9591 45.0691L16.7626 44.5022L16.7597 44.5032L16.9591 45.0691ZM17.1258 45.8668L17.4313 45.3504L17.4251 45.3467L17.4189 45.3432L17.1258 45.8668ZM25.1648 49.4C24.5985 49.4 24.0373 49.2524 23.5448 48.9668L22.9429 50.005C23.6219 50.3986 24.3912 50.6 25.1648 50.6V49.4ZM26.7947 48.9665C26.3005 49.2522 25.7408 49.4 25.1648 49.4V50.6C25.9473 50.6 26.7149 50.3988 27.3954 50.0053L26.7947 48.9665ZM45.1163 38.3879L26.795 48.9663L27.3951 50.0055L45.7164 39.4271L45.1163 38.3879ZM46.7404 35.5642C46.7404 36.7236 46.1164 37.8044 45.114 38.3893L45.7187 39.4257C47.0875 38.6271 47.9404 37.153 47.9404 35.5642H46.7404ZM46.7404 14.4199V35.5642H47.9404V14.4199H46.7404ZM45.1163 11.5992C46.117 12.1771 46.7404 13.2591 46.7404 14.4199H47.9404C47.9404 12.8324 47.09 11.3532 45.7164 10.5601L45.1163 11.5992ZM26.7948 1.01141L45.1161 11.5991L45.7166 10.5602L27.3953 -0.0275752L26.7948 1.01141ZM23.5393 1.01411C24.5157 0.461611 25.8315 0.4626 26.798 1.01325L27.392 -0.0294178C26.056 -0.790546 24.2902 -0.789556 22.9483 -0.0302757L23.5393 1.01411ZM5.22113 11.5992L23.544 1.01142L22.9436 -0.0275864L4.62075 10.5601L5.22113 11.5992ZM3.6 14.4199C3.6 13.2582 4.22267 12.1751 5.22075 11.5994L4.62112 10.5599C3.24803 11.352 2.4 12.8334 2.4 14.4199H3.6ZM3.6 35.5642V14.4199H2.4V35.5642H3.6ZM5.22097 38.3879C4.22159 37.8108 3.6 36.7264 3.6 35.5642H2.4C2.4 37.1501 3.24599 38.6332 4.62091 39.4271L5.22097 38.3879ZM10.0249 41.1528L5.22024 38.3875L4.62164 39.4275L9.42631 42.1929L10.0249 41.1528ZM13.9461 42.2195C13.419 42.2195 13.0047 42.2182 12.4442 42.091C11.8755 41.962 11.132 41.6968 9.99076 41.1346L9.46046 42.2111C10.6468 42.7955 11.4838 43.1036 12.1786 43.2613C12.8815 43.4207 13.4137 43.4195 13.9461 43.4195V42.2195ZM18.7708 37.1003C18.7708 38.8125 18.3058 40.0768 17.5154 40.9099C16.7293 41.7386 15.5466 42.2195 13.9461 42.2195V43.4195C15.7917 43.4195 17.3213 42.8581 18.386 41.7358C19.4465 40.618 19.9708 39.0227 19.9708 37.1003H18.7708ZM18.7708 16.224V37.1003H19.9708V16.224H18.7708ZM18.8395 16.2958C18.8072 16.2958 18.7708 16.2685 18.7708 16.224H19.9708C19.9708 15.5874 19.4515 15.0958 18.8395 15.0958V16.2958ZM16.5167 16.2958H18.8395V15.0958H16.5167V16.2958ZM16.5838 16.224C16.5838 16.2417 16.5756 16.2618 16.5613 16.2759C16.5474 16.2897 16.5297 16.2958 16.5167 16.2958V15.0958C15.8951 15.0958 15.3838 15.5924 15.3838 16.224H16.5838ZM16.5838 37.1003V16.224H15.3838V37.1003H16.5838ZM11.3253 39.4893C12.8174 40.2354 14.1334 40.2179 15.1072 39.6623C16.0645 39.1163 16.5838 38.1059 16.5838 37.1003H15.3838C15.3838 37.7056 15.0697 38.3022 14.5126 38.62C13.9722 38.9284 13.093 39.0316 11.8619 38.416L11.3253 39.4893ZM6.27382 36.5729L11.2935 39.4722L11.8937 38.4331L6.87401 35.5338L6.27382 36.5729ZM5.6857 35.5642C5.6857 35.9813 5.91369 36.3788 6.28889 36.5813L6.85894 35.5254C6.87244 35.5327 6.87857 35.5408 6.88098 35.5449C6.88337 35.549 6.8857 35.555 6.8857 35.5642H5.6857ZM5.6857 14.4199V35.5642H6.8857V14.4199H5.6857ZM6.27827 13.397C5.90884 13.6076 5.6857 14.0087 5.6857 14.4199H6.8857C6.8857 14.4253 6.88496 14.4284 6.8847 14.4294C6.88445 14.4303 6.88434 14.4304 6.88451 14.4301C6.88467 14.4298 6.88439 14.4304 6.88298 14.4318C6.88151 14.4333 6.87826 14.4362 6.87265 14.4394L6.27827 13.397ZM24.5859 2.82953L6.27551 13.3986L6.87541 14.4379L25.1858 3.86882L24.5859 2.82953ZM25.7522 2.8309C25.3963 2.62328 24.9404 2.62468 24.5856 2.8297L25.1861 3.86865C25.1788 3.87288 25.1737 3.87448 25.1715 3.87504C25.1693 3.87559 25.1685 3.87556 25.1685 3.87556C25.1684 3.87556 25.1673 3.8756 25.1646 3.87489C25.1618 3.87418 25.1558 3.87227 25.1475 3.86744L25.7522 2.8309ZM44.0648 13.3954L25.7497 2.82945L25.15 3.86889L43.4651 14.4348L44.0648 13.3954ZM44.6501 14.4199C44.6501 14.0042 44.4322 13.6132 44.071 13.399L43.4589 14.4312C43.4538 14.4281 43.4517 14.425 43.4511 14.424C43.4505 14.4229 43.4501 14.4216 43.4501 14.4199H44.6501ZM44.6501 35.5642V14.4199H43.4501V35.5642H44.6501ZM44.0699 36.5791C44.4315 36.3701 44.6501 35.9736 44.6501 35.5642H43.4501C43.4501 35.5602 43.4506 35.5579 43.4508 35.5569C43.4511 35.5561 43.4513 35.5556 43.4515 35.5553C43.4517 35.5549 43.4526 35.5534 43.4549 35.551C43.4573 35.5485 43.4619 35.5445 43.4694 35.5401L44.0699 36.5791ZM25.7467 47.1545L44.0696 36.5793L43.4697 35.5399L25.1468 46.1152L25.7467 47.1545ZM24.5866 47.1584C24.9301 47.3507 25.4038 47.3639 25.7592 47.1471L25.1343 46.1226C25.1535 46.1109 25.1665 46.1073 25.1699 46.1065C25.1735 46.1055 25.1727 46.1061 25.1685 46.1061C25.1643 46.1061 25.1609 46.1056 25.1595 46.1052C25.158 46.1049 25.1628 46.1058 25.1727 46.1113L24.5866 47.1584ZM19.8731 44.3605L24.5734 47.1508L25.1859 46.1189L20.4857 43.3287L19.8731 44.3605ZM20.0189 44.3331C19.9566 44.3682 19.9056 44.367 19.89 44.3654C19.8753 44.3639 19.8741 44.3612 19.8792 44.3641L20.4795 43.3251C20.2375 43.1852 19.8201 43.0678 19.43 43.2875L20.0189 44.3331ZM17.1556 45.6361C18.407 45.2024 18.6883 45.0893 20.0209 44.332L19.428 43.2887C18.162 44.0082 17.9479 44.0915 16.7626 44.5022L17.1556 45.6361ZM17.4189 45.3432C17.2107 45.2267 17.134 45.1574 17.1171 45.1387C17.111 45.132 17.1373 45.1583 17.1585 45.2183C17.1827 45.2871 17.1928 45.3808 17.1644 45.4805C17.138 45.5732 17.0898 45.6311 17.0633 45.6576C17.038 45.6829 17.0209 45.6914 17.0273 45.6877C17.0444 45.6779 17.0811 45.6623 17.1585 45.635L16.7597 44.5032C16.6868 44.5289 16.555 44.5756 16.4326 44.6455C16.3299 44.704 16.095 44.8545 16.0103 45.1516C15.9113 45.4988 16.0806 45.7819 16.2276 45.9442C16.3745 46.1065 16.5845 46.2514 16.8328 46.3904L17.4189 45.3432ZM23.5493 48.9695L17.4313 45.3504L16.8203 46.3832L22.9383 50.0023L23.5493 48.9695Z" fill="#1B3059" mask="url(#path-1-inside-1_3015_1520)"/>
<mask id="path-3-inside-2_3015_1520" fill="white">
<path fill-rule="evenodd" clip-rule="evenodd" d="M21.1265 28.6648C21.1265 31.7526 22.8075 35.4325 30.8246 35.4325C36.631 35.4325 39.9588 33.1454 39.9572 29.1509C39.9572 25.1937 37.2823 24.1406 31.6519 23.3959C25.9623 22.6418 25.3843 22.2539 25.3843 20.9219C25.3843 19.822 25.875 18.3544 30.0893 18.3544C33.8532 18.3544 35.2414 19.1645 35.8116 21.7024C35.8614 21.9423 36.0795 22.1168 36.3257 22.1168H38.7031C38.8511 22.1168 38.9913 22.0529 39.091 21.9485C39.1923 21.8348 39.2452 21.6915 39.2312 21.5404C38.8636 17.1703 35.9596 15.1326 30.0893 15.1326C24.8639 15.1326 21.7481 17.337 21.7481 21.034C21.7481 25.0457 24.8484 26.1534 29.8618 26.6488C35.8599 27.2362 36.3257 28.1117 36.3257 29.2927C36.3257 31.3398 34.6836 32.2138 30.8231 32.2138C25.9748 32.2138 24.9076 30.997 24.5508 28.5853C24.5087 28.3267 24.2891 28.1367 24.0242 28.1367H21.6562C21.3617 28.1367 21.1265 28.3719 21.1265 28.6648Z"/>
</mask>
<path fill-rule="evenodd" clip-rule="evenodd" d="M21.1265 28.6648C21.1265 31.7526 22.8075 35.4325 30.8246 35.4325C36.631 35.4325 39.9588 33.1454 39.9572 29.1509C39.9572 25.1937 37.2823 24.1406 31.6519 23.3959C25.9623 22.6418 25.3843 22.2539 25.3843 20.9219C25.3843 19.822 25.875 18.3544 30.0893 18.3544C33.8532 18.3544 35.2414 19.1645 35.8116 21.7024C35.8614 21.9423 36.0795 22.1168 36.3257 22.1168H38.7031C38.8511 22.1168 38.9913 22.0529 39.091 21.9485C39.1923 21.8348 39.2452 21.6915 39.2312 21.5404C38.8636 17.1703 35.9596 15.1326 30.0893 15.1326C24.8639 15.1326 21.7481 17.337 21.7481 21.034C21.7481 25.0457 24.8484 26.1534 29.8618 26.6488C35.8599 27.2362 36.3257 28.1117 36.3257 29.2927C36.3257 31.3398 34.6836 32.2138 30.8231 32.2138C25.9748 32.2138 24.9076 30.997 24.5508 28.5853C24.5087 28.3267 24.2891 28.1367 24.0242 28.1367H21.6562C21.3617 28.1367 21.1265 28.3719 21.1265 28.6648Z" fill="#02A738"/>
<path d="M39.9572 29.1509L39.3572 29.1509L39.3572 29.1511L39.9572 29.1509ZM31.6519 23.3959L31.573 23.9907L31.5732 23.9907L31.6519 23.3959ZM35.8116 21.7024L36.3991 21.5803L36.397 21.5709L35.8116 21.7024ZM39.091 21.9485L39.5249 22.363L39.5321 22.3554L39.5391 22.3475L39.091 21.9485ZM39.2312 21.5404L38.6333 21.5907L38.6338 21.5958L39.2312 21.5404ZM29.8618 26.6488L29.8028 27.2459L29.8033 27.246L29.8618 26.6488ZM24.5508 28.5853L25.1444 28.4975L25.143 28.489L24.5508 28.5853ZM30.8246 34.8325C26.8964 34.8325 24.6441 33.9299 23.3749 32.7646C22.1154 31.6082 21.7265 30.1025 21.7265 28.6648H20.5265C20.5265 30.315 20.978 32.193 22.5633 33.6485C24.1389 35.0952 26.7357 36.0325 30.8246 36.0325V34.8325ZM39.3572 29.1511C39.3579 30.9558 38.6195 32.339 37.2289 33.2952C35.8092 34.2716 33.6621 34.8325 30.8246 34.8325V36.0325C33.7935 36.0325 36.2136 35.4498 37.9089 34.284C39.6334 33.0981 40.5581 31.3405 40.5572 29.1506L39.3572 29.1511ZM31.5732 23.9907C34.397 24.3642 36.3505 24.804 37.5998 25.5786C38.2066 25.9549 38.6342 26.4034 38.9164 26.9587C39.2012 27.5194 39.3572 28.2279 39.3572 29.1509H40.5572C40.5572 28.0953 40.3789 27.1882 39.9862 26.4152C39.5908 25.6368 38.9979 25.0336 38.2321 24.5588C36.7363 23.6313 34.5371 23.1722 31.7306 22.801L31.5732 23.9907ZM24.7843 20.9219C24.7843 21.2862 24.8203 21.6967 25.0507 22.0759C25.2848 22.4612 25.6627 22.7242 26.1531 22.9292C27.0977 23.3241 28.7528 23.6169 31.573 23.9907L31.7307 22.8011C28.8614 22.4208 27.3827 22.1426 26.6159 21.822C26.2506 21.6693 26.1283 21.5384 26.0762 21.4528C26.0205 21.3611 25.9843 21.2235 25.9843 20.9219H24.7843ZM30.0893 17.7544C27.9374 17.7544 26.5965 18.1242 25.7884 18.7518C24.9353 19.4143 24.7843 20.2737 24.7843 20.9219H25.9843C25.9843 20.4701 26.0786 20.0458 26.5245 19.6995C27.0154 19.3183 28.0269 18.9544 30.0893 18.9544V17.7544ZM36.397 21.5709C36.0909 20.2088 35.535 19.1927 34.451 18.5587C33.4151 17.953 31.9872 17.7544 30.0893 17.7544V18.9544C31.9553 18.9544 33.1035 19.1609 33.8452 19.5946C34.5387 20.0002 34.962 20.6581 35.2262 21.8339L36.397 21.5709ZM36.3257 21.5168C36.3452 21.5168 36.3606 21.5236 36.371 21.532C36.3816 21.5405 36.3941 21.5564 36.399 21.5803L35.2241 21.8245C35.333 22.3484 35.801 22.7168 36.3257 22.7168V21.5168ZM38.7031 21.5168H36.3257V22.7168H38.7031V21.5168ZM38.6571 21.5341C38.6618 21.5292 38.6672 21.5254 38.6737 21.5225C38.6806 21.5195 38.6905 21.5168 38.7031 21.5168V22.7168C39.0236 22.7168 39.318 22.5795 39.5249 22.363L38.6571 21.5341ZM38.6338 21.5958C38.6326 21.5834 38.6344 21.5705 38.6381 21.5601C38.6415 21.5504 38.6448 21.5474 38.6429 21.5495L39.5391 22.3475C39.7395 22.1225 39.8596 21.8182 39.8287 21.4849L38.6338 21.5958ZM30.0893 15.7326C32.9714 15.7326 35.0198 16.2358 36.3793 17.189C37.7082 18.1207 38.4609 19.5412 38.6333 21.5907L39.8291 21.4901C39.6339 19.1695 38.7507 17.3861 37.0682 16.2064C35.4162 15.0482 33.0774 14.5326 30.0893 14.5326V15.7326ZM22.3481 21.034C22.3481 19.3781 23.0343 18.0863 24.3057 17.1867C25.6016 16.2699 27.5498 15.7326 30.0893 15.7326V14.5326C27.4034 14.5326 25.181 15.0975 23.6126 16.2071C22.0198 17.3341 21.1481 18.993 21.1481 21.034H22.3481ZM29.9208 26.0517C27.4184 25.8045 25.5101 25.4108 24.2334 24.6454C23.6089 24.271 23.1473 23.8141 22.8374 23.2465C22.5263 22.6769 22.3481 21.959 22.3481 21.034H21.1481C21.1481 22.1149 21.3573 23.0399 21.7842 23.8217C22.2123 24.6056 22.8391 25.2087 23.6164 25.6746C25.1432 26.5899 27.2918 26.9978 29.8028 27.2459L29.9208 26.0517ZM36.9257 29.2927C36.9257 28.9646 36.8956 28.5694 36.6885 28.1814C36.4773 27.7858 36.1232 27.4714 35.6147 27.2132C34.6361 26.7162 32.9149 26.3449 29.9203 26.0517L29.8033 27.246C32.8068 27.5401 34.3175 27.9002 35.0713 28.2831C35.4291 28.4648 35.5663 28.6274 35.6299 28.7465C35.6975 28.8732 35.7257 29.0303 35.7257 29.2927H36.9257ZM30.8231 32.8138C32.7727 32.8138 34.2739 32.5977 35.3036 32.0508C35.832 31.7701 36.2484 31.396 36.528 30.9135C36.8063 30.433 36.9257 29.8853 36.9257 29.2927H35.7257C35.7257 29.7235 35.6398 30.0528 35.4896 30.3119C35.3406 30.5691 35.1053 30.7973 34.7406 30.991C33.9841 31.3929 32.7339 31.6138 30.8231 31.6138V32.8138ZM23.9573 28.6731C24.1457 29.9467 24.5449 31.0605 25.672 31.8047C26.7462 32.5138 28.3802 32.8138 30.8231 32.8138V31.6138C28.4177 31.6138 27.0939 31.3054 26.3332 30.8032C25.6255 30.336 25.3127 29.6357 25.1443 28.4975L23.9573 28.6731ZM24.0242 28.7367C24.0104 28.7367 23.9939 28.731 23.9809 28.7199C23.9682 28.709 23.9607 28.6946 23.9586 28.6817L25.143 28.489C25.0543 27.9433 24.5865 27.5367 24.0242 27.5367V28.7367ZM21.6562 28.7367H24.0242V27.5367H21.6562V28.7367ZM21.7265 28.6648C21.7265 28.7044 21.6919 28.7367 21.6562 28.7367V27.5367C21.0315 27.5367 20.5265 28.0394 20.5265 28.6648H21.7265Z" fill="#1B3059" mask="url(#path-3-inside-2_3015_1520)"/>
</g>
<defs>
<clipPath id="clip0_3015_1520">
<rect width="50" height="50" fill="white"/>
</clipPath>
</defs>
</svg>