<svg width="51" height="50" viewBox="0 0 51 50" fill="none" xmlns="http://www.w3.org/2000/svg">
<path d="M25.44 27.7857C26.0146 27.7857 26.5762 27.6153 27.0539 27.2961C27.5317 26.9769 27.904 26.5232 28.1239 25.9924C28.3437 25.4615 28.4013 24.8774 28.2892 24.3139C28.1771 23.7504 27.9004 23.2328 27.4941 22.8265C27.0879 22.4202 26.5703 22.1436 26.0067 22.0315C25.4432 21.9194 24.8591 21.9769 24.3283 22.1968C23.7975 22.4167 23.3438 22.789 23.0246 23.2667C22.7054 23.7445 22.535 24.3061 22.535 24.8807C22.5363 25.6507 22.8428 26.3888 23.3873 26.9334C23.9318 27.4779 24.67 27.7843 25.44 27.7857ZM49 25.0007C49 21.7257 44.14 19.4107 37.69 18.1507C39.965 12.0007 40.5 6.62567 37.715 4.92567C35.715 3.69567 32.645 4.79566 28.905 8.10566C27.887 9.01951 26.9174 9.98583 26 11.0007C25.155 9.92545 24.2538 8.89567 23.3 7.91567C19.8 4.35067 16.84 3.04067 14.735 4.12567C12.63 5.21067 12 8.37067 12.85 13.2907C13.1499 14.8822 13.5422 16.4548 14.025 18.0007C7.22 19.2407 2 21.6057 2 25.0007C2 28.2757 6.86 30.5907 13.31 31.8507C11.035 38.0007 10.5 43.3757 13.285 45.0757C13.8348 45.4092 14.467 45.5823 15.11 45.5757C16.975 45.5757 19.35 44.3357 22.11 41.9057C23.1231 40.9882 24.0878 40.0185 25 39.0007C25.845 40.0759 26.7462 41.1057 27.7 42.0857C30.4 44.8407 32.78 46.2457 34.7 46.2457C35.2457 46.252 35.7846 46.125 36.27 45.8757C38.375 44.7907 39.025 41.6207 38.15 36.7007C37.858 35.1131 37.474 33.5437 37 32.0007C43.78 30.7607 49 28.3957 49 25.0007ZM30.23 9.60067C32.87 7.26567 34.76 6.44567 35.89 6.44567C36.1641 6.43604 36.4356 6.50175 36.675 6.63567C38.095 7.50067 38 11.7107 35.7 17.8007C33.955 17.5307 32.12 17.3307 30.26 17.2057C29.26 15.5707 28.26 14.0307 27.225 12.6107C28.1696 11.5519 29.1728 10.547 30.23 9.60067ZM17.595 27.0007C17.865 27.5557 18.14 28.1157 18.425 28.6707C18.79 29.3707 19.155 30.0607 19.535 30.7357C18.3083 30.6323 17.1417 30.499 16.035 30.3357C16.5 29.2407 17 28.1307 17.595 27.0007ZM16.66 19.6057C17.625 19.4757 18.66 19.3657 19.7 19.2757C19.365 19.8007 19.03 20.3257 18.7 20.8657C18.37 21.4057 18.065 21.9257 17.755 22.4607C17.36 21.5007 17 20.5407 16.66 19.6057ZM18.765 24.7557C19.265 23.8257 19.82 22.8757 20.41 21.9057C21 20.9357 21.59 20.0207 22.195 19.1207C23.2617 19.0707 24.3633 19.0457 25.5 19.0457C26.735 19.0457 27.93 19.0757 29.075 19.1307C29.665 20.1307 30.2383 21.1773 30.795 22.2707C31.295 23.2707 31.795 24.2707 32.235 25.2707C31.735 26.2007 31.18 27.1507 30.59 28.1207C30 29.0907 29.41 30.0007 28.805 30.8807C27.7383 30.9307 26.6367 30.9557 25.5 30.9557C24.265 30.9557 23.07 30.9257 21.925 30.8707C21.335 29.8707 20.7617 28.824 20.205 27.7307C19.69 26.7357 19.22 25.7407 18.765 24.7557ZM32.295 29.1357C32.62 28.6107 32.93 28.0757 33.24 27.5407C33.64 28.5057 34.01 29.4607 34.34 30.3957C33.375 30.5257 32.34 30.6357 31.3 30.7257C31.635 30.2007 31.97 29.6757 32.295 29.1357ZM33.405 23.0257C33.135 22.4707 32.86 21.9107 32.575 21.3557C32.21 20.6557 31.845 19.9657 31.465 19.2907C32.6883 19.394 33.855 19.5273 34.965 19.6907C34.5 20.7607 34 21.8707 33.405 23.0257ZM27.84 17.0857C27.06 17.0557 26.275 17.0457 25.5 17.0457C24.88 17.0457 24.255 17.0457 23.63 17.0457C24.375 16.0457 25.13 15.0457 25.885 14.1357C26.545 15.0857 27.195 16.0657 27.84 17.0857ZM15.645 5.89067C15.8473 5.79266 16.0703 5.74465 16.295 5.75067C17.405 5.75067 19.295 6.67567 21.865 9.30567C22.8554 10.3164 23.7869 11.3831 24.655 12.5007C23.455 13.9257 22.26 15.5007 21.095 17.1607C19.365 17.2707 17.66 17.4407 16.02 17.6607C15.5212 16.1023 15.1204 14.5142 14.82 12.9057C14.025 8.46567 14.725 6.36567 15.645 5.89067ZM4 25.0007C4 23.2857 7.88 21.1057 14.65 19.9157C15.195 21.4707 15.82 23.0707 16.535 24.6907C15.61 26.4507 14.77 28.2307 14.035 29.9707C7.655 28.7607 4 26.6607 4 25.0007ZM20.77 40.4007C17.37 43.4007 15.21 43.9007 14.325 43.3657C12.905 42.5007 13 38.2907 15.3 32.2007C17.045 32.4707 18.88 32.6707 20.74 32.7957C21.74 34.4307 22.74 35.9707 23.775 37.3907C22.8304 38.4494 21.8272 39.4543 20.77 40.4007ZM23.16 32.9007C23.94 32.9307 24.725 32.9407 25.5 32.9407H27.37C26.625 33.9407 25.87 34.9407 25.115 35.8507C24.455 34.9157 23.805 33.9357 23.16 32.9157V32.9007ZM35.355 44.1107C34.43 44.6107 32.315 43.9357 29.135 40.6957C28.1446 39.685 27.2131 38.6182 26.345 37.5007C27.545 36.0757 28.74 34.5007 29.905 32.8407C31.635 32.7307 33.34 32.5607 34.98 32.3407C35.4788 33.8991 35.8796 35.4872 36.18 37.0957C37 41.5357 36.275 43.6357 35.355 44.1107ZM36.355 30.1107C35.81 28.5557 35.185 26.9557 34.47 25.3357C35.395 23.5757 36.235 21.7957 36.97 20.0557C43.345 21.2407 47 23.3407 47 25.0007C47 26.6607 43.12 28.8957 36.35 30.0857L36.355 30.1107Z" fill="white"/>
<path d="M25.44 27.7856C26.0145 27.7856 26.5762 27.6152 27.0539 27.296C27.5316 26.9768 27.904 26.5231 28.1238 25.9923C28.3437 25.4615 28.4012 24.8774 28.2892 24.3138C28.1771 23.7503 27.9004 23.2327 27.4941 22.8264C27.0878 22.4202 26.5702 22.1435 26.0067 22.0314C25.4432 21.9193 24.8591 21.9768 24.3283 22.1967C23.7975 22.4166 23.3438 22.7889 23.0246 23.2667C22.7053 23.7444 22.535 24.306 22.535 24.8806C22.5363 25.6506 22.8428 26.3888 23.3873 26.9333C23.9318 27.4778 24.6699 27.7843 25.44 27.7856Z" fill="#02A738"/>
</svg>