<svg width="50" height="50" viewBox="0 0 50 50" fill="none" xmlns="http://www.w3.org/2000/svg">
<g clip-path="url(#clip0_3015_1549)">
<g clip-path="url(#clip1_3015_1549)">
<path d="M30.9748 49.9561C30.7181 49.9545 30.471 49.858 30.2809 49.6853C30.0909 49.5126 29.9714 49.2758 29.9453 49.0203C29.9192 48.7649 29.9884 48.5088 30.1396 48.3012C30.2908 48.0937 30.5133 47.9493 30.7644 47.8957L44.7894 44.9811C44.0144 39.7145 40.3436 14.752 39.7894 11.0291C39.0332 10.9791 37.6311 10.877 36.4207 10.7874C36.2046 10.771 35.9991 10.6872 35.8332 10.5478L32.154 7.49989C32.0425 7.41469 31.9494 7.30785 31.8803 7.18579C31.8111 7.06373 31.7673 6.92895 31.7515 6.78955C31.7357 6.65014 31.7483 6.50898 31.7884 6.37454C31.8285 6.2401 31.8953 6.11514 31.9849 6.00717C32.0745 5.89919 32.1849 5.81043 32.3097 5.7462C32.4344 5.68197 32.5708 5.64359 32.7107 5.63338C32.8507 5.62317 32.9912 5.64132 33.1239 5.68676C33.2567 5.7322 33.3789 5.80398 33.4832 5.8978L36.9082 8.73322C37.7811 8.79572 40.0936 8.96655 40.3498 8.97489C41.0436 8.97489 41.6644 9.51655 41.779 10.2332C41.8186 10.452 46.1311 39.7728 46.9957 45.6457C47.0352 45.9086 46.9723 46.1767 46.8199 46.3945C46.6676 46.6124 46.4374 46.7635 46.1769 46.8166L31.1894 49.9311C31.1194 49.9496 31.0472 49.958 30.9748 49.9561Z" fill="white"/>
<path d="M30.977 49.9999C30.912 49.9999 30.8471 49.9936 30.7833 49.9812L3.84368 44.8979C3.58271 44.8485 3.35044 44.7013 3.19438 44.4864C3.03832 44.2715 2.97026 44.0051 3.0041 43.7416C3.14577 42.6312 6.49368 16.5562 6.64368 15.6291C6.84368 13.9791 7.16035 13.6145 8.8916 13.0666C10.1812 12.6458 29.7687 6.49786 32.3791 5.77078L32.3728 5.74578C32.752 5.61661 33.2916 5.68953 33.5708 5.97911C33.6677 6.08061 33.7432 6.20066 33.7926 6.33205C33.842 6.46344 33.8643 6.60346 33.8583 6.7437L32.0166 49.002C32.0106 49.1513 31.9723 49.2976 31.9043 49.4307C31.8363 49.5637 31.7403 49.6805 31.6228 49.7729C31.4399 49.9202 31.2119 50.0003 30.977 49.9999ZM5.19577 43.0312L29.9874 47.7104L31.7145 8.12495C24.3137 10.4248 16.9158 12.7338 9.52077 15.052C9.24577 15.1395 8.83327 15.2687 8.73535 15.3354C8.77702 15.3354 8.73327 15.702 8.70618 15.9208C8.58952 16.652 6.42702 33.4333 5.19577 43.0312Z" fill="white"/>
<path d="M13.3439 13.8437C13.1823 13.8439 13.0228 13.8065 12.8781 13.7344C12.7334 13.6624 12.6074 13.5576 12.5102 13.4284C12.413 13.2993 12.3472 13.1493 12.3179 12.9903C12.2887 12.8313 12.2969 12.6677 12.3418 12.5124C12.7398 11.1353 16.4231 -0.920931 22.5627 0.0540685C24.0585 0.285319 25.2585 1.0624 26.0335 2.2999C27.4043 4.49365 27.1648 7.72907 26.6918 9.25407C26.604 9.51013 26.4199 9.72194 26.1786 9.84464C25.9373 9.96733 25.6577 9.99126 25.3991 9.91136C25.1404 9.83147 24.9231 9.65402 24.793 9.41661C24.6629 9.1792 24.6304 8.90047 24.7023 8.63948C24.996 7.6874 25.296 5.0499 24.2668 3.40407C23.8106 2.67282 23.1502 2.25199 22.2439 2.1124C18.6043 1.55199 15.2231 10.0603 14.3439 13.0895C14.2816 13.3066 14.1503 13.4976 13.9699 13.6337C13.7896 13.7697 13.5698 13.8434 13.3439 13.8437Z" fill="white"/>
<path d="M17.9519 41.6665C13.1832 41.6665 10.7436 38.6478 10.6415 38.5186C10.5371 38.3869 10.4663 38.2318 10.435 38.0667C10.4038 37.9016 10.4132 37.7314 10.4623 37.5707L11.6478 33.6478C11.6971 33.4802 11.7879 33.3278 11.9119 33.2048C12.0358 33.0817 12.1888 32.9919 12.3566 32.9437C12.5245 32.8955 12.7018 32.8904 12.8722 32.929C13.0425 32.9676 13.2004 33.0486 13.3311 33.1644C13.8519 33.6165 15.6061 34.9103 16.829 34.9103C17.5561 34.9103 17.5748 34.2061 17.5748 34.1998C17.5748 33.3936 16.9936 32.8728 15.9665 32.0186C14.5894 30.8748 12.7061 29.3103 12.7061 26.0061C12.6665 23.4998 13.5728 21.1665 15.2582 19.4582C17.0582 17.6311 19.5957 16.6665 22.6019 16.6665C25.1228 16.6665 26.4353 17.4061 26.5769 17.4915C26.782 17.6138 26.9388 17.8029 27.0211 18.027C27.1034 18.2512 27.1062 18.4968 27.029 18.7228L25.2957 23.8269C25.2511 23.9571 25.1812 24.0771 25.0901 24.1801C24.9989 24.283 24.8882 24.3669 24.7644 24.4269L24.7269 24.4457C24.5792 24.5181 24.4164 24.5543 24.252 24.5514C24.0875 24.5485 23.9261 24.5066 23.7811 24.429C23.7686 24.4228 22.4853 23.754 21.0165 23.754C19.2998 23.754 19.2998 24.5561 19.2998 24.8582C19.2998 25.2498 20.1644 25.8998 20.9248 26.4707C22.7478 27.8415 25.2436 29.7186 25.2436 33.5561C25.2436 38.3311 22.2457 41.6665 17.9519 41.6665Z" fill="#02A738"/>
<path d="M19.4272 11.9418C19.2806 11.9418 19.1355 11.9109 19.0017 11.851C18.8678 11.7911 18.748 11.7037 18.6503 11.5943C18.5526 11.485 18.479 11.3562 18.4345 11.2165C18.3899 11.0767 18.3754 10.9292 18.3918 10.7834C18.7606 7.5626 20.9606 1.4751 26.6376 1.4751C29.9689 1.4751 32.2918 4.50218 32.2918 7.21885C32.2918 7.49511 32.1821 7.76007 31.9867 7.95542C31.7914 8.15077 31.5264 8.26051 31.2501 8.26051C30.9739 8.26051 30.7089 8.15077 30.5136 7.95542C30.3182 7.76007 30.2085 7.49511 30.2085 7.21885C30.2085 5.72301 28.9376 3.55843 26.6376 3.55843C21.3772 3.55843 20.4689 10.9459 20.4606 11.0188C20.4314 11.2726 20.3101 11.5068 20.1196 11.677C19.9291 11.8472 19.6827 11.9414 19.4272 11.9418Z" fill="white"/>
</g>
</g>
<defs>
<clipPath id="clip0_3015_1549">
<rect width="50" height="50" fill="white"/>
</clipPath>
<clipPath id="clip1_3015_1549">
<rect width="50" height="50" fill="white"/>
</clipPath>
</defs>
</svg>