<svg width="54" height="54" viewBox="0 0 54 54" fill="none" xmlns="http://www.w3.org/2000/svg">
<path d="M49.469 35.176L43.1747 31.5479L49.469 27.9114C49.6284 27.8185 49.7606 27.6855 49.8525 27.5256C49.9443 27.3657 49.9927 27.1845 49.9927 27.0001C49.9927 26.8157 49.9443 26.6345 49.8525 26.4746C49.7606 26.3147 49.6284 26.1817 49.469 26.0889L43.1831 22.4523L49.4353 18.841C49.6121 18.7497 49.7586 18.609 49.8572 18.436C49.927 18.3164 49.9726 18.1841 49.9913 18.0469C50.01 17.9096 50.0015 17.77 49.9662 17.636C49.931 17.502 49.8697 17.3763 49.7858 17.266C49.7019 17.1557 49.5972 17.063 49.4775 16.9932L27.54 4.33698C27.3791 4.24604 27.1974 4.19824 27.0126 4.19824C26.8278 4.19824 26.6462 4.24604 26.4853 4.33698L4.54778 16.9932C4.38647 17.0855 4.25241 17.2188 4.15917 17.3795C4.06592 17.5403 4.01682 17.7229 4.01682 17.9087C4.01682 18.0945 4.06592 18.2771 4.15917 18.4379C4.25241 18.5986 4.38647 18.7319 4.54778 18.8242L10.8337 22.4523L4.53935 26.0889C4.38001 26.1817 4.24781 26.3147 4.15593 26.4746C4.06404 26.6345 4.01569 26.8157 4.01569 27.0001C4.01569 27.1845 4.06404 27.3657 4.15593 27.5256C4.24781 27.6855 4.38001 27.8185 4.53935 27.9114L10.8337 31.5479L4.54778 35.176C4.38647 35.2683 4.25241 35.4016 4.15917 35.5624C4.06592 35.7231 4.01682 35.9057 4.01682 36.0915C4.01682 36.2774 4.06592 36.4599 4.15917 36.6207C4.25241 36.7814 4.38647 36.9147 4.54778 37.007L26.4853 49.6632C26.6438 49.7463 26.8211 49.787 27 49.7814C27.1865 49.7799 27.3696 49.7305 27.5315 49.6379L49.469 36.9817C49.6282 36.8877 49.7602 36.7538 49.8518 36.5933C49.9434 36.4327 49.9917 36.2511 49.9917 36.0662C49.9917 35.8813 49.9434 35.6997 49.8518 35.5391C49.7602 35.3786 49.6282 35.2447 49.469 35.1507V35.176ZM27 6.46323L46.8281 17.9045L27 29.3542L7.17185 17.9045L27 6.46323ZM12.9347 23.6757L26.4347 31.4889C26.5932 31.5822 26.7738 31.6317 26.9578 31.6323C27.1443 31.6308 27.3274 31.5814 27.4893 31.4889L40.9894 23.6757L46.8281 27.0001L27 38.4498L7.17185 27.0001L12.9347 23.6757ZM27 47.537L7.17185 36.0957L12.9347 32.7207L26.4347 40.5339C26.5931 40.6274 26.7738 40.6767 26.9578 40.6767C27.1418 40.6767 27.3224 40.6274 27.4809 40.5339L41.0231 32.7207L46.7859 36.0957L27 47.537Z" fill="black"/>
</svg>