<svg width="50" height="50" viewBox="0 0 50 50" fill="none" xmlns="http://www.w3.org/2000/svg">
<path d="M43.9204 1.99878H6.0791C4.38103 1.99878 2.99951 3.38029 2.99951 5.07837V34.6497C2.99951 36.3478 4.38103 37.7293 6.0791 37.7293H19.7296V44.7387H17.24C16.8836 44.7387 16.5949 45.0275 16.5949 45.3838C16.5949 45.7401 16.8836 46.029 17.24 46.029H32.7593C33.1157 46.029 33.4045 45.7401 33.4045 45.3838C33.4045 45.0275 33.1157 44.7387 32.7593 44.7387H30.2698V42.5238C30.2698 42.1675 29.981 41.8787 29.6246 41.8787C29.2682 41.8787 28.9795 42.1675 28.9795 42.5238V44.7387H21.02V37.7293H28.9795V39.4941C28.9795 39.8504 29.2682 40.1392 29.6246 40.1392C29.981 40.1392 30.2698 39.8504 30.2698 39.4941V37.7293H43.9204C45.6185 37.7293 47 36.3478 47 34.6497V5.07837C46.9999 3.38029 45.6184 1.99878 43.9204 1.99878ZM4.28984 5.07837C4.28984 4.09178 5.09251 3.28911 6.0791 3.28911H43.9204C44.9069 3.28911 45.7096 4.09178 45.7096 5.07837V29.7383H4.28984V5.07837ZM45.7096 34.6496C45.7096 35.6362 44.9069 36.4389 43.9204 36.4389H6.0791C5.09251 36.4389 4.28984 35.6362 4.28984 34.6496V31.0286H45.7096V34.6496Z" fill="white"/>
<path d="M23.7116 34.378H26.2873C26.6437 34.378 26.9325 34.0891 26.9325 33.7328C26.9325 33.3765 26.6437 33.0876 26.2873 33.0876H23.7116C23.3552 33.0876 23.0664 33.3765 23.0664 33.7328C23.0664 34.0891 23.3553 34.378 23.7116 34.378Z" fill="white"/>
<path d="M20.8211 19.3944V13.6327C20.8211 13.2764 20.5323 12.9875 20.1759 12.9875C19.8195 12.9875 19.5308 13.2764 19.5308 13.6327V19.3944C19.5308 19.7507 19.8195 20.0395 20.1759 20.0395C20.5323 20.0395 20.8211 19.7507 20.8211 19.3944Z" fill="white"/>
<path d="M13.1066 12.9871C12.7502 12.9871 12.4614 13.276 12.4614 13.6323V17.597C12.4614 18.451 12.8545 19.1173 13.6632 19.6339C14.4476 20.135 15.4799 20.1727 16.3144 19.7523C17.5053 19.1526 17.7553 18.247 17.7553 17.5928V13.6322C17.7553 13.2759 17.4665 12.9871 17.1101 12.9871C16.7538 12.9871 16.465 13.2759 16.465 13.6322V17.5928C16.465 17.8903 16.3819 18.2737 15.734 18.5999C15.3201 18.8083 14.7498 18.7968 14.3579 18.5465C13.9273 18.2715 13.7518 17.9964 13.7518 17.597V13.6323C13.7518 13.276 13.463 12.9871 13.1066 12.9871Z" fill="white"/>
<path d="M33.3581 6.2019C29.9245 6.2019 26.8774 7.88897 25.0024 10.4778C24.1495 9.29887 23.0515 8.30549 21.7887 7.57671C20.2304 6.67735 18.4504 6.20199 16.6414 6.20199C14.4881 6.20199 12.4252 6.85903 10.6756 8.10213C10.3851 8.3085 10.3169 8.71125 10.5232 9.00175C10.7295 9.29225 11.1324 9.36046 11.4228 9.15401C12.9528 8.06695 14.7574 7.49232 16.6413 7.49232C19.7579 7.49232 22.5877 9.05078 24.2552 11.6728C23.4842 13.117 23.0468 14.765 23.0468 16.5132C23.0468 18.2613 23.4842 19.9093 24.2551 21.3534C22.5871 23.9732 19.7487 25.5341 16.6413 25.5341C11.6671 25.5341 7.62041 21.4873 7.62041 16.5132C7.62041 14.5396 8.24596 12.6653 9.42945 11.0933C9.64373 10.8086 9.5867 10.4042 9.30205 10.1899C9.01732 9.97552 8.61302 10.0326 8.39856 10.3173C7.04544 12.1148 6.33008 14.2574 6.33008 16.5133C6.33008 22.1989 10.9557 26.8245 16.6413 26.8245C19.9896 26.8245 23.0645 25.2393 25.0027 22.5494C26.8778 25.1378 29.9246 26.8245 33.358 26.8245C39.0437 26.8245 43.6691 22.1989 43.6691 16.5133C43.6692 10.8275 39.0437 6.2019 33.3581 6.2019Z" fill="#02A738"/>
<path d="M37.3808 16.3088L39.0045 14.0039C39.2098 13.7126 39.14 13.3101 38.8487 13.1049C38.5573 12.8996 38.1548 12.9695 37.9497 13.2607L36.5921 15.1878L35.2368 13.2611C35.0319 12.9697 34.6296 12.8995 34.3379 13.1046C34.0465 13.3096 33.9765 13.7121 34.1815 14.0035L35.8029 16.3083L33.8908 19.0225C33.6855 19.3138 33.7553 19.7163 34.0466 19.9215C34.3382 20.1269 34.739 20.0589 34.9456 19.7656L36.5914 17.4294L38.2347 19.7654C38.4351 20.0501 38.8493 20.1218 39.1336 19.9218C39.425 19.7168 39.495 19.3143 39.2899 19.0228L37.3808 16.3088Z" fill="white"/>
<path d="M31.9568 12.9871C31.6004 12.9871 31.3117 13.2759 31.3117 13.6322V17.5928C31.3117 17.8903 31.2286 18.2737 30.5806 18.6C30.3847 18.6987 30.1633 18.7487 29.9226 18.7487H29.9201C29.651 18.7484 29.4169 18.6822 29.2045 18.5465C28.774 18.2715 28.5984 17.9964 28.5984 17.5969V13.6322C28.5984 13.2759 28.3097 12.9871 27.9533 12.9871C27.5969 12.9871 27.3081 13.2759 27.3081 13.6322V17.5969C27.3081 18.4509 27.7011 19.1172 28.5098 19.6338C29.2813 20.1266 30.3436 20.164 31.1612 19.7523C32.3522 19.1526 32.6022 18.247 32.6022 17.5928V13.6322C32.602 13.2759 32.3131 12.9871 31.9568 12.9871Z" fill="white"/>
</svg>