<svg width="50" height="50" viewBox="0 0 50 50" fill="none" xmlns="http://www.w3.org/2000/svg">
<g clip-path="url(#clip0_3015_1603)">
<g clip-path="url(#clip1_3015_1603)">
<path fill-rule="evenodd" clip-rule="evenodd" d="M0 15.0228C0 15.0228 1.96929 14.773 3.28215 15.945C4.08849 16.6696 4.32699 17.8223 4.32699 17.8223L7.00836 28.3524L9.23772 19.7337C9.45464 18.8172 9.84532 17.6894 10.4654 16.9183C11.2547 15.9427 12.8583 15.8814 13.0287 15.8814C13.199 15.8814 14.8026 15.9427 15.5919 16.9183C16.2109 17.6849 16.6027 18.8172 16.8196 19.7337L19.049 28.3524L21.7292 17.8223C21.7292 17.8223 21.9654 16.6684 22.7752 15.945C24.088 14.773 26.0562 15.0228 26.0562 15.0228L20.9229 34.7021C20.9229 34.7021 19.2307 34.8259 18.3835 34.3886C17.2705 33.814 16.7412 33.3665 16.0666 30.692L15.9974 30.4137C15.7521 29.4279 15.375 27.8857 14.9945 26.3252L14.881 25.8562L14.7674 25.3883C14.2189 23.1362 13.7135 21.0624 13.6317 20.7989C13.5499 20.5355 13.4659 19.9631 13.0298 19.9631C12.5937 19.9631 12.5051 20.5525 12.4267 20.7989C12.3348 21.0885 11.7294 23.5837 11.1196 26.0901L11.006 26.5603C10.6948 27.8474 10.3802 29.1345 10.0622 30.4217L9.99409 30.692C9.31268 33.3688 8.78685 33.814 7.67387 34.3886C6.82665 34.8259 5.13333 34.7021 5.13333 34.7021L0 15.0228ZM30.9851 18.5207V19.2215V30.9316C30.9749 33.3347 30.7228 33.8674 29.6223 34.4216C28.7682 34.8509 27.4645 34.6885 27.4645 34.6885V21.5724C27.4645 20.9136 27.6916 20.4821 28.5047 20.096C28.9931 19.8688 29.4485 19.6871 29.9221 19.4248C30.3399 19.2073 30.7033 18.8982 30.9851 18.5207ZM32.3945 15.0887C32.3945 15.0887 35.1202 14.614 36.4773 15.8678C37.3416 16.6707 38.3092 18.1142 38.3092 18.1142L40.6941 21.611C40.8077 21.7927 40.9599 21.9914 41.2018 21.9914C41.4437 21.9914 41.5947 21.7927 41.7094 21.611L44.0944 18.1142C44.0944 18.1142 45.062 16.6707 45.9274 15.8678C47.2789 14.6185 50.0091 15.0887 50.0091 15.0887L43.5356 24.8931L49.9875 34.668H49.9648C49.6968 34.6998 47.1256 34.9656 45.8411 33.7765C44.9757 32.9747 44.0899 31.6698 44.0899 31.6698L41.7049 28.173C41.5913 27.9901 41.438 27.7937 41.1972 27.7937C40.9565 27.7937 40.8054 27.9901 40.6896 28.173L38.3046 31.6698C38.3046 31.6698 37.4665 32.9747 36.6011 33.7765C35.2485 35.0326 32.4058 34.6646 32.4058 34.6646L38.8634 24.8943L32.3945 15.0887Z" fill="white"/>
<path fill-rule="evenodd" clip-rule="evenodd" d="M30.4934 15H30.5218C30.5218 16.3447 30.3912 17.1419 29.5451 17.7631C29.1499 18.0527 28.7175 18.2876 28.2595 18.4616C27.7951 18.6345 27.3678 18.8938 27 19.2259C27 16.7774 27.3736 15.8915 28.3742 15.3646C28.9829 15.0477 29.9721 15 30.3594 15H30.4934Z" fill="#02A738"/>
</g>
</g>
<defs>
<clipPath id="clip0_3015_1603">
<rect width="50" height="50" fill="white"/>
</clipPath>
<clipPath id="clip1_3015_1603">
<rect width="50" height="19.719" fill="white" transform="translate(0 15)"/>
</clipPath>
</defs>
</svg>