<svg width="50" height="50" viewBox="0 0 50 50" fill="none" xmlns="http://www.w3.org/2000/svg">
<g clip-path="url(#clip0_3015_1573)">
<path d="M30.7441 34.3568H29.9999L30.2812 35.0459L31.7459 38.6328L24.1804 34.42L24.0669 34.3568H23.9371H4.66081C2.36132 34.3568 0.500149 32.4957 0.500149 30.1962V14.6607H0.500165L0.500133 14.6567C0.48192 12.3801 2.34153 10.5 4.64036 10.5H45.3393C47.6388 10.5 49.5 12.3612 49.5 14.6607V30.1962C49.5 32.4957 47.6388 34.3568 45.3393 34.3568H30.7441Z" stroke="white"/>
<path d="M5.31101 15.2858C5.56392 14.9527 5.94328 14.7774 6.44909 14.7423C7.37039 14.6722 7.89427 15.093 8.02072 16.0047C8.58073 19.6693 9.19493 22.7728 9.84526 25.3153L13.8014 18.0036C14.1627 17.3373 14.6144 16.9866 15.1563 16.9516C15.9511 16.899 16.4389 17.3899 16.6376 18.4244C17.0892 20.7564 17.6673 22.7378 18.3538 24.421C18.8234 19.9674 19.6183 16.7587 20.7383 14.7774C21.0093 14.2864 21.4067 14.0409 21.9306 14.0059C22.3461 13.9708 22.7254 14.0935 23.0687 14.3565C23.4119 14.6196 23.5925 14.9527 23.6287 15.356C23.6467 15.6716 23.5925 15.9346 23.448 16.1976C22.7435 17.4601 22.1654 19.5817 21.6957 22.5274C21.2441 25.3854 21.0815 27.6122 21.1899 29.2078C21.226 29.6461 21.1538 30.0319 20.9731 30.365C20.7564 30.7508 20.4312 30.9612 20.0157 30.9962C19.546 31.0313 19.0583 30.8209 18.5886 30.3475C16.9086 28.6818 15.5718 26.192 14.5963 22.878C13.4221 25.1224 12.555 26.8056 11.995 27.9278C10.9291 29.9091 10.0259 30.9261 9.26719 30.9787C8.77944 31.0138 8.36395 30.6105 8.00266 29.7689C7.08136 27.4719 6.0878 23.0358 5.02198 16.4606C4.94972 16.0047 5.05811 15.6015 5.31101 15.2858ZM44.1321 18.0387C43.4818 16.934 42.5244 16.2677 41.2418 16.0047C40.8986 15.9346 40.5734 15.8995 40.2663 15.8995C38.5321 15.8995 37.123 16.7762 36.0211 18.5296C35.0817 20.02 34.612 21.6682 34.612 23.4742C34.612 24.8243 34.9011 25.9815 35.4791 26.9459C36.1295 28.0505 37.0869 28.7168 38.3695 28.9798C38.7127 29.05 39.0379 29.0851 39.345 29.0851C41.0973 29.0851 42.5063 28.2084 43.5902 26.455C44.5296 24.947 44.9992 23.2989 44.9992 21.4929C45.0173 20.1252 44.7102 18.9855 44.1321 18.0387ZM41.856 22.8956C41.6031 24.0528 41.1515 24.912 40.4831 25.4906C39.9592 25.9465 39.4714 26.1394 39.0198 26.0517C38.5863 25.964 38.225 25.5958 37.954 24.912C37.7372 24.3684 37.6288 23.8249 37.6288 23.3164C37.6288 22.878 37.665 22.4397 37.7553 22.0364C37.9179 21.3175 38.225 20.6162 38.7127 19.9499C39.3089 19.0907 39.9411 18.74 40.5915 18.8628C41.025 18.9504 41.3863 19.3187 41.6573 20.0025C41.874 20.546 41.9824 21.0896 41.9824 21.5981C41.9824 22.0539 41.9463 22.4923 41.856 22.8956ZM32.8236 18.0387C32.1733 16.934 31.1978 16.2677 29.9333 16.0047C29.59 15.9346 29.2649 15.8995 28.9578 15.8995C27.2235 15.8995 25.8145 16.7762 24.7125 18.5296C23.7732 20.02 23.3035 21.6682 23.3035 23.4742C23.3035 24.8243 23.5925 25.9815 24.1706 26.9459C24.8209 28.0505 25.7784 28.7168 27.061 28.9798C27.4042 29.05 27.7294 29.0851 28.0365 29.0851C29.7887 29.0851 31.1978 28.2084 32.2817 26.455C33.221 24.947 33.6907 23.2989 33.6907 21.4929C33.6907 20.1252 33.4017 18.9855 32.8236 18.0387ZM30.5294 22.8956C30.2765 24.0528 29.8249 24.912 29.1565 25.4906C28.6326 25.9465 28.1448 26.1394 27.6932 26.0517C27.2597 25.964 26.8984 25.5958 26.6274 24.912C26.4106 24.3684 26.3022 23.8249 26.3022 23.3164C26.3022 22.878 26.3384 22.4397 26.4287 22.0364C26.5913 21.3175 26.8984 20.6162 27.3861 19.9499C27.9823 19.0907 28.6145 18.74 29.2649 18.8628C29.6984 18.9504 30.0597 19.3187 30.3307 20.0025C30.5475 20.546 30.6558 21.0896 30.6558 21.5981C30.6739 22.0539 30.6197 22.4923 30.5294 22.8956Z" fill="#02A738"/>
</g>
<defs>
<clipPath id="clip0_3015_1573">
<rect width="50" height="29.8828" fill="white" transform="translate(0 10)"/>
</clipPath>
</defs>
</svg>