<svg width="50" height="50" viewBox="0 0 50 50" fill="none" xmlns="http://www.w3.org/2000/svg">
<g clip-path="url(#clip0_3015_1592)">
<g clip-path="url(#clip1_3015_1592)">
<mask id="path-1-inside-1_3015_1592" fill="white">
<path fill-rule="evenodd" clip-rule="evenodd" d="M0.000488281 24.999C0.000488281 11.2142 11.2152 0 25.001 0C38.7853 0 49.9995 11.2147 49.9989 24.999C49.9989 38.7848 38.7848 50 25.0005 50C11.2157 50 0.000488281 38.7848 0.000488281 24.999ZM4.46952 15.852C3.22212 18.6466 2.52335 21.741 2.52335 24.999C2.52335 33.896 7.69428 41.5846 15.1917 45.2286L4.46952 15.852ZM18.6513 46.5617C20.665 47.154 22.7945 47.4777 25.001 47.4777C27.6184 47.4777 30.1288 47.0251 32.4652 46.2032C32.4044 46.1071 32.3498 46.0053 32.3051 45.8936L25.3948 26.9654L18.6513 46.5617ZM30.6712 14.2467C30.6712 14.2467 29.4508 14.3895 28.098 14.4607L36.2209 38.6232L38.4627 31.131C38.5222 30.9407 38.5808 30.7536 38.6384 30.5697C39.5224 27.749 40.1735 25.6714 40.1735 23.8648C40.1735 21.0869 39.176 19.163 38.3203 17.6657C38.2323 17.5227 38.1447 17.3814 38.0581 17.2415C37.0224 15.5702 36.1133 14.1031 36.1133 12.3945C36.1133 10.3283 37.6803 8.40503 39.8872 8.40503C39.9505 8.40503 40.011 8.41014 40.0714 8.41523C40.1072 8.41826 40.143 8.42128 40.1792 8.42321C36.1809 4.75997 30.8536 2.52286 25.001 2.52286C17.1488 2.52286 10.2395 6.55185 6.22139 12.6548C6.7482 12.6709 7.2454 12.6818 7.66778 12.6818C10.0192 12.6818 13.658 12.3966 13.658 12.3966C14.8701 12.3239 15.013 14.1043 13.8024 14.2472C13.8024 14.2472 12.5847 14.3906 11.2297 14.4612L19.4134 38.8082L24.3324 24.056L20.8307 14.4607C19.6207 14.3895 18.4736 14.2467 18.4736 14.2467C17.2625 14.1755 17.4039 12.3239 18.6154 12.3951C18.6154 12.3951 22.328 12.6803 24.536 12.6803C26.8869 12.6803 30.5273 12.3951 30.5273 12.3951C31.7399 12.3239 31.8817 14.1033 30.6712 14.2467ZM43.166 24.5781L36.3004 44.4285C42.9821 40.532 47.4771 33.2918 47.4776 25C47.4787 21.0921 46.4796 17.4174 44.7236 14.2155C44.8213 14.9319 44.8753 15.7003 44.8753 16.5269C44.8753 18.8082 44.4498 21.3721 43.166 24.5781Z"/>
</mask>
<path fill-rule="evenodd" clip-rule="evenodd" d="M0.000488281 24.999C0.000488281 11.2142 11.2152 0 25.001 0C38.7853 0 49.9995 11.2147 49.9989 24.999C49.9989 38.7848 38.7848 50 25.0005 50C11.2157 50 0.000488281 38.7848 0.000488281 24.999ZM4.46952 15.852C3.22212 18.6466 2.52335 21.741 2.52335 24.999C2.52335 33.896 7.69428 41.5846 15.1917 45.2286L4.46952 15.852ZM18.6513 46.5617C20.665 47.154 22.7945 47.4777 25.001 47.4777C27.6184 47.4777 30.1288 47.0251 32.4652 46.2032C32.4044 46.1071 32.3498 46.0053 32.3051 45.8936L25.3948 26.9654L18.6513 46.5617ZM30.6712 14.2467C30.6712 14.2467 29.4508 14.3895 28.098 14.4607L36.2209 38.6232L38.4627 31.131C38.5222 30.9407 38.5808 30.7536 38.6384 30.5697C39.5224 27.749 40.1735 25.6714 40.1735 23.8648C40.1735 21.0869 39.176 19.163 38.3203 17.6657C38.2323 17.5227 38.1447 17.3814 38.0581 17.2415C37.0224 15.5702 36.1133 14.1031 36.1133 12.3945C36.1133 10.3283 37.6803 8.40503 39.8872 8.40503C39.9505 8.40503 40.011 8.41014 40.0714 8.41523C40.1072 8.41826 40.143 8.42128 40.1792 8.42321C36.1809 4.75997 30.8536 2.52286 25.001 2.52286C17.1488 2.52286 10.2395 6.55185 6.22139 12.6548C6.7482 12.6709 7.2454 12.6818 7.66778 12.6818C10.0192 12.6818 13.658 12.3966 13.658 12.3966C14.8701 12.3239 15.013 14.1043 13.8024 14.2472C13.8024 14.2472 12.5847 14.3906 11.2297 14.4612L19.4134 38.8082L24.3324 24.056L20.8307 14.4607C19.6207 14.3895 18.4736 14.2467 18.4736 14.2467C17.2625 14.1755 17.4039 12.3239 18.6154 12.3951C18.6154 12.3951 22.328 12.6803 24.536 12.6803C26.8869 12.6803 30.5273 12.3951 30.5273 12.3951C31.7399 12.3239 31.8817 14.1033 30.6712 14.2467ZM43.166 24.5781L36.3004 44.4285C42.9821 40.532 47.4771 33.2918 47.4776 25C47.4787 21.0921 46.4796 17.4174 44.7236 14.2155C44.8213 14.9319 44.8753 15.7003 44.8753 16.5269C44.8753 18.8082 44.4498 21.3721 43.166 24.5781Z" fill="white"/>
<path d="M49.9989 24.999L49.5989 24.9989V24.999H49.9989ZM4.46952 15.852L4.84528 15.7149L4.50673 14.7873L4.10426 15.689L4.46952 15.852ZM15.1917 45.2286L15.0168 45.5884L15.9067 46.0208L15.5674 45.0915L15.1917 45.2286ZM18.6513 46.5617L18.273 46.4316L18.1368 46.8274L18.5384 46.9455L18.6513 46.5617ZM32.4652 46.2032L32.5979 46.5806L33.0717 46.4139L32.8032 45.9894L32.4652 46.2032ZM32.3051 45.8936L31.9292 46.0308L31.9338 46.0422L32.3051 45.8936ZM25.3948 26.9654L25.7706 26.8282L25.3837 25.7685L25.0166 26.8352L25.3948 26.9654ZM28.098 14.4607L28.0769 14.0613L27.551 14.0889L27.7188 14.5882L28.098 14.4607ZM30.6712 14.2467L30.7177 14.644L30.7183 14.6439L30.6712 14.2467ZM36.2209 38.6232L35.8417 38.7507L36.2431 39.9445L36.6041 38.7379L36.2209 38.6232ZM38.4627 31.131L38.0809 31.0117L38.0795 31.0164L38.4627 31.131ZM38.6384 30.5697L38.2567 30.4501L38.2567 30.4501L38.6384 30.5697ZM38.3203 17.6657L38.6678 17.4672L38.661 17.4561L38.3203 17.6657ZM38.0581 17.2415L37.718 17.4522L37.718 17.4522L38.0581 17.2415ZM40.0714 8.41523L40.0377 8.81382L40.0377 8.81382L40.0714 8.41523ZM40.1792 8.42321L40.1578 8.82264L41.2724 8.88226L40.4494 8.12828L40.1792 8.42321ZM6.22139 12.6548L5.8873 12.4349L5.49366 13.0328L6.20917 13.0546L6.22139 12.6548ZM13.658 12.3966L13.634 11.9973L13.6268 11.9978L13.658 12.3966ZM13.8024 14.2472L13.8492 14.6445L13.8493 14.6444L13.8024 14.2472ZM11.2297 14.4612L11.2089 14.0618L10.6827 14.0892L10.8506 14.5887L11.2297 14.4612ZM19.4134 38.8082L19.0343 38.9356L19.4149 40.0682L19.7929 38.9347L19.4134 38.8082ZM24.3324 24.056L24.7118 24.1825L24.756 24.0501L24.7081 23.9189L24.3324 24.056ZM20.8307 14.4607L21.2065 14.3236L21.1164 14.0768L20.8542 14.0614L20.8307 14.4607ZM18.4736 14.2467L18.523 13.8497L18.5101 13.8481L18.497 13.8474L18.4736 14.2467ZM18.6154 12.3951L18.6461 11.9962L18.6389 11.9957L18.6154 12.3951ZM30.5273 12.3951L30.5039 11.9957L30.4961 11.9963L30.5273 12.3951ZM36.3004 44.4285L35.9223 44.2978L35.5696 45.3177L36.5019 44.7741L36.3004 44.4285ZM43.166 24.5781L42.7947 24.4294L42.7911 24.4383L42.788 24.4474L43.166 24.5781ZM47.4776 25L47.0776 24.9999L47.0776 25L47.4776 25ZM44.7236 14.2155L45.0743 14.0232L44.3272 14.2695L44.7236 14.2155ZM25.001 -0.4C10.9943 -0.4 -0.399512 10.9932 -0.399512 24.999H0.400488C0.400488 11.4351 11.4361 0.4 25.001 0.4V-0.4ZM50.3989 24.999C50.3995 10.9938 39.0062 -0.4 25.001 -0.4V0.4C38.5644 0.4 49.5994 11.4356 49.5989 24.9989L50.3989 24.999ZM25.0005 50.4C39.0057 50.4 50.3989 39.0057 50.3989 24.999H49.5989C49.5989 38.5639 38.5638 49.6 25.0005 49.6V50.4ZM-0.399512 24.999C-0.399512 39.0057 10.9948 50.4 25.0005 50.4V49.6C11.4366 49.6 0.400488 38.5639 0.400488 24.999H-0.399512ZM2.92335 24.999C2.92335 21.7987 3.60964 18.7598 4.83479 16.0151L4.10426 15.689C2.8346 18.5334 2.12335 21.6832 2.12335 24.999H2.92335ZM15.3665 44.8688C8.00149 41.2892 2.92335 33.737 2.92335 24.999H2.12335C2.12335 34.055 7.38706 41.88 15.0168 45.5884L15.3665 44.8688ZM4.09377 15.9892L14.8159 45.3657L15.5674 45.0915L4.84528 15.7149L4.09377 15.9892ZM25.001 47.0777C22.8339 47.0777 20.7423 46.7598 18.7641 46.178L18.5384 46.9455C20.5876 47.5482 22.7552 47.8777 25.001 47.8777V47.0777ZM32.3324 45.8259C30.0375 46.6332 27.572 47.0777 25.001 47.0777V47.8777C27.6649 47.8777 30.2201 47.4171 32.5979 46.5806L32.3324 45.8259ZM31.9338 46.0422C31.9891 46.1806 32.0558 46.3042 32.1271 46.417L32.8032 45.9894C32.753 45.91 32.7105 45.83 32.6765 45.745L31.9338 46.0422ZM25.0191 27.1026L31.9294 46.0308L32.6809 45.7564L25.7706 26.8282L25.0191 27.1026ZM19.0295 46.6919L25.773 27.0956L25.0166 26.8352L18.273 46.4316L19.0295 46.6919ZM28.119 14.8602C28.8026 14.8242 29.4517 14.7702 29.9294 14.7253C30.1684 14.7028 30.3649 14.6825 30.5019 14.6678C30.5705 14.6605 30.6241 14.6546 30.6608 14.6505C30.6791 14.6484 30.6932 14.6468 30.7028 14.6457C30.7076 14.6451 30.7112 14.6447 30.7137 14.6444C30.715 14.6443 30.7159 14.6442 30.7166 14.6441C30.7169 14.6441 30.7172 14.644 30.7174 14.644C30.7175 14.644 30.7176 14.644 30.7176 14.644C30.7176 14.644 30.7177 14.644 30.7177 14.644C30.7177 14.644 30.7177 14.644 30.6712 14.2467C30.6247 13.8494 30.6247 13.8494 30.6247 13.8494C30.6247 13.8494 30.6247 13.8494 30.6247 13.8494C30.6247 13.8494 30.6246 13.8494 30.6246 13.8494C30.6245 13.8494 30.6243 13.8494 30.624 13.8495C30.6235 13.8495 30.6227 13.8496 30.6216 13.8497C30.6194 13.85 30.616 13.8504 30.6116 13.8509C30.6026 13.8519 30.5892 13.8535 30.5715 13.8555C30.5361 13.8594 30.4839 13.8652 30.4168 13.8724C30.2827 13.8867 30.0896 13.9066 29.8544 13.9288C29.3837 13.9731 28.7462 14.0261 28.0769 14.0613L28.119 14.8602ZM36.6 38.4958L28.4771 14.3333L27.7188 14.5882L35.8417 38.7507L36.6 38.4958ZM38.0795 31.0164L35.8377 38.5086L36.6041 38.7379L38.8459 31.2457L38.0795 31.0164ZM38.2567 30.4501C38.1991 30.6339 38.1404 30.8212 38.0809 31.0117L38.8445 31.2504C38.9039 31.0602 38.9625 30.8732 39.0201 30.6893L38.2567 30.4501ZM39.7735 23.8648C39.7735 25.5961 39.1479 27.6065 38.2567 30.4501L39.0201 30.6893C39.8969 27.8915 40.5735 25.7466 40.5735 23.8648H39.7735ZM37.973 17.8642C38.8186 19.3438 39.7735 21.1931 39.7735 23.8648H40.5735C40.5735 20.9806 39.5334 18.9822 38.6676 17.4673L37.973 17.8642ZM37.718 17.4522C37.8048 17.5922 37.892 17.733 37.9796 17.8754L38.661 17.4561C38.5726 17.3125 38.4847 17.1706 38.3981 17.0308L37.718 17.4522ZM35.7133 12.3945C35.7133 14.2378 36.6971 15.8046 37.718 17.4522L38.3981 17.0308C37.3477 15.3358 36.5133 13.9684 36.5133 12.3945H35.7133ZM39.8872 8.00503C37.422 8.00503 35.7133 10.1467 35.7133 12.3945H36.5133C36.5133 10.51 37.9385 8.80503 39.8872 8.80503V8.00503ZM40.105 8.01665C40.047 8.01175 39.9699 8.00503 39.8872 8.00503V8.80503C39.931 8.80503 39.9751 8.80853 40.0377 8.81382L40.105 8.01665ZM40.2006 8.02378C40.1715 8.02223 40.1418 8.01976 40.105 8.01665L40.0377 8.81382C40.0726 8.81676 40.1145 8.82032 40.1578 8.82264L40.2006 8.02378ZM25.001 2.92286C30.7496 2.92286 35.9815 5.11978 39.909 8.71814L40.4494 8.12828C36.3803 4.40017 30.9575 2.12286 25.001 2.12286V2.92286ZM6.55549 12.8748C10.5028 6.87933 17.289 2.92286 25.001 2.92286V2.12286C17.0085 2.12286 9.97618 6.22437 5.8873 12.4349L6.55549 12.8748ZM7.66778 12.2818C7.25142 12.2818 6.75892 12.2711 6.23362 12.255L6.20917 13.0546C6.73749 13.0708 7.23938 13.0818 7.66778 13.0818V12.2818ZM13.658 12.3966C13.6268 11.9978 13.6268 11.9978 13.6267 11.9978C13.6267 11.9978 13.6267 11.9978 13.6266 11.9978C13.6265 11.9979 13.6264 11.9979 13.6262 11.9979C13.6258 11.9979 13.6251 11.998 13.6243 11.998C13.6226 11.9982 13.62 11.9984 13.6166 11.9986C13.6097 11.9992 13.5995 12 13.586 12.001C13.559 12.0031 13.519 12.0061 13.4672 12.01C13.3636 12.0177 13.2128 12.0288 13.0245 12.0422C12.6477 12.0688 12.121 12.1044 11.521 12.1399C10.3189 12.2111 8.83109 12.2818 7.66778 12.2818V13.0818C8.85588 13.0818 10.3632 13.0099 11.5683 12.9385C12.172 12.9028 12.7019 12.867 13.0809 12.8402C13.2705 12.8268 13.4224 12.8156 13.527 12.8078C13.5792 12.8038 13.6197 12.8008 13.6472 12.7986C13.6609 12.7976 13.6714 12.7968 13.6784 12.7962C13.682 12.796 13.6847 12.7958 13.6865 12.7956C13.6874 12.7955 13.6881 12.7955 13.6885 12.7954C13.6888 12.7954 13.6889 12.7954 13.6891 12.7954C13.6891 12.7954 13.6892 12.7954 13.6892 12.7954C13.6892 12.7954 13.6893 12.7954 13.658 12.3966ZM13.8493 14.6444C14.2564 14.5964 14.5758 14.4042 14.7823 14.1259C14.9838 13.8542 15.0622 13.5222 15.0375 13.2095C15.0127 12.8969 14.8831 12.5815 14.6397 12.347C14.39 12.1063 14.0427 11.9728 13.6341 11.9973L13.682 12.7959C13.8794 12.784 14.0045 12.8458 14.0846 12.923C14.1711 13.0063 14.2288 13.1313 14.2399 13.2726C14.2511 13.4138 14.214 13.5491 14.1398 13.6492C14.0705 13.7426 13.9538 13.8266 13.7556 13.85L13.8493 14.6444ZM11.2505 14.8607C11.9353 14.825 12.5844 14.771 13.0617 14.726C13.3006 14.7034 13.4969 14.6831 13.6337 14.6684C13.7022 14.6611 13.7557 14.6551 13.7924 14.651C13.8107 14.6489 13.8247 14.6473 13.8343 14.6462C13.8391 14.6456 13.8427 14.6452 13.8452 14.6449C13.8465 14.6448 13.8474 14.6447 13.8481 14.6446C13.8484 14.6445 13.8487 14.6445 13.8489 14.6445C13.849 14.6445 13.8491 14.6445 13.8491 14.6445C13.8491 14.6445 13.8492 14.6445 13.8492 14.6445C13.8492 14.6445 13.8492 14.6445 13.8024 14.2472C13.7557 13.8499 13.7557 13.8499 13.7557 13.8499C13.7557 13.8499 13.7557 13.8499 13.7557 13.8499C13.7556 13.8499 13.7556 13.8499 13.7556 13.85C13.7554 13.85 13.7553 13.85 13.755 13.85C13.7545 13.8501 13.7537 13.8502 13.7526 13.8503C13.7504 13.8506 13.747 13.8509 13.7426 13.8515C13.7336 13.8525 13.7202 13.854 13.7026 13.856C13.6673 13.86 13.6152 13.8658 13.5482 13.873C13.4144 13.8874 13.2216 13.9073 12.9866 13.9295C12.5164 13.9738 11.8791 14.0268 11.2089 14.0618L11.2505 14.8607ZM19.7926 38.6807L11.6089 14.3338L10.8506 14.5887L19.0343 38.9356L19.7926 38.6807ZM23.9529 23.9295L19.034 38.6817L19.7929 38.9347L24.7118 24.1825L23.9529 23.9295ZM20.4549 14.5979L23.9566 24.1931L24.7081 23.9189L21.2065 14.3236L20.4549 14.5979ZM18.4736 14.2467C18.4241 14.6436 18.4242 14.6436 18.4242 14.6436C18.4242 14.6436 18.4242 14.6436 18.4242 14.6436C18.4243 14.6436 18.4244 14.6436 18.4245 14.6436C18.4246 14.6437 18.4249 14.6437 18.4252 14.6437C18.4258 14.6438 18.4267 14.6439 18.4279 14.6441C18.4303 14.6444 18.4337 14.6448 18.4382 14.6453C18.4472 14.6464 18.4604 14.648 18.4776 14.6501C18.512 14.6542 18.5622 14.6602 18.6261 14.6675C18.754 14.6822 18.9369 14.7024 19.1579 14.725C19.5993 14.7699 20.1946 14.824 20.8072 14.86L20.8542 14.0614C20.2568 14.0263 19.6736 13.9733 19.2389 13.9291C19.0218 13.907 18.8423 13.8871 18.7173 13.8727C18.6548 13.8655 18.606 13.8598 18.5729 13.8558C18.5563 13.8538 18.5437 13.8523 18.5353 13.8513C18.5311 13.8507 18.528 13.8504 18.5259 13.8501C18.5249 13.85 18.5241 13.8499 18.5236 13.8498C18.5234 13.8498 18.5232 13.8498 18.5231 13.8498C18.5231 13.8497 18.523 13.8497 18.523 13.8497C18.523 13.8497 18.523 13.8497 18.523 13.8497C18.523 13.8497 18.523 13.8497 18.4736 14.2467ZM18.6389 11.9957C18.225 11.9714 17.8766 12.1139 17.629 12.3615C17.3885 12.602 17.2612 12.9226 17.2372 13.237C17.2132 13.5511 17.2902 13.8874 17.4955 14.1587C17.7075 14.4389 18.036 14.6216 18.4501 14.646L18.497 13.8474C18.3056 13.8361 18.1976 13.7608 18.1334 13.6759C18.0625 13.5822 18.0235 13.4467 18.0349 13.298C18.0462 13.1495 18.1058 13.016 18.1947 12.9272C18.2764 12.8454 18.4 12.7831 18.592 12.7944L18.6389 11.9957ZM24.536 12.2803C23.4447 12.2803 21.9746 12.2096 20.7714 12.1384C20.171 12.1028 19.6394 12.0673 19.2579 12.0406C19.0672 12.0273 18.914 12.0162 18.8086 12.0084C18.756 12.0045 18.7152 12.0015 18.6877 11.9994C18.6739 11.9984 18.6635 11.9976 18.6565 11.997C18.653 11.9968 18.6504 11.9966 18.6486 11.9964C18.6477 11.9964 18.6471 11.9963 18.6467 11.9963C18.6464 11.9963 18.6463 11.9962 18.6462 11.9962C18.6461 11.9962 18.6461 11.9962 18.6461 11.9962C18.6461 11.9962 18.6461 11.9962 18.6154 12.3951C18.5848 12.7939 18.5848 12.7939 18.5848 12.7939C18.5849 12.7939 18.5849 12.7939 18.585 12.7939C18.5851 12.7939 18.5853 12.7939 18.5855 12.7939C18.586 12.794 18.5867 12.794 18.5876 12.7941C18.5895 12.7942 18.5922 12.7944 18.5958 12.7947C18.603 12.7953 18.6136 12.7961 18.6276 12.7971C18.6555 12.7992 18.6967 12.8023 18.7499 12.8062C18.8561 12.8141 19.0103 12.8252 19.2021 12.8386C19.5857 12.8655 20.1203 12.9012 20.7241 12.937C21.9291 13.0083 23.4193 13.0803 24.536 13.0803V12.2803ZM30.5273 12.3951C30.4961 11.9963 30.496 11.9963 30.496 11.9963C30.496 11.9963 30.496 11.9963 30.4959 11.9963C30.4958 11.9963 30.4957 11.9963 30.4955 11.9963C30.4951 11.9964 30.4944 11.9964 30.4936 11.9965C30.4919 11.9966 30.4893 11.9968 30.4859 11.9971C30.479 11.9976 30.4688 11.9984 30.4553 11.9994C30.4282 12.0015 30.3882 12.0045 30.3364 12.0084C30.2328 12.0162 30.0819 12.0273 29.8935 12.0406C29.5167 12.0673 28.9897 12.1028 28.3896 12.1384C27.1871 12.2096 25.6991 12.2803 24.536 12.2803V13.0803C25.7239 13.0803 27.2314 13.0084 28.4369 12.937C29.0407 12.9012 29.5708 12.8654 29.95 12.8386C30.1396 12.8252 30.2915 12.814 30.3962 12.8062C30.4485 12.8023 30.489 12.7992 30.5164 12.7971C30.5302 12.796 30.5406 12.7952 30.5477 12.7947C30.5512 12.7944 30.5539 12.7942 30.5557 12.7941C30.5566 12.794 30.5573 12.7939 30.5578 12.7939C30.558 12.7939 30.5582 12.7939 30.5583 12.7938C30.5584 12.7938 30.5585 12.7938 30.5585 12.7938C30.5585 12.7938 30.5585 12.7938 30.5273 12.3951ZM30.7183 14.6439C31.1252 14.5957 31.4445 14.4035 31.6511 14.1253C31.8527 13.8537 31.9313 13.5217 31.9067 13.209C31.8821 12.8964 31.7526 12.5809 31.5093 12.3463C31.2597 12.1056 30.9125 11.9718 30.5039 11.9957L30.5507 12.7944C30.7484 12.7828 30.8737 12.8447 30.9539 12.9221C31.0404 13.0055 31.098 13.1305 31.1092 13.2718C31.1203 13.413 31.0831 13.5483 31.0088 13.6484C30.9393 13.7419 30.8225 13.826 30.6242 13.8495L30.7183 14.6439ZM36.6784 44.5593L43.544 24.7089L42.788 24.4474L35.9223 44.2978L36.6784 44.5593ZM47.0776 25C47.0771 33.1435 42.663 40.2551 36.0989 44.083L36.5019 44.7741C43.3012 40.8089 47.8771 33.4401 47.8776 25L47.0776 25ZM44.3729 14.4078C46.0974 17.5523 47.0787 21.161 47.0776 24.9999L47.8776 25.0001C47.8787 21.0231 46.8618 17.2824 45.0743 14.0232L44.3729 14.4078ZM45.2753 16.5269C45.2753 15.6828 45.2201 14.8964 45.1199 14.1615L44.3272 14.2695C44.4224 14.9675 44.4753 15.7178 44.4753 16.5269H45.2753ZM43.5374 24.7268C44.8384 21.4776 45.2753 18.8634 45.2753 16.5269H44.4753C44.4753 18.753 44.0612 21.2666 42.7947 24.4294L43.5374 24.7268Z" fill="#1B3059" mask="url(#path-1-inside-1_3015_1592)"/>
</g>
</g>
<defs>
<clipPath id="clip0_3015_1592">
<rect width="50" height="50" fill="white"/>
</clipPath>
<clipPath id="clip1_3015_1592">
<rect width="50" height="50" fill="white"/>
</clipPath>
</defs>
</svg>