<svg width="64" height="64" viewBox="0 0 64 64" fill="none" xmlns="http://www.w3.org/2000/svg">
<path d="M62.1518 29.2814L52.0373 13.4269C51.6866 12.8795 51.1333 12.4933 50.4986 12.353C49.8638 12.2127 49.1993 12.3297 48.6506 12.6783L43.6852 15.8457C43.2254 16.1402 42.8769 16.5796 42.6949 17.0943C42.5128 17.6091 42.5076 18.1698 42.6799 18.6879C42.4587 18.6908 42.2295 18.686 41.9924 18.6734C40.8942 18.6134 40.2109 18.2787 39.4877 17.9245C37.6502 17.0245 36.1114 16.5896 32.1981 18.706C30.7442 16.8185 28.3401 17.4144 26.1924 17.9479C24.5399 18.3581 22.8401 18.7801 21.2767 18.39C21.4875 17.8597 21.5072 17.2726 21.3324 16.7293C21.1576 16.1861 20.7992 15.7206 20.3187 15.4128L15.3531 12.245C14.8044 11.896 14.1398 11.7788 13.5049 11.9192C12.87 12.0595 12.3167 12.446 11.9663 12.9937L1.85181 28.8484C1.50328 29.3971 1.38637 30.0616 1.52668 30.6963C1.66699 31.331 2.05309 31.8843 2.60043 32.235L7.56593 35.4026C8.11443 35.752 8.77916 35.8694 9.41413 35.729C10.0491 35.5886 10.6024 35.202 10.9526 34.654L11.5998 33.6395C11.6467 33.6859 11.6936 33.7301 11.7403 33.7721C10.6974 34.9355 9.74581 36.271 9.89681 38.0244C10.0044 39.2744 10.4566 40.2 11.2406 40.7752C11.9429 41.2905 12.8833 41.4922 14.0443 41.3776C14.2029 42.393 14.6004 43.2052 15.2318 43.8001C15.9623 44.489 16.9838 44.8619 18.2754 44.9126C18.5204 45.7994 18.9771 46.4779 19.6387 46.9355C20.5089 47.5378 21.6572 47.7207 23.1328 47.4891C23.7738 49.056 25.0453 49.8742 26.8563 49.8742C26.9207 49.8742 26.9859 49.8732 27.0517 49.8711C28.0261 49.8404 28.9947 49.1185 29.7156 48.4106C31.7547 49.8148 33.5253 50.522 35.0018 50.522C35.4454 50.5254 35.8864 50.4546 36.3066 50.3124C37.4016 49.9349 38.2304 49.0847 38.7786 47.78C40.0272 48.1775 41.1172 48.1506 42.0286 47.6981C43.0153 47.2079 43.7462 46.2369 44.2073 44.8069C45.4073 44.9304 46.3898 44.708 47.1359 44.1425C47.8434 43.6065 48.3089 42.7851 48.5257 41.6937C50.2202 41.8772 51.6478 41.4519 52.7784 40.4245C52.831 40.3768 52.8776 40.3229 52.9171 40.2639C53.7467 39.0254 54.0451 37.818 53.8046 36.6753C53.7044 36.2154 53.5241 35.7768 53.2718 35.3795C53.6577 35.8218 54.1895 36.1111 54.7705 36.1948C55.3516 36.2785 55.9434 36.1511 56.4384 35.8356L61.4039 32.668C61.9513 32.3173 62.3375 31.764 62.4778 31.1293C62.6181 30.4945 62.5012 29.83 62.1526 29.2812L62.1518 29.2814ZM38.7181 19.496C39.4869 19.8726 40.4439 20.3414 41.8971 20.421C42.4874 20.4562 43.0796 20.4419 43.6676 20.3781L51.7541 33.0542C51.6297 33.2178 51.4678 33.349 51.2819 33.4367C51.2078 33.3867 51.1334 33.3375 51.0562 33.2886C50.3607 32.8557 49.3143 32.1103 48.1028 31.2471C41.7421 26.7156 37.0854 23.6383 35.0878 25.3236C30.2889 29.3719 27.3652 30.3361 26.3201 29.9324C26.1526 29.8675 25.9741 29.7472 25.9201 29.3456C25.7201 27.8406 27.5896 24.1408 32.3722 20.6129C36.3352 18.3289 37.3352 18.8188 38.7177 19.496H38.7181ZM9.47768 33.7125C9.37731 33.8694 9.21878 33.9801 9.03689 34.0203C8.85499 34.0605 8.66458 34.0269 8.50743 33.9269L3.54206 30.7594C3.3851 30.659 3.27437 30.5005 3.23416 30.3186C3.19395 30.1367 3.22753 29.9463 3.32756 29.7891L13.4417 13.9345C13.542 13.7775 13.7006 13.6668 13.8824 13.6266C14.0643 13.5864 14.2548 13.62 14.4119 13.72L19.3768 16.8875C19.5329 16.9885 19.643 17.147 19.6831 17.3285C19.7233 17.5101 19.6903 17.7002 19.5913 17.8576L9.47768 33.7125ZM12.2761 39.3639C11.9168 39.1004 11.7031 38.599 11.6407 37.8739C11.5261 36.542 12.5611 35.4421 13.6568 34.2776C13.8739 34.0469 14.0984 33.8083 14.3096 33.571C14.5161 33.3327 14.7846 33.1561 15.0852 33.0608C15.3859 32.9656 15.7071 32.9553 16.0132 33.0312C16.3652 33.1181 16.6899 33.2917 16.9577 33.5363C17.2254 33.7808 17.4277 34.0885 17.5461 34.4313C17.2474 35.3499 16.4563 37.0759 14.3694 39.565C13.4164 39.7397 12.6958 39.6722 12.2761 39.3643V39.3639ZM15.7281 40.6678C18.0789 37.8577 18.9417 35.8552 19.2557 34.8274C20.0999 33.9479 21.5573 33.5649 22.5978 33.9751C23.3316 34.2645 23.7042 34.9021 23.7088 35.8708L18.5314 43.1688C17.5821 43.1615 16.8773 42.9466 16.4322 42.5269C16.0154 42.134 15.7801 41.5086 15.7281 40.6681V40.6678ZM20.6343 45.4961C20.2746 45.2474 20.0383 44.8348 19.9142 44.2436L25.0863 36.9534C26.2619 36.7595 27.1811 36.9435 27.6349 37.4748C28.1206 38.0429 28.1384 39.0658 27.6909 40.293C26.4017 41.8576 25.3821 43.0957 24.6321 44.0074C23.9821 44.7975 23.4918 45.3926 23.2466 45.6895C22.0666 45.9304 21.1668 45.8649 20.6343 45.4965V45.4961ZM26.9968 48.1211C25.7747 48.161 25.0679 47.7232 24.6979 46.6797C24.9277 46.4014 25.3182 45.9271 25.9834 45.1189C26.682 44.2701 27.6143 43.138 28.7802 41.7226C29.8622 42.0464 30.4877 42.5075 30.6411 43.0976C30.7678 43.5851 30.3633 44.8247 29.3637 46.1601C28.4242 47.416 27.4431 48.1081 26.9966 48.1221L26.9968 48.1211ZM51.5229 39.1975C50.6632 39.9327 49.5468 40.1485 48.1203 39.8586L38.5806 33.4125C38.4854 33.3474 38.3783 33.3018 38.2654 33.2783C38.1525 33.2547 38.0361 33.2537 37.9228 33.2753C37.8096 33.2969 37.7017 33.3407 37.6054 33.4042C37.5091 33.4676 37.4263 33.5494 37.3617 33.645C37.2972 33.7405 37.2522 33.8479 37.2292 33.9609C37.2063 34.0739 37.2059 34.1903 37.2281 34.3034C37.2504 34.4166 37.2947 34.5242 37.3587 34.6202C37.4226 34.7161 37.5049 34.7985 37.6008 34.8625L46.8497 41.1133C46.7359 41.896 46.4777 42.4454 46.0784 42.7479C45.6159 43.0979 44.8821 43.178 43.9019 42.992L36.5471 38.193L35.5908 39.6586L42.5612 44.2066C42.2528 45.2038 41.8132 45.8509 41.2487 46.131C40.6337 46.4364 39.7699 46.3492 38.6814 45.8737L34.3408 42.7881C34.1516 42.6553 33.9176 42.6028 33.6898 42.642C33.462 42.6812 33.259 42.809 33.125 42.9973C32.9911 43.1857 32.9372 43.4194 32.975 43.6475C33.0128 43.8755 33.1393 44.0793 33.3268 44.2144L37.2143 46.9775C36.8623 47.8755 36.3668 48.44 35.7359 48.6582C34.6331 49.0386 32.9561 48.4896 30.8632 47.0749C31.4231 46.2999 32.7468 44.2443 32.3342 42.6575C32.0358 41.5107 31.1076 40.6666 29.5702 40.1406C29.9656 38.5965 29.7598 37.2682 28.9651 36.3382C28.1887 35.4296 26.9453 35.0209 25.4041 35.1507C25.2013 33.8189 24.4444 32.8229 23.2394 32.3478C21.8237 31.7896 20.0712 32.068 18.7511 32.9728C18.2078 32.1438 17.3675 31.5546 16.4031 31.3264C15.7913 31.1805 15.1514 31.2041 14.5521 31.3947C13.9529 31.5853 13.4169 31.9357 13.0018 32.4081C12.9786 32.4343 12.9536 32.4609 12.9299 32.487C12.8016 32.3717 12.6828 32.2463 12.5746 32.112L20.3407 19.9375C22.4812 20.6716 24.6648 20.1297 26.6139 19.6456C28.8853 19.0816 30.0174 18.9032 30.7216 19.6696C26.4993 22.9637 23.8372 26.964 24.1854 29.5761C24.3131 30.5326 24.8469 31.2386 25.6889 31.5636C27.8046 32.3813 31.4444 30.6854 36.2158 26.6601C36.2218 26.6551 36.8598 26.1726 40.2387 28.1047C42.4616 29.3761 45.0262 31.2033 47.0869 32.6714C48.3223 33.5515 49.3893 34.3116 50.1252 34.7696C51.2647 35.4915 51.9262 36.254 52.0911 37.0359C52.2279 37.6851 52.0421 38.3933 51.5227 39.1985L51.5229 39.1975ZM52.6759 34.6048C52.6908 34.5925 52.7055 34.58 52.7202 34.5672L52.9359 34.9055C52.8544 34.8054 52.7673 34.7051 52.6757 34.6058L52.6759 34.6048ZM60.7682 30.7507C60.7488 30.8409 60.7118 30.9263 60.6592 31.002C60.6066 31.0777 60.5395 31.1422 60.4618 31.1917L55.4964 34.3594C55.3393 34.4594 55.1488 34.493 54.967 34.4528C54.7851 34.4126 54.6265 34.3018 54.5262 34.1449L44.4118 18.2914C44.3119 18.1341 44.2784 17.9437 44.3187 17.7618C44.359 17.5799 44.4698 17.4214 44.6268 17.3211L49.5921 14.1536C49.7495 14.0546 49.9396 14.0216 50.1212 14.0617C50.3028 14.1018 50.4613 14.2119 50.5623 14.368L60.6764 30.2226C60.7259 30.3004 60.7595 30.3872 60.7752 30.478C60.7909 30.5688 60.7884 30.6619 60.7679 30.7518L60.7682 30.7507ZM18.4297 4.63825C18.3155 4.43739 18.2854 4.19951 18.3459 3.97652C18.4064 3.75353 18.5527 3.56354 18.7528 3.44801C18.9529 3.33248 19.1906 3.30078 19.414 3.35984C19.6374 3.4189 19.8283 3.56392 19.9452 3.76325L23.8702 10.562C23.9285 10.6615 23.9666 10.7717 23.9823 10.886C23.9979 11.0003 23.9908 11.1166 23.9613 11.2282C23.9318 11.3397 23.8805 11.4444 23.8104 11.536C23.7403 11.6277 23.6528 11.7046 23.5528 11.7623C23.4529 11.82 23.3426 11.8574 23.2281 11.8722C23.1137 11.8871 22.9974 11.8792 22.8861 11.849C22.7747 11.8187 22.6704 11.7668 22.5792 11.6961C22.488 11.6254 22.4117 11.5373 22.3547 11.437L18.4297 4.63825ZM32.8162 9.85075V2C32.8162 1.76794 32.9084 1.54538 33.0725 1.38128C33.2366 1.21719 33.4591 1.125 33.6912 1.125C33.9232 1.125 34.1458 1.21719 34.3099 1.38128C34.474 1.54538 34.5662 1.76794 34.5662 2V9.85063C34.5662 10.0827 34.474 10.3052 34.3099 10.4693C34.1458 10.6334 33.9232 10.7256 33.6912 10.7256C33.4591 10.7256 33.2366 10.6334 33.0725 10.4693C32.9084 10.3052 32.8162 10.0828 32.8162 9.85075ZM43.3546 9.70212L47.2796 2.90337C47.3366 2.80306 47.4129 2.71502 47.5041 2.64432C47.5953 2.57361 47.6996 2.52165 47.811 2.49142C47.9223 2.46118 48.0386 2.45327 48.153 2.46815C48.2674 2.48302 48.3778 2.52038 48.4777 2.57808C48.5777 2.63578 48.6652 2.71268 48.7353 2.80434C48.8054 2.89601 48.8567 3.00064 48.8861 3.1122C48.9156 3.22376 48.9228 3.34005 48.9071 3.45438C48.8915 3.56872 48.8534 3.67883 48.7951 3.77837L44.8701 10.5771C44.7532 10.7765 44.5622 10.9215 44.3389 10.9805C44.1155 11.0396 43.8778 11.0079 43.6777 10.8924C43.4776 10.7768 43.3313 10.5868 43.2708 10.3639C43.2102 10.1409 43.2404 9.90299 43.3546 9.70212ZM48.7954 59.3619C48.8538 59.4614 48.8919 59.5715 48.9075 59.6859C48.9232 59.8002 48.916 59.9165 48.8865 60.0281C48.857 60.1396 48.8058 60.2442 48.7357 60.3359C48.6656 60.4276 48.578 60.5045 48.4781 60.5622C48.3782 60.6199 48.2678 60.6572 48.1534 60.6721C48.0389 60.687 47.9227 60.6791 47.8113 60.6488C47.7 60.6186 47.5957 60.5666 47.5045 60.4959C47.4133 60.4252 47.337 60.3372 47.2799 60.2369L43.3549 53.4381C43.2966 53.3386 43.2585 53.2285 43.2428 53.1141C43.2272 52.9998 43.2344 52.8835 43.2638 52.7719C43.2933 52.6604 43.3446 52.5558 43.4147 52.4641C43.4848 52.3724 43.5723 52.2955 43.6723 52.2378C43.7722 52.1801 43.8826 52.1428 43.997 52.1279C44.1114 52.113 44.2277 52.1209 44.339 52.1512C44.4504 52.1814 44.5547 52.2334 44.6459 52.3041C44.7371 52.3748 44.8134 52.4628 44.8704 52.5631L48.7954 59.3619ZM34.4088 54.15V62C34.4088 62.2321 34.3166 62.4546 34.1525 62.6187C33.9884 62.7828 33.7659 62.875 33.5338 62.875C33.3017 62.875 33.0792 62.7828 32.9151 62.6187C32.751 62.4546 32.6588 62.2321 32.6588 62V54.15C32.6588 53.9179 32.751 53.6954 32.9151 53.5313C33.0792 53.3672 33.3017 53.275 33.5338 53.275C33.7659 53.275 33.9884 53.3672 34.1525 53.5313C34.3166 53.6954 34.4088 53.9179 34.4088 54.15ZM23.8704 54.2986L19.9454 61.0974C19.8286 61.2967 19.6376 61.4417 19.4142 61.5008C19.1909 61.5598 18.9532 61.5281 18.7531 61.4126C18.553 61.2971 18.4067 61.1071 18.3462 60.8841C18.2856 60.6611 18.3157 60.4232 18.4299 60.2224L22.3549 53.4236C22.4718 53.2243 22.6627 53.0793 22.8861 53.0202C23.1095 52.9612 23.3472 52.9929 23.5473 53.1084C23.7474 53.2239 23.8937 53.4139 23.9542 53.6369C24.0148 53.8599 23.9846 54.0978 23.8704 54.2986Z" fill="black"/>
</svg>
